G04 #@! TF.GenerationSoftware,KiCad,Pcbnew,9.0.8*
G04 #@! TF.CreationDate,2026-04-03T11:36:12-04:00*
G04 #@! TF.ProjectId,panel_rp2354_20x20,70616e65-6c5f-4727-9032-3335345f3230,v0.2.0*
G04 #@! TF.SameCoordinates,Original*
G04 #@! TF.FileFunction,Copper,L1,Top*
G04 #@! TF.FilePolarity,Positive*
%FSLAX46Y46*%
G04 Gerber Fmt 4.6, Leading zero omitted, Abs format (unit mm)*
G04 Created by KiCad (PCBNEW 9.0.8) date 2026-04-03 11:36:12*
%MOMM*%
%LPD*%
G01*
G04 APERTURE LIST*
G04 Aperture macros list*
%AMRoundRect*
0 Rectangle with rounded corners*
0 $1 Rounding radius*
0 $2 $3 $4 $5 $6 $7 $8 $9 X,Y pos of 4 corners*
0 Add a 4 corners polygon primitive as box body*
4,1,4,$2,$3,$4,$5,$6,$7,$8,$9,$2,$3,0*
0 Add four circle primitives for the rounded corners*
1,1,$1+$1,$2,$3*
1,1,$1+$1,$4,$5*
1,1,$1+$1,$6,$7*
1,1,$1+$1,$8,$9*
0 Add four rect primitives between the rounded corners*
20,1,$1+$1,$2,$3,$4,$5,0*
20,1,$1+$1,$4,$5,$6,$7,0*
20,1,$1+$1,$6,$7,$8,$9,0*
20,1,$1+$1,$8,$9,$2,$3,0*%
G04 Aperture macros list end*
G04 #@! TA.AperFunction,SMDPad,CuDef*
%ADD10RoundRect,0.147500X-0.017678X0.226274X-0.226274X0.017678X0.017678X-0.226274X0.226274X-0.017678X0*%
G04 #@! TD*
G04 #@! TA.AperFunction,ViaPad*
%ADD11C,0.350000*%
G04 #@! TD*
G04 #@! TA.AperFunction,Conductor*
%ADD12C,0.127000*%
G04 #@! TD*
G04 APERTURE END LIST*
D10*
X85217947Y-73282053D03*
X84532053Y-73967947D03*
X55967947Y-62032053D03*
X55282053Y-62717947D03*
X60467947Y-53032053D03*
X59782053Y-53717947D03*
X71717947Y-89032053D03*
X71032053Y-89717947D03*
X85217947Y-71032053D03*
X84532053Y-71717947D03*
X76217947Y-80032053D03*
X75532053Y-80717947D03*
X73967947Y-68782053D03*
X73282053Y-69467947D03*
X55967947Y-50782053D03*
X55282053Y-51467947D03*
X94217947Y-75532053D03*
X93532053Y-76217947D03*
X67217947Y-89032053D03*
X66532053Y-89717947D03*
X91967947Y-50782053D03*
X91282053Y-51467947D03*
X87467947Y-55282053D03*
X86782053Y-55967947D03*
X67217947Y-86782053D03*
X66532053Y-87467947D03*
X73967947Y-82282053D03*
X73282053Y-82967947D03*
X87467947Y-57532053D03*
X86782053Y-58217947D03*
X91967947Y-73282053D03*
X91282053Y-73967947D03*
X64967947Y-89032053D03*
X64282053Y-89717947D03*
X91967947Y-82282053D03*
X91282053Y-82967947D03*
X60467947Y-57532053D03*
X59782053Y-58217947D03*
X71717947Y-50782053D03*
X71032053Y-51467947D03*
X71717947Y-71032053D03*
X71032053Y-71717947D03*
X53717947Y-82282053D03*
X53032053Y-82967947D03*
X82967947Y-82282053D03*
X82282053Y-82967947D03*
X82967947Y-75532053D03*
X82282053Y-76217947D03*
X69467947Y-57532053D03*
X68782053Y-58217947D03*
X69467947Y-62032053D03*
X68782053Y-62717947D03*
X69467947Y-84532053D03*
X68782053Y-85217947D03*
X80717947Y-80032053D03*
X80032053Y-80717947D03*
X76217947Y-82282053D03*
X75532053Y-82967947D03*
X82967947Y-77782053D03*
X82282053Y-78467947D03*
X87467947Y-75532053D03*
X86782053Y-76217947D03*
X76217947Y-73282053D03*
X75532053Y-73967947D03*
X62717947Y-91282053D03*
X62032053Y-91967947D03*
X64967947Y-80032053D03*
X64282053Y-80717947D03*
X64967947Y-82282053D03*
X64282053Y-82967947D03*
X55967947Y-53032053D03*
X55282053Y-53717947D03*
X78467947Y-68782053D03*
X77782053Y-69467947D03*
X87467947Y-50782053D03*
X86782053Y-51467947D03*
X51467947Y-73282053D03*
X50782053Y-73967947D03*
X58217947Y-64282053D03*
X57532053Y-64967947D03*
X94217947Y-64282053D03*
X93532053Y-64967947D03*
X64967947Y-84532053D03*
X64282053Y-85217947D03*
X58217947Y-82282053D03*
X57532053Y-82967947D03*
X91967947Y-59782053D03*
X91282053Y-60467947D03*
X67217947Y-75532053D03*
X66532053Y-76217947D03*
X71717947Y-55282053D03*
X71032053Y-55967947D03*
X76217947Y-71032053D03*
X75532053Y-71717947D03*
X76217947Y-75532053D03*
X75532053Y-76217947D03*
X94217947Y-93532053D03*
X93532053Y-94217947D03*
X60467947Y-84532053D03*
X59782053Y-85217947D03*
X85217947Y-89032053D03*
X84532053Y-89717947D03*
X60467947Y-68782053D03*
X59782053Y-69467947D03*
X64967947Y-53032053D03*
X64282053Y-53717947D03*
X71717947Y-68782053D03*
X71032053Y-69467947D03*
X53717947Y-50782053D03*
X53032053Y-51467947D03*
X55967947Y-57532053D03*
X55282053Y-58217947D03*
X58217947Y-59782053D03*
X57532053Y-60467947D03*
X71717947Y-84532053D03*
X71032053Y-85217947D03*
X87467947Y-86782053D03*
X86782053Y-87467947D03*
X64967947Y-55282053D03*
X64282053Y-55967947D03*
X91967947Y-84532053D03*
X91282053Y-85217947D03*
X91967947Y-75532053D03*
X91282053Y-76217947D03*
X62717947Y-93532053D03*
X62032053Y-94217947D03*
X76217947Y-53032053D03*
X75532053Y-53717947D03*
X53717947Y-53032053D03*
X53032053Y-53717947D03*
X94217947Y-53032053D03*
X93532053Y-53717947D03*
X91967947Y-64282053D03*
X91282053Y-64967947D03*
X82967947Y-57532053D03*
X82282053Y-58217947D03*
X71717947Y-86782053D03*
X71032053Y-87467947D03*
X53717947Y-71032053D03*
X53032053Y-71717947D03*
X58217947Y-53032053D03*
X57532053Y-53717947D03*
X89717947Y-53032053D03*
X89032053Y-53717947D03*
X62717947Y-68782053D03*
X62032053Y-69467947D03*
X53717947Y-57532053D03*
X53032053Y-58217947D03*
X71717947Y-80032053D03*
X71032053Y-80717947D03*
X71717947Y-93532053D03*
X71032053Y-94217947D03*
X91967947Y-57532053D03*
X91282053Y-58217947D03*
X94217947Y-68782053D03*
X93532053Y-69467947D03*
X89717947Y-89032053D03*
X89032053Y-89717947D03*
X69467947Y-59782053D03*
X68782053Y-60467947D03*
X76217947Y-57532053D03*
X75532053Y-58217947D03*
X62717947Y-62032053D03*
X62032053Y-62717947D03*
X67217947Y-57532053D03*
X66532053Y-58217947D03*
X53717947Y-59782053D03*
X53032053Y-60467947D03*
X53717947Y-77782053D03*
X53032053Y-78467947D03*
X89717947Y-62032053D03*
X89032053Y-62717947D03*
X85217947Y-59782053D03*
X84532053Y-60467947D03*
X91967947Y-77782053D03*
X91282053Y-78467947D03*
X89717947Y-66532053D03*
X89032053Y-67217947D03*
X85217947Y-68782053D03*
X84532053Y-69467947D03*
X80717947Y-68782053D03*
X80032053Y-69467947D03*
X94217947Y-86782053D03*
X93532053Y-87467947D03*
X91967947Y-91282053D03*
X91282053Y-91967947D03*
X82967947Y-53032053D03*
X82282053Y-53717947D03*
X82967947Y-71032053D03*
X82282053Y-71717947D03*
X53717947Y-75532053D03*
X53032053Y-76217947D03*
X73967947Y-57532053D03*
X73282053Y-58217947D03*
X82967947Y-64282053D03*
X82282053Y-64967947D03*
X87467947Y-53032053D03*
X86782053Y-53717947D03*
X94217947Y-80032053D03*
X93532053Y-80717947D03*
X51467947Y-62032053D03*
X50782053Y-62717947D03*
X71717947Y-77782053D03*
X71032053Y-78467947D03*
X85217947Y-66532053D03*
X84532053Y-67217947D03*
X69467947Y-75532053D03*
X68782053Y-76217947D03*
X80717947Y-93532053D03*
X80032053Y-94217947D03*
X58217947Y-89032053D03*
X57532053Y-89717947D03*
X85217947Y-93532053D03*
X84532053Y-94217947D03*
X89717947Y-84532053D03*
X89032053Y-85217947D03*
X78467947Y-62032053D03*
X77782053Y-62717947D03*
X51467947Y-75532053D03*
X50782053Y-76217947D03*
X69467947Y-50782053D03*
X68782053Y-51467947D03*
X51467947Y-59782053D03*
X50782053Y-60467947D03*
X94217947Y-82282053D03*
X93532053Y-82967947D03*
X71717947Y-82282053D03*
X71032053Y-82967947D03*
X91967947Y-68782053D03*
X91282053Y-69467947D03*
X58217947Y-73282053D03*
X57532053Y-73967947D03*
X87467947Y-73282053D03*
X86782053Y-73967947D03*
X60467947Y-71032053D03*
X59782053Y-71717947D03*
X87467947Y-93532053D03*
X86782053Y-94217947D03*
X51467947Y-57532053D03*
X50782053Y-58217947D03*
X51467947Y-80032053D03*
X50782053Y-80717947D03*
X85217947Y-50782053D03*
X84532053Y-51467947D03*
X69467947Y-73282053D03*
X68782053Y-73967947D03*
X89717947Y-75532053D03*
X89032053Y-76217947D03*
X67217947Y-55282053D03*
X66532053Y-55967947D03*
X55967947Y-93532053D03*
X55282053Y-94217947D03*
X53717947Y-86782053D03*
X53032053Y-87467947D03*
X58217947Y-84532053D03*
X57532053Y-85217947D03*
X53717947Y-62032053D03*
X53032053Y-62717947D03*
X85217947Y-82282053D03*
X84532053Y-82967947D03*
X85217947Y-86782053D03*
X84532053Y-87467947D03*
X78467947Y-84532053D03*
X77782053Y-85217947D03*
X60467947Y-66532053D03*
X59782053Y-67217947D03*
X58217947Y-71032053D03*
X57532053Y-71717947D03*
X94217947Y-66532053D03*
X93532053Y-67217947D03*
X55967947Y-59782053D03*
X55282053Y-60467947D03*
X60467947Y-59782053D03*
X59782053Y-60467947D03*
X51467947Y-71032053D03*
X50782053Y-71717947D03*
X78467947Y-53032053D03*
X77782053Y-53717947D03*
X55967947Y-66532053D03*
X55282053Y-67217947D03*
X85217947Y-57532053D03*
X84532053Y-58217947D03*
X82967947Y-55282053D03*
X82282053Y-55967947D03*
X64967947Y-57532053D03*
X64282053Y-58217947D03*
X62717947Y-53032053D03*
X62032053Y-53717947D03*
X71717947Y-64282053D03*
X71032053Y-64967947D03*
X94217947Y-71032053D03*
X93532053Y-71717947D03*
X94217947Y-59782053D03*
X93532053Y-60467947D03*
X69467947Y-55282053D03*
X68782053Y-55967947D03*
X80717947Y-57532053D03*
X80032053Y-58217947D03*
X62717947Y-55282053D03*
X62032053Y-55967947D03*
X76217947Y-59782053D03*
X75532053Y-60467947D03*
X94217947Y-62032053D03*
X93532053Y-62717947D03*
X67217947Y-59782053D03*
X66532053Y-60467947D03*
X78467947Y-93532053D03*
X77782053Y-94217947D03*
X53717947Y-64282053D03*
X53032053Y-64967947D03*
X55967947Y-86782053D03*
X55282053Y-87467947D03*
X80717947Y-55282053D03*
X80032053Y-55967947D03*
X82967947Y-59782053D03*
X82282053Y-60467947D03*
X76217947Y-77782053D03*
X75532053Y-78467947D03*
X82967947Y-89032053D03*
X82282053Y-89717947D03*
X85217947Y-84532053D03*
X84532053Y-85217947D03*
X87467947Y-80032053D03*
X86782053Y-80717947D03*
X62717947Y-73282053D03*
X62032053Y-73967947D03*
X60467947Y-86782053D03*
X59782053Y-87467947D03*
X71717947Y-59782053D03*
X71032053Y-60467947D03*
X51467947Y-91282053D03*
X50782053Y-91967947D03*
X55967947Y-68782053D03*
X55282053Y-69467947D03*
X64967947Y-59782053D03*
X64282053Y-60467947D03*
X71717947Y-73282053D03*
X71032053Y-73967947D03*
X64967947Y-75532053D03*
X64282053Y-76217947D03*
X60467947Y-77782053D03*
X59782053Y-78467947D03*
X58217947Y-55282053D03*
X57532053Y-55967947D03*
X62717947Y-66532053D03*
X62032053Y-67217947D03*
X60467947Y-62032053D03*
X59782053Y-62717947D03*
X69467947Y-80032053D03*
X68782053Y-80717947D03*
X76217947Y-86782053D03*
X75532053Y-87467947D03*
X85217947Y-91282053D03*
X84532053Y-91967947D03*
X78467947Y-59782053D03*
X77782053Y-60467947D03*
X58217947Y-86782053D03*
X57532053Y-87467947D03*
X78467947Y-50782053D03*
X77782053Y-51467947D03*
X87467947Y-68782053D03*
X86782053Y-69467947D03*
X67217947Y-82282053D03*
X66532053Y-82967947D03*
X87467947Y-64282053D03*
X86782053Y-64967947D03*
X55967947Y-64282053D03*
X55282053Y-64967947D03*
X78467947Y-82282053D03*
X77782053Y-82967947D03*
X73967947Y-71032053D03*
X73282053Y-71717947D03*
X51467947Y-68782053D03*
X50782053Y-69467947D03*
X71717947Y-57532053D03*
X71032053Y-58217947D03*
X53717947Y-89032053D03*
X53032053Y-89717947D03*
X73967947Y-55282053D03*
X73282053Y-55967947D03*
X82967947Y-91282053D03*
X82282053Y-91967947D03*
X71717947Y-66532053D03*
X71032053Y-67217947D03*
X55967947Y-84532053D03*
X55282053Y-85217947D03*
X87467947Y-71032053D03*
X86782053Y-71717947D03*
X71717947Y-62032053D03*
X71032053Y-62717947D03*
X51467947Y-77782053D03*
X50782053Y-78467947D03*
X51467947Y-84532053D03*
X50782053Y-85217947D03*
X55967947Y-71032053D03*
X55282053Y-71717947D03*
X89717947Y-71032053D03*
X89032053Y-71717947D03*
X71717947Y-91282053D03*
X71032053Y-91967947D03*
X64967947Y-64282053D03*
X64282053Y-64967947D03*
X53717947Y-84532053D03*
X53032053Y-85217947D03*
X82967947Y-68782053D03*
X82282053Y-69467947D03*
X80717947Y-50782053D03*
X80032053Y-51467947D03*
X55967947Y-75532053D03*
X55282053Y-76217947D03*
X73967947Y-75532053D03*
X73282053Y-76217947D03*
X94217947Y-50782053D03*
X93532053Y-51467947D03*
X78467947Y-75532053D03*
X77782053Y-76217947D03*
X89717947Y-57532053D03*
X89032053Y-58217947D03*
X58217947Y-80032053D03*
X57532053Y-80717947D03*
X62717947Y-57532053D03*
X62032053Y-58217947D03*
X62717947Y-80032053D03*
X62032053Y-80717947D03*
X76217947Y-84532053D03*
X75532053Y-85217947D03*
X78467947Y-71032053D03*
X77782053Y-71717947D03*
X53717947Y-66532053D03*
X53032053Y-67217947D03*
X51467947Y-50782053D03*
X50782053Y-51467947D03*
X64967947Y-71032053D03*
X64282053Y-71717947D03*
X91967947Y-66532053D03*
X91282053Y-67217947D03*
X82967947Y-73282053D03*
X82282053Y-73967947D03*
X60467947Y-89032053D03*
X59782053Y-89717947D03*
X73967947Y-93532053D03*
X73282053Y-94217947D03*
X51467947Y-89032053D03*
X50782053Y-89717947D03*
X67217947Y-91282053D03*
X66532053Y-91967947D03*
X67217947Y-64282053D03*
X66532053Y-64967947D03*
X67217947Y-84532053D03*
X66532053Y-85217947D03*
X64967947Y-73282053D03*
X64282053Y-73967947D03*
X60467947Y-93532053D03*
X59782053Y-94217947D03*
X62717947Y-59782053D03*
X62032053Y-60467947D03*
X78467947Y-55282053D03*
X77782053Y-55967947D03*
X51467947Y-82282053D03*
X50782053Y-82967947D03*
X78467947Y-57532053D03*
X77782053Y-58217947D03*
X89717947Y-55282053D03*
X89032053Y-55967947D03*
X94217947Y-73282053D03*
X93532053Y-73967947D03*
X85217947Y-75532053D03*
X84532053Y-76217947D03*
X62717947Y-71032053D03*
X62032053Y-71717947D03*
X51467947Y-55282053D03*
X50782053Y-55967947D03*
X73967947Y-89032053D03*
X73282053Y-89717947D03*
X80717947Y-71032053D03*
X80032053Y-71717947D03*
X60467947Y-55282053D03*
X59782053Y-55967947D03*
X73967947Y-62032053D03*
X73282053Y-62717947D03*
X69467947Y-68782053D03*
X68782053Y-69467947D03*
X85217947Y-64282053D03*
X84532053Y-64967947D03*
X76217947Y-64282053D03*
X75532053Y-64967947D03*
X58217947Y-93532053D03*
X57532053Y-94217947D03*
X62717947Y-77782053D03*
X62032053Y-78467947D03*
X76217947Y-68782053D03*
X75532053Y-69467947D03*
X60467947Y-82282053D03*
X59782053Y-82967947D03*
X69467947Y-64282053D03*
X68782053Y-64967947D03*
X60467947Y-50782053D03*
X59782053Y-51467947D03*
X78467947Y-66532053D03*
X77782053Y-67217947D03*
X69467947Y-93532053D03*
X68782053Y-94217947D03*
X51467947Y-93532053D03*
X50782053Y-94217947D03*
X76217947Y-91282053D03*
X75532053Y-91967947D03*
X80717947Y-75532053D03*
X80032053Y-76217947D03*
X89717947Y-91282053D03*
X89032053Y-91967947D03*
X73967947Y-50782053D03*
X73282053Y-51467947D03*
X67217947Y-73282053D03*
X66532053Y-73967947D03*
X55967947Y-77782053D03*
X55282053Y-78467947D03*
X87467947Y-84532053D03*
X86782053Y-85217947D03*
X76217947Y-55282053D03*
X75532053Y-55967947D03*
X58217947Y-57532053D03*
X57532053Y-58217947D03*
X58217947Y-68782053D03*
X57532053Y-69467947D03*
X85217947Y-55282053D03*
X84532053Y-55967947D03*
X87467947Y-82282053D03*
X86782053Y-82967947D03*
X71717947Y-53032053D03*
X71032053Y-53717947D03*
X91967947Y-62032053D03*
X91282053Y-62717947D03*
X87467947Y-91282053D03*
X86782053Y-91967947D03*
X94217947Y-84532053D03*
X93532053Y-85217947D03*
X91967947Y-89032053D03*
X91282053Y-89717947D03*
X55967947Y-55282053D03*
X55282053Y-55967947D03*
X62717947Y-89032053D03*
X62032053Y-89717947D03*
X60467947Y-73282053D03*
X59782053Y-73967947D03*
X80717947Y-53032053D03*
X80032053Y-53717947D03*
X73967947Y-80032053D03*
X73282053Y-80717947D03*
X64967947Y-66532053D03*
X64282053Y-67217947D03*
X73967947Y-86782053D03*
X73282053Y-87467947D03*
X58217947Y-75532053D03*
X57532053Y-76217947D03*
X73967947Y-84532053D03*
X73282053Y-85217947D03*
X67217947Y-50782053D03*
X66532053Y-51467947D03*
X82967947Y-66532053D03*
X82282053Y-67217947D03*
X87467947Y-62032053D03*
X86782053Y-62717947D03*
X82967947Y-80032053D03*
X82282053Y-80717947D03*
X64967947Y-93532053D03*
X64282053Y-94217947D03*
X73967947Y-64282053D03*
X73282053Y-64967947D03*
X64967947Y-91282053D03*
X64282053Y-91967947D03*
X80717947Y-91282053D03*
X80032053Y-91967947D03*
X82967947Y-62032053D03*
X82282053Y-62717947D03*
X55967947Y-89032053D03*
X55282053Y-89717947D03*
X91967947Y-93532053D03*
X91282053Y-94217947D03*
X89717947Y-73282053D03*
X89032053Y-73967947D03*
X69467947Y-53032053D03*
X68782053Y-53717947D03*
X58217947Y-62032053D03*
X57532053Y-62717947D03*
X78467947Y-80032053D03*
X77782053Y-80717947D03*
X80717947Y-77782053D03*
X80032053Y-78467947D03*
X53717947Y-93532053D03*
X53032053Y-94217947D03*
X73967947Y-53032053D03*
X73282053Y-53717947D03*
X73967947Y-73282053D03*
X73282053Y-73967947D03*
X80717947Y-73282053D03*
X80032053Y-73967947D03*
X94217947Y-77782053D03*
X93532053Y-78467947D03*
X67217947Y-77782053D03*
X66532053Y-78467947D03*
X73967947Y-77782053D03*
X73282053Y-78467947D03*
X53717947Y-55282053D03*
X53032053Y-55967947D03*
X87467947Y-77782053D03*
X86782053Y-78467947D03*
X62717947Y-86782053D03*
X62032053Y-87467947D03*
X51467947Y-66532053D03*
X50782053Y-67217947D03*
X58217947Y-91282053D03*
X57532053Y-91967947D03*
X67217947Y-80032053D03*
X66532053Y-80717947D03*
X60467947Y-75532053D03*
X59782053Y-76217947D03*
X60467947Y-64282053D03*
X59782053Y-64967947D03*
X82967947Y-86782053D03*
X82282053Y-87467947D03*
X82967947Y-84532053D03*
X82282053Y-85217947D03*
X62717947Y-50782053D03*
X62032053Y-51467947D03*
X71717947Y-75532053D03*
X71032053Y-76217947D03*
X89717947Y-50782053D03*
X89032053Y-51467947D03*
X69467947Y-77782053D03*
X68782053Y-78467947D03*
X67217947Y-53032053D03*
X66532053Y-53717947D03*
X64967947Y-77782053D03*
X64282053Y-78467947D03*
X62717947Y-84532053D03*
X62032053Y-85217947D03*
X76217947Y-62032053D03*
X75532053Y-62717947D03*
X91967947Y-55282053D03*
X91282053Y-55967947D03*
X76217947Y-66532053D03*
X75532053Y-67217947D03*
X82967947Y-93532053D03*
X82282053Y-94217947D03*
X85217947Y-53032053D03*
X84532053Y-53717947D03*
X82967947Y-50782053D03*
X82282053Y-51467947D03*
X94217947Y-89032053D03*
X93532053Y-89717947D03*
X60467947Y-80032053D03*
X59782053Y-80717947D03*
X76217947Y-50782053D03*
X75532053Y-51467947D03*
X53717947Y-80032053D03*
X53032053Y-80717947D03*
X89717947Y-80032053D03*
X89032053Y-80717947D03*
X60467947Y-91282053D03*
X59782053Y-91967947D03*
X78467947Y-64282053D03*
X77782053Y-64967947D03*
X62717947Y-82282053D03*
X62032053Y-82967947D03*
X62717947Y-75532053D03*
X62032053Y-76217947D03*
X69467947Y-71032053D03*
X68782053Y-71717947D03*
X51467947Y-53032053D03*
X50782053Y-53717947D03*
X69467947Y-66532053D03*
X68782053Y-67217947D03*
X85217947Y-77782053D03*
X84532053Y-78467947D03*
X76217947Y-93532053D03*
X75532053Y-94217947D03*
X94217947Y-55282053D03*
X93532053Y-55967947D03*
X78467947Y-73282053D03*
X77782053Y-73967947D03*
X89717947Y-86782053D03*
X89032053Y-87467947D03*
X80717947Y-84532053D03*
X80032053Y-85217947D03*
X67217947Y-93532053D03*
X66532053Y-94217947D03*
X85217947Y-80032053D03*
X84532053Y-80717947D03*
X89717947Y-68782053D03*
X89032053Y-69467947D03*
X94217947Y-57532053D03*
X93532053Y-58217947D03*
X89717947Y-82282053D03*
X89032053Y-82967947D03*
X80717947Y-86782053D03*
X80032053Y-87467947D03*
X80717947Y-59782053D03*
X80032053Y-60467947D03*
X80717947Y-62032053D03*
X80032053Y-62717947D03*
X55967947Y-73282053D03*
X55282053Y-73967947D03*
X69467947Y-91282053D03*
X68782053Y-91967947D03*
X67217947Y-71032053D03*
X66532053Y-71717947D03*
X51467947Y-86782053D03*
X50782053Y-87467947D03*
X53717947Y-68782053D03*
X53032053Y-69467947D03*
X64967947Y-86782053D03*
X64282053Y-87467947D03*
X94217947Y-91282053D03*
X93532053Y-91967947D03*
X58217947Y-50782053D03*
X57532053Y-51467947D03*
X89717947Y-59782053D03*
X89032053Y-60467947D03*
X69467947Y-89032053D03*
X68782053Y-89717947D03*
X80717947Y-64282053D03*
X80032053Y-64967947D03*
X91967947Y-71032053D03*
X91282053Y-71717947D03*
X78467947Y-77782053D03*
X77782053Y-78467947D03*
X67217947Y-62032053D03*
X66532053Y-62717947D03*
X73967947Y-59782053D03*
X73282053Y-60467947D03*
X91967947Y-86782053D03*
X91282053Y-87467947D03*
X53717947Y-73282053D03*
X53032053Y-73967947D03*
X80717947Y-82282053D03*
X80032053Y-82967947D03*
X64967947Y-68782053D03*
X64282053Y-69467947D03*
X67217947Y-68782053D03*
X66532053Y-69467947D03*
X91967947Y-80032053D03*
X91282053Y-80717947D03*
X64967947Y-62032053D03*
X64282053Y-62717947D03*
X51467947Y-64282053D03*
X50782053Y-64967947D03*
X69467947Y-86782053D03*
X68782053Y-87467947D03*
X64967947Y-50782053D03*
X64282053Y-51467947D03*
X69467947Y-82282053D03*
X68782053Y-82967947D03*
X73967947Y-91282053D03*
X73282053Y-91967947D03*
X73967947Y-66532053D03*
X73282053Y-67217947D03*
X78467947Y-89032053D03*
X77782053Y-89717947D03*
X85217947Y-62032053D03*
X84532053Y-62717947D03*
X78467947Y-91282053D03*
X77782053Y-91967947D03*
X55967947Y-91282053D03*
X55282053Y-91967947D03*
X87467947Y-89032053D03*
X86782053Y-89717947D03*
X53717947Y-91282053D03*
X53032053Y-91967947D03*
X89717947Y-77782053D03*
X89032053Y-78467947D03*
X87467947Y-59782053D03*
X86782053Y-60467947D03*
X67217947Y-66532053D03*
X66532053Y-67217947D03*
X91967947Y-53032053D03*
X91282053Y-53717947D03*
X80717947Y-89032053D03*
X80032053Y-89717947D03*
X89717947Y-93532053D03*
X89032053Y-94217947D03*
X87467947Y-66532053D03*
X86782053Y-67217947D03*
X58217947Y-77782053D03*
X57532053Y-78467947D03*
X55967947Y-80032053D03*
X55282053Y-80717947D03*
X80717947Y-66532053D03*
X80032053Y-67217947D03*
X78467947Y-86782053D03*
X77782053Y-87467947D03*
X55967947Y-82282053D03*
X55282053Y-82967947D03*
X76217947Y-89032053D03*
X75532053Y-89717947D03*
X62717947Y-64282053D03*
X62032053Y-64967947D03*
X58217947Y-66532053D03*
X57532053Y-67217947D03*
X89717947Y-64282053D03*
X89032053Y-64967947D03*
D11*
X92825000Y-72450000D03*
X84260000Y-85970000D03*
X79160000Y-79310000D03*
X57275000Y-72590000D03*
X90440000Y-61177000D03*
X61725000Y-68230000D03*
X57275000Y-68225000D03*
X62950000Y-81140000D03*
X57282500Y-76920000D03*
X74270000Y-63460000D03*
X73965000Y-67600000D03*
X92825000Y-85340000D03*
X65350000Y-76320000D03*
X92830000Y-68205000D03*
X77050000Y-81700000D03*
X69510000Y-67770000D03*
X61710000Y-63740000D03*
X65390000Y-73960000D03*
X72590000Y-56520000D03*
X69960000Y-83595000D03*
X78780000Y-60960000D03*
X72810000Y-83670000D03*
X83690000Y-83150000D03*
X71655000Y-67600000D03*
X84017500Y-68142500D03*
X65520000Y-92740000D03*
X90560000Y-59950000D03*
X88417500Y-68167500D03*
X52810000Y-76990000D03*
X72240000Y-65320000D03*
X84025000Y-72400000D03*
X79040000Y-56720000D03*
X90440000Y-90140000D03*
X53230000Y-81800000D03*
X79270000Y-52460000D03*
X67485000Y-85620000D03*
X71000000Y-90500000D03*
X57720000Y-86150000D03*
X62410000Y-86090000D03*
X67820000Y-52370000D03*
X79260000Y-70635000D03*
X88425000Y-72460000D03*
X79670000Y-92720000D03*
X88330000Y-80940000D03*
X53370000Y-86020000D03*
X88430000Y-63810000D03*
X90440000Y-89470000D03*
X57660000Y-81770000D03*
X79260000Y-76470000D03*
X88700000Y-77120000D03*
X52830000Y-63800000D03*
X69425000Y-88120000D03*
X90440000Y-90750000D03*
X70650000Y-52475000D03*
X52820000Y-72630000D03*
X61735000Y-72700000D03*
X84040000Y-63800000D03*
X72500000Y-76000000D03*
X65100000Y-60695000D03*
X68140000Y-56900000D03*
X88700000Y-79070000D03*
X90440000Y-61690000D03*
X92850000Y-63680000D03*
X65350000Y-78480000D03*
X52800000Y-68260000D03*
X70500000Y-90500000D03*
X57270000Y-63820000D03*
X92837500Y-80900000D03*
X62930000Y-76840000D03*
X88325000Y-85420000D03*
X92837500Y-76625000D03*
X76730000Y-82910000D03*
X62280000Y-81720000D03*
X70065000Y-88120000D03*
X75100000Y-79590000D03*
X77480000Y-83980000D03*
X68360000Y-74470000D03*
X71980000Y-71810000D03*
X69457100Y-83180700D03*
X76590000Y-79310000D03*
X72930000Y-79590000D03*
X70300000Y-79590000D03*
X69920000Y-71810000D03*
X76770000Y-72220000D03*
X68085000Y-88070000D03*
X66480000Y-90500000D03*
X76590000Y-76160000D03*
X68390000Y-77870000D03*
X78909000Y-80665100D03*
X79192800Y-77298800D03*
X73696700Y-70083300D03*
X74700000Y-81650000D03*
X69062500Y-76850000D03*
X92990000Y-90130000D03*
X92970000Y-61210000D03*
X87740000Y-79070000D03*
X91870000Y-68010000D03*
X72000000Y-90600000D03*
X60770000Y-63650000D03*
X83010000Y-85430000D03*
X51870000Y-72460000D03*
X56320000Y-76655000D03*
X63970000Y-63740000D03*
X56340000Y-72370000D03*
X64020000Y-86470000D03*
X87740000Y-76420000D03*
X51850000Y-80835000D03*
X63620000Y-78030000D03*
X77550000Y-55170000D03*
X91890000Y-63560000D03*
X78710000Y-92310000D03*
X91870000Y-72340000D03*
X93770000Y-61380000D03*
X91880000Y-81140000D03*
X56327500Y-80857500D03*
X87390000Y-81080000D03*
X86800000Y-84190000D03*
X63990000Y-73140000D03*
X65720000Y-55500000D03*
X51890000Y-63730000D03*
X80970000Y-67810000D03*
X91887500Y-76625000D03*
X60782500Y-72485000D03*
X72000000Y-89770000D03*
X60770000Y-68010000D03*
X51855000Y-76645000D03*
X60800000Y-85210000D03*
X83090000Y-63530000D03*
X65650000Y-60010000D03*
X69760000Y-51880000D03*
X87470000Y-67920000D03*
X65680000Y-51120000D03*
X56330000Y-85190000D03*
X83070000Y-67850000D03*
X87475000Y-72425000D03*
X51850000Y-68130000D03*
X67775000Y-93975000D03*
X87480000Y-63550000D03*
X92990000Y-90760000D03*
X63970000Y-68210000D03*
X70600000Y-54730000D03*
X64290000Y-92830000D03*
X83070000Y-72230000D03*
X56320000Y-68110000D03*
X92980000Y-61680000D03*
X69530000Y-60950000D03*
X77550000Y-59775000D03*
X92260000Y-90140000D03*
X51850000Y-85120000D03*
X76890000Y-51600000D03*
X62717900Y-52031600D03*
X86782800Y-50782100D03*
X81335900Y-50551800D03*
X70517800Y-53040700D03*
X53717900Y-51959500D03*
X70581700Y-50742900D03*
X69068000Y-52524500D03*
X54587000Y-85035900D03*
X51186400Y-59179500D03*
X54769600Y-73571400D03*
X50316400Y-69902500D03*
X54412600Y-87317200D03*
X55382300Y-52404100D03*
X50782100Y-52144400D03*
X51007300Y-65626400D03*
X54829200Y-78026400D03*
X54600800Y-82843100D03*
X53198800Y-84114200D03*
X54595500Y-64967900D03*
X51051000Y-88497400D03*
X51234200Y-56420000D03*
X55283300Y-55260500D03*
X69467900Y-55975900D03*
X81583400Y-58795600D03*
X63002900Y-56021900D03*
X53717900Y-56254700D03*
X61113800Y-61813300D03*
X87026600Y-61590800D03*
X55393600Y-61367400D03*
X80717900Y-60707100D03*
X72026800Y-59243500D03*
X87603400Y-65209500D03*
X63278000Y-65797800D03*
X81492200Y-64936600D03*
X70351900Y-64776000D03*
X81045900Y-69403900D03*
X54397600Y-68626000D03*
X68385500Y-68160400D03*
X87641700Y-69467900D03*
X61253900Y-67398900D03*
X59451700Y-79013500D03*
X63710500Y-56968700D03*
X60469800Y-60467900D03*
X59199100Y-82111600D03*
X60147200Y-65931900D03*
X50425400Y-82425300D03*
X65250100Y-69393800D03*
X64031600Y-90633800D03*
X63229900Y-90808500D03*
X63739600Y-77466400D03*
X60034700Y-56597600D03*
X64664800Y-65780500D03*
X64200800Y-52778200D03*
X63587400Y-83970700D03*
X64440400Y-74681300D03*
X78995300Y-72600600D03*
X80966300Y-76568300D03*
X74512100Y-74812500D03*
X61189400Y-75930800D03*
X78471100Y-62831100D03*
X53040300Y-75449700D03*
X87044400Y-77319700D03*
X64187900Y-81395200D03*
X69699100Y-78450100D03*
X54510400Y-80772100D03*
X81318800Y-77509300D03*
X63387700Y-82083800D03*
X82192300Y-70477900D03*
X88171700Y-82333600D03*
X81343900Y-82538900D03*
X71946700Y-83757800D03*
X55378100Y-88599800D03*
X71717900Y-87651200D03*
X91286100Y-66225000D03*
X90647800Y-86807400D03*
X81245500Y-88690500D03*
X63169100Y-89472800D03*
X73986500Y-94412100D03*
X60150700Y-92944000D03*
X78819800Y-94629100D03*
X86337400Y-75452100D03*
X53717900Y-92439000D03*
X68786600Y-93482700D03*
X86085900Y-94676900D03*
X58473700Y-92932000D03*
X74968400Y-91282100D03*
X83640700Y-90609300D03*
X65083400Y-94545700D03*
X82292700Y-76929300D03*
X91469600Y-93145200D03*
X85395200Y-86089100D03*
X92643000Y-70480000D03*
X92962400Y-86782100D03*
X61021800Y-88333000D03*
X66100500Y-88014000D03*
X72291700Y-85316600D03*
X64275200Y-84532100D03*
X58658900Y-85946600D03*
X90998700Y-83799200D03*
X85495200Y-83584800D03*
X66409300Y-77782100D03*
X92645000Y-79811400D03*
X92535900Y-74435700D03*
X58853300Y-76595900D03*
X74531800Y-77480700D03*
X83857800Y-80032100D03*
X64248800Y-77353500D03*
X58598500Y-73808800D03*
X83930700Y-75532100D03*
X64525000Y-72763300D03*
X92643400Y-83063200D03*
X74650600Y-73150500D03*
X91285300Y-75530800D03*
X76873400Y-71261000D03*
X67672900Y-70499200D03*
X58848300Y-70453400D03*
X85930500Y-70535500D03*
X90973400Y-71004400D03*
X92478900Y-87337500D03*
X74501000Y-67396500D03*
X92471100Y-67036800D03*
X58661900Y-65105200D03*
X64108000Y-65771500D03*
X83656100Y-62032100D03*
X59011900Y-59372400D03*
X86221300Y-87767400D03*
X67439700Y-62696900D03*
X76662400Y-62476600D03*
X64522100Y-59336300D03*
X69670200Y-65193300D03*
X71184200Y-83737700D03*
X70900000Y-70206000D03*
X74380700Y-92821700D03*
X75473800Y-65917300D03*
X71175000Y-92649100D03*
X74962900Y-55649200D03*
X70248700Y-78673400D03*
X68048600Y-80830300D03*
X74603400Y-73779300D03*
X74698400Y-87500700D03*
X70381700Y-51224500D03*
X68299100Y-79022400D03*
X74939300Y-60964300D03*
X71032100Y-61159600D03*
X52639400Y-75028700D03*
X74874700Y-52125300D03*
X70210000Y-56401600D03*
X74351300Y-83776600D03*
X74720000Y-69231400D03*
X70454400Y-74545600D03*
X74667600Y-78273100D03*
X71284200Y-88170100D03*
X83375700Y-58029500D03*
X91275100Y-57320200D03*
X83708300Y-87174200D03*
X58899700Y-55109600D03*
X65460500Y-54910200D03*
X65530900Y-50477500D03*
X58839700Y-50551800D03*
X82291300Y-52990900D03*
X77874100Y-93239800D03*
X76764500Y-53393400D03*
X53191400Y-56663300D03*
X57623200Y-83648200D03*
X52828600Y-83641900D03*
X57389200Y-70150700D03*
X56271100Y-60912400D03*
X57171700Y-79018700D03*
X53032100Y-74655300D03*
X57073400Y-87896300D03*
X52687700Y-69976700D03*
X52600500Y-92399500D03*
X57610300Y-74644600D03*
X56917800Y-51188300D03*
X52829500Y-65633900D03*
X56851900Y-92033100D03*
X52958700Y-61144800D03*
X57532100Y-56662000D03*
X52666300Y-78969800D03*
X53040100Y-88154400D03*
X54848300Y-65527700D03*
X52604100Y-51895900D03*
X52095300Y-71461200D03*
X54740700Y-67549900D03*
X54488500Y-84046700D03*
X52541900Y-79590500D03*
X54500000Y-55637500D03*
X50313800Y-65704700D03*
X50687300Y-89019300D03*
X54493000Y-78553600D03*
X56255200Y-53821600D03*
X54612000Y-75511400D03*
X50674000Y-93528300D03*
X54686800Y-71412200D03*
X50551800Y-84562800D03*
X56909300Y-94448200D03*
X54562800Y-81317100D03*
X56524600Y-63017300D03*
X53709300Y-62717900D03*
X53713300Y-90085200D03*
X53727900Y-94320900D03*
X56718100Y-67217900D03*
X54824900Y-86204100D03*
X57103000Y-83619300D03*
X57761100Y-58886100D03*
X58209300Y-62749100D03*
X55910700Y-90040900D03*
X56699400Y-71522700D03*
X54393900Y-66785000D03*
X66210500Y-65637100D03*
X63509600Y-79234300D03*
X59163500Y-82691200D03*
X62062500Y-65701400D03*
X61823900Y-74905700D03*
X58872100Y-87407800D03*
X65785600Y-83788100D03*
X61606200Y-56393800D03*
X59957200Y-79365400D03*
X61642800Y-70378300D03*
X63998600Y-56556100D03*
X61574200Y-52403600D03*
X65852100Y-69228700D03*
X65830900Y-92094000D03*
X65329200Y-88398700D03*
X61342300Y-60467900D03*
X66010400Y-61069100D03*
X61576300Y-92360200D03*
X65303900Y-52387800D03*
X65893600Y-74910400D03*
X59685300Y-79791100D03*
X63568700Y-79825500D03*
X58985200Y-83675400D03*
X64965600Y-87582200D03*
X60745800Y-58138200D03*
X63583400Y-57520800D03*
X50323900Y-80122400D03*
X63386800Y-67050500D03*
X64941000Y-85451100D03*
X60479000Y-67232600D03*
X63585600Y-74683900D03*
X65095200Y-81000900D03*
X63567800Y-71413600D03*
X60158200Y-63581700D03*
X62729600Y-53815400D03*
X66186900Y-63462700D03*
X59536000Y-77339400D03*
X63297400Y-91982700D03*
X66053100Y-85963900D03*
X64985000Y-54539800D03*
X61360000Y-90222300D03*
X67689400Y-71768300D03*
X65914400Y-90521000D03*
X63539600Y-62366700D03*
X62772800Y-67246200D03*
X68782100Y-54616700D03*
X73260300Y-54779000D03*
X70442300Y-77207400D03*
X57121100Y-74418900D03*
X72882800Y-82298000D03*
X69307600Y-74334800D03*
X68090300Y-81588600D03*
X69261500Y-78886700D03*
X72856800Y-93755300D03*
X63629200Y-70386500D03*
X70459200Y-63332200D03*
X70178000Y-81631600D03*
X72840100Y-62275900D03*
X71163500Y-59251200D03*
X72144700Y-85795100D03*
X68932400Y-70410500D03*
X72780900Y-57819700D03*
X69229400Y-85666800D03*
X72621200Y-59935800D03*
X70275300Y-68093800D03*
X69459000Y-58419900D03*
X68517500Y-93016500D03*
X69235900Y-90171700D03*
X74557000Y-76110300D03*
X72733800Y-80169600D03*
X74748700Y-90376300D03*
X72863600Y-72211900D03*
X72093100Y-79201300D03*
X75513400Y-59153800D03*
X72104000Y-88215000D03*
X74798400Y-76709900D03*
X70250000Y-94043200D03*
X74788500Y-71914800D03*
X70350400Y-89687600D03*
X70430500Y-75934600D03*
X58832600Y-71893700D03*
X70428500Y-72184900D03*
X70102300Y-66939800D03*
X74686200Y-53835200D03*
X72585500Y-53704200D03*
X73447200Y-58979200D03*
X75046200Y-67602100D03*
X76901800Y-83848200D03*
X77804700Y-66011000D03*
X81662300Y-55466000D03*
X78469100Y-87491600D03*
X81407100Y-87373900D03*
X81713500Y-51768300D03*
X81903000Y-59828900D03*
X73772800Y-72479000D03*
X76936600Y-60491400D03*
X83990800Y-70403000D03*
X83606400Y-79223700D03*
X84277500Y-74561900D03*
X76916500Y-51004000D03*
X54550100Y-71897400D03*
X77238600Y-70852400D03*
X82939700Y-78711900D03*
X77519700Y-93561100D03*
X51137300Y-67743800D03*
X83661600Y-87988400D03*
X79187100Y-69468300D03*
X83126000Y-83640800D03*
X79020900Y-87396300D03*
X83960600Y-56254700D03*
X84438000Y-61153100D03*
X83781600Y-74104700D03*
X80157800Y-56668800D03*
X83841600Y-51286200D03*
X83895600Y-65183900D03*
X80169400Y-61147700D03*
X79345600Y-65132900D03*
X84108500Y-92391500D03*
X79344400Y-83030400D03*
X80310200Y-79159100D03*
X80177800Y-74722800D03*
X84012900Y-69800400D03*
X80118300Y-52163100D03*
X78233600Y-67931000D03*
X76946000Y-58138200D03*
X79333100Y-89739800D03*
X78233600Y-70061200D03*
X83643900Y-89525000D03*
X65599200Y-58647000D03*
X81550400Y-94355500D03*
X81395300Y-53770600D03*
X76794800Y-53958000D03*
X81745800Y-57866500D03*
X78980600Y-85113400D03*
X78130900Y-74983400D03*
X80740300Y-80717900D03*
X80593700Y-90058400D03*
X85404800Y-81038200D03*
X81343100Y-85174200D03*
X79087500Y-62997000D03*
X67040900Y-63093700D03*
X78893000Y-67192100D03*
X78737000Y-53763800D03*
X83835100Y-62818500D03*
X81410900Y-75224500D03*
X78992800Y-72030400D03*
X83810600Y-90072400D03*
X85610100Y-62530600D03*
X85760400Y-85245800D03*
X81983700Y-74605400D03*
X83801300Y-88666500D03*
X83361000Y-62552000D03*
X79364800Y-72911300D03*
X88722600Y-61375000D03*
X89975800Y-71654700D03*
X88521100Y-88279800D03*
X59000100Y-62403400D03*
X56280300Y-90422100D03*
X78254900Y-72600000D03*
X78538900Y-85493800D03*
X62997500Y-90072600D03*
X54614000Y-88220800D03*
X56616600Y-62450100D03*
X61155600Y-62400700D03*
X58796700Y-90689400D03*
X52528200Y-88226900D03*
X76563500Y-78450000D03*
X52020000Y-62436900D03*
X91421300Y-88649600D03*
X91621600Y-92518600D03*
X85782000Y-76590500D03*
X86175600Y-83961700D03*
X90409900Y-65063500D03*
X86040700Y-62777600D03*
X61376000Y-65736200D03*
X91560900Y-56585600D03*
X91827000Y-51806700D03*
X86006000Y-57005600D03*
X86252400Y-65283000D03*
X86513300Y-91354700D03*
X88355200Y-82967900D03*
X92854200Y-51241500D03*
X88701500Y-74486800D03*
X88652800Y-92451500D03*
X91271800Y-74649400D03*
X89276000Y-61250000D03*
X92819300Y-92026800D03*
X92541900Y-69467900D03*
X90485900Y-65725300D03*
X92957200Y-56254700D03*
X88974300Y-56648300D03*
X88600900Y-65399100D03*
X92155900Y-60786500D03*
X88745300Y-52039400D03*
X89136800Y-88310900D03*
X89317500Y-79077900D03*
X93148500Y-87931200D03*
X88607700Y-69892300D03*
X93239900Y-83886300D03*
X92978800Y-78905100D03*
X54606200Y-66056100D03*
X86832100Y-65820700D03*
X66818500Y-54315800D03*
X90450800Y-66288700D03*
X90831700Y-92790600D03*
X86388400Y-58687800D03*
X87530800Y-62732100D03*
X88390200Y-70414500D03*
X91078300Y-70270400D03*
X92491900Y-79069300D03*
X94414200Y-77132600D03*
X86204700Y-92379300D03*
X91024600Y-84591800D03*
X86093800Y-53717600D03*
X86782100Y-74787100D03*
X86751100Y-79832000D03*
X92838700Y-62853000D03*
X94638900Y-71534400D03*
X87681400Y-53793400D03*
X94213600Y-67320900D03*
X92855600Y-94217900D03*
X89724500Y-62717900D03*
X90403300Y-93596200D03*
X93106700Y-54143300D03*
X72425000Y-58607100D03*
X88343500Y-58250500D03*
X94610200Y-85050400D03*
X94633300Y-76027300D03*
X83729500Y-76211900D03*
X74300000Y-71907900D03*
X70670000Y-81701700D03*
X68592300Y-84070100D03*
X72700000Y-81595700D03*
X70874700Y-86406600D03*
X85897900Y-71895200D03*
X75772700Y-70261900D03*
X85743000Y-69154700D03*
X57061700Y-74937500D03*
X54442900Y-70031400D03*
X65358800Y-74892300D03*
X58915400Y-69124200D03*
X68190200Y-68695100D03*
X94386800Y-68076200D03*
X78881300Y-73755900D03*
X74700000Y-70140400D03*
X85572500Y-68142500D03*
X68666200Y-56657300D03*
X66413200Y-74657300D03*
X66841200Y-74977600D03*
X69153900Y-63309600D03*
X54388000Y-64074200D03*
X58834700Y-80873900D03*
X65932500Y-81739500D03*
X90098500Y-70054300D03*
X75864300Y-72280000D03*
X63266500Y-73648100D03*
X69211000Y-74892600D03*
X94389900Y-85677400D03*
X79028500Y-81521700D03*
X70701200Y-67841100D03*
X83957700Y-66159600D03*
X75100000Y-68403500D03*
X94583500Y-65048800D03*
X67548400Y-67794200D03*
X67704100Y-58969400D03*
X68755700Y-75249800D03*
X54542700Y-74527700D03*
X63838400Y-78869000D03*
X54379600Y-76925600D03*
X94394900Y-81232900D03*
X75044400Y-78834300D03*
X78446900Y-74200000D03*
X93017200Y-75154500D03*
X72362300Y-72509100D03*
X79289500Y-50319700D03*
X54512100Y-80192300D03*
X68296700Y-79525900D03*
X90061100Y-67585400D03*
X70319900Y-69596600D03*
X94379500Y-71975900D03*
X81086400Y-73979000D03*
D12*
X69345500Y-52909600D02*
X69467900Y-53032100D01*
X87467900Y-50782100D02*
X86782800Y-50782100D01*
X80717900Y-53032100D02*
X78467900Y-53032100D01*
X53717900Y-51959500D02*
X53717900Y-53032100D01*
X69467900Y-50782100D02*
X70542500Y-50782100D01*
X70509200Y-53032100D02*
X69467900Y-53032100D01*
X87467900Y-50782100D02*
X89717900Y-50782100D01*
X70542500Y-50782100D02*
X70581700Y-50742900D01*
X53717900Y-53032100D02*
X51467900Y-53032100D01*
X87467900Y-53032100D02*
X89717900Y-53032100D01*
X53717900Y-50782100D02*
X53717900Y-51959500D01*
X62717900Y-53032100D02*
X60467900Y-53032100D01*
X70509200Y-53032100D02*
X70517800Y-53040700D01*
X71717900Y-50782100D02*
X71717900Y-53032100D01*
X70542500Y-50782100D02*
X71717900Y-50782100D01*
X69068000Y-52524500D02*
X69345500Y-52802000D01*
X78467900Y-50782100D02*
X80717900Y-50782100D01*
X81335900Y-50551800D02*
X80948200Y-50551800D01*
X71717900Y-53032100D02*
X70509200Y-53032100D01*
X80717900Y-50782100D02*
X80717900Y-53032100D01*
X80948200Y-50551800D02*
X80717900Y-50782100D01*
X69345500Y-52802000D02*
X69345500Y-52909600D01*
X62717900Y-52031600D02*
X62717900Y-53032100D01*
X62717900Y-50782100D02*
X62717900Y-52031600D01*
X89717900Y-50782100D02*
X89717900Y-53032100D01*
X60467900Y-50782100D02*
X62717900Y-50782100D01*
X51467900Y-50782100D02*
X53717900Y-50782100D01*
X53150500Y-72999100D02*
X52657400Y-72999100D01*
X55282100Y-55967900D02*
X55282100Y-55261700D01*
X50782100Y-88497400D02*
X51051000Y-88497400D01*
X55282100Y-51467900D02*
X55282100Y-52303900D01*
X52281800Y-72623500D02*
X52281800Y-72351600D01*
X55270700Y-78467900D02*
X54829200Y-78026400D01*
X54023800Y-90709600D02*
X55282100Y-91967900D01*
X51693900Y-67741500D02*
X50782100Y-68653300D01*
X50782100Y-68653300D02*
X50782100Y-69467900D01*
X50216000Y-71918000D02*
X50770700Y-72472700D01*
X50782100Y-64967900D02*
X50782100Y-65401200D01*
X54856300Y-83058400D02*
X54856300Y-84766600D01*
X51201000Y-72042400D02*
X50770700Y-72472700D01*
X55282100Y-64967900D02*
X54595500Y-64967900D01*
X50782100Y-52144400D02*
X50782100Y-51467900D01*
X52281800Y-72351600D02*
X51972600Y-72042400D01*
X55191600Y-83058400D02*
X54856300Y-83058400D01*
X50782100Y-59743400D02*
X51266200Y-59259300D01*
X51086700Y-90709600D02*
X50217500Y-89840400D01*
X50770700Y-72472700D02*
X50770700Y-73956500D01*
X50782100Y-65401200D02*
X51007300Y-65626400D01*
X54856300Y-83058400D02*
X54816100Y-83058400D01*
X50782100Y-91014200D02*
X51086700Y-90709600D01*
X50213400Y-77899200D02*
X50782100Y-78467900D01*
X53432100Y-72717500D02*
X53150500Y-72999100D01*
X51342500Y-59183000D02*
X51266200Y-59259300D01*
X55282100Y-68989500D02*
X54388700Y-68096100D01*
X54885600Y-73571400D02*
X54769600Y-73571400D01*
X50217500Y-89840400D02*
X50217500Y-88920700D01*
X50213400Y-74536600D02*
X50213400Y-77899200D01*
X55282100Y-55261700D02*
X55283300Y-55260500D01*
X50782100Y-88497400D02*
X50782100Y-87467900D01*
X50782100Y-55967900D02*
X51234200Y-56420000D01*
X54856300Y-84766600D02*
X54587000Y-85035900D01*
X50782100Y-73967900D02*
X50213400Y-74536600D01*
X50770700Y-73956500D02*
X50782100Y-73967900D01*
X53152600Y-68096100D02*
X52798000Y-67741500D01*
X50782100Y-82967900D02*
X51928400Y-84114200D01*
X51928400Y-84114200D02*
X53198800Y-84114200D01*
X52798000Y-67741500D02*
X51693900Y-67741500D01*
X55282100Y-73967900D02*
X54885600Y-73571400D01*
X50217500Y-88920700D02*
X50640800Y-88497400D01*
X55282100Y-60467900D02*
X53997200Y-59183000D01*
X50347500Y-69902500D02*
X50782100Y-69467900D01*
X50640800Y-88497400D02*
X50782100Y-88497400D01*
X54388700Y-68096100D02*
X53152600Y-68096100D01*
X55282100Y-87467900D02*
X54563300Y-87467900D01*
X54563300Y-87467900D02*
X54412600Y-87317200D01*
X50216000Y-70002900D02*
X50216000Y-71918000D01*
X50782100Y-60467900D02*
X50782100Y-59743400D01*
X51186400Y-59179500D02*
X51266200Y-59259300D01*
X50316400Y-69902500D02*
X50347500Y-69902500D01*
X55282100Y-52303900D02*
X55382300Y-52404100D01*
X55282100Y-69467900D02*
X55282100Y-68989500D01*
X52657400Y-72999100D02*
X52281800Y-72623500D01*
X53997200Y-59183000D02*
X51342500Y-59183000D01*
X54769600Y-73571400D02*
X53915700Y-72717500D01*
X51086700Y-90709600D02*
X54023800Y-90709600D01*
X50316400Y-69902500D02*
X50216000Y-70002900D01*
X53915700Y-72717500D02*
X53432100Y-72717500D01*
X50782100Y-91967900D02*
X50782100Y-91014200D01*
X51972600Y-72042400D02*
X51201000Y-72042400D01*
X54816100Y-83058400D02*
X54600800Y-82843100D01*
X55282100Y-78467900D02*
X55270700Y-78467900D01*
X55282100Y-82967900D02*
X55191600Y-83058400D01*
X89717900Y-55282100D02*
X89717900Y-57532100D01*
X62967800Y-56057000D02*
X63002900Y-56021900D01*
X80717900Y-57532100D02*
X78467900Y-57532100D01*
X62717900Y-56057000D02*
X62967800Y-56057000D01*
X62717900Y-57532100D02*
X60467900Y-57532100D01*
X62717900Y-56057000D02*
X62717900Y-57532100D01*
X86642100Y-57532100D02*
X85121200Y-59053000D01*
X81840800Y-59053000D02*
X81583400Y-58795600D01*
X71690000Y-55310000D02*
X71717900Y-55282100D01*
X53717900Y-56254700D02*
X53717900Y-57532100D01*
X69467900Y-57532100D02*
X71717900Y-57532100D01*
X81583400Y-58795600D02*
X79731400Y-58795600D01*
X62717900Y-55282100D02*
X62717900Y-56057000D01*
X69495900Y-55310000D02*
X71690000Y-55310000D01*
X79731400Y-58795600D02*
X78467900Y-57532100D01*
X80717900Y-55282100D02*
X80717900Y-57532100D01*
X51467900Y-55282100D02*
X53717900Y-55282100D01*
X53717900Y-57532100D02*
X51467900Y-57532100D01*
X60467900Y-55282100D02*
X62717900Y-55282100D01*
X71717900Y-55282100D02*
X71717900Y-57532100D01*
X87467900Y-55282100D02*
X89717900Y-55282100D01*
X69467900Y-55282100D02*
X69495900Y-55310000D01*
X78467900Y-55282100D02*
X80717900Y-55282100D01*
X53717900Y-55282100D02*
X53717900Y-56254700D01*
X89717900Y-57532100D02*
X87467900Y-57532100D01*
X69467900Y-55975900D02*
X69467900Y-55282100D01*
X85121200Y-59053000D02*
X81840800Y-59053000D01*
X87467900Y-57532100D02*
X86642100Y-57532100D01*
X78470000Y-62030000D02*
X78467900Y-62032100D01*
X71717900Y-59782100D02*
X71717900Y-62032100D01*
X80717900Y-62032100D02*
X80715900Y-62030000D01*
X87467900Y-59782100D02*
X89717900Y-59782100D01*
X80717900Y-59782100D02*
X80717900Y-60707100D01*
X53717900Y-62032100D02*
X51467900Y-62032100D01*
X53717900Y-59782100D02*
X53717900Y-61468400D01*
X72026800Y-59473200D02*
X72026800Y-59243500D01*
X55292600Y-61468400D02*
X55393600Y-61367400D01*
X60686700Y-61813300D02*
X61113800Y-61813300D01*
X53717900Y-61468400D02*
X53717900Y-62032100D01*
X62717900Y-59782100D02*
X60467900Y-59782100D01*
X62717900Y-62032100D02*
X60467900Y-62032100D01*
X60467900Y-62032100D02*
X60686700Y-61813300D01*
X80717900Y-60707100D02*
X80717900Y-62032100D01*
X69467900Y-59782100D02*
X71717900Y-59782100D01*
X89717900Y-62032100D02*
X87467900Y-62032100D01*
X71717900Y-62032100D02*
X69467900Y-62032100D01*
X71717900Y-59782100D02*
X72026800Y-59473200D01*
X53717900Y-59782100D02*
X51467900Y-59782100D01*
X53717900Y-61468400D02*
X55292600Y-61468400D01*
X80715900Y-62030000D02*
X78470000Y-62030000D01*
X62717900Y-59782100D02*
X62717900Y-62032100D01*
X89717900Y-59782100D02*
X89717900Y-62032100D01*
X87467900Y-62032100D02*
X87026600Y-61590800D01*
X78467900Y-59782100D02*
X80717900Y-59782100D01*
X87830200Y-64282100D02*
X89717900Y-64282100D01*
X87467900Y-64282100D02*
X87830200Y-64282100D01*
X71717900Y-64282100D02*
X71717900Y-66532100D01*
X87830200Y-64282100D02*
X87603400Y-64508900D01*
X70592900Y-64282100D02*
X71717900Y-64282100D01*
X69467900Y-66532100D02*
X71717900Y-66532100D01*
X62717900Y-66532100D02*
X60467900Y-66532100D01*
X62717900Y-65422400D02*
X62902600Y-65422400D01*
X60342200Y-64282100D02*
X60467900Y-64282100D01*
X54678800Y-64439400D02*
X55681400Y-63436800D01*
X62717900Y-64282100D02*
X62717900Y-65422400D01*
X69467900Y-64282100D02*
X70592900Y-64282100D01*
X53717900Y-64282100D02*
X53717900Y-64404900D01*
X78467900Y-64282100D02*
X80717900Y-64282100D01*
X80717900Y-64282100D02*
X80717900Y-64404900D01*
X87603400Y-64508900D02*
X87603400Y-65209500D01*
X80717900Y-66532100D02*
X78467900Y-66532100D01*
X62717900Y-65422400D02*
X62717900Y-66532100D01*
X80717900Y-64404900D02*
X80717900Y-66532100D01*
X81249600Y-64936600D02*
X81492200Y-64936600D01*
X51467900Y-64282100D02*
X53717900Y-64282100D01*
X62902600Y-65422400D02*
X63278000Y-65797800D01*
X89717900Y-64282100D02*
X89717900Y-66532100D01*
X53752400Y-64439400D02*
X54678800Y-64439400D01*
X70592900Y-64282100D02*
X70592900Y-64535000D01*
X89717900Y-66532100D02*
X87467900Y-66532100D01*
X59496900Y-63436800D02*
X60342200Y-64282100D01*
X80717900Y-64404900D02*
X81249600Y-64936600D01*
X55681400Y-63436800D02*
X59496900Y-63436800D01*
X60467900Y-64282100D02*
X62717900Y-64282100D01*
X53717900Y-64404900D02*
X53717900Y-66532100D01*
X53717900Y-66532100D02*
X51467900Y-66532100D01*
X70592900Y-64535000D02*
X70351900Y-64776000D01*
X53717900Y-64404900D02*
X53752400Y-64439400D01*
X80717900Y-68782100D02*
X80717900Y-71032100D01*
X54397600Y-69183600D02*
X54397600Y-68626000D01*
X69007200Y-68782100D02*
X68385500Y-68160400D01*
X80717900Y-71032100D02*
X80700500Y-71049500D01*
X71717900Y-68782100D02*
X72110000Y-68782100D01*
X89717900Y-68782100D02*
X89717900Y-71032100D01*
X89717900Y-71032100D02*
X87467900Y-71032100D01*
X72110000Y-68782100D02*
X72902300Y-67989800D01*
X69467900Y-71032100D02*
X71717900Y-71032100D01*
X53717900Y-69863300D02*
X53717900Y-68782100D01*
X62717900Y-71032100D02*
X60467900Y-71032100D01*
X78485400Y-71049500D02*
X78467900Y-71032100D01*
X78467900Y-68782100D02*
X80717900Y-68782100D01*
X60467900Y-68782100D02*
X60598400Y-68782100D01*
X87467900Y-68782100D02*
X87824000Y-68782100D01*
X71717900Y-68782100D02*
X71717900Y-71032100D01*
X69467900Y-68782100D02*
X69007200Y-68782100D01*
X53717900Y-71032100D02*
X51467900Y-71032100D01*
X53717900Y-69863300D02*
X54397600Y-69183600D01*
X72902300Y-67989800D02*
X77675600Y-67989800D01*
X87641700Y-68964400D02*
X87641700Y-69467900D01*
X87824000Y-68782100D02*
X87641700Y-68964400D01*
X87824000Y-68782100D02*
X89717900Y-68782100D01*
X60598400Y-68782100D02*
X61253900Y-68126600D01*
X62717900Y-68782100D02*
X62717900Y-71032100D01*
X80700500Y-71049500D02*
X78485400Y-71049500D01*
X61253900Y-68126600D02*
X61253900Y-67398900D01*
X80717900Y-69075900D02*
X81045900Y-69403900D01*
X60467900Y-68782100D02*
X62717900Y-68782100D01*
X53717900Y-71032100D02*
X53717900Y-69863300D01*
X80717900Y-68782100D02*
X80717900Y-69075900D01*
X77675600Y-67989800D02*
X78467900Y-68782100D01*
X51467900Y-68782100D02*
X53717900Y-68782100D01*
X69467900Y-68782100D02*
X71717900Y-68782100D01*
X64282100Y-91967900D02*
X64031600Y-91717400D01*
X63739600Y-77466400D02*
X63739600Y-77129700D01*
X59782100Y-65931900D02*
X59201500Y-66512500D01*
X63058600Y-76448700D02*
X62762600Y-76448700D01*
X59087100Y-86772900D02*
X59087100Y-85858300D01*
X63654800Y-83970700D02*
X63654800Y-86104800D01*
X59451700Y-78798300D02*
X59782100Y-78467900D01*
X59212000Y-82124400D02*
X59199100Y-82111600D01*
X60429600Y-90587500D02*
X63030600Y-90587500D01*
X59782100Y-82694600D02*
X59212000Y-82124400D01*
X59215100Y-52034900D02*
X59782100Y-51467900D01*
X59782100Y-82967900D02*
X59782100Y-82694600D01*
X64282100Y-64967900D02*
X64664800Y-65350600D01*
X63739600Y-77129700D02*
X63058600Y-76448700D01*
X62762600Y-76448700D02*
X62055300Y-77156000D01*
X62055300Y-77156000D02*
X60354700Y-77156000D01*
X63739600Y-77466400D02*
X64282100Y-78008900D01*
X59451700Y-79013500D02*
X59451700Y-78798300D01*
X59782100Y-73160900D02*
X59782100Y-73967900D01*
X58781000Y-84302700D02*
X58781000Y-83987600D01*
X59782100Y-91235000D02*
X60429600Y-90587500D01*
X59782100Y-91967900D02*
X59782100Y-91235000D01*
X63654800Y-83595200D02*
X63654800Y-83970700D01*
X64031600Y-91717400D02*
X64031600Y-90633800D01*
X64385200Y-86318700D02*
X64171300Y-86104800D01*
X64282100Y-69467900D02*
X65176000Y-69467900D01*
X64058500Y-55967900D02*
X63583400Y-56443000D01*
X59215100Y-54463700D02*
X59215100Y-52034900D01*
X59782100Y-64967900D02*
X59782100Y-65931900D01*
X64282100Y-51467900D02*
X64200800Y-51549200D01*
X59201500Y-66512500D02*
X59201500Y-68887300D01*
X59782100Y-60467900D02*
X60469800Y-60467900D01*
X64282100Y-74523000D02*
X64440400Y-74681300D01*
X64282100Y-78008900D02*
X64282100Y-78467900D01*
X59782100Y-55967900D02*
X59782000Y-55967900D01*
X64171300Y-86104800D02*
X63654800Y-86104800D01*
X58876000Y-85647200D02*
X58876000Y-84397700D01*
X59201500Y-68887300D02*
X59782100Y-69467900D01*
X64200800Y-51549200D02*
X64200800Y-52778200D01*
X59782100Y-77728600D02*
X59782100Y-78467900D01*
X59782100Y-69467900D02*
X59215400Y-70034600D01*
X63583400Y-56841600D02*
X63710500Y-56968700D01*
X63229900Y-90808500D02*
X63229900Y-90786800D01*
X59215400Y-72594200D02*
X59782100Y-73160900D01*
X63583400Y-56443000D02*
X63583400Y-56841600D01*
X64664800Y-65350600D02*
X64664800Y-65780500D01*
X64385200Y-87364800D02*
X64385200Y-86318700D01*
X63029100Y-59214900D02*
X64282100Y-60467900D01*
X58781000Y-82555400D02*
X59212000Y-82124400D01*
X58781000Y-83363200D02*
X58781000Y-82555400D01*
X64282100Y-55967900D02*
X64058500Y-55967900D01*
X63654800Y-89963300D02*
X63654800Y-86104800D01*
X60034700Y-56597600D02*
X59782100Y-56345000D01*
X63587400Y-83970700D02*
X63654800Y-83970700D01*
X58620000Y-83524200D02*
X58781000Y-83363200D01*
X60354700Y-77156000D02*
X59782100Y-77728600D01*
X59782000Y-55967900D02*
X59782000Y-55030600D01*
X59782100Y-56345000D02*
X59782100Y-55967900D01*
X63030600Y-90587500D02*
X63654800Y-89963300D01*
X59782100Y-65931900D02*
X60147200Y-65931900D01*
X64282100Y-82967900D02*
X63654800Y-83595200D01*
X60295700Y-59214900D02*
X63029100Y-59214900D01*
X59782100Y-59728500D02*
X60295700Y-59214900D01*
X64282100Y-73967900D02*
X64282100Y-74523000D01*
X59215400Y-70034600D02*
X59215400Y-72594200D01*
X59087100Y-85858300D02*
X58876000Y-85647200D01*
X64282100Y-87467900D02*
X64385200Y-87364800D01*
X58876000Y-84397700D02*
X58781000Y-84302700D01*
X59782000Y-55030600D02*
X59215100Y-54463700D01*
X65176000Y-69467900D02*
X65250100Y-69393800D01*
X58781000Y-83987600D02*
X58620000Y-83826600D01*
X63229900Y-90786800D02*
X63030600Y-90587500D01*
X59782100Y-87467900D02*
X59087100Y-86772900D01*
X59782100Y-60467900D02*
X59782100Y-59728500D01*
X58620000Y-83826600D02*
X58620000Y-83524200D01*
X87674400Y-73282100D02*
X89717900Y-73282100D01*
X80717900Y-73282100D02*
X80717900Y-75261200D01*
X81782100Y-75040700D02*
X81782100Y-75752500D01*
X62717900Y-75532100D02*
X62717900Y-73282100D01*
X61288300Y-75532100D02*
X62595100Y-75532100D01*
X62717900Y-73282100D02*
X60467900Y-73282100D01*
X83728000Y-72785700D02*
X83632700Y-72690400D01*
X61288300Y-75532100D02*
X61189400Y-75631000D01*
X69385000Y-75615000D02*
X69467900Y-75532100D01*
X81782100Y-75752500D02*
X80966300Y-76568300D01*
X53202900Y-75449700D02*
X53040300Y-75449700D01*
X81169100Y-74810000D02*
X81551400Y-74810000D01*
X69467900Y-73282100D02*
X71717900Y-73282100D01*
X87081800Y-72689500D02*
X84393300Y-72689500D01*
X62595100Y-75532100D02*
X62717900Y-75532100D01*
X53285300Y-75532100D02*
X51467900Y-75532100D01*
X78995300Y-72754700D02*
X78995300Y-72600600D01*
X80717900Y-75261200D02*
X80717900Y-75532100D01*
X89717900Y-75532100D02*
X87467900Y-75532100D01*
X87674400Y-73282100D02*
X87081800Y-72689500D01*
X53717900Y-75532100D02*
X53285300Y-75532100D01*
X89717900Y-73282100D02*
X89717900Y-75532100D01*
X81309600Y-72690400D02*
X80717900Y-73282100D01*
X71717900Y-74775700D02*
X71717900Y-75532100D01*
X71717900Y-75532100D02*
X69467900Y-75532100D01*
X71754700Y-74812500D02*
X74512100Y-74812500D01*
X81551400Y-74810000D02*
X81782100Y-75040700D01*
X53717900Y-73282100D02*
X53717900Y-75532100D01*
X61189400Y-75631000D02*
X61189400Y-75930800D01*
X84297100Y-72785700D02*
X83728000Y-72785700D01*
X83632700Y-72690400D02*
X81309600Y-72690400D01*
X71717900Y-74775700D02*
X71754700Y-74812500D01*
X63868000Y-76805000D02*
X67472600Y-76805000D01*
X80717900Y-75261200D02*
X81169100Y-74810000D01*
X78467900Y-73282100D02*
X78995300Y-72754700D01*
X53285300Y-75532100D02*
X53202900Y-75449700D01*
X87467900Y-73282100D02*
X87674400Y-73282100D01*
X67472600Y-76805000D02*
X68662600Y-75615000D01*
X78467900Y-75532100D02*
X80717900Y-75532100D01*
X68662600Y-75615000D02*
X69385000Y-75615000D01*
X71717900Y-73282100D02*
X71717900Y-74775700D01*
X62595100Y-75532100D02*
X63868000Y-76805000D01*
X78467900Y-73282100D02*
X80717900Y-73282100D01*
X60467900Y-75532100D02*
X61288300Y-75532100D01*
X84393300Y-72689500D02*
X84297100Y-72785700D01*
X51467900Y-73282100D02*
X53717900Y-73282100D01*
X89717900Y-77782100D02*
X89717900Y-80032100D01*
X87044400Y-77321300D02*
X87044400Y-77319700D01*
X89717900Y-80032100D02*
X87467900Y-80032100D01*
X80717900Y-77782100D02*
X81046000Y-77782100D01*
X87505200Y-77782100D02*
X87044400Y-77321300D01*
X53717900Y-80032100D02*
X54457900Y-80772100D01*
X69699100Y-78450100D02*
X69467900Y-78218900D01*
X53717900Y-80032100D02*
X51467900Y-80032100D01*
X62717900Y-80032100D02*
X62824800Y-80032100D01*
X51467900Y-77782100D02*
X53717900Y-77782100D01*
X69467900Y-77782100D02*
X71717900Y-77782100D01*
X87467900Y-77782100D02*
X87505200Y-77782100D01*
X53717900Y-77782100D02*
X53717900Y-80032100D01*
X87505200Y-77782100D02*
X89717900Y-77782100D01*
X80717900Y-77782100D02*
X80717900Y-80032100D01*
X78467900Y-80032100D02*
X80717900Y-80032100D01*
X60467900Y-77782100D02*
X62717900Y-77782100D01*
X71717900Y-77782100D02*
X71717900Y-80032100D01*
X69467900Y-78218900D02*
X69467900Y-77782100D01*
X81046000Y-77782100D02*
X81318800Y-77509300D01*
X78467900Y-77782100D02*
X80717900Y-77782100D01*
X62824800Y-80032100D02*
X64187900Y-81395200D01*
X69467900Y-80032100D02*
X71717900Y-80032100D01*
X62717900Y-80032100D02*
X60467900Y-80032100D01*
X62717900Y-77782100D02*
X62717900Y-80032100D01*
X54457900Y-80772100D02*
X54510400Y-80772100D01*
X87519400Y-82333600D02*
X88171700Y-82333600D01*
X57340800Y-81572400D02*
X57515800Y-81397400D01*
X60467900Y-82282100D02*
X62717900Y-82282100D01*
X89717900Y-84532100D02*
X87467900Y-84532100D01*
X69467900Y-82282100D02*
X71717900Y-82282100D01*
X59583200Y-81397400D02*
X60467900Y-82282100D01*
X63387700Y-82083800D02*
X62916200Y-82083800D01*
X53717900Y-83209600D02*
X53717900Y-84532100D01*
X71717900Y-83678000D02*
X71866900Y-83678000D01*
X51467900Y-82282100D02*
X53717900Y-82282100D01*
X62916200Y-82083800D02*
X62717900Y-82282100D01*
X55603500Y-81572400D02*
X57340800Y-81572400D01*
X80717900Y-82282100D02*
X80717900Y-84532100D01*
X80717900Y-84532100D02*
X78467900Y-84532100D01*
X80974700Y-82538900D02*
X80717900Y-82282100D01*
X54877300Y-82298600D02*
X55603500Y-81572400D01*
X69467900Y-84532100D02*
X71717900Y-84532100D01*
X81343900Y-82538900D02*
X80974700Y-82538900D01*
X51467900Y-84532100D02*
X53717900Y-84532100D01*
X53717900Y-82282100D02*
X53717900Y-83209600D01*
X87467900Y-82282100D02*
X87519400Y-82333600D01*
X53717900Y-83209600D02*
X54628900Y-82298600D01*
X62717900Y-84532100D02*
X60467900Y-84532100D01*
X57515800Y-81397400D02*
X59583200Y-81397400D01*
X62717900Y-82282100D02*
X62717900Y-84532100D01*
X54628900Y-82298600D02*
X54877300Y-82298600D01*
X78467900Y-82282100D02*
X80717900Y-82282100D01*
X89717900Y-82282100D02*
X89717900Y-84532100D01*
X71866900Y-83678000D02*
X71946700Y-83757800D01*
X71717900Y-83678000D02*
X71717900Y-84532100D01*
X87467900Y-82282100D02*
X89717900Y-82282100D01*
X71717900Y-82282100D02*
X71717900Y-83678000D01*
X62717900Y-89032100D02*
X60467900Y-89032100D01*
X62717900Y-86782100D02*
X62717900Y-89032100D01*
X78467900Y-89032100D02*
X80717900Y-89032100D01*
X80717900Y-86782100D02*
X80717900Y-88690500D01*
X87467900Y-86782100D02*
X89717900Y-86782100D01*
X87467900Y-89032100D02*
X89717900Y-89032100D01*
X81245500Y-88690500D02*
X80717900Y-88690500D01*
X69467900Y-86782100D02*
X71717900Y-86782100D01*
X51467900Y-86782100D02*
X53717900Y-86782100D01*
X80717900Y-88690500D02*
X80717900Y-89032100D01*
X53717900Y-86782100D02*
X53717900Y-88745200D01*
X53717900Y-89032100D02*
X51467900Y-89032100D01*
X89717900Y-89032100D02*
X89717900Y-86782100D01*
X62728400Y-89032100D02*
X62717900Y-89032100D01*
X63169100Y-89472800D02*
X62728400Y-89032100D01*
X71717900Y-87651200D02*
X71717900Y-89032100D01*
X60467900Y-86782100D02*
X62717900Y-86782100D01*
X90647800Y-86807400D02*
X90622500Y-86782100D01*
X71717900Y-86782100D02*
X71717900Y-87651200D01*
X90622500Y-86782100D02*
X89717900Y-86782100D01*
X71717900Y-89032100D02*
X69467900Y-89032100D01*
X55232700Y-88745200D02*
X53717900Y-88745200D01*
X80717900Y-86782100D02*
X78467900Y-86782100D01*
X53717900Y-88745200D02*
X53717900Y-89032100D01*
X55378100Y-88599800D02*
X55232700Y-88745200D01*
X71717900Y-91282100D02*
X71717900Y-93532100D01*
X69418500Y-93482700D02*
X68786600Y-93482700D01*
X69467900Y-93532100D02*
X71717900Y-93532100D01*
X60467900Y-91282100D02*
X62717900Y-91282100D01*
X79156100Y-93532100D02*
X79156100Y-94292800D01*
X51467900Y-91282100D02*
X53717900Y-91282100D01*
X87941600Y-93532100D02*
X87467900Y-93532100D01*
X80717900Y-93532100D02*
X79156100Y-93532100D01*
X79156100Y-94292800D02*
X78819800Y-94629100D01*
X53717900Y-91282100D02*
X53717900Y-92439000D01*
X87941600Y-93832100D02*
X86991200Y-94782500D01*
X86191500Y-94782500D02*
X86085900Y-94676900D01*
X79156100Y-93532100D02*
X78467900Y-93532100D01*
X53717900Y-93532100D02*
X51467900Y-93532100D01*
X71717900Y-91282100D02*
X69467900Y-91282100D01*
X86991200Y-94782500D02*
X86191500Y-94782500D01*
X62717900Y-91282100D02*
X62717900Y-93532100D01*
X80717900Y-91282100D02*
X80717900Y-93532100D01*
X60467900Y-93532100D02*
X60738800Y-93532100D01*
X87941600Y-93532100D02*
X87941600Y-93832100D01*
X89717900Y-91282100D02*
X89717900Y-93532100D01*
X89717900Y-93532100D02*
X87941600Y-93532100D01*
X87467900Y-91282100D02*
X89717900Y-91282100D01*
X69467900Y-93532100D02*
X69418500Y-93482700D01*
X53717900Y-92439000D02*
X53717900Y-93532100D01*
X78467900Y-91282100D02*
X80717900Y-91282100D01*
X60738800Y-93532100D02*
X62717900Y-93532100D01*
X60738800Y-93532100D02*
X60150700Y-92944000D01*
X55967900Y-91282100D02*
X58217900Y-91282100D01*
X94217900Y-93532100D02*
X91967900Y-93532100D01*
X91856500Y-93532100D02*
X91469600Y-93145200D01*
X67217900Y-93532100D02*
X64967900Y-93532100D01*
X85217900Y-93532100D02*
X82967900Y-93532100D01*
X91967900Y-91282100D02*
X94217900Y-91282100D01*
X74968400Y-91282100D02*
X76217900Y-91282100D01*
X85217900Y-91282100D02*
X85217900Y-93532100D01*
X58217900Y-92932000D02*
X58217900Y-93532100D01*
X73967900Y-91282100D02*
X74968400Y-91282100D01*
X58217900Y-91282100D02*
X58217900Y-92932000D01*
X94217900Y-91282100D02*
X94217900Y-93532100D01*
X58217900Y-93532100D02*
X55967900Y-93532100D01*
X91967900Y-93532100D02*
X91856500Y-93532100D01*
X82967900Y-91282100D02*
X83640700Y-90609300D01*
X82967900Y-91282100D02*
X85217900Y-91282100D01*
X73967900Y-93532100D02*
X76217900Y-93532100D01*
X76217900Y-91282100D02*
X76217900Y-93532100D01*
X65083400Y-94545700D02*
X65083400Y-93647600D01*
X67217900Y-91282100D02*
X67217900Y-93532100D01*
X58473700Y-92932000D02*
X58217900Y-92932000D01*
X64967900Y-91282100D02*
X67217900Y-91282100D01*
X65083400Y-93647600D02*
X64967900Y-93532100D01*
X92960800Y-86782100D02*
X92962400Y-86782100D01*
X82333700Y-86147900D02*
X82967900Y-86782100D01*
X58217900Y-89032100D02*
X55967900Y-89032100D01*
X76217900Y-86782100D02*
X76217900Y-89032100D01*
X82967900Y-86782100D02*
X84768600Y-86782100D01*
X85395200Y-86155500D02*
X85395200Y-86089100D01*
X94217900Y-86782100D02*
X94217900Y-89032100D01*
X91967900Y-89032100D02*
X94217900Y-89032100D01*
X55967900Y-86782100D02*
X58217900Y-86782100D01*
X67217900Y-89032100D02*
X67217900Y-87904800D01*
X76217900Y-86782100D02*
X76852100Y-86147900D01*
X92962400Y-86782100D02*
X94217900Y-86782100D01*
X91967900Y-86782100D02*
X92960800Y-86782100D01*
X61020600Y-88331800D02*
X61021800Y-88333000D01*
X84768600Y-86782100D02*
X85395200Y-86155500D01*
X66119000Y-88032500D02*
X66100500Y-88014000D01*
X73967900Y-86782100D02*
X76217900Y-86782100D01*
X85217900Y-89032100D02*
X82967900Y-89032100D01*
X84768600Y-86782100D02*
X85217900Y-86782100D01*
X58217900Y-88331800D02*
X58217900Y-89032100D01*
X67217900Y-87904800D02*
X67217900Y-86782100D01*
X67217900Y-87904800D02*
X67090200Y-88032500D01*
X67090200Y-88032500D02*
X66119000Y-88032500D01*
X85217900Y-86782100D02*
X85217900Y-89032100D01*
X67217900Y-86782100D02*
X64967900Y-86782100D01*
X73967900Y-89032100D02*
X76217900Y-89032100D01*
X92960800Y-86782100D02*
X92962400Y-86782100D01*
X58217900Y-86782100D02*
X58217900Y-88331800D01*
X58217900Y-88331800D02*
X61020600Y-88331800D01*
X64967900Y-89032100D02*
X67217900Y-89032100D01*
X76852100Y-86147900D02*
X82333700Y-86147900D01*
X90998700Y-83799200D02*
X91058400Y-83739500D01*
X76217900Y-82282100D02*
X76217900Y-84532100D01*
X73441800Y-85782500D02*
X72757600Y-85782500D01*
X73967900Y-82282100D02*
X76217900Y-82282100D01*
X91476000Y-83739500D02*
X91967900Y-84231400D01*
X85217900Y-83178500D02*
X85217900Y-84532100D01*
X85217900Y-82282100D02*
X85217900Y-83178500D01*
X55967900Y-82282100D02*
X58217900Y-82282100D01*
X91058400Y-83739500D02*
X91476000Y-83739500D01*
X64967900Y-82282100D02*
X67217900Y-82282100D01*
X82967900Y-82282100D02*
X85217900Y-82282100D01*
X58217900Y-84532100D02*
X55967900Y-84532100D01*
X74531600Y-84692700D02*
X73441800Y-85782500D01*
X85217900Y-83178500D02*
X85495200Y-83455800D01*
X58217900Y-85505600D02*
X58658900Y-85946600D01*
X58217900Y-82282100D02*
X58217900Y-84532100D01*
X76217900Y-84532100D02*
X74531600Y-84532100D01*
X67217900Y-82282100D02*
X67217900Y-84532100D01*
X91967900Y-82282100D02*
X94217900Y-82282100D01*
X64967900Y-84532100D02*
X64275200Y-84532100D01*
X94217900Y-82282100D02*
X94217900Y-84532100D01*
X72757600Y-85782500D02*
X72291700Y-85316600D01*
X94217900Y-84532100D02*
X91967900Y-84532100D01*
X91967900Y-84231400D02*
X91967900Y-84532100D01*
X67217900Y-84532100D02*
X64967900Y-84532100D01*
X85495200Y-83455800D02*
X85495200Y-83584800D01*
X58217900Y-84532100D02*
X58217900Y-85505600D01*
X74531600Y-84532100D02*
X73967900Y-84532100D01*
X74531600Y-84532100D02*
X74531600Y-84692700D01*
X82967900Y-84532100D02*
X85217900Y-84532100D01*
X64539300Y-77353500D02*
X64248800Y-77353500D01*
X94217900Y-80032100D02*
X91967900Y-80032100D01*
X76217900Y-80032100D02*
X73967900Y-80032100D01*
X67217900Y-77782100D02*
X67217900Y-80032100D01*
X67217900Y-80032100D02*
X64967900Y-80032100D01*
X64967900Y-77782100D02*
X64539300Y-77353500D01*
X76217900Y-77782100D02*
X76100000Y-77900000D01*
X55967900Y-80032100D02*
X58217900Y-80032100D01*
X73967900Y-77782100D02*
X76217900Y-77782100D01*
X85217900Y-80032100D02*
X83857800Y-80032100D01*
X76100000Y-79914200D02*
X76217900Y-80032100D01*
X82967900Y-77782100D02*
X85217900Y-77782100D01*
X76100000Y-77900000D02*
X76100000Y-79914200D01*
X74531800Y-77480700D02*
X74269300Y-77480700D01*
X58217900Y-77231300D02*
X58853300Y-76595900D01*
X58217900Y-77782100D02*
X58217900Y-80032100D01*
X64967900Y-77782100D02*
X64935500Y-77814500D01*
X91967900Y-77782100D02*
X94217900Y-77782100D01*
X85217900Y-77782100D02*
X85217900Y-80032100D01*
X58217900Y-77782100D02*
X58217900Y-77231300D01*
X74269300Y-77480700D02*
X73967900Y-77782100D01*
X92188600Y-79811400D02*
X91967900Y-80032100D01*
X55967900Y-77782100D02*
X58217900Y-77782100D01*
X92645000Y-79811400D02*
X92188600Y-79811400D01*
X66409300Y-77782100D02*
X67217900Y-77782100D01*
X83857800Y-80032100D02*
X82967900Y-80032100D01*
X64967900Y-77782100D02*
X66409300Y-77782100D01*
X64935500Y-79999600D02*
X64967900Y-80032100D01*
X94217900Y-77782100D02*
X94217900Y-80032100D01*
X73967900Y-73282100D02*
X76217900Y-73282100D01*
X58217900Y-74278400D02*
X58598500Y-73897800D01*
X76217900Y-75532100D02*
X73967900Y-75532100D01*
X64525000Y-72763300D02*
X64967900Y-73206200D01*
X58217900Y-75532100D02*
X55967900Y-75532100D01*
X58217900Y-74278400D02*
X58217900Y-75532100D01*
X67217900Y-75532100D02*
X67217900Y-73282100D01*
X58598500Y-73897800D02*
X58598500Y-73808800D01*
X64967900Y-73206200D02*
X64967900Y-73282100D01*
X91967900Y-73282100D02*
X94217900Y-73282100D01*
X76217900Y-73282100D02*
X76217900Y-75532100D01*
X74099500Y-73150500D02*
X74650600Y-73150500D01*
X91966600Y-75530800D02*
X91285300Y-75530800D01*
X91967900Y-75532100D02*
X91966600Y-75530800D01*
X58217900Y-73282100D02*
X58217900Y-74278400D01*
X94217900Y-73282100D02*
X94217900Y-75532100D01*
X85217900Y-75532100D02*
X83930700Y-75532100D01*
X73967900Y-73282100D02*
X74099500Y-73150500D01*
X82967900Y-73282100D02*
X85217900Y-73282100D01*
X83930700Y-75532100D02*
X82967900Y-75532100D01*
X85217900Y-73282100D02*
X85217900Y-75532100D01*
X55967900Y-73282100D02*
X58217900Y-73282100D01*
X64967900Y-75532100D02*
X67217900Y-75532100D01*
X94217900Y-75532100D02*
X91967900Y-75532100D01*
X64967900Y-73282100D02*
X67217900Y-73282100D01*
X91967900Y-71032100D02*
X94217900Y-71032100D01*
X85217900Y-71032100D02*
X82967900Y-71032100D01*
X91967900Y-71032100D02*
X91940200Y-71004400D01*
X76217900Y-71032100D02*
X76644500Y-71032100D01*
X67217900Y-68782100D02*
X67217900Y-70490300D01*
X58848300Y-70453400D02*
X58487900Y-70813800D01*
X85217900Y-68782100D02*
X85217900Y-70468400D01*
X67217900Y-70490300D02*
X67217900Y-71032100D01*
X58217900Y-68782100D02*
X55967900Y-68782100D01*
X91967900Y-68782100D02*
X94217900Y-68782100D01*
X67664000Y-70490300D02*
X67672900Y-70499200D01*
X67217900Y-70490300D02*
X67664000Y-70490300D01*
X58487900Y-70813800D02*
X58217900Y-70813800D01*
X67217900Y-71032100D02*
X64967900Y-71032100D01*
X76644500Y-71032100D02*
X76873400Y-71261000D01*
X91940200Y-71004400D02*
X90973400Y-71004400D01*
X85217900Y-70468400D02*
X85863400Y-70468400D01*
X82967900Y-68782100D02*
X85217900Y-68782100D01*
X73967900Y-71032100D02*
X76217900Y-71032100D01*
X58217900Y-68782100D02*
X58217900Y-70813800D01*
X76217900Y-68782100D02*
X76217900Y-71032100D01*
X55967900Y-71032100D02*
X58217900Y-71032100D01*
X64967900Y-68782100D02*
X67217900Y-68782100D01*
X73967900Y-68782100D02*
X76217900Y-68782100D01*
X85863400Y-70468400D02*
X85930500Y-70535500D01*
X94217900Y-68782100D02*
X94217900Y-71032100D01*
X58217900Y-70813800D02*
X58217900Y-71032100D01*
X85217900Y-70468400D02*
X85217900Y-71032100D01*
X64868600Y-66532100D02*
X64967900Y-66532100D01*
X64108000Y-65771500D02*
X64868600Y-66532100D01*
X82967900Y-64282100D02*
X85217900Y-64282100D01*
X92471100Y-67036800D02*
X91967900Y-66533600D01*
X85217900Y-64282100D02*
X85217900Y-66532100D01*
X94217900Y-66532100D02*
X91967900Y-66532100D01*
X86112300Y-64282100D02*
X87273000Y-63121400D01*
X74501000Y-67396500D02*
X73967900Y-66863400D01*
X58217900Y-66532100D02*
X55967900Y-66532100D01*
X88881100Y-63631400D02*
X91317200Y-63631400D01*
X85217900Y-64282100D02*
X86112300Y-64282100D01*
X64967900Y-64282100D02*
X67217900Y-64282100D01*
X73967900Y-64282100D02*
X76217900Y-64282100D01*
X76217900Y-64282100D02*
X76217900Y-66532100D01*
X91317200Y-63631400D02*
X91967900Y-64282100D01*
X87273000Y-63121400D02*
X88371100Y-63121400D01*
X67217900Y-64282100D02*
X67217900Y-66532100D01*
X55967900Y-64282100D02*
X58217900Y-64282100D01*
X73967900Y-66532100D02*
X76217900Y-66532100D01*
X85217900Y-66532100D02*
X82967900Y-66532100D01*
X73967900Y-66863400D02*
X73967900Y-66532100D01*
X91967900Y-66533600D02*
X91967900Y-66532100D01*
X58661900Y-65105200D02*
X58217900Y-65105200D01*
X91967900Y-64282100D02*
X94217900Y-64282100D01*
X94217900Y-64282100D02*
X94217900Y-66532100D01*
X64967900Y-66532100D02*
X67217900Y-66532100D01*
X58217900Y-64282100D02*
X58217900Y-65105200D01*
X88371100Y-63121400D02*
X88881100Y-63631400D01*
X58217900Y-65105200D02*
X58217900Y-66532100D01*
X67217900Y-61943000D02*
X67217900Y-62032100D01*
X94217900Y-62032100D02*
X94155500Y-62094500D01*
X58217900Y-62032100D02*
X55967900Y-62032100D01*
X91967900Y-59782100D02*
X94217900Y-59782100D01*
X55967900Y-59782100D02*
X58217900Y-59782100D01*
X67217900Y-59782100D02*
X67217900Y-61943000D01*
X85911800Y-59782100D02*
X86768700Y-58925200D01*
X58217900Y-59782100D02*
X58217900Y-60863300D01*
X67217900Y-61943000D02*
X67439700Y-62164800D01*
X58217900Y-60863300D02*
X58217900Y-62032100D01*
X91524400Y-59782100D02*
X91967900Y-59782100D01*
X94217900Y-59782100D02*
X94217900Y-62032100D01*
X76220000Y-62030000D02*
X76217900Y-62032100D01*
X67439700Y-62164800D02*
X67439700Y-62696900D01*
X65176500Y-59573500D02*
X67009400Y-59573500D01*
X76220000Y-59784100D02*
X76220000Y-62030000D01*
X76217900Y-59782100D02*
X76220000Y-59784100D01*
X83656100Y-62032100D02*
X82967900Y-62032100D01*
X67009400Y-59573500D02*
X67217900Y-59782100D01*
X58217900Y-60863300D02*
X59011900Y-60069300D01*
X86768700Y-58925200D02*
X90667500Y-58925200D01*
X85217900Y-59782100D02*
X85911800Y-59782100D01*
X90667500Y-58925200D02*
X91524400Y-59782100D01*
X64522100Y-59336300D02*
X64967900Y-59782100D01*
X64967900Y-62032100D02*
X67217900Y-62032100D01*
X85217900Y-59782100D02*
X85217900Y-62032100D01*
X64967900Y-59782100D02*
X65176500Y-59573500D01*
X64967900Y-59782100D02*
X64967900Y-59976800D01*
X59011900Y-60069300D02*
X59011900Y-59372400D01*
X76217900Y-62032100D02*
X73967900Y-62032100D01*
X85217900Y-62032100D02*
X83656100Y-62032100D01*
X94155500Y-62094500D02*
X92030400Y-62094500D01*
X76662400Y-62476600D02*
X76217900Y-62032100D01*
X73967900Y-59782100D02*
X76217900Y-59782100D01*
X82967900Y-59782100D02*
X85217900Y-59782100D01*
X92030400Y-62094500D02*
X91967900Y-62032100D01*
X70097800Y-78673400D02*
X70248700Y-78673400D01*
X75343600Y-73779400D02*
X74603400Y-73779400D01*
X74351300Y-83776600D02*
X74723400Y-83776600D01*
X75532100Y-73967900D02*
X75343600Y-73779400D01*
X74720000Y-69231400D02*
X75295600Y-69231400D01*
X70248700Y-78673400D02*
X70454200Y-78467900D01*
X75532100Y-91967900D02*
X74678300Y-92821700D01*
X70598400Y-56401600D02*
X71032100Y-55967900D01*
X70210000Y-56401600D02*
X70598400Y-56401600D01*
X70381700Y-51224500D02*
X70788700Y-51224500D01*
X74678300Y-92821700D02*
X74380700Y-92821700D01*
X75499300Y-87500700D02*
X75532100Y-87467900D01*
X75337300Y-78273100D02*
X75532100Y-78467900D01*
X70806700Y-65193300D02*
X69670200Y-65193300D01*
X75295600Y-69231400D02*
X75532100Y-69467900D01*
X70454400Y-74545600D02*
X71032100Y-73967900D01*
X70788700Y-51224500D02*
X71032100Y-51467900D01*
X75532100Y-55967900D02*
X75213400Y-55649200D01*
X75532100Y-51467900D02*
X74874700Y-52125300D01*
X71032100Y-61159600D02*
X71032100Y-60467900D01*
X70454200Y-78467900D02*
X71032100Y-78467900D01*
X74603400Y-73779400D02*
X74603400Y-73779300D01*
X71032100Y-83585600D02*
X71184200Y-83737700D01*
X75532100Y-64967900D02*
X75473800Y-65026200D01*
X68048600Y-80722600D02*
X70097800Y-78673400D01*
X75213400Y-55649200D02*
X74962900Y-55649200D01*
X75435700Y-60467900D02*
X74939300Y-60964300D01*
X71032100Y-64967900D02*
X70806700Y-65193300D01*
X71175000Y-92110800D02*
X71175000Y-92649100D01*
X71032100Y-87467900D02*
X71284200Y-87720000D01*
X75532100Y-60467900D02*
X75435700Y-60467900D01*
X74667600Y-78273100D02*
X75337300Y-78273100D01*
X75473800Y-65026200D02*
X75473800Y-65917300D01*
X71284200Y-87720000D02*
X71284200Y-88170100D01*
X74698400Y-87500700D02*
X75499300Y-87500700D01*
X71032100Y-82967900D02*
X71032100Y-83585600D01*
X71032100Y-70073900D02*
X70900000Y-70206000D01*
X74723400Y-83776600D02*
X75532100Y-82967900D01*
X68048600Y-80830300D02*
X68048600Y-80722600D01*
X71032100Y-69467900D02*
X71032100Y-70073900D01*
X71032100Y-91967900D02*
X71175000Y-92110800D01*
X65460500Y-54910200D02*
X65460500Y-55073500D01*
X91967900Y-57532100D02*
X91756000Y-57320200D01*
X82967900Y-55282100D02*
X85217900Y-55282100D01*
X82967900Y-55282100D02*
X82152600Y-55282100D01*
X91967900Y-55282100D02*
X94217900Y-55282100D01*
X65176500Y-55073500D02*
X65460500Y-55073500D01*
X76230000Y-57520000D02*
X76217900Y-57532100D01*
X58604400Y-55404900D02*
X58899700Y-55109600D01*
X58217900Y-55404900D02*
X58604400Y-55404900D01*
X85217900Y-57532100D02*
X82967900Y-57532100D01*
X81315900Y-54445400D02*
X77054600Y-54445400D01*
X58217900Y-55404900D02*
X58217900Y-57532100D01*
X76230000Y-55294100D02*
X76230000Y-57520000D01*
X76217900Y-55282100D02*
X76230000Y-55294100D01*
X64967900Y-55282100D02*
X65176500Y-55073500D01*
X82967900Y-57621700D02*
X83375700Y-58029500D01*
X82967900Y-57532100D02*
X82967900Y-57621700D01*
X94217900Y-57532100D02*
X91967900Y-57532100D01*
X67217900Y-55282100D02*
X67217900Y-57532100D01*
X67009400Y-55073500D02*
X67217900Y-55282100D01*
X58217900Y-55282100D02*
X58217900Y-55404900D01*
X76217900Y-57532100D02*
X73967900Y-57532100D01*
X55967900Y-55282100D02*
X58217900Y-55282100D01*
X65460500Y-55073500D02*
X67009400Y-55073500D01*
X94217900Y-55282100D02*
X94217900Y-57532100D01*
X91756000Y-57320200D02*
X91275100Y-57320200D01*
X85217900Y-55282100D02*
X85217900Y-57532100D01*
X67217900Y-57532100D02*
X64967900Y-57532100D01*
X77054600Y-54445400D02*
X76217900Y-55282100D01*
X82152600Y-55282100D02*
X81315900Y-54445400D01*
X58217900Y-57532100D02*
X55967900Y-57532100D01*
X73967900Y-55282100D02*
X76217900Y-55282100D01*
X76210000Y-53024100D02*
X76217900Y-53032100D01*
X58839700Y-50551800D02*
X58448200Y-50551800D01*
X64967900Y-50782100D02*
X65176500Y-50573500D01*
X76210000Y-50790000D02*
X76210000Y-53024100D01*
X94217900Y-50782100D02*
X91967900Y-50782100D01*
X94217900Y-53032100D02*
X94217900Y-50782100D01*
X91967900Y-53032100D02*
X94217900Y-53032100D01*
X67009400Y-50573500D02*
X67217900Y-50782100D01*
X73967900Y-50782100D02*
X76217900Y-50782100D01*
X82967900Y-50782100D02*
X85217900Y-50782100D01*
X91403300Y-50217500D02*
X85905300Y-50217500D01*
X65530900Y-50477500D02*
X65412300Y-50477500D01*
X67217900Y-50782100D02*
X67217900Y-53032100D01*
X65316300Y-50573500D02*
X67009400Y-50573500D01*
X91967900Y-50782100D02*
X91403300Y-50217500D01*
X85905300Y-50217500D02*
X85217900Y-50904900D01*
X82332500Y-53032100D02*
X82291300Y-52990900D01*
X82967900Y-53032100D02*
X82332500Y-53032100D01*
X76217900Y-50782100D02*
X76210000Y-50790000D01*
X58448200Y-50551800D02*
X58217900Y-50782100D01*
X76217900Y-53032100D02*
X73967900Y-53032100D01*
X65176500Y-50573500D02*
X65316300Y-50573500D01*
X58217900Y-50782100D02*
X58217900Y-53032100D01*
X76217900Y-53032100D02*
X76579200Y-53393400D01*
X58217900Y-53032100D02*
X55967900Y-53032100D01*
X55967900Y-50782100D02*
X58217900Y-50782100D01*
X64967900Y-53032100D02*
X67217900Y-53032100D01*
X85217900Y-50782100D02*
X85217900Y-50904900D01*
X85217900Y-50904900D02*
X85217900Y-53032100D01*
X65412300Y-50477500D02*
X65316300Y-50573500D01*
X85217900Y-53032100D02*
X82967900Y-53032100D01*
X76579200Y-53393400D02*
X76764500Y-53393400D01*
X57532100Y-73967900D02*
X57610300Y-74046100D01*
X57389200Y-69610800D02*
X57389200Y-70150700D01*
X53032100Y-60467900D02*
X52958700Y-60541300D01*
X57532100Y-56662000D02*
X57532100Y-55967900D01*
X53032100Y-78467900D02*
X53032100Y-78604000D01*
X53032100Y-69467900D02*
X52687700Y-69812300D01*
X53032100Y-55967900D02*
X53191400Y-56127200D01*
X52829500Y-65170500D02*
X52829500Y-65633900D01*
X57532100Y-82967900D02*
X57623200Y-83059000D01*
X53032100Y-74655300D02*
X53032100Y-73967900D01*
X52687700Y-69812300D02*
X52687700Y-69976700D01*
X57532100Y-87467900D02*
X57103700Y-87896300D01*
X56917800Y-51188300D02*
X57252500Y-51188300D01*
X57532100Y-91967900D02*
X57466900Y-92033100D01*
X57532100Y-69467900D02*
X57389200Y-69610800D01*
X52958700Y-60541300D02*
X52958700Y-61144800D01*
X53040100Y-88154400D02*
X53040100Y-87475900D01*
X56967500Y-65532500D02*
X54853100Y-65532500D01*
X53032100Y-78604000D02*
X52666300Y-78969800D01*
X57252500Y-51188300D02*
X57532100Y-51467900D01*
X57610300Y-74046100D02*
X57610300Y-74644600D01*
X57171700Y-78828300D02*
X57171700Y-79018700D01*
X54853100Y-65532500D02*
X54848300Y-65527700D01*
X57532100Y-64967900D02*
X56967500Y-65532500D01*
X57103700Y-87896300D02*
X57073400Y-87896300D01*
X57623200Y-83059000D02*
X57623200Y-83648200D01*
X53040100Y-87475900D02*
X53032100Y-87467900D01*
X57532100Y-60467900D02*
X56715600Y-60467900D01*
X57532100Y-78467900D02*
X57171700Y-78828300D01*
X57466900Y-92033100D02*
X56851900Y-92033100D01*
X53032100Y-64967900D02*
X52829500Y-65170500D01*
X53032100Y-51467900D02*
X52604100Y-51895900D01*
X53191400Y-56127200D02*
X53191400Y-56663300D01*
X53032100Y-82967900D02*
X52828600Y-83171400D01*
X56715600Y-60467900D02*
X56271100Y-60912400D01*
X52828600Y-83171400D02*
X52828600Y-83641900D01*
X53032100Y-91967900D02*
X52600500Y-92399500D01*
X50217500Y-58782500D02*
X50782100Y-58217900D01*
X55282100Y-76181500D02*
X55282100Y-76217900D01*
X50217500Y-65608400D02*
X50313800Y-65704700D01*
X54713300Y-63286700D02*
X55282100Y-62717900D01*
X51838600Y-71717900D02*
X50782100Y-71717900D01*
X50551800Y-84987600D02*
X50782100Y-85217900D01*
X51350900Y-63286700D02*
X54713300Y-63286700D01*
X50782100Y-53717900D02*
X51353300Y-54289100D01*
X51350900Y-63286700D02*
X50217500Y-64420100D01*
X51350900Y-63286700D02*
X50782100Y-62717900D01*
X50217500Y-64420100D02*
X50217500Y-65608400D01*
X53896400Y-77201400D02*
X53512200Y-77201400D01*
X52408400Y-79457000D02*
X52541900Y-79590500D01*
X55282100Y-79342700D02*
X55282100Y-80717900D01*
X50687300Y-89623100D02*
X50782100Y-89717900D01*
X50782100Y-94217900D02*
X50674000Y-94109800D01*
X54549600Y-90450400D02*
X55282100Y-89717900D01*
X55282100Y-67217900D02*
X55072700Y-67217900D01*
X54399000Y-85466400D02*
X54199900Y-85267300D01*
X54500000Y-57435800D02*
X55282100Y-58217900D01*
X51514600Y-90450400D02*
X54549600Y-90450400D01*
X51353300Y-54289100D02*
X53422000Y-54289100D01*
X50551800Y-84562800D02*
X50551800Y-84987600D01*
X55033600Y-85466400D02*
X54399000Y-85466400D01*
X50782100Y-79898000D02*
X51223100Y-79457000D01*
X55282100Y-53717900D02*
X55385800Y-53821600D01*
X54701000Y-94799000D02*
X51363200Y-94799000D01*
X50782100Y-80717900D02*
X50782100Y-79898000D01*
X54686800Y-71412200D02*
X54992500Y-71717900D01*
X50217500Y-55424900D02*
X50217500Y-57653300D01*
X50217500Y-62153300D02*
X50217500Y-58782500D01*
X55282100Y-94217900D02*
X54701000Y-94799000D01*
X54992500Y-71717900D02*
X55282100Y-71717900D01*
X55072700Y-67217900D02*
X54740700Y-67549900D01*
X54500000Y-55367100D02*
X54500000Y-55637500D01*
X50217500Y-57653300D02*
X50782100Y-58217900D01*
X51957900Y-77393700D02*
X50782100Y-76217900D01*
X54488500Y-84536100D02*
X54488500Y-84046700D01*
X50313800Y-66749600D02*
X50782100Y-67217900D01*
X54462400Y-78523000D02*
X54462400Y-77767400D01*
X50782100Y-89717900D02*
X51514600Y-90450400D01*
X54612000Y-75511400D02*
X55282100Y-76181500D01*
X54199900Y-85267300D02*
X54199900Y-84824700D01*
X54199900Y-84824700D02*
X54488500Y-84536100D01*
X54462400Y-77767400D02*
X53896400Y-77201400D01*
X54493000Y-78553600D02*
X54462400Y-78523000D01*
X55282100Y-85217900D02*
X55033600Y-85466400D01*
X50687300Y-89019300D02*
X50687300Y-89623100D01*
X53422000Y-54289100D02*
X54500000Y-55367100D01*
X51363200Y-94799000D02*
X50782100Y-94217900D01*
X54493000Y-78553600D02*
X55282100Y-79342700D01*
X50782100Y-62717900D02*
X50217500Y-62153300D01*
X53512200Y-77201400D02*
X53319900Y-77393700D01*
X51353300Y-54289100D02*
X50217500Y-55424900D01*
X52095300Y-71461200D02*
X51838600Y-71717900D01*
X50674000Y-94109800D02*
X50674000Y-93528300D01*
X55385800Y-53821600D02*
X56255200Y-53821600D01*
X53319900Y-77393700D02*
X51957900Y-77393700D01*
X54500000Y-55637500D02*
X54500000Y-57435800D01*
X50313800Y-65704700D02*
X50313800Y-66749600D01*
X51223100Y-79457000D02*
X52408400Y-79457000D01*
X54072900Y-67398700D02*
X54072900Y-67217900D01*
X58801700Y-75941500D02*
X58525300Y-76217900D01*
X54913700Y-76806700D02*
X54324900Y-76217900D01*
X57532100Y-58817700D02*
X57692700Y-58817700D01*
X58796000Y-77204000D02*
X58796000Y-80176300D01*
X57532100Y-76217900D02*
X56158800Y-76217900D01*
X54072900Y-67217900D02*
X54072900Y-67106000D01*
X56718100Y-67217900D02*
X56373500Y-67217900D01*
X57301800Y-94448200D02*
X57532100Y-94217900D01*
X55570000Y-76806700D02*
X54913700Y-76806700D01*
X58844600Y-55738100D02*
X59274600Y-55308100D01*
X53032100Y-85217900D02*
X53791700Y-85217900D01*
X56957300Y-85792700D02*
X57532100Y-85217900D01*
X53032100Y-58217900D02*
X53631900Y-58817700D01*
X57692700Y-58817700D02*
X57761100Y-58886100D01*
X56699400Y-71717900D02*
X56301100Y-71717900D01*
X56949500Y-54300500D02*
X57532100Y-53717900D01*
X59274600Y-54903200D02*
X58089300Y-53717900D01*
X54072900Y-67106000D02*
X54393900Y-66785000D01*
X58209300Y-62749100D02*
X57563300Y-62749100D01*
X59219400Y-76359200D02*
X59219400Y-76780600D01*
X56699400Y-71522700D02*
X56699400Y-71717900D01*
X55673800Y-67917600D02*
X54591800Y-67917600D01*
X56158800Y-76217900D02*
X55570000Y-76806700D01*
X59110000Y-75633200D02*
X58801700Y-75941500D01*
X53032100Y-80717900D02*
X53631300Y-81317100D01*
X59219400Y-76780600D02*
X58796000Y-77204000D01*
X55676300Y-72342700D02*
X53656900Y-72342700D01*
X59110000Y-73295800D02*
X59110000Y-75633200D01*
X56932900Y-81317100D02*
X54562800Y-81317100D01*
X56233700Y-89717900D02*
X57532100Y-89717900D01*
X53791700Y-85217900D02*
X54366500Y-85792700D01*
X57532100Y-58217900D02*
X58335900Y-58217900D01*
X53631300Y-81317100D02*
X54562800Y-81317100D01*
X55175600Y-54300500D02*
X56949500Y-54300500D01*
X54366500Y-85792700D02*
X54824900Y-85792700D01*
X59274600Y-55308100D02*
X59274600Y-54903200D01*
X57532100Y-80717900D02*
X56932900Y-81317100D01*
X56373500Y-67217900D02*
X55673800Y-67917600D01*
X58844600Y-57709200D02*
X58844600Y-55738100D01*
X58089300Y-53717900D02*
X57532100Y-53717900D01*
X56301100Y-71717900D02*
X55676300Y-72342700D01*
X54072900Y-67217900D02*
X53032100Y-67217900D01*
X54324900Y-76217900D02*
X53032100Y-76217900D01*
X58525300Y-76217900D02*
X57532100Y-76217900D01*
X53032100Y-53717900D02*
X54593000Y-53717900D01*
X57563300Y-62749100D02*
X57532100Y-62717900D01*
X58796000Y-80176300D02*
X58254400Y-80717900D01*
X54824900Y-85792700D02*
X56957300Y-85792700D01*
X53727900Y-94320900D02*
X53135100Y-94320900D01*
X53135100Y-94320900D02*
X53032100Y-94217900D01*
X57532100Y-67217900D02*
X56718100Y-67217900D01*
X53032100Y-89717900D02*
X53399400Y-90085200D01*
X56909300Y-94448200D02*
X57301800Y-94448200D01*
X56699400Y-71717900D02*
X57532100Y-71717900D01*
X53399400Y-90085200D02*
X53713300Y-90085200D01*
X53631900Y-58817700D02*
X57532100Y-58817700D01*
X53656900Y-72342700D02*
X53032100Y-71717900D01*
X53032100Y-62717900D02*
X53709300Y-62717900D01*
X58801700Y-75941500D02*
X59219400Y-76359200D01*
X54593000Y-53717900D02*
X55175600Y-54300500D01*
X54824900Y-85792700D02*
X54824900Y-86204100D01*
X58335900Y-58217900D02*
X58844600Y-57709200D01*
X55910700Y-90040900D02*
X56233700Y-89717900D01*
X57532100Y-71717900D02*
X59110000Y-73295800D01*
X58254400Y-80717900D02*
X57532100Y-80717900D01*
X57532100Y-58817700D02*
X57532100Y-58217900D01*
X54591800Y-67917600D02*
X54072900Y-67398700D01*
X62032100Y-51945700D02*
X62032100Y-51467900D01*
X62032100Y-69467900D02*
X62032100Y-69989000D01*
X62032100Y-64967900D02*
X62062500Y-64998300D01*
X62032100Y-91967900D02*
X61968600Y-91967900D01*
X66091300Y-69467900D02*
X65852100Y-69228700D01*
X62032100Y-69989000D02*
X61642800Y-70378300D01*
X66010400Y-61069100D02*
X66532100Y-60547400D01*
X66406000Y-92094000D02*
X66532100Y-91967900D01*
X66532100Y-78467900D02*
X65765700Y-79234300D01*
X60854700Y-78467900D02*
X59957200Y-79365400D01*
X66532100Y-55967900D02*
X65943900Y-56556100D01*
X62032100Y-87467900D02*
X61370200Y-87467900D01*
X59519600Y-88055300D02*
X58872100Y-87407800D01*
X62062500Y-64998300D02*
X62062500Y-65701400D01*
X59163500Y-83053900D02*
X59163500Y-82691200D01*
X66532100Y-60547400D02*
X66532100Y-60467900D01*
X66532100Y-69467900D02*
X66091300Y-69467900D01*
X65329200Y-88398700D02*
X65329200Y-88262900D01*
X65893600Y-74606400D02*
X65893600Y-74910400D01*
X62032100Y-60467900D02*
X61342300Y-60467900D01*
X65765700Y-79234300D02*
X63509600Y-79234300D01*
X62032100Y-78467900D02*
X60854700Y-78467900D01*
X66532100Y-65315500D02*
X66210500Y-65637100D01*
X59651100Y-83541500D02*
X59163500Y-83053900D01*
X61574200Y-52403600D02*
X62032100Y-51945700D01*
X61370200Y-87467900D02*
X60782800Y-88055300D01*
X65785600Y-83714400D02*
X65785600Y-83788100D01*
X62032100Y-55967900D02*
X61606200Y-56393800D01*
X66532100Y-82967900D02*
X65785600Y-83714400D01*
X60782800Y-88055300D02*
X59519600Y-88055300D01*
X61968600Y-91967900D02*
X61576300Y-92360200D01*
X65303900Y-52387800D02*
X66223800Y-51467900D01*
X65329200Y-88262900D02*
X66124200Y-87467900D01*
X61458500Y-83541500D02*
X59651100Y-83541500D01*
X62032100Y-82967900D02*
X61458500Y-83541500D01*
X65943900Y-56556100D02*
X63998600Y-56556100D01*
X66532100Y-64967900D02*
X66532100Y-65315500D01*
X66532100Y-73967900D02*
X65893600Y-74606400D01*
X61823900Y-74176100D02*
X61823900Y-74905700D01*
X65830900Y-92094000D02*
X66406000Y-92094000D01*
X62032100Y-73967900D02*
X61823900Y-74176100D01*
X66124200Y-87467900D02*
X66532100Y-87467900D01*
X66223800Y-51467900D02*
X66532100Y-51467900D01*
X63393100Y-56148300D02*
X63329700Y-56211700D01*
X63716000Y-94784000D02*
X64282100Y-94217900D01*
X59065500Y-79171300D02*
X59065500Y-77293300D01*
X59782100Y-62717900D02*
X59782100Y-62031100D01*
X59782100Y-59118700D02*
X59782100Y-58217900D01*
X63393100Y-54288000D02*
X63712000Y-54288000D01*
X62832600Y-63284000D02*
X60377000Y-63284000D01*
X59685300Y-79791100D02*
X59685300Y-80621100D01*
X59202300Y-90297700D02*
X59202300Y-93638100D01*
X64282100Y-80538900D02*
X64282100Y-80717900D01*
X61345000Y-71717900D02*
X59782100Y-71717900D01*
X64377900Y-63848600D02*
X64377900Y-62813700D01*
X59202300Y-93638100D02*
X59782100Y-94217900D01*
X64282100Y-94217900D02*
X63664200Y-93600000D01*
X63621100Y-72286000D02*
X61913100Y-72286000D01*
X64282100Y-67217900D02*
X63770900Y-66706700D01*
X63631700Y-74683900D02*
X63631700Y-73496800D01*
X59209700Y-60230300D02*
X59289900Y-60150100D01*
X60348200Y-94784000D02*
X63716000Y-94784000D01*
X63714000Y-72286000D02*
X63621100Y-72286000D01*
X59796800Y-67232600D02*
X59782100Y-67217900D01*
X64377900Y-62813700D02*
X64282100Y-62717900D01*
X63631700Y-74683900D02*
X63585600Y-74683900D01*
X64965600Y-87582200D02*
X64282100Y-88265700D01*
X59782100Y-84472300D02*
X58985200Y-83675400D01*
X63664200Y-90335800D02*
X64282100Y-89717900D01*
X59782100Y-53717900D02*
X60352200Y-54288000D01*
X59782100Y-62031100D02*
X59209700Y-61458700D01*
X63631700Y-73496800D02*
X63621100Y-73486200D01*
X63568700Y-79825500D02*
X64282100Y-80538900D01*
X63770900Y-66706700D02*
X63730600Y-66706700D01*
X61913100Y-72286000D02*
X61345000Y-71717900D01*
X63653800Y-64105200D02*
X62832600Y-63284000D01*
X60745800Y-58138200D02*
X59861800Y-58138200D01*
X63393100Y-54288000D02*
X63393100Y-56148300D01*
X64282100Y-75334300D02*
X63631700Y-74683900D01*
X59782100Y-76576700D02*
X59782100Y-76217900D01*
X59289900Y-60150100D02*
X59289900Y-59610900D01*
X59209700Y-61458700D02*
X59209700Y-60230300D01*
X59685300Y-79791100D02*
X59065500Y-79171300D01*
X63730600Y-66706700D02*
X63386800Y-67050500D01*
X63583400Y-57520800D02*
X63585000Y-57520800D01*
X59685300Y-80621100D02*
X59782100Y-80717900D01*
X64282100Y-71717900D02*
X63714000Y-72286000D01*
X63329700Y-57267100D02*
X63583400Y-57520800D01*
X63653800Y-66629900D02*
X63730600Y-66706700D01*
X59065500Y-77293300D02*
X59782100Y-76576700D01*
X64282100Y-76217900D02*
X64282100Y-75334300D01*
X63664200Y-93600000D02*
X63664200Y-90335800D01*
X63621100Y-73486200D02*
X63621100Y-72286000D01*
X60352200Y-54288000D02*
X63393100Y-54288000D01*
X59810900Y-62717900D02*
X59782100Y-62717900D01*
X64707800Y-85217900D02*
X64941000Y-85451100D01*
X63712000Y-54288000D02*
X64282100Y-53717900D01*
X63329700Y-56211700D02*
X63329700Y-57267100D01*
X59861800Y-58138200D02*
X59782100Y-58217900D01*
X63653800Y-64105200D02*
X63653800Y-66629900D01*
X59782100Y-89717900D02*
X59202300Y-90297700D01*
X64282100Y-88265700D02*
X64282100Y-89717900D01*
X60377000Y-63284000D02*
X59810900Y-62717900D01*
X64121300Y-64105200D02*
X64377900Y-63848600D01*
X64282100Y-85217900D02*
X64707800Y-85217900D01*
X63653800Y-64105200D02*
X64121300Y-64105200D01*
X60479000Y-67232600D02*
X59796800Y-67232600D01*
X59782100Y-85217900D02*
X59782100Y-84472300D01*
X59782100Y-94217900D02*
X60348200Y-94784000D01*
X63585000Y-57520800D02*
X64282100Y-58217900D01*
X59289900Y-59610900D02*
X59782100Y-59118700D01*
X62032100Y-80717900D02*
X63112000Y-80717900D01*
X67739200Y-56517900D02*
X67833200Y-56423900D01*
X66532100Y-89717900D02*
X66536000Y-89721800D01*
X67836400Y-82022200D02*
X67836400Y-82757400D01*
X63295000Y-70204300D02*
X63264000Y-70235300D01*
X63303300Y-84203000D02*
X63303300Y-84727000D01*
X63295000Y-68087600D02*
X62613200Y-67405800D01*
X68140200Y-94126300D02*
X67922200Y-94344300D01*
X67674600Y-82919200D02*
X67674600Y-83221600D01*
X63295000Y-71204000D02*
X62781100Y-71717900D01*
X66532100Y-76217900D02*
X67328700Y-76217900D01*
X67795600Y-57722300D02*
X67795600Y-57251700D01*
X66754800Y-53717900D02*
X66532100Y-53717900D01*
X67674600Y-83221600D02*
X67836400Y-83383400D01*
X63188400Y-62717900D02*
X63539600Y-62366700D01*
X65132000Y-58217900D02*
X66532100Y-58217900D01*
X67300000Y-58217900D02*
X67795600Y-57722300D01*
X61527700Y-90222300D02*
X61360000Y-90222300D01*
X65919100Y-67830900D02*
X66532100Y-67217900D01*
X67836400Y-83383400D02*
X67836400Y-84680600D01*
X63222200Y-84121900D02*
X63303300Y-84203000D01*
X64231300Y-82025200D02*
X65175400Y-81081100D01*
X67795600Y-57251700D02*
X67739200Y-57195300D01*
X67836400Y-84680600D02*
X67299100Y-85217900D01*
X67833200Y-56423900D02*
X67833200Y-54796300D01*
X62032100Y-62717900D02*
X63188400Y-62717900D01*
X62032100Y-58217900D02*
X62628900Y-58814700D01*
X61913800Y-76336200D02*
X62032100Y-76217900D01*
X62729600Y-53815400D02*
X62129600Y-53815400D01*
X59536000Y-77339400D02*
X60539200Y-76336200D01*
X65175400Y-81081100D02*
X65538600Y-80717900D01*
X67798900Y-72984700D02*
X67136000Y-72321700D01*
X63678000Y-81283900D02*
X63678000Y-81471900D01*
X66532100Y-58217900D02*
X67300000Y-58217900D01*
X63264000Y-70872100D02*
X63295000Y-70903100D01*
X62032100Y-89717900D02*
X61527700Y-90222300D01*
X66532100Y-62717900D02*
X66186900Y-63063100D01*
X64535200Y-58814700D02*
X65132000Y-58217900D01*
X62628900Y-58814700D02*
X64535200Y-58814700D01*
X66536000Y-89721800D02*
X66536000Y-89899400D01*
X63358200Y-71204000D02*
X63295000Y-71204000D01*
X63303300Y-84727000D02*
X62812400Y-85217900D01*
X62220000Y-67405800D02*
X62613200Y-67405800D01*
X60539200Y-76336200D02*
X61913800Y-76336200D01*
X62812400Y-85217900D02*
X62032100Y-85217900D01*
X67798900Y-75747700D02*
X67798900Y-72984700D01*
X66536000Y-89899400D02*
X65914400Y-90521000D01*
X62613200Y-67405800D02*
X62772800Y-67246200D01*
X63297400Y-93703600D02*
X63297400Y-91982700D01*
X63295000Y-68087600D02*
X63551700Y-67830900D01*
X66536000Y-89899400D02*
X68140200Y-91503600D01*
X67922200Y-94344300D02*
X66658500Y-94344300D01*
X63264000Y-70235300D02*
X63264000Y-70872100D01*
X65806900Y-53717900D02*
X64985000Y-54539800D01*
X63222200Y-83034300D02*
X63222200Y-84121900D01*
X66053100Y-85963900D02*
X66532100Y-85484900D01*
X62783100Y-94217900D02*
X63297400Y-93703600D01*
X64231300Y-82025200D02*
X63222200Y-83034300D01*
X66658500Y-94344300D02*
X66532100Y-94217900D01*
X65175400Y-81081100D02*
X65095200Y-81000900D01*
X66186900Y-63063100D02*
X66186900Y-63462700D01*
X62032100Y-67217900D02*
X62220000Y-67405800D01*
X62129600Y-53815400D02*
X62032100Y-53717900D01*
X67328700Y-76217900D02*
X67798900Y-75747700D01*
X65538600Y-80717900D02*
X66532100Y-80717900D01*
X66532100Y-80717900D02*
X67836400Y-82022200D01*
X63678000Y-81471900D02*
X64231300Y-82025200D01*
X67739200Y-57195300D02*
X67739200Y-56517900D01*
X67689400Y-71768300D02*
X67136000Y-72321700D01*
X62032100Y-94217900D02*
X62783100Y-94217900D01*
X67136000Y-72321700D02*
X66532100Y-71717900D01*
X63295000Y-70903100D02*
X63295000Y-71204000D01*
X62781100Y-71717900D02*
X62032100Y-71717900D01*
X66532100Y-85484900D02*
X66532100Y-85217900D01*
X67299100Y-85217900D02*
X66532100Y-85217900D01*
X68140200Y-91503600D02*
X68140200Y-94126300D01*
X67836400Y-82757400D02*
X67674600Y-82919200D01*
X63295000Y-68087600D02*
X63295000Y-70204300D01*
X63551700Y-67830900D02*
X65919100Y-67830900D01*
X63567800Y-71413600D02*
X63358200Y-71204000D01*
X66532100Y-53717900D02*
X65806900Y-53717900D01*
X63112000Y-80717900D02*
X63678000Y-81283900D01*
X67833200Y-54796300D02*
X66754800Y-53717900D01*
X68782100Y-77694600D02*
X69269300Y-77207400D01*
X68782100Y-78467900D02*
X68782100Y-79580400D01*
X68782100Y-64967900D02*
X68020300Y-65729700D01*
X69328800Y-72671000D02*
X69154600Y-72845200D01*
X67719800Y-88221200D02*
X67719800Y-87918700D01*
X68185700Y-70064300D02*
X68782100Y-69467900D01*
X71985200Y-72368200D02*
X71985200Y-72671000D01*
X68782100Y-58809700D02*
X68638500Y-58809700D01*
X72031700Y-50217500D02*
X69310100Y-50217500D01*
X72463800Y-71889600D02*
X71985200Y-72368200D01*
X68186600Y-89826600D02*
X69060600Y-90700600D01*
X68782100Y-78467900D02*
X68782100Y-77694600D01*
X68186600Y-88435200D02*
X68186600Y-89826600D01*
X73282100Y-82967900D02*
X72882800Y-82568600D01*
X72469200Y-88280800D02*
X73282100Y-87467900D01*
X68782100Y-73217700D02*
X68782100Y-73967900D01*
X68782100Y-63689800D02*
X68217500Y-63125200D01*
X68020300Y-65729700D02*
X68020300Y-68010500D01*
X70736300Y-63689800D02*
X72004000Y-63689800D01*
X73282100Y-54800800D02*
X73260300Y-54779000D01*
X68446600Y-69467900D02*
X68782100Y-69467900D01*
X67933800Y-88435200D02*
X67719800Y-88221200D01*
X68217500Y-63125200D02*
X68217500Y-61032500D01*
X72108400Y-90180400D02*
X72469200Y-89819600D01*
X72021600Y-77207400D02*
X73282100Y-78467900D01*
X68782100Y-63689800D02*
X68782100Y-64967900D01*
X72469200Y-89819600D02*
X72469200Y-88280800D01*
X68782100Y-82280400D02*
X68090300Y-81588600D01*
X72108400Y-90180400D02*
X71893100Y-90180400D01*
X68782100Y-50745500D02*
X68782100Y-51467900D01*
X68638500Y-58809700D02*
X68208200Y-58379400D01*
X68782100Y-54616700D02*
X68782100Y-55967900D01*
X70182200Y-63689800D02*
X70245100Y-63752700D01*
X68186600Y-88435200D02*
X67933800Y-88435200D01*
X68782100Y-73967900D02*
X68940700Y-73967900D01*
X68782100Y-54616700D02*
X68202300Y-54036900D01*
X72111100Y-58809700D02*
X68782100Y-58809700D01*
X68782100Y-79580400D02*
X67683400Y-80679100D01*
X68782100Y-87912000D02*
X68782100Y-87467900D01*
X72004000Y-63689800D02*
X73282100Y-64967900D01*
X69678900Y-90700600D02*
X69060600Y-90700600D01*
X67719800Y-87918700D02*
X68216100Y-87422400D01*
X71985200Y-72671000D02*
X69328800Y-72671000D01*
X72882800Y-82568600D02*
X72882800Y-82298000D01*
X73282100Y-51467900D02*
X72031700Y-50217500D01*
X73282100Y-60467900D02*
X73282100Y-59980700D01*
X67825000Y-68205800D02*
X67825000Y-68846300D01*
X70442300Y-77207400D02*
X72021600Y-77207400D01*
X69863500Y-90885200D02*
X69678900Y-90700600D01*
X68208200Y-58379400D02*
X68208200Y-58059700D01*
X68202300Y-54036900D02*
X68202300Y-52047700D01*
X73282100Y-55967900D02*
X73282100Y-54800800D01*
X68208200Y-58059700D02*
X69082900Y-57185000D01*
X68186600Y-88435200D02*
X68258900Y-88435200D01*
X68216100Y-87422400D02*
X68216100Y-83533900D01*
X72463800Y-70286200D02*
X72463800Y-71889600D01*
X68217500Y-61032500D02*
X68782100Y-60467900D01*
X68782100Y-90979100D02*
X68782100Y-91967900D01*
X69310100Y-50217500D02*
X68782100Y-50745500D01*
X69060600Y-90700600D02*
X68782100Y-90979100D01*
X73282100Y-91967900D02*
X73282100Y-91354100D01*
X73282100Y-91354100D02*
X72108400Y-90180400D01*
X68020300Y-68010500D02*
X67825000Y-68205800D01*
X69082900Y-57185000D02*
X69082900Y-56268700D01*
X67683400Y-81181700D02*
X68090300Y-81588600D01*
X73282100Y-69467900D02*
X72463800Y-70286200D01*
X68782100Y-58809700D02*
X68782100Y-60467900D01*
X69269300Y-77207400D02*
X70442300Y-77207400D01*
X68216100Y-83533900D02*
X68782100Y-82967900D01*
X67825000Y-68846300D02*
X68446600Y-69467900D01*
X69082900Y-56268700D02*
X68782100Y-55967900D01*
X71893100Y-90180400D02*
X71188300Y-90885200D01*
X73282100Y-59980700D02*
X72111100Y-58809700D01*
X69154600Y-72845200D02*
X68185700Y-71876300D01*
X68258900Y-88435200D02*
X68782100Y-87912000D01*
X68782100Y-82967900D02*
X68782100Y-82280400D01*
X68940700Y-73967900D02*
X69307600Y-74334800D01*
X68202300Y-52047700D02*
X68782100Y-51467900D01*
X71985200Y-72671000D02*
X73282100Y-73967900D01*
X67683400Y-80679100D02*
X67683400Y-81181700D01*
X69154600Y-72845200D02*
X68782100Y-73217700D01*
X71188300Y-90885200D02*
X69863500Y-90885200D01*
X70673400Y-63752700D02*
X70736300Y-63689800D01*
X70245100Y-63752700D02*
X70673400Y-63752700D01*
X68782100Y-63689800D02*
X70182200Y-63689800D01*
X68185700Y-71876300D02*
X68185700Y-70064300D01*
X70426900Y-76299800D02*
X70909600Y-76782500D01*
X73282100Y-85217900D02*
X72786200Y-84722000D01*
X68782100Y-70560800D02*
X68782100Y-71717900D01*
X70318400Y-68079800D02*
X70450400Y-68211800D01*
X73282100Y-62717900D02*
X72840100Y-62275900D01*
X72340600Y-75634800D02*
X72699000Y-75634800D01*
X72786200Y-84722000D02*
X72313000Y-84722000D01*
X72714800Y-56103500D02*
X72968800Y-56357500D01*
X69384400Y-81320200D02*
X70178000Y-81320200D01*
X70304400Y-68093800D02*
X70275300Y-68093800D01*
X72621200Y-62057000D02*
X72621200Y-59935800D01*
X69229400Y-85665200D02*
X69229400Y-85666800D01*
X70178000Y-81320200D02*
X70178000Y-81631600D01*
X68782100Y-76217900D02*
X68864000Y-76299800D01*
X70318400Y-68079800D02*
X70304400Y-68093800D01*
X69844900Y-62717900D02*
X70459200Y-63332200D01*
X70450400Y-68211800D02*
X72288200Y-68211800D01*
X73282100Y-94217900D02*
X73282100Y-94180600D01*
X69459000Y-58419900D02*
X68984100Y-58419900D01*
X72714800Y-54285200D02*
X73282100Y-53717900D01*
X72863600Y-72136400D02*
X73282100Y-71717900D01*
X72714800Y-54285200D02*
X72714800Y-56103500D01*
X72968800Y-57819700D02*
X72780900Y-57819700D01*
X68421300Y-93112700D02*
X68517500Y-93016500D01*
X72699000Y-75634800D02*
X73282100Y-76217900D01*
X73282100Y-89717900D02*
X73940500Y-90376300D01*
X72313000Y-82143800D02*
X72313000Y-84722000D01*
X74557000Y-76110300D02*
X74449400Y-76217900D01*
X73282100Y-58217900D02*
X73282100Y-58133000D01*
X71489400Y-81320200D02*
X72313000Y-82143800D01*
X69235900Y-90171700D02*
X68782100Y-89717900D01*
X68421300Y-93857100D02*
X68421300Y-93112700D01*
X70178000Y-81320200D02*
X71489400Y-81320200D01*
X68782100Y-85217900D02*
X69229400Y-85665200D01*
X68782100Y-94217900D02*
X68421300Y-93857100D01*
X69349400Y-54285200D02*
X72714800Y-54285200D01*
X70318400Y-67945900D02*
X69590400Y-67217900D01*
X68782100Y-53717900D02*
X69349400Y-54285200D01*
X68782100Y-80717900D02*
X69384400Y-81320200D01*
X68932400Y-70410500D02*
X68782100Y-70560800D01*
X70318400Y-68079800D02*
X70318400Y-67945900D01*
X69590400Y-67217900D02*
X68782100Y-67217900D01*
X71192900Y-76782500D02*
X72340600Y-75634800D01*
X72840100Y-62275900D02*
X72621200Y-62057000D01*
X74449400Y-76217900D02*
X73282100Y-76217900D01*
X73940500Y-90376300D02*
X74748700Y-90376300D01*
X72313000Y-84722000D02*
X71873400Y-85161600D01*
X73282100Y-58133000D02*
X72968800Y-57819700D01*
X73282100Y-94180600D02*
X72856800Y-93755300D01*
X73282100Y-80717900D02*
X72733800Y-80169600D01*
X68984100Y-58419900D02*
X68782100Y-58217900D01*
X71873400Y-85161600D02*
X71873400Y-85523800D01*
X72863600Y-72211900D02*
X72863600Y-72136400D01*
X68864000Y-76299800D02*
X70426900Y-76299800D01*
X72968800Y-56357500D02*
X72968800Y-57819700D01*
X68782100Y-62717900D02*
X69844900Y-62717900D01*
X70909600Y-76782500D02*
X71192900Y-76782500D01*
X71873400Y-85523800D02*
X72144700Y-85795100D01*
X72288200Y-68211800D02*
X73282100Y-67217900D01*
X74549400Y-80717900D02*
X75532100Y-80717900D01*
X73088600Y-81316500D02*
X73950800Y-81316500D01*
X75532100Y-62717900D02*
X76843100Y-64028900D01*
X71596700Y-94782500D02*
X74967500Y-94782500D01*
X71032100Y-80717900D02*
X72490000Y-80717900D01*
X76863600Y-80162300D02*
X76863600Y-79552900D01*
X75901100Y-76709900D02*
X75532100Y-76709900D01*
X71032100Y-76217900D02*
X70748800Y-75934600D01*
X71032100Y-58217900D02*
X72594900Y-58217900D01*
X76788500Y-84691100D02*
X76788500Y-84335500D01*
X75162400Y-58802800D02*
X75513400Y-59153800D01*
X75532100Y-85217900D02*
X76261700Y-85217900D01*
X76336400Y-94217900D02*
X76799300Y-93755000D01*
X70857400Y-94043200D02*
X70250000Y-94043200D01*
X75532100Y-76709900D02*
X74798400Y-76709900D01*
X76503100Y-84050100D02*
X76503100Y-83651300D01*
X74788500Y-71914800D02*
X75335200Y-71914800D01*
X74223500Y-62717900D02*
X73629100Y-63312300D01*
X71032100Y-71717900D02*
X70895500Y-71717900D01*
X71626500Y-63312300D02*
X71032100Y-62717900D01*
X72490000Y-80717900D02*
X73088600Y-81316500D01*
X76863600Y-79552900D02*
X77150000Y-79266500D01*
X76261700Y-85217900D02*
X76788500Y-84691100D01*
X75532100Y-67217900D02*
X75430400Y-67217900D01*
X75430400Y-67217900D02*
X75046200Y-67602100D01*
X76503100Y-83651300D02*
X76854800Y-83299600D01*
X74589700Y-86160300D02*
X75532100Y-85217900D01*
X75532100Y-94217900D02*
X76336400Y-94217900D01*
X71032100Y-53717900D02*
X72571800Y-53717900D01*
X76788500Y-84335500D02*
X76503100Y-84050100D01*
X75532100Y-53717900D02*
X75414800Y-53835200D01*
X75532100Y-76217900D02*
X75532100Y-76709900D01*
X71032100Y-94217900D02*
X71596700Y-94782500D01*
X75532100Y-62717900D02*
X74223500Y-62717900D01*
X73629100Y-63312300D02*
X71626500Y-63312300D01*
X75162400Y-58587600D02*
X75532100Y-58217900D01*
X76974200Y-83299600D02*
X77130000Y-83143800D01*
X76308000Y-80717900D02*
X75532100Y-80717900D01*
X75335200Y-71914800D02*
X75532100Y-71717900D01*
X76329100Y-67217900D02*
X75532100Y-67217900D01*
X71032100Y-67217900D02*
X70380400Y-67217900D01*
X74967500Y-94782500D02*
X75532100Y-94217900D01*
X70380400Y-67217900D02*
X70102300Y-66939800D01*
X72594900Y-58217900D02*
X73179800Y-58802800D01*
X72571800Y-53717900D02*
X72585500Y-53704200D01*
X76843100Y-64028900D02*
X76843100Y-66703900D01*
X77130000Y-83143800D02*
X77130000Y-82441200D01*
X70748800Y-75934600D02*
X70430500Y-75934600D01*
X76854800Y-83299600D02*
X76974200Y-83299600D01*
X71032100Y-89717900D02*
X70380700Y-89717900D01*
X75414800Y-53835200D02*
X74686200Y-53835200D01*
X75162400Y-58802800D02*
X75162400Y-58587600D01*
X76799300Y-93755000D02*
X76799300Y-90985100D01*
X73179800Y-58802800D02*
X73447200Y-58802800D01*
X73950800Y-81316500D02*
X74549400Y-80717900D01*
X72286100Y-86160300D02*
X72286100Y-88032900D01*
X77150000Y-79266500D02*
X77150000Y-77958800D01*
X70380700Y-89717900D02*
X70350400Y-89687600D01*
X73447200Y-58802800D02*
X73447200Y-58979200D01*
X77130000Y-82441200D02*
X76308000Y-81619200D01*
X70895500Y-71717900D02*
X70428500Y-72184900D01*
X73447200Y-58802800D02*
X75162400Y-58802800D01*
X76308000Y-80717900D02*
X76863600Y-80162300D01*
X71032100Y-85217900D02*
X71974500Y-86160300D01*
X71032100Y-94217900D02*
X70857400Y-94043200D01*
X76799300Y-90985100D02*
X75532100Y-89717900D01*
X76308000Y-81619200D02*
X76308000Y-80717900D01*
X71974500Y-86160300D02*
X72286100Y-86160300D01*
X72286100Y-88032900D02*
X72104000Y-88215000D01*
X76843100Y-66703900D02*
X76329100Y-67217900D01*
X72286100Y-86160300D02*
X74589700Y-86160300D01*
X77150000Y-77958800D02*
X75901100Y-76709900D01*
X82282100Y-55967900D02*
X81780200Y-55466000D01*
X83055700Y-69467900D02*
X83990800Y-70403000D01*
X77178400Y-71486300D02*
X77238600Y-71426100D01*
X77187800Y-60007000D02*
X76567100Y-59386300D01*
X80902600Y-54706300D02*
X81662300Y-55466000D01*
X77238600Y-70011400D02*
X77782100Y-69467900D01*
X77155600Y-74594400D02*
X77155600Y-77154600D01*
X81717500Y-88032500D02*
X82282100Y-87467900D01*
X78295700Y-81715400D02*
X78705800Y-81715400D01*
X82907600Y-79223700D02*
X82282100Y-78598200D01*
X82282100Y-91967900D02*
X82282100Y-91195900D01*
X77782100Y-64967900D02*
X77782100Y-65988400D01*
X77175200Y-55361000D02*
X77175200Y-54984100D01*
X77318200Y-51004000D02*
X76916500Y-51004000D01*
X77198200Y-80877500D02*
X77198200Y-79904000D01*
X78247300Y-63710900D02*
X77782100Y-64176100D01*
X77782100Y-55967900D02*
X77175200Y-55361000D01*
X77175200Y-54984100D02*
X77453000Y-54706300D01*
X77782100Y-65988400D02*
X77804700Y-66011000D01*
X78165900Y-81845200D02*
X78295700Y-81715400D01*
X81407100Y-87373900D02*
X82188100Y-87373900D01*
X77415500Y-60467900D02*
X77187800Y-60240200D01*
X77198200Y-79904000D02*
X77782100Y-79320100D01*
X77805800Y-87491600D02*
X78469100Y-87491600D01*
X77782100Y-64176100D02*
X77782100Y-64967900D01*
X82282100Y-73967900D02*
X82876100Y-74561900D01*
X82282100Y-51467900D02*
X82013900Y-51467900D01*
X81780200Y-55466000D02*
X81662300Y-55466000D01*
X83606400Y-79223700D02*
X82907600Y-79223700D01*
X76567100Y-59386300D02*
X76567100Y-57988400D01*
X82282100Y-82843500D02*
X82282100Y-82967900D01*
X82282100Y-64967900D02*
X81025100Y-63710900D01*
X77782100Y-82229000D02*
X77782100Y-82967900D01*
X82282100Y-91195900D02*
X81717500Y-90631300D01*
X77782100Y-91967900D02*
X77782100Y-91190900D01*
X78877300Y-81886900D02*
X79179800Y-81886900D01*
X81903000Y-59828900D02*
X82282100Y-60208000D01*
X77782100Y-77781100D02*
X77782100Y-78467900D01*
X77178400Y-72651600D02*
X77178400Y-71486300D01*
X77238600Y-70852400D02*
X77238600Y-70011400D01*
X82282100Y-60208000D02*
X82282100Y-60467900D01*
X78705800Y-81715400D02*
X78877300Y-81886900D01*
X77238600Y-71426100D02*
X77238600Y-70852400D01*
X77782100Y-91190900D02*
X78341700Y-90631300D01*
X79179800Y-81886900D02*
X79351300Y-81715400D01*
X73772800Y-72479000D02*
X73945400Y-72651600D01*
X78165900Y-81845200D02*
X77198200Y-80877500D01*
X78165900Y-81845200D02*
X77782100Y-82229000D01*
X77782100Y-73967900D02*
X77155600Y-74594400D01*
X77453000Y-54706300D02*
X80902600Y-54706300D01*
X76901800Y-83848200D02*
X77782100Y-82967900D01*
X77187800Y-60240200D02*
X76936600Y-60491400D01*
X77782100Y-87467900D02*
X77805800Y-87491600D01*
X77782100Y-79320100D02*
X77782100Y-78467900D01*
X77782100Y-51467900D02*
X77318200Y-51004000D01*
X76567100Y-57988400D02*
X77782100Y-56773400D01*
X77782100Y-56773400D02*
X77782100Y-55967900D01*
X82282100Y-78598200D02*
X82282100Y-78467900D01*
X79351300Y-81715400D02*
X81154000Y-81715400D01*
X77178400Y-73364200D02*
X77178400Y-72651600D01*
X82013900Y-51467900D02*
X81713500Y-51768300D01*
X81717500Y-90631300D02*
X81717500Y-88032500D01*
X73945400Y-72651600D02*
X77178400Y-72651600D01*
X77155600Y-77154600D02*
X77782100Y-77781100D01*
X77782100Y-60467900D02*
X77415500Y-60467900D01*
X82282100Y-69467900D02*
X83055700Y-69467900D01*
X78341700Y-90631300D02*
X81717500Y-90631300D01*
X82188100Y-87373900D02*
X82282100Y-87467900D01*
X77782100Y-73967900D02*
X77178400Y-73364200D01*
X81025100Y-63710900D02*
X78247300Y-63710900D01*
X81154000Y-81715400D02*
X82282100Y-82843500D01*
X82876100Y-74561900D02*
X84277500Y-74561900D01*
X77187800Y-60240200D02*
X77187800Y-60007000D01*
X84532100Y-78467900D02*
X83183700Y-78467900D01*
X80032100Y-78881000D02*
X80032100Y-78467900D01*
X83841600Y-51286200D02*
X84350400Y-51286200D01*
X79406900Y-82967900D02*
X80032100Y-82967900D01*
X79053200Y-92763500D02*
X77749200Y-92763500D01*
X80177800Y-74113600D02*
X80177800Y-74722800D01*
X79187500Y-69467900D02*
X79187100Y-69468300D01*
X80032100Y-73967900D02*
X80177800Y-74113600D01*
X80032100Y-87467900D02*
X79092500Y-87467900D01*
X80032100Y-64967900D02*
X79510600Y-64967900D01*
X84316100Y-65183900D02*
X84532100Y-64967900D01*
X80032100Y-51467900D02*
X80118300Y-51554100D01*
X80118300Y-51554100D02*
X80118300Y-52163100D01*
X79510600Y-64967900D02*
X79345600Y-65132900D01*
X84532100Y-82967900D02*
X83859200Y-83640800D01*
X80032100Y-60467900D02*
X80169400Y-60605200D01*
X84012900Y-69800400D02*
X84199600Y-69800400D01*
X83781600Y-74104700D02*
X84395300Y-74104700D01*
X84108500Y-92391500D02*
X84532100Y-91967900D01*
X80032100Y-69467900D02*
X79187500Y-69467900D01*
X83859200Y-83640800D02*
X83126000Y-83640800D01*
X84395300Y-74104700D02*
X84532100Y-73967900D01*
X84245300Y-56254700D02*
X84532100Y-55967900D01*
X84199600Y-69800400D02*
X84532100Y-69467900D01*
X79848800Y-91967900D02*
X79053200Y-92763500D01*
X84438000Y-61153100D02*
X84532100Y-61059000D01*
X84532100Y-87467900D02*
X84011600Y-87988400D01*
X84532100Y-61059000D02*
X84532100Y-60467900D01*
X80032100Y-91967900D02*
X79848800Y-91967900D01*
X83960600Y-56254700D02*
X84245300Y-56254700D01*
X79344400Y-83030400D02*
X79406900Y-82967900D01*
X84350400Y-51286200D02*
X84532100Y-51467900D01*
X80169400Y-60605200D02*
X80169400Y-61147700D01*
X83183700Y-78467900D02*
X82939700Y-78711900D01*
X77507300Y-93005400D02*
X77507300Y-93548700D01*
X84011600Y-87988400D02*
X83661600Y-87988400D01*
X77749200Y-92763500D02*
X77507300Y-93005400D01*
X80310200Y-79159100D02*
X80032100Y-78881000D01*
X77507300Y-93548700D02*
X77519700Y-93561100D01*
X80157800Y-56093600D02*
X80157800Y-56668800D01*
X79092500Y-87467900D02*
X79020900Y-87396300D01*
X80032100Y-55967900D02*
X80157800Y-56093600D01*
X83895600Y-65183900D02*
X84316100Y-65183900D01*
X81304600Y-59633700D02*
X81304600Y-62717900D01*
X80621800Y-63400700D02*
X78377100Y-63400700D01*
X77782100Y-58217900D02*
X78649600Y-59085400D01*
X78244900Y-63268500D02*
X77188800Y-64324600D01*
X82282100Y-76370400D02*
X81719000Y-76933500D01*
X79695400Y-85828200D02*
X81671800Y-85828200D01*
X78980600Y-85113400D02*
X79695400Y-85828200D01*
X77647700Y-94217900D02*
X77782100Y-94217900D01*
X78220700Y-81156500D02*
X77782100Y-80717900D01*
X82616100Y-70374800D02*
X82616100Y-70616000D01*
X76946000Y-58138200D02*
X77702400Y-58138200D01*
X81033800Y-81328000D02*
X79351300Y-81328000D01*
X78649600Y-59085400D02*
X80756300Y-59085400D01*
X81304600Y-62717900D02*
X80621800Y-63400700D01*
X77782100Y-62717900D02*
X78244900Y-63180700D01*
X82144500Y-94355500D02*
X82282100Y-94217900D01*
X77542000Y-53958000D02*
X76794800Y-53958000D01*
X78244900Y-63180700D02*
X78244900Y-63268500D01*
X78364400Y-67800200D02*
X77782100Y-67217900D01*
X82282100Y-53717900D02*
X82229400Y-53770600D01*
X79351300Y-81328000D02*
X79179800Y-81156500D01*
X77782100Y-85217900D02*
X77886600Y-85113400D01*
X77782100Y-89739800D02*
X79333100Y-89739800D01*
X77782100Y-76217900D02*
X77782100Y-75332200D01*
X80756300Y-59085400D02*
X81304600Y-59633700D01*
X77782100Y-70512700D02*
X78233600Y-70061200D01*
X77154500Y-90367400D02*
X77154500Y-93724700D01*
X81717500Y-69590400D02*
X82159600Y-70032500D01*
X81717500Y-68217500D02*
X78781700Y-68217500D01*
X77188800Y-66624600D02*
X77782100Y-67217900D01*
X78781700Y-68217500D02*
X78364400Y-67800200D01*
X77782100Y-89739800D02*
X77782100Y-89717900D01*
X81304600Y-62717900D02*
X82282100Y-62717900D01*
X82616100Y-70616000D02*
X82282100Y-70950000D01*
X77188800Y-64324600D02*
X77188800Y-66624600D01*
X81550400Y-94355500D02*
X82144500Y-94355500D01*
X81930700Y-57866500D02*
X82282100Y-58217900D01*
X81745800Y-57866500D02*
X81930700Y-57866500D01*
X82273800Y-70032500D02*
X82616100Y-70374800D01*
X81671800Y-85828200D02*
X82282100Y-85217900D01*
X77886600Y-85113400D02*
X78980600Y-85113400D01*
X77702400Y-58138200D02*
X77782100Y-58217900D01*
X82282100Y-76217900D02*
X82282100Y-76370400D01*
X81719000Y-77988200D02*
X81643900Y-78063300D01*
X78377100Y-63400700D02*
X78244900Y-63268500D01*
X82282100Y-67652900D02*
X81717500Y-68217500D01*
X77782100Y-71717900D02*
X77782100Y-70512700D01*
X78233600Y-67931000D02*
X78364400Y-67800200D01*
X82282100Y-70950000D02*
X82282100Y-71717900D01*
X77782100Y-75332200D02*
X78130900Y-74983400D01*
X77782100Y-76217900D02*
X78497700Y-76933500D01*
X82282100Y-67217900D02*
X82282100Y-67652900D01*
X82282100Y-89717900D02*
X83451000Y-89717900D01*
X83451000Y-89717900D02*
X83643900Y-89525000D01*
X78497700Y-76933500D02*
X81719000Y-76933500D01*
X81643900Y-80717900D02*
X82282100Y-80717900D01*
X82229400Y-53770600D02*
X81395300Y-53770600D01*
X81719000Y-76933500D02*
X81719000Y-77988200D01*
X77782100Y-89739800D02*
X77154500Y-90367400D01*
X81643900Y-80717900D02*
X81033800Y-81328000D01*
X79179800Y-81156500D02*
X78220700Y-81156500D01*
X82159600Y-70032500D02*
X82273800Y-70032500D01*
X77154500Y-93724700D02*
X77647700Y-94217900D01*
X81643900Y-78063300D02*
X81643900Y-80717900D01*
X77782100Y-53717900D02*
X77542000Y-53958000D01*
X81717500Y-68217500D02*
X81717500Y-69590400D01*
X81299400Y-85217900D02*
X81343100Y-85174200D01*
X85804000Y-93684700D02*
X85804000Y-91167700D01*
X85404800Y-81038200D02*
X85404800Y-80866900D01*
X86118600Y-70189900D02*
X86118600Y-68117600D01*
X80032100Y-85217900D02*
X81299400Y-85217900D01*
X85806400Y-54992200D02*
X85806400Y-56688800D01*
X85767100Y-84342800D02*
X85860500Y-84436200D01*
X85813700Y-80160000D02*
X85255800Y-80717900D01*
X81365200Y-54135900D02*
X80404200Y-54135900D01*
X86118600Y-68117600D02*
X85218900Y-67217900D01*
X85270800Y-94217900D02*
X85804000Y-93684700D01*
X84532100Y-71717900D02*
X85274900Y-71717900D01*
X80404200Y-54135900D02*
X80032100Y-53763800D01*
X83967500Y-94782500D02*
X84532100Y-94217900D01*
X84532100Y-58217900D02*
X83966000Y-58784000D01*
X85592400Y-56902800D02*
X85592400Y-57205100D01*
X85821400Y-57652000D02*
X85255500Y-58217900D01*
X85255500Y-58217900D02*
X84532100Y-58217900D01*
X80596700Y-94782500D02*
X83967500Y-94782500D01*
X85255800Y-80717900D02*
X84532100Y-80717900D01*
X82379400Y-72343000D02*
X80344700Y-72343000D01*
X85860500Y-84436200D02*
X85860500Y-84611900D01*
X85767100Y-83853800D02*
X85767100Y-84342800D01*
X84532100Y-94217900D02*
X85270800Y-94217900D01*
X85860500Y-81493900D02*
X85860500Y-83760400D01*
X86346700Y-70646100D02*
X86346700Y-70418000D01*
X85806400Y-56688800D02*
X85592400Y-56902800D01*
X81410900Y-75607300D02*
X80800300Y-76217900D01*
X80032100Y-80717900D02*
X80740300Y-80717900D01*
X80032100Y-94217900D02*
X80596700Y-94782500D01*
X85813700Y-77499500D02*
X85813700Y-80160000D01*
X84532100Y-62717900D02*
X84431500Y-62818500D01*
X83966000Y-58784000D02*
X82088300Y-58784000D01*
X84532100Y-89895800D02*
X83987200Y-89895800D01*
X85860500Y-84611900D02*
X85254500Y-85217900D01*
X85218900Y-67217900D02*
X84532100Y-67217900D01*
X84431500Y-62818500D02*
X83835100Y-62818500D01*
X85404800Y-80866900D02*
X85255800Y-80717900D01*
X85404800Y-81038200D02*
X85860500Y-81493900D01*
X80032100Y-89717900D02*
X80253200Y-89717900D01*
X83987200Y-89895800D02*
X83810600Y-90072400D01*
X80032100Y-62717900D02*
X79753000Y-62997000D01*
X80006300Y-67192100D02*
X80032100Y-67217900D01*
X84532100Y-89717900D02*
X84532100Y-89895800D01*
X80032100Y-53763800D02*
X78737000Y-53763800D01*
X79753000Y-62997000D02*
X79087500Y-62997000D01*
X84532100Y-53717900D02*
X83967500Y-54282500D01*
X78893000Y-67192100D02*
X80006300Y-67192100D01*
X86346700Y-70418000D02*
X86118600Y-70189900D01*
X83967500Y-54282500D02*
X81511800Y-54282500D01*
X85274900Y-71717900D02*
X86346700Y-70646100D01*
X82088300Y-58784000D02*
X81522200Y-58217900D01*
X80253200Y-89717900D02*
X80593700Y-90058400D01*
X80032100Y-71717900D02*
X80032100Y-72030400D01*
X81410900Y-75224500D02*
X81410900Y-75607300D01*
X83004500Y-71717900D02*
X82379400Y-72343000D01*
X84532100Y-53717900D02*
X85806400Y-54992200D01*
X84532100Y-71717900D02*
X83004500Y-71717900D01*
X80800300Y-76217900D02*
X80032100Y-76217900D01*
X81522200Y-58217900D02*
X80032100Y-58217900D01*
X80032100Y-53763800D02*
X80032100Y-53717900D01*
X85821400Y-57434100D02*
X85821400Y-57652000D01*
X80344700Y-72343000D02*
X80032100Y-72030400D01*
X85860500Y-83760400D02*
X85767100Y-83853800D01*
X80032100Y-72030400D02*
X78992800Y-72030400D01*
X85592400Y-57205100D02*
X85821400Y-57434100D01*
X84532100Y-76217900D02*
X85813700Y-77499500D01*
X85804000Y-91167700D02*
X84532100Y-89895800D01*
X81511800Y-54282500D02*
X81365200Y-54135900D01*
X85254500Y-85217900D02*
X84532100Y-85217900D01*
X88105200Y-79221300D02*
X87891300Y-79435200D01*
X85728300Y-54193600D02*
X85728300Y-53340000D01*
X86782100Y-52286200D02*
X86782100Y-51467900D01*
X90704400Y-78467900D02*
X90704400Y-82390200D01*
X89631800Y-67931400D02*
X91054500Y-69354100D01*
X91620900Y-51806700D02*
X91282100Y-51467900D01*
X91421300Y-88649600D02*
X91282100Y-88510400D01*
X86939900Y-67782500D02*
X87184100Y-67538300D01*
X91282100Y-60467900D02*
X91282100Y-60134600D01*
X91054500Y-69354100D02*
X91054500Y-69467900D01*
X88405600Y-67538300D02*
X88798700Y-67931400D01*
X87269600Y-86211600D02*
X86782100Y-86699100D01*
X86252400Y-65283000D02*
X86199000Y-65336400D01*
X91282100Y-91967900D02*
X91282100Y-92179100D01*
X91282000Y-73967900D02*
X90608200Y-73294100D01*
X91186500Y-65063500D02*
X90409900Y-65063500D01*
X86782100Y-73967900D02*
X85972200Y-74777800D01*
X85728300Y-53340000D02*
X86782100Y-52286200D01*
X86467000Y-65283000D02*
X86252400Y-65283000D01*
X86006000Y-57005600D02*
X86782100Y-56229500D01*
X91282100Y-92179100D02*
X91621600Y-92518600D01*
X86782100Y-91967900D02*
X86513300Y-91699100D01*
X87891300Y-79435200D02*
X87548000Y-79435200D01*
X86782100Y-55967900D02*
X86782100Y-55247400D01*
X91560900Y-56585600D02*
X91560900Y-56246700D01*
X86782100Y-56229500D02*
X86782100Y-55967900D01*
X91282100Y-87467900D02*
X91282100Y-86925200D01*
X86215300Y-78102500D02*
X86215300Y-77023800D01*
X86782100Y-78467900D02*
X87654400Y-78467900D01*
X90704400Y-78467900D02*
X91282100Y-78467900D01*
X86782100Y-64967900D02*
X86467000Y-65283000D01*
X85972200Y-74777800D02*
X85972200Y-76400300D01*
X86513300Y-91699100D02*
X86513300Y-91354700D01*
X86782100Y-55247400D02*
X85728300Y-54193600D01*
X86782100Y-59676900D02*
X86782100Y-60467900D01*
X90354500Y-71348800D02*
X90354500Y-70314800D01*
X87654400Y-78467900D02*
X88105200Y-78918700D01*
X91282100Y-60134600D02*
X90350400Y-59202900D01*
X90704400Y-82390200D02*
X91282100Y-82967900D01*
X91282100Y-86925200D02*
X90568500Y-86211600D01*
X90350400Y-59202900D02*
X87256100Y-59202900D01*
X88105200Y-78918700D02*
X88105200Y-79221300D01*
X91054500Y-69467900D02*
X91282100Y-69467900D01*
X86175600Y-83961700D02*
X86782100Y-83355200D01*
X91282000Y-73967900D02*
X90704400Y-74545500D01*
X90354500Y-70314800D02*
X91054500Y-69614800D01*
X86782100Y-60467900D02*
X86040700Y-61209300D01*
X87256100Y-59202900D02*
X86782100Y-59676900D01*
X91282000Y-73967900D02*
X91282100Y-73967900D01*
X86199000Y-67343800D02*
X86637700Y-67782500D01*
X90704400Y-74545500D02*
X90704400Y-78467900D01*
X86782100Y-67782500D02*
X86782100Y-69467900D01*
X86782100Y-86699100D02*
X86782100Y-87467900D01*
X88798700Y-67931400D02*
X89631800Y-67931400D01*
X87184100Y-67538300D02*
X88405600Y-67538300D01*
X86215300Y-77023800D02*
X85782000Y-76590500D01*
X86782100Y-83355200D02*
X86782100Y-82967900D01*
X90568500Y-86211600D02*
X87269600Y-86211600D01*
X90608200Y-73294100D02*
X90608200Y-71602500D01*
X91282100Y-64967900D02*
X91186500Y-65063500D01*
X91560900Y-56246700D02*
X91282100Y-55967900D01*
X85972200Y-76400300D02*
X85782000Y-76590500D01*
X87548000Y-79435200D02*
X86215300Y-78102500D01*
X91827000Y-51806700D02*
X91620900Y-51806700D01*
X86199000Y-65336400D02*
X86199000Y-67343800D01*
X86782100Y-67782500D02*
X86939900Y-67782500D01*
X86040700Y-61209300D02*
X86040700Y-62777600D01*
X91282100Y-88510400D02*
X91282100Y-87467900D01*
X91054500Y-69614800D02*
X91054500Y-69467900D01*
X90608200Y-71602500D02*
X90354500Y-71348800D01*
X86637700Y-67782500D02*
X86782100Y-67782500D01*
X89275900Y-60711700D02*
X89275900Y-61250000D01*
X88701500Y-74486800D02*
X89032100Y-74156200D01*
X93532100Y-69467900D02*
X92541900Y-69467900D01*
X93532100Y-60467900D02*
X92474500Y-60467900D01*
X89032100Y-69467900D02*
X88607700Y-69892300D01*
X93094900Y-78905100D02*
X93532100Y-78467900D01*
X92978800Y-78905100D02*
X93094900Y-78905100D01*
X89032100Y-60467900D02*
X89275900Y-60711700D01*
X89275900Y-61250000D02*
X89276000Y-61250000D01*
X89136800Y-87572600D02*
X89136800Y-88310900D01*
X89032100Y-91967900D02*
X89032100Y-92072200D01*
X89032100Y-64967900D02*
X88600900Y-65399100D01*
X93532100Y-83594100D02*
X93239900Y-83886300D01*
X89032100Y-82967900D02*
X88355200Y-82967900D01*
X93532100Y-87547600D02*
X93532100Y-87467900D01*
X92878200Y-91967900D02*
X92819300Y-92026800D01*
X89032100Y-92072200D02*
X88652800Y-92451500D01*
X93245300Y-56254700D02*
X92957200Y-56254700D01*
X89317500Y-78753300D02*
X89317500Y-79077900D01*
X93532100Y-55967900D02*
X93245300Y-56254700D01*
X88974300Y-56648300D02*
X88974300Y-56025700D01*
X93148500Y-87931200D02*
X93532100Y-87547600D01*
X89032100Y-78467900D02*
X89317500Y-78753300D01*
X89032100Y-87467900D02*
X89136800Y-87572600D01*
X88974300Y-56025700D02*
X89032100Y-55967900D01*
X93305700Y-51241500D02*
X93532100Y-51467900D01*
X92854200Y-51241500D02*
X93305700Y-51241500D01*
X93532100Y-91967900D02*
X92878200Y-91967900D01*
X91271800Y-74649400D02*
X91423300Y-74800900D01*
X89032100Y-51467900D02*
X88745300Y-51754700D01*
X93532100Y-82967900D02*
X93532100Y-83594100D01*
X92774700Y-65725300D02*
X90485900Y-65725300D01*
X88745300Y-51754700D02*
X88745300Y-52039400D01*
X89032100Y-74156200D02*
X89032100Y-73967900D01*
X93532100Y-64967900D02*
X92774700Y-65725300D01*
X92474500Y-60467900D02*
X92155900Y-60786500D01*
X91423300Y-74800900D02*
X92699100Y-74800900D01*
X92699100Y-74800900D02*
X93532100Y-73967900D01*
X86782100Y-58294100D02*
X86388400Y-58687800D01*
X87367400Y-54303200D02*
X90696800Y-54303200D01*
X91024600Y-84960400D02*
X91024600Y-84591800D01*
X90831700Y-92790600D02*
X90831700Y-93767500D01*
X91282100Y-89717900D02*
X91282100Y-91107300D01*
X91282100Y-85217900D02*
X91024600Y-84960400D01*
X86148100Y-90351900D02*
X86782100Y-89717900D01*
X91082400Y-71717900D02*
X91282100Y-71717900D01*
X91282100Y-67120000D02*
X90450800Y-66288700D01*
X90696800Y-54303200D02*
X90696800Y-57632600D01*
X87516600Y-62717900D02*
X86782100Y-62717900D01*
X90702300Y-63297700D02*
X88924800Y-63297700D01*
X90608200Y-71243700D02*
X91082400Y-71717900D01*
X90696800Y-57632600D02*
X91282100Y-58217900D01*
X91874500Y-77134200D02*
X94415800Y-77134200D01*
X94415800Y-77134200D02*
X94414200Y-77132600D01*
X91282100Y-67217900D02*
X91282100Y-67120000D01*
X86782100Y-70932000D02*
X87299600Y-70414500D01*
X88359200Y-62732100D02*
X87530800Y-62732100D01*
X86751100Y-79832000D02*
X86751100Y-80686900D01*
X90672400Y-91717000D02*
X90672400Y-92631300D01*
X92141100Y-79069300D02*
X91282100Y-79928300D01*
X85853000Y-88788800D02*
X86782100Y-89717900D01*
X91078300Y-70270400D02*
X90608200Y-70740500D01*
X86782100Y-76217900D02*
X86782100Y-74787100D01*
X86782100Y-67217900D02*
X86782100Y-65870700D01*
X86782100Y-53717900D02*
X86094100Y-53717900D01*
X86094100Y-53717900D02*
X86093800Y-53717600D01*
X90672400Y-92631300D02*
X90831700Y-92790600D01*
X91282100Y-76541800D02*
X91874500Y-77134200D01*
X86782100Y-58217900D02*
X86782100Y-58294100D01*
X86782100Y-53717900D02*
X87367400Y-54303200D01*
X91282100Y-79928300D02*
X91282100Y-80717900D01*
X87299600Y-70414500D02*
X88390200Y-70414500D01*
X91282100Y-91107300D02*
X90672400Y-91717000D01*
X91282100Y-62717900D02*
X90702300Y-63297700D01*
X86782100Y-85217900D02*
X85853000Y-86147000D01*
X88924800Y-63297700D02*
X88359200Y-62732100D01*
X85853000Y-86147000D02*
X85853000Y-88788800D01*
X91282100Y-76217900D02*
X91282100Y-76541800D01*
X86204700Y-93640500D02*
X86782100Y-94217900D01*
X86148100Y-92322700D02*
X86148100Y-90351900D01*
X86204700Y-92379300D02*
X86204700Y-93640500D01*
X86751100Y-80686900D02*
X86782100Y-80717900D01*
X86782100Y-65870700D02*
X86832100Y-65820700D01*
X90831700Y-93767500D02*
X91282100Y-94217900D01*
X86204700Y-92379300D02*
X86148100Y-92322700D01*
X92491900Y-79069300D02*
X92141100Y-79069300D01*
X87530800Y-62732100D02*
X87516600Y-62717900D01*
X86782100Y-71717900D02*
X86782100Y-70932000D01*
X90608200Y-70740500D02*
X90608200Y-71243700D01*
X90696800Y-54303200D02*
X91282100Y-53717900D01*
X93532100Y-67320900D02*
X93532100Y-67217900D01*
X89032100Y-89864800D02*
X89032100Y-89717900D01*
X90282500Y-75738400D02*
X89803000Y-76217900D01*
X89032100Y-71717900D02*
X90282500Y-72968300D01*
X91026500Y-58799200D02*
X90445200Y-58217900D01*
X90322200Y-91154900D02*
X89032100Y-89864800D01*
X94782500Y-84750100D02*
X94546200Y-84986400D01*
X93532100Y-80886400D02*
X94782500Y-82136800D01*
X91703100Y-67554300D02*
X93298700Y-67554300D01*
X91159600Y-67782500D02*
X91474900Y-67782500D01*
X89337300Y-81023100D02*
X89032100Y-80717900D01*
X94638900Y-71534400D02*
X94569700Y-71603600D01*
X88999500Y-58250500D02*
X88343500Y-58250500D01*
X90322200Y-93596200D02*
X90322200Y-91154900D01*
X90282500Y-72968300D02*
X90282500Y-75738400D01*
X87681400Y-53793400D02*
X88956600Y-53793400D01*
X89032100Y-94217900D02*
X89762400Y-94217900D01*
X94569300Y-75963300D02*
X94314700Y-76217900D01*
X94569700Y-71603600D02*
X94176500Y-71603600D01*
X93532100Y-58217900D02*
X92950800Y-58799200D01*
X94314700Y-85217900D02*
X93532100Y-85217900D01*
X94782500Y-72968300D02*
X94782500Y-75750100D01*
X94782500Y-85483700D02*
X94782500Y-89250100D01*
X89032100Y-62717900D02*
X89724500Y-62717900D01*
X94415700Y-85116900D02*
X94782500Y-85483700D01*
X90292600Y-76707500D02*
X90292600Y-80239500D01*
X94782500Y-90624900D02*
X94782500Y-93703700D01*
X94546200Y-84986400D02*
X94415700Y-85116900D01*
X89032100Y-58217900D02*
X88999500Y-58250500D01*
X93532100Y-80717900D02*
X93532100Y-80886400D01*
X92950800Y-58799200D02*
X91026500Y-58799200D01*
X93751700Y-89937500D02*
X93532100Y-89717900D01*
X89803000Y-76217900D02*
X90292600Y-76707500D01*
X94268300Y-94217900D02*
X93532100Y-94217900D01*
X93532100Y-71717900D02*
X93797200Y-71982900D01*
X94546200Y-84986400D02*
X94610200Y-85050400D01*
X93532100Y-94217900D02*
X92855600Y-94217900D01*
X90595000Y-67217900D02*
X91159600Y-67782500D01*
X94782500Y-89250100D02*
X94095100Y-89937500D01*
X89509000Y-81023100D02*
X89337300Y-81023100D01*
X93298700Y-67554300D02*
X93532100Y-67320900D01*
X93106700Y-54143300D02*
X93532100Y-53717900D01*
X89803000Y-76217900D02*
X89032100Y-76217900D01*
X90403300Y-93596200D02*
X90322200Y-93596200D01*
X94176500Y-71603600D02*
X93797200Y-71982900D01*
X94569300Y-75963300D02*
X94633300Y-76027300D01*
X89032100Y-67217900D02*
X90595000Y-67217900D01*
X92922500Y-85827500D02*
X93532100Y-85217900D01*
X89509000Y-81023100D02*
X90289800Y-81803900D01*
X90289800Y-81803900D02*
X90289800Y-84912700D01*
X93532100Y-67320900D02*
X94213600Y-67320900D01*
X90292600Y-80239500D02*
X89509000Y-81023100D01*
X90445200Y-58217900D02*
X89032100Y-58217900D01*
X94415700Y-85116900D02*
X94314700Y-85217900D01*
X89762400Y-94217900D02*
X90322200Y-93658100D01*
X94095100Y-89937500D02*
X94782500Y-90624900D01*
X92838700Y-62853000D02*
X93397000Y-62853000D01*
X90322200Y-93658100D02*
X90322200Y-93596200D01*
X90289800Y-84912700D02*
X89984600Y-85217900D01*
X90289800Y-84912700D02*
X91204600Y-85827500D01*
X91204600Y-85827500D02*
X92922500Y-85827500D01*
X88956600Y-53793400D02*
X89032100Y-53717900D01*
X94314700Y-76217900D02*
X93532100Y-76217900D01*
X89984600Y-85217900D02*
X89032100Y-85217900D01*
X94782500Y-75750100D02*
X94569300Y-75963300D01*
X91474900Y-67782500D02*
X91703100Y-67554300D01*
X93797200Y-71982900D02*
X94782500Y-72968300D01*
X94782500Y-82136800D02*
X94782500Y-84750100D01*
X94782500Y-93703700D02*
X94268300Y-94217900D01*
X94095100Y-89937500D02*
X93751700Y-89937500D01*
X93397000Y-62853000D02*
X93532100Y-62717900D01*
M02*
