G04 #@! TF.GenerationSoftware,KiCad,Pcbnew,9.0.8*
G04 #@! TF.CreationDate,2026-04-03T11:36:12-04:00*
G04 #@! TF.ProjectId,panel_rp2354_20x20,70616e65-6c5f-4727-9032-3335345f3230,v0.2.0*
G04 #@! TF.SameCoordinates,Original*
G04 #@! TF.FileFunction,Legend,Bot*
G04 #@! TF.FilePolarity,Positive*
%FSLAX46Y46*%
G04 Gerber Fmt 4.6, Leading zero omitted, Abs format (unit mm)*
G04 Created by KiCad (PCBNEW 9.0.8) date 2026-04-03 11:36:12*
%MOMM*%
%LPD*%
G01*
G04 APERTURE LIST*
G04 Aperture macros list*
%AMRoundRect*
0 Rectangle with rounded corners*
0 $1 Rounding radius*
0 $2 $3 $4 $5 $6 $7 $8 $9 X,Y pos of 4 corners*
0 Add a 4 corners polygon primitive as box body*
4,1,4,$2,$3,$4,$5,$6,$7,$8,$9,$2,$3,0*
0 Add four circle primitives for the rounded corners*
1,1,$1+$1,$2,$3*
1,1,$1+$1,$4,$5*
1,1,$1+$1,$6,$7*
1,1,$1+$1,$8,$9*
0 Add four rect primitives between the rounded corners*
20,1,$1+$1,$2,$3,$4,$5,0*
20,1,$1+$1,$4,$5,$6,$7,0*
20,1,$1+$1,$6,$7,$8,$9,0*
20,1,$1+$1,$8,$9,$2,$3,0*%
G04 Aperture macros list end*
%ADD10C,0.200000*%
%ADD11C,0.100000*%
%ADD12C,0.120000*%
%ADD13C,0.191421*%
%ADD14RoundRect,0.102000X-0.418000X-0.853000X0.418000X-0.853000X0.418000X0.853000X-0.418000X0.853000X0*%
%ADD15RoundRect,0.100000X-0.100000X0.130000X-0.100000X-0.130000X0.100000X-0.130000X0.100000X0.130000X0*%
%ADD16RoundRect,0.140000X-0.170000X0.140000X-0.170000X-0.140000X0.170000X-0.140000X0.170000X0.140000X0*%
%ADD17RoundRect,0.150000X-0.150000X0.512500X-0.150000X-0.512500X0.150000X-0.512500X0.150000X0.512500X0*%
%ADD18RoundRect,0.100000X0.100000X-0.130000X0.100000X0.130000X-0.100000X0.130000X-0.100000X-0.130000X0*%
%ADD19RoundRect,0.140000X-0.140000X-0.170000X0.140000X-0.170000X0.140000X0.170000X-0.140000X0.170000X0*%
%ADD20RoundRect,0.100000X-0.130000X-0.100000X0.130000X-0.100000X0.130000X0.100000X-0.130000X0.100000X0*%
%ADD21RoundRect,0.100000X0.130000X0.100000X-0.130000X0.100000X-0.130000X-0.100000X0.130000X-0.100000X0*%
%ADD22RoundRect,0.150000X-0.150000X-0.625000X0.150000X-0.625000X0.150000X0.625000X-0.150000X0.625000X0*%
%ADD23RoundRect,0.250000X-0.350000X-0.650000X0.350000X-0.650000X0.350000X0.650000X-0.350000X0.650000X0*%
%ADD24R,0.490000X0.350000*%
%ADD25R,0.200000X1.600000*%
%ADD26R,1.400000X1.200000*%
%ADD27RoundRect,0.140000X0.170000X-0.140000X0.170000X0.140000X-0.170000X0.140000X-0.170000X-0.140000X0*%
%ADD28RoundRect,0.102000X-0.408000X-1.483000X0.408000X-1.483000X0.408000X1.483000X-0.408000X1.483000X0*%
%ADD29RoundRect,0.150000X0.150000X-0.512500X0.150000X0.512500X-0.150000X0.512500X-0.150000X-0.512500X0*%
%ADD30R,1.800000X1.350000*%
%ADD31R,0.470000X0.530000*%
%ADD32RoundRect,0.055000X-0.335000X0.055000X-0.335000X-0.055000X0.335000X-0.055000X0.335000X0.055000X0*%
%ADD33RoundRect,0.055000X-0.055000X-0.335000X0.055000X-0.335000X0.055000X0.335000X-0.055000X0.335000X0*%
%ADD34R,1.133333X1.133333*%
%ADD35R,0.700000X1.700000*%
G04 APERTURE END LIST*
D10*
X77106993Y-87593409D02*
X76964136Y-87641028D01*
X76964136Y-87641028D02*
X76916517Y-87688647D01*
X76916517Y-87688647D02*
X76868898Y-87783885D01*
X76868898Y-87783885D02*
X76868898Y-87926742D01*
X76868898Y-87926742D02*
X76916517Y-88021980D01*
X76916517Y-88021980D02*
X76964136Y-88069600D01*
X76964136Y-88069600D02*
X77059374Y-88117219D01*
X77059374Y-88117219D02*
X77440326Y-88117219D01*
X77440326Y-88117219D02*
X77440326Y-87117219D01*
X77440326Y-87117219D02*
X77106993Y-87117219D01*
X77106993Y-87117219D02*
X77011755Y-87164838D01*
X77011755Y-87164838D02*
X76964136Y-87212457D01*
X76964136Y-87212457D02*
X76916517Y-87307695D01*
X76916517Y-87307695D02*
X76916517Y-87402933D01*
X76916517Y-87402933D02*
X76964136Y-87498171D01*
X76964136Y-87498171D02*
X77011755Y-87545790D01*
X77011755Y-87545790D02*
X77106993Y-87593409D01*
X77106993Y-87593409D02*
X77440326Y-87593409D01*
X76249850Y-87117219D02*
X76059374Y-87117219D01*
X76059374Y-87117219D02*
X75964136Y-87164838D01*
X75964136Y-87164838D02*
X75868898Y-87260076D01*
X75868898Y-87260076D02*
X75821279Y-87450552D01*
X75821279Y-87450552D02*
X75821279Y-87783885D01*
X75821279Y-87783885D02*
X75868898Y-87974361D01*
X75868898Y-87974361D02*
X75964136Y-88069600D01*
X75964136Y-88069600D02*
X76059374Y-88117219D01*
X76059374Y-88117219D02*
X76249850Y-88117219D01*
X76249850Y-88117219D02*
X76345088Y-88069600D01*
X76345088Y-88069600D02*
X76440326Y-87974361D01*
X76440326Y-87974361D02*
X76487945Y-87783885D01*
X76487945Y-87783885D02*
X76487945Y-87450552D01*
X76487945Y-87450552D02*
X76440326Y-87260076D01*
X76440326Y-87260076D02*
X76345088Y-87164838D01*
X76345088Y-87164838D02*
X76249850Y-87117219D01*
X75535564Y-87117219D02*
X74964136Y-87117219D01*
X75249850Y-88117219D02*
X75249850Y-87117219D01*
X74773659Y-87117219D02*
X74202231Y-87117219D01*
X74487945Y-88117219D02*
X74487945Y-87117219D01*
X73678421Y-87117219D02*
X73487945Y-87117219D01*
X73487945Y-87117219D02*
X73392707Y-87164838D01*
X73392707Y-87164838D02*
X73297469Y-87260076D01*
X73297469Y-87260076D02*
X73249850Y-87450552D01*
X73249850Y-87450552D02*
X73249850Y-87783885D01*
X73249850Y-87783885D02*
X73297469Y-87974361D01*
X73297469Y-87974361D02*
X73392707Y-88069600D01*
X73392707Y-88069600D02*
X73487945Y-88117219D01*
X73487945Y-88117219D02*
X73678421Y-88117219D01*
X73678421Y-88117219D02*
X73773659Y-88069600D01*
X73773659Y-88069600D02*
X73868897Y-87974361D01*
X73868897Y-87974361D02*
X73916516Y-87783885D01*
X73916516Y-87783885D02*
X73916516Y-87450552D01*
X73916516Y-87450552D02*
X73868897Y-87260076D01*
X73868897Y-87260076D02*
X73773659Y-87164838D01*
X73773659Y-87164838D02*
X73678421Y-87117219D01*
X72821278Y-88117219D02*
X72821278Y-87117219D01*
X72821278Y-87117219D02*
X72487945Y-87831504D01*
X72487945Y-87831504D02*
X72154612Y-87117219D01*
X72154612Y-87117219D02*
X72154612Y-88117219D01*
X84880326Y-83617219D02*
X84880326Y-82950552D01*
X84880326Y-83141028D02*
X84832707Y-83045790D01*
X84832707Y-83045790D02*
X84785088Y-82998171D01*
X84785088Y-82998171D02*
X84689850Y-82950552D01*
X84689850Y-82950552D02*
X84594612Y-82950552D01*
X83832707Y-82950552D02*
X83832707Y-83617219D01*
X84261278Y-82950552D02*
X84261278Y-83474361D01*
X84261278Y-83474361D02*
X84213659Y-83569600D01*
X84213659Y-83569600D02*
X84118421Y-83617219D01*
X84118421Y-83617219D02*
X83975564Y-83617219D01*
X83975564Y-83617219D02*
X83880326Y-83569600D01*
X83880326Y-83569600D02*
X83832707Y-83521980D01*
X83356516Y-82950552D02*
X83356516Y-83617219D01*
X83356516Y-83045790D02*
X83308897Y-82998171D01*
X83308897Y-82998171D02*
X83213659Y-82950552D01*
X83213659Y-82950552D02*
X83070802Y-82950552D01*
X83070802Y-82950552D02*
X82975564Y-82998171D01*
X82975564Y-82998171D02*
X82927945Y-83093409D01*
X82927945Y-83093409D02*
X82927945Y-83617219D01*
X80462457Y-69213660D02*
X80414838Y-69261279D01*
X80414838Y-69261279D02*
X80367219Y-69356517D01*
X80367219Y-69356517D02*
X80367219Y-69594612D01*
X80367219Y-69594612D02*
X80414838Y-69689850D01*
X80414838Y-69689850D02*
X80462457Y-69737469D01*
X80462457Y-69737469D02*
X80557695Y-69785088D01*
X80557695Y-69785088D02*
X80652933Y-69785088D01*
X80652933Y-69785088D02*
X80795790Y-69737469D01*
X80795790Y-69737469D02*
X81367219Y-69166041D01*
X81367219Y-69166041D02*
X81367219Y-69785088D01*
X80367219Y-70404136D02*
X80367219Y-70499374D01*
X80367219Y-70499374D02*
X80414838Y-70594612D01*
X80414838Y-70594612D02*
X80462457Y-70642231D01*
X80462457Y-70642231D02*
X80557695Y-70689850D01*
X80557695Y-70689850D02*
X80748171Y-70737469D01*
X80748171Y-70737469D02*
X80986266Y-70737469D01*
X80986266Y-70737469D02*
X81176742Y-70689850D01*
X81176742Y-70689850D02*
X81271980Y-70642231D01*
X81271980Y-70642231D02*
X81319600Y-70594612D01*
X81319600Y-70594612D02*
X81367219Y-70499374D01*
X81367219Y-70499374D02*
X81367219Y-70404136D01*
X81367219Y-70404136D02*
X81319600Y-70308898D01*
X81319600Y-70308898D02*
X81271980Y-70261279D01*
X81271980Y-70261279D02*
X81176742Y-70213660D01*
X81176742Y-70213660D02*
X80986266Y-70166041D01*
X80986266Y-70166041D02*
X80748171Y-70166041D01*
X80748171Y-70166041D02*
X80557695Y-70213660D01*
X80557695Y-70213660D02*
X80462457Y-70261279D01*
X80462457Y-70261279D02*
X80414838Y-70308898D01*
X80414838Y-70308898D02*
X80367219Y-70404136D01*
X80462457Y-71118422D02*
X80414838Y-71166041D01*
X80414838Y-71166041D02*
X80367219Y-71261279D01*
X80367219Y-71261279D02*
X80367219Y-71499374D01*
X80367219Y-71499374D02*
X80414838Y-71594612D01*
X80414838Y-71594612D02*
X80462457Y-71642231D01*
X80462457Y-71642231D02*
X80557695Y-71689850D01*
X80557695Y-71689850D02*
X80652933Y-71689850D01*
X80652933Y-71689850D02*
X80795790Y-71642231D01*
X80795790Y-71642231D02*
X81367219Y-71070803D01*
X81367219Y-71070803D02*
X81367219Y-71689850D01*
X80367219Y-72546993D02*
X80367219Y-72356517D01*
X80367219Y-72356517D02*
X80414838Y-72261279D01*
X80414838Y-72261279D02*
X80462457Y-72213660D01*
X80462457Y-72213660D02*
X80605314Y-72118422D01*
X80605314Y-72118422D02*
X80795790Y-72070803D01*
X80795790Y-72070803D02*
X81176742Y-72070803D01*
X81176742Y-72070803D02*
X81271980Y-72118422D01*
X81271980Y-72118422D02*
X81319600Y-72166041D01*
X81319600Y-72166041D02*
X81367219Y-72261279D01*
X81367219Y-72261279D02*
X81367219Y-72451755D01*
X81367219Y-72451755D02*
X81319600Y-72546993D01*
X81319600Y-72546993D02*
X81271980Y-72594612D01*
X81271980Y-72594612D02*
X81176742Y-72642231D01*
X81176742Y-72642231D02*
X80938647Y-72642231D01*
X80938647Y-72642231D02*
X80843409Y-72594612D01*
X80843409Y-72594612D02*
X80795790Y-72546993D01*
X80795790Y-72546993D02*
X80748171Y-72451755D01*
X80748171Y-72451755D02*
X80748171Y-72261279D01*
X80748171Y-72261279D02*
X80795790Y-72166041D01*
X80795790Y-72166041D02*
X80843409Y-72118422D01*
X80843409Y-72118422D02*
X80938647Y-72070803D01*
X80986266Y-73070803D02*
X80986266Y-73832708D01*
X80367219Y-74499374D02*
X80367219Y-74594612D01*
X80367219Y-74594612D02*
X80414838Y-74689850D01*
X80414838Y-74689850D02*
X80462457Y-74737469D01*
X80462457Y-74737469D02*
X80557695Y-74785088D01*
X80557695Y-74785088D02*
X80748171Y-74832707D01*
X80748171Y-74832707D02*
X80986266Y-74832707D01*
X80986266Y-74832707D02*
X81176742Y-74785088D01*
X81176742Y-74785088D02*
X81271980Y-74737469D01*
X81271980Y-74737469D02*
X81319600Y-74689850D01*
X81319600Y-74689850D02*
X81367219Y-74594612D01*
X81367219Y-74594612D02*
X81367219Y-74499374D01*
X81367219Y-74499374D02*
X81319600Y-74404136D01*
X81319600Y-74404136D02*
X81271980Y-74356517D01*
X81271980Y-74356517D02*
X81176742Y-74308898D01*
X81176742Y-74308898D02*
X80986266Y-74261279D01*
X80986266Y-74261279D02*
X80748171Y-74261279D01*
X80748171Y-74261279D02*
X80557695Y-74308898D01*
X80557695Y-74308898D02*
X80462457Y-74356517D01*
X80462457Y-74356517D02*
X80414838Y-74404136D01*
X80414838Y-74404136D02*
X80367219Y-74499374D01*
X80700552Y-75689850D02*
X81367219Y-75689850D01*
X80319600Y-75451755D02*
X81033885Y-75213660D01*
X81033885Y-75213660D02*
X81033885Y-75832707D01*
X80986266Y-76213660D02*
X80986266Y-76975565D01*
X80367219Y-77642231D02*
X80367219Y-77737469D01*
X80367219Y-77737469D02*
X80414838Y-77832707D01*
X80414838Y-77832707D02*
X80462457Y-77880326D01*
X80462457Y-77880326D02*
X80557695Y-77927945D01*
X80557695Y-77927945D02*
X80748171Y-77975564D01*
X80748171Y-77975564D02*
X80986266Y-77975564D01*
X80986266Y-77975564D02*
X81176742Y-77927945D01*
X81176742Y-77927945D02*
X81271980Y-77880326D01*
X81271980Y-77880326D02*
X81319600Y-77832707D01*
X81319600Y-77832707D02*
X81367219Y-77737469D01*
X81367219Y-77737469D02*
X81367219Y-77642231D01*
X81367219Y-77642231D02*
X81319600Y-77546993D01*
X81319600Y-77546993D02*
X81271980Y-77499374D01*
X81271980Y-77499374D02*
X81176742Y-77451755D01*
X81176742Y-77451755D02*
X80986266Y-77404136D01*
X80986266Y-77404136D02*
X80748171Y-77404136D01*
X80748171Y-77404136D02*
X80557695Y-77451755D01*
X80557695Y-77451755D02*
X80462457Y-77499374D01*
X80462457Y-77499374D02*
X80414838Y-77546993D01*
X80414838Y-77546993D02*
X80367219Y-77642231D01*
X80367219Y-78308898D02*
X80367219Y-78927945D01*
X80367219Y-78927945D02*
X80748171Y-78594612D01*
X80748171Y-78594612D02*
X80748171Y-78737469D01*
X80748171Y-78737469D02*
X80795790Y-78832707D01*
X80795790Y-78832707D02*
X80843409Y-78880326D01*
X80843409Y-78880326D02*
X80938647Y-78927945D01*
X80938647Y-78927945D02*
X81176742Y-78927945D01*
X81176742Y-78927945D02*
X81271980Y-78880326D01*
X81271980Y-78880326D02*
X81319600Y-78832707D01*
X81319600Y-78832707D02*
X81367219Y-78737469D01*
X81367219Y-78737469D02*
X81367219Y-78451755D01*
X81367219Y-78451755D02*
X81319600Y-78356517D01*
X81319600Y-78356517D02*
X81271980Y-78308898D01*
X80700552Y-80439851D02*
X81367219Y-80677946D01*
X81367219Y-80677946D02*
X80700552Y-80916041D01*
X80367219Y-81487470D02*
X80367219Y-81582708D01*
X80367219Y-81582708D02*
X80414838Y-81677946D01*
X80414838Y-81677946D02*
X80462457Y-81725565D01*
X80462457Y-81725565D02*
X80557695Y-81773184D01*
X80557695Y-81773184D02*
X80748171Y-81820803D01*
X80748171Y-81820803D02*
X80986266Y-81820803D01*
X80986266Y-81820803D02*
X81176742Y-81773184D01*
X81176742Y-81773184D02*
X81271980Y-81725565D01*
X81271980Y-81725565D02*
X81319600Y-81677946D01*
X81319600Y-81677946D02*
X81367219Y-81582708D01*
X81367219Y-81582708D02*
X81367219Y-81487470D01*
X81367219Y-81487470D02*
X81319600Y-81392232D01*
X81319600Y-81392232D02*
X81271980Y-81344613D01*
X81271980Y-81344613D02*
X81176742Y-81296994D01*
X81176742Y-81296994D02*
X80986266Y-81249375D01*
X80986266Y-81249375D02*
X80748171Y-81249375D01*
X80748171Y-81249375D02*
X80557695Y-81296994D01*
X80557695Y-81296994D02*
X80462457Y-81344613D01*
X80462457Y-81344613D02*
X80414838Y-81392232D01*
X80414838Y-81392232D02*
X80367219Y-81487470D01*
X81271980Y-82249375D02*
X81319600Y-82296994D01*
X81319600Y-82296994D02*
X81367219Y-82249375D01*
X81367219Y-82249375D02*
X81319600Y-82201756D01*
X81319600Y-82201756D02*
X81271980Y-82249375D01*
X81271980Y-82249375D02*
X81367219Y-82249375D01*
X80462457Y-82677946D02*
X80414838Y-82725565D01*
X80414838Y-82725565D02*
X80367219Y-82820803D01*
X80367219Y-82820803D02*
X80367219Y-83058898D01*
X80367219Y-83058898D02*
X80414838Y-83154136D01*
X80414838Y-83154136D02*
X80462457Y-83201755D01*
X80462457Y-83201755D02*
X80557695Y-83249374D01*
X80557695Y-83249374D02*
X80652933Y-83249374D01*
X80652933Y-83249374D02*
X80795790Y-83201755D01*
X80795790Y-83201755D02*
X81367219Y-82630327D01*
X81367219Y-82630327D02*
X81367219Y-83249374D01*
X81271980Y-83677946D02*
X81319600Y-83725565D01*
X81319600Y-83725565D02*
X81367219Y-83677946D01*
X81367219Y-83677946D02*
X81319600Y-83630327D01*
X81319600Y-83630327D02*
X81271980Y-83677946D01*
X81271980Y-83677946D02*
X81367219Y-83677946D01*
X80367219Y-84344612D02*
X80367219Y-84439850D01*
X80367219Y-84439850D02*
X80414838Y-84535088D01*
X80414838Y-84535088D02*
X80462457Y-84582707D01*
X80462457Y-84582707D02*
X80557695Y-84630326D01*
X80557695Y-84630326D02*
X80748171Y-84677945D01*
X80748171Y-84677945D02*
X80986266Y-84677945D01*
X80986266Y-84677945D02*
X81176742Y-84630326D01*
X81176742Y-84630326D02*
X81271980Y-84582707D01*
X81271980Y-84582707D02*
X81319600Y-84535088D01*
X81319600Y-84535088D02*
X81367219Y-84439850D01*
X81367219Y-84439850D02*
X81367219Y-84344612D01*
X81367219Y-84344612D02*
X81319600Y-84249374D01*
X81319600Y-84249374D02*
X81271980Y-84201755D01*
X81271980Y-84201755D02*
X81176742Y-84154136D01*
X81176742Y-84154136D02*
X80986266Y-84106517D01*
X80986266Y-84106517D02*
X80748171Y-84106517D01*
X80748171Y-84106517D02*
X80557695Y-84154136D01*
X80557695Y-84154136D02*
X80462457Y-84201755D01*
X80462457Y-84201755D02*
X80414838Y-84249374D01*
X80414838Y-84249374D02*
X80367219Y-84344612D01*
D11*
X51127693Y-60877580D02*
X50556265Y-60877580D01*
X50841979Y-60877580D02*
X50841979Y-61877580D01*
X50841979Y-61877580D02*
X50746741Y-61734723D01*
X50746741Y-61734723D02*
X50651503Y-61639485D01*
X50651503Y-61639485D02*
X50556265Y-61591866D01*
X81927693Y-60877580D02*
X81356265Y-60877580D01*
X81641979Y-60877580D02*
X81641979Y-61877580D01*
X81641979Y-61877580D02*
X81546741Y-61734723D01*
X81546741Y-61734723D02*
X81451503Y-61639485D01*
X81451503Y-61639485D02*
X81356265Y-61591866D01*
D10*
X50045990Y-50000000D02*
X64154010Y-50000000D01*
X50045990Y-62582990D02*
X50045990Y-50000000D01*
X64154010Y-50000000D02*
X64154010Y-62582990D01*
X64154010Y-62582990D02*
X50045990Y-62582990D01*
D12*
X75120000Y-52157164D02*
X75120000Y-52372836D01*
X75840000Y-52157164D02*
X75840000Y-52372836D01*
X86857500Y-69305000D02*
X86857500Y-68505000D01*
X86857500Y-69305000D02*
X86857500Y-70105000D01*
X89977500Y-69305000D02*
X89977500Y-68505000D01*
X89977500Y-69305000D02*
X89977500Y-70105000D01*
X86907500Y-68005000D02*
X86577500Y-68245000D01*
X86577500Y-67765000D01*
X86907500Y-68005000D01*
G36*
X86907500Y-68005000D02*
G01*
X86577500Y-68245000D01*
X86577500Y-67765000D01*
X86907500Y-68005000D01*
G37*
X51260000Y-73572500D02*
X51260000Y-72772500D01*
X51260000Y-73572500D02*
X51260000Y-74372500D01*
X54380000Y-73572500D02*
X54380000Y-72772500D01*
X54380000Y-73572500D02*
X54380000Y-74372500D01*
X51310000Y-72272500D02*
X50980000Y-72512500D01*
X50980000Y-72032500D01*
X51310000Y-72272500D01*
G36*
X51310000Y-72272500D02*
G01*
X50980000Y-72512500D01*
X50980000Y-72032500D01*
X51310000Y-72272500D01*
G37*
X88112164Y-77350000D02*
X88327836Y-77350000D01*
X88112164Y-78070000D02*
X88327836Y-78070000D01*
X55717500Y-81995000D02*
X55717500Y-81195000D01*
X55717500Y-81995000D02*
X55717500Y-82795000D01*
X58837500Y-81995000D02*
X58837500Y-81195000D01*
X58837500Y-81995000D02*
X58837500Y-82795000D01*
X55767500Y-80695000D02*
X55437500Y-80935000D01*
X55437500Y-80455000D01*
X55767500Y-80695000D01*
G36*
X55767500Y-80695000D02*
G01*
X55437500Y-80935000D01*
X55437500Y-80455000D01*
X55767500Y-80695000D01*
G37*
X91265000Y-73587500D02*
X91265000Y-72787500D01*
X91265000Y-73587500D02*
X91265000Y-74387500D01*
X94385000Y-73587500D02*
X94385000Y-72787500D01*
X94385000Y-73587500D02*
X94385000Y-74387500D01*
X91315000Y-72287500D02*
X90985000Y-72527500D01*
X90985000Y-72047500D01*
X91315000Y-72287500D01*
G36*
X91315000Y-72287500D02*
G01*
X90985000Y-72527500D01*
X90985000Y-72047500D01*
X91315000Y-72287500D01*
G37*
X55722500Y-86195000D02*
X55722500Y-85395000D01*
X55722500Y-86195000D02*
X55722500Y-86995000D01*
X58842500Y-86195000D02*
X58842500Y-85395000D01*
X58842500Y-86195000D02*
X58842500Y-86995000D01*
X55772500Y-84895000D02*
X55442500Y-85135000D01*
X55442500Y-84655000D01*
X55772500Y-84895000D01*
G36*
X55772500Y-84895000D02*
G01*
X55442500Y-85135000D01*
X55442500Y-84655000D01*
X55772500Y-84895000D01*
G37*
X76915000Y-52430000D02*
X76915000Y-51630000D01*
X76915000Y-52430000D02*
X76915000Y-53230000D01*
X80035000Y-52430000D02*
X80035000Y-51630000D01*
X80035000Y-52430000D02*
X80035000Y-53230000D01*
X76965000Y-51130000D02*
X76635000Y-51370000D01*
X76635000Y-50890000D01*
X76965000Y-51130000D01*
G36*
X76965000Y-51130000D02*
G01*
X76635000Y-51370000D01*
X76635000Y-50890000D01*
X76965000Y-51130000D01*
G37*
X86865000Y-73562500D02*
X86865000Y-72762500D01*
X86865000Y-73562500D02*
X86865000Y-74362500D01*
X89985000Y-73562500D02*
X89985000Y-72762500D01*
X89985000Y-73562500D02*
X89985000Y-74362500D01*
X86915000Y-72262500D02*
X86585000Y-72502500D01*
X86585000Y-72022500D01*
X86915000Y-72262500D01*
G36*
X86915000Y-72262500D02*
G01*
X86585000Y-72502500D01*
X86585000Y-72022500D01*
X86915000Y-72262500D01*
G37*
X82465000Y-73537500D02*
X82465000Y-72737500D01*
X82465000Y-73537500D02*
X82465000Y-74337500D01*
X85585000Y-73537500D02*
X85585000Y-72737500D01*
X85585000Y-73537500D02*
X85585000Y-74337500D01*
X82515000Y-72237500D02*
X82185000Y-72477500D01*
X82185000Y-71997500D01*
X82515000Y-72237500D01*
G36*
X82515000Y-72237500D02*
G01*
X82185000Y-72477500D01*
X82185000Y-71997500D01*
X82515000Y-72237500D01*
G37*
X69390000Y-90390000D02*
X70440000Y-90390000D01*
X69390000Y-91540000D02*
X69390000Y-90390000D01*
X70440000Y-90390000D02*
X70440000Y-89400000D01*
X70560000Y-93510000D02*
X74440000Y-93510000D01*
X75610000Y-90390000D02*
X74560000Y-90390000D01*
X75610000Y-91540000D02*
X75610000Y-90390000D01*
D10*
X80845990Y-50000000D02*
X94954010Y-50000000D01*
X80845990Y-62582990D02*
X80845990Y-50000000D01*
X94954010Y-50000000D02*
X94954010Y-62582990D01*
X94954010Y-62582990D02*
X80845990Y-62582990D01*
D12*
X63620000Y-64102164D02*
X63620000Y-64317836D01*
X64340000Y-64102164D02*
X64340000Y-64317836D01*
D11*
X67025000Y-85130000D02*
X67155000Y-85131000D01*
X67025000Y-87610000D02*
X67025000Y-85130000D01*
X67155000Y-85131000D02*
X70255000Y-85131000D01*
X67155000Y-87609000D02*
X67025000Y-87610000D01*
X67155000Y-87609000D02*
X70255000Y-87609000D01*
X70255000Y-87609000D02*
X70385000Y-87610000D01*
X70385000Y-85130000D02*
X70255000Y-85131000D01*
X70385000Y-87610000D02*
X70385000Y-85130000D01*
D10*
X66795000Y-87310000D02*
G75*
G02*
X66595000Y-87310000I-100000J0D01*
G01*
X66595000Y-87310000D02*
G75*
G02*
X66795000Y-87310000I100000J0D01*
G01*
D12*
X82477500Y-65050000D02*
X82477500Y-64250000D01*
X82477500Y-65050000D02*
X82477500Y-65850000D01*
X85597500Y-65050000D02*
X85597500Y-64250000D01*
X85597500Y-65050000D02*
X85597500Y-65850000D01*
X82527500Y-63750000D02*
X82197500Y-63990000D01*
X82197500Y-63510000D01*
X82527500Y-63750000D01*
G36*
X82527500Y-63750000D02*
G01*
X82197500Y-63990000D01*
X82197500Y-63510000D01*
X82527500Y-63750000D01*
G37*
X69400000Y-52252164D02*
X69400000Y-52467836D01*
X70120000Y-52252164D02*
X70120000Y-52467836D01*
X51275000Y-65107500D02*
X51275000Y-64307500D01*
X51275000Y-65107500D02*
X51275000Y-65907500D01*
X54395000Y-65107500D02*
X54395000Y-64307500D01*
X54395000Y-65107500D02*
X54395000Y-65907500D01*
X51325000Y-63807500D02*
X50995000Y-64047500D01*
X50995000Y-63567500D01*
X51325000Y-63807500D01*
G36*
X51325000Y-63807500D02*
G01*
X50995000Y-64047500D01*
X50995000Y-63567500D01*
X51325000Y-63807500D01*
G37*
X60165000Y-69367500D02*
X60165000Y-68567500D01*
X60165000Y-69367500D02*
X60165000Y-70167500D01*
X63285000Y-69367500D02*
X63285000Y-68567500D01*
X63285000Y-69367500D02*
X63285000Y-70167500D01*
X60215000Y-68067500D02*
X59885000Y-68307500D01*
X59885000Y-67827500D01*
X60215000Y-68067500D01*
G36*
X60215000Y-68067500D02*
G01*
X59885000Y-68307500D01*
X59885000Y-67827500D01*
X60215000Y-68067500D01*
G37*
X55715000Y-69362500D02*
X55715000Y-68562500D01*
X55715000Y-69362500D02*
X55715000Y-70162500D01*
X58835000Y-69362500D02*
X58835000Y-68562500D01*
X58835000Y-69362500D02*
X58835000Y-70162500D01*
X55765000Y-68062500D02*
X55435000Y-68302500D01*
X55435000Y-67822500D01*
X55765000Y-68062500D01*
G36*
X55765000Y-68062500D02*
G01*
X55435000Y-68302500D01*
X55435000Y-67822500D01*
X55765000Y-68062500D01*
G37*
X71170000Y-62660000D02*
X75170000Y-62660000D01*
X71170000Y-65960000D02*
X71170000Y-62660000D01*
X67415000Y-91482164D02*
X67415000Y-91697836D01*
X68135000Y-91482164D02*
X68135000Y-91697836D01*
X69170000Y-60577836D02*
X69170000Y-60362164D01*
X69890000Y-60577836D02*
X69890000Y-60362164D01*
X75070000Y-60872164D02*
X75070000Y-61087836D01*
X75790000Y-60872164D02*
X75790000Y-61087836D01*
D11*
X81550000Y-92500000D02*
X94240000Y-92500000D01*
X94240000Y-88365000D01*
X81550000Y-88365000D01*
X81550000Y-92500000D01*
X81550000Y-94835000D02*
X94240000Y-94835000D01*
X94240000Y-92500000D01*
X81550000Y-92500000D01*
X81550000Y-94835000D01*
D12*
X80415000Y-85917164D02*
X80415000Y-86132836D01*
X81135000Y-85917164D02*
X81135000Y-86132836D01*
X86770000Y-81882500D02*
X86770000Y-81082500D01*
X86770000Y-81882500D02*
X86770000Y-82682500D01*
X89890000Y-81882500D02*
X89890000Y-81082500D01*
X89890000Y-81882500D02*
X89890000Y-82682500D01*
X86820000Y-80582500D02*
X86490000Y-80822500D01*
X86490000Y-80342500D01*
X86820000Y-80582500D01*
G36*
X86820000Y-80582500D02*
G01*
X86490000Y-80822500D01*
X86490000Y-80342500D01*
X86820000Y-80582500D01*
G37*
X63965000Y-92532500D02*
X63965000Y-91732500D01*
X63965000Y-92532500D02*
X63965000Y-93332500D01*
X67085000Y-92532500D02*
X67085000Y-91732500D01*
X67085000Y-92532500D02*
X67085000Y-93332500D01*
X67365000Y-94072500D02*
X67035000Y-93832500D01*
X67365000Y-93592500D01*
X67365000Y-94072500D01*
G36*
X67365000Y-94072500D02*
G01*
X67035000Y-93832500D01*
X67365000Y-93592500D01*
X67365000Y-94072500D01*
G37*
D11*
X50750000Y-92500000D02*
X63440000Y-92500000D01*
X63440000Y-88365000D01*
X50750000Y-88365000D01*
X50750000Y-92500000D01*
X50750000Y-94835000D02*
X63440000Y-94835000D01*
X63440000Y-92500000D01*
X50750000Y-92500000D01*
X50750000Y-94835000D01*
D12*
X63610000Y-73532164D02*
X63610000Y-73747836D01*
X64330000Y-73532164D02*
X64330000Y-73747836D01*
D11*
X61862472Y-79295000D02*
G75*
G02*
X59877528Y-79295000I-992472J0D01*
G01*
X59877528Y-79295000D02*
G75*
G02*
X61862472Y-79295000I992472J0D01*
G01*
D12*
X62590000Y-80542164D02*
X62590000Y-80757836D01*
X63310000Y-80542164D02*
X63310000Y-80757836D01*
X65652500Y-60975000D02*
X65652500Y-60175000D01*
X65652500Y-60975000D02*
X65652500Y-61775000D01*
X68772500Y-60975000D02*
X68772500Y-60175000D01*
X68772500Y-60975000D02*
X68772500Y-61775000D01*
X65702500Y-59675000D02*
X65372500Y-59915000D01*
X65372500Y-59435000D01*
X65702500Y-59675000D01*
G36*
X65702500Y-59675000D02*
G01*
X65372500Y-59915000D01*
X65372500Y-59435000D01*
X65702500Y-59675000D01*
G37*
X76940000Y-56687500D02*
X76940000Y-55887500D01*
X76940000Y-56687500D02*
X76940000Y-57487500D01*
X80060000Y-56687500D02*
X80060000Y-55887500D01*
X80060000Y-56687500D02*
X80060000Y-57487500D01*
X76990000Y-55387500D02*
X76660000Y-55627500D01*
X76660000Y-55147500D01*
X76990000Y-55387500D01*
G36*
X76990000Y-55387500D02*
G01*
X76660000Y-55627500D01*
X76660000Y-55147500D01*
X76990000Y-55387500D01*
G37*
X88112164Y-79430000D02*
X88327836Y-79430000D01*
X60155000Y-65122500D02*
X60155000Y-64322500D01*
X60155000Y-65122500D02*
X60155000Y-65922500D01*
X63275000Y-65122500D02*
X63275000Y-64322500D01*
X63275000Y-65122500D02*
X63275000Y-65922500D01*
X60205000Y-63822500D02*
X59875000Y-64062500D01*
X59875000Y-63582500D01*
X60205000Y-63822500D01*
G36*
X60205000Y-63822500D02*
G01*
X59875000Y-64062500D01*
X59875000Y-63582500D01*
X60205000Y-63822500D01*
G37*
X51240000Y-69350000D02*
X51240000Y-68550000D01*
X51240000Y-69350000D02*
X51240000Y-70150000D01*
X54360000Y-69350000D02*
X54360000Y-68550000D01*
X54360000Y-69350000D02*
X54360000Y-70150000D01*
X51290000Y-68050000D02*
X50960000Y-68290000D01*
X50960000Y-67810000D01*
X51290000Y-68050000D01*
G36*
X51290000Y-68050000D02*
G01*
X50960000Y-68290000D01*
X50960000Y-67810000D01*
X51290000Y-68050000D01*
G37*
X78090000Y-92512500D02*
X78090000Y-91712500D01*
X78090000Y-92512500D02*
X78090000Y-93312500D01*
X81210000Y-92512500D02*
X81210000Y-91712500D01*
X81210000Y-92512500D02*
X81210000Y-93312500D01*
X78140000Y-91212500D02*
X77810000Y-91452500D01*
X77810000Y-90972500D01*
X78140000Y-91212500D01*
G36*
X78140000Y-91212500D02*
G01*
X77810000Y-91452500D01*
X77810000Y-90972500D01*
X78140000Y-91212500D01*
G37*
X62560000Y-77427836D02*
X62560000Y-77212164D01*
X71215000Y-56762500D02*
X71215000Y-55962500D01*
X71215000Y-56762500D02*
X71215000Y-57562500D01*
X74335000Y-56762500D02*
X74335000Y-55962500D01*
X74335000Y-56762500D02*
X74335000Y-57562500D01*
X71265000Y-55462500D02*
X70935000Y-55702500D01*
X70935000Y-55222500D01*
X71265000Y-55462500D01*
G36*
X71265000Y-55462500D02*
G01*
X70935000Y-55702500D01*
X70935000Y-55222500D01*
X71265000Y-55462500D01*
G37*
X91290000Y-65087500D02*
X91290000Y-64287500D01*
X91290000Y-65087500D02*
X91290000Y-65887500D01*
X94410000Y-65087500D02*
X94410000Y-64287500D01*
X94410000Y-65087500D02*
X94410000Y-65887500D01*
X91340000Y-63787500D02*
X91010000Y-64027500D01*
X91010000Y-63547500D01*
X91340000Y-63787500D01*
G36*
X91340000Y-63787500D02*
G01*
X91010000Y-64027500D01*
X91010000Y-63547500D01*
X91340000Y-63787500D01*
G37*
X65652500Y-52325000D02*
X65652500Y-51525000D01*
X65652500Y-52325000D02*
X65652500Y-53125000D01*
X68772500Y-52325000D02*
X68772500Y-51525000D01*
X68772500Y-52325000D02*
X68772500Y-53125000D01*
X65702500Y-51025000D02*
X65372500Y-51265000D01*
X65372500Y-50785000D01*
X65702500Y-51025000D01*
G36*
X65702500Y-51025000D02*
G01*
X65372500Y-51265000D01*
X65372500Y-50785000D01*
X65702500Y-51025000D01*
G37*
X86877500Y-65075000D02*
X86877500Y-64275000D01*
X86877500Y-65075000D02*
X86877500Y-65875000D01*
X89997500Y-65075000D02*
X89997500Y-64275000D01*
X89997500Y-65075000D02*
X89997500Y-65875000D01*
X86927500Y-63775000D02*
X86597500Y-64015000D01*
X86597500Y-63535000D01*
X86927500Y-63775000D01*
G36*
X86927500Y-63775000D02*
G01*
X86597500Y-64015000D01*
X86597500Y-63535000D01*
X86927500Y-63775000D01*
G37*
X67350000Y-70850000D02*
X67350000Y-71800000D01*
X68300000Y-70850000D02*
X67350000Y-70850000D01*
X68300000Y-81150000D02*
X67110000Y-81150000D01*
X76700000Y-70850000D02*
X77650000Y-70850000D01*
X76700000Y-81150000D02*
X77650000Y-81150000D01*
X77650000Y-70850000D02*
X77650000Y-71800000D01*
X77650000Y-81150000D02*
X77650000Y-80200000D01*
X71225000Y-52392500D02*
X71225000Y-51592500D01*
X71225000Y-52392500D02*
X71225000Y-53192500D01*
X74345000Y-52392500D02*
X74345000Y-51592500D01*
X74345000Y-52392500D02*
X74345000Y-53192500D01*
X71275000Y-51092500D02*
X70945000Y-51332500D01*
X70945000Y-50852500D01*
X71275000Y-51092500D01*
G36*
X71275000Y-51092500D02*
G01*
X70945000Y-51332500D01*
X70945000Y-50852500D01*
X71275000Y-51092500D01*
G37*
X55715000Y-73605000D02*
X55715000Y-72805000D01*
X55715000Y-73605000D02*
X55715000Y-74405000D01*
X58835000Y-73605000D02*
X58835000Y-72805000D01*
X58835000Y-73605000D02*
X58835000Y-74405000D01*
X55765000Y-72305000D02*
X55435000Y-72545000D01*
X55435000Y-72065000D01*
X55765000Y-72305000D01*
G36*
X55765000Y-72305000D02*
G01*
X55435000Y-72545000D01*
X55435000Y-72065000D01*
X55765000Y-72305000D01*
G37*
X65665000Y-56712500D02*
X65665000Y-55912500D01*
X65665000Y-56712500D02*
X65665000Y-57512500D01*
X68785000Y-56712500D02*
X68785000Y-55912500D01*
X68785000Y-56712500D02*
X68785000Y-57512500D01*
X65715000Y-55412500D02*
X65385000Y-55652500D01*
X65385000Y-55172500D01*
X65715000Y-55412500D01*
G36*
X65715000Y-55412500D02*
G01*
X65385000Y-55652500D01*
X65385000Y-55172500D01*
X65715000Y-55412500D01*
G37*
X63670000Y-86822164D02*
X63670000Y-87037836D01*
X64390000Y-86822164D02*
X64390000Y-87037836D01*
X80622500Y-68169664D02*
X80622500Y-68385336D01*
X81342500Y-68169664D02*
X81342500Y-68385336D01*
X73500000Y-69067836D02*
X73500000Y-68852164D01*
X74220000Y-69067836D02*
X74220000Y-68852164D01*
X91270000Y-69342500D02*
X91270000Y-68542500D01*
X91270000Y-69342500D02*
X91270000Y-70142500D01*
X94390000Y-69342500D02*
X94390000Y-68542500D01*
X94390000Y-69342500D02*
X94390000Y-70142500D01*
X91320000Y-68042500D02*
X90990000Y-68282500D01*
X90990000Y-67802500D01*
X91320000Y-68042500D01*
G36*
X91320000Y-68042500D02*
G01*
X90990000Y-68282500D01*
X90990000Y-67802500D01*
X91320000Y-68042500D01*
G37*
X76940000Y-60912500D02*
X76940000Y-60112500D01*
X76940000Y-60912500D02*
X76940000Y-61712500D01*
X80060000Y-60912500D02*
X80060000Y-60112500D01*
X80060000Y-60912500D02*
X80060000Y-61712500D01*
X76990000Y-59612500D02*
X76660000Y-59852500D01*
X76660000Y-59372500D01*
X76990000Y-59612500D01*
G36*
X76990000Y-59612500D02*
G01*
X76660000Y-59852500D01*
X76660000Y-59372500D01*
X76990000Y-59612500D01*
G37*
X80630000Y-63902164D02*
X80630000Y-64117836D01*
X81350000Y-63902164D02*
X81350000Y-64117836D01*
X86765000Y-86190000D02*
X86765000Y-85390000D01*
X86765000Y-86190000D02*
X86765000Y-86990000D01*
X89885000Y-86190000D02*
X89885000Y-85390000D01*
X89885000Y-86190000D02*
X89885000Y-86990000D01*
X86815000Y-84890000D02*
X86485000Y-85130000D01*
X86485000Y-84650000D01*
X86815000Y-84890000D01*
G36*
X86815000Y-84890000D02*
G01*
X86485000Y-85130000D01*
X86485000Y-84650000D01*
X86815000Y-84890000D01*
G37*
X51250000Y-77777500D02*
X51250000Y-76977500D01*
X51250000Y-77777500D02*
X51250000Y-78577500D01*
X54370000Y-77777500D02*
X54370000Y-76977500D01*
X54370000Y-77777500D02*
X54370000Y-78577500D01*
X51300000Y-76477500D02*
X50970000Y-76717500D01*
X50970000Y-76237500D01*
X51300000Y-76477500D01*
G36*
X51300000Y-76477500D02*
G01*
X50970000Y-76717500D01*
X50970000Y-76237500D01*
X51300000Y-76477500D01*
G37*
X91265000Y-86200000D02*
X91265000Y-85400000D01*
X91265000Y-86200000D02*
X91265000Y-87000000D01*
X94385000Y-86200000D02*
X94385000Y-85400000D01*
X94385000Y-86200000D02*
X94385000Y-87000000D01*
X91315000Y-84900000D02*
X90985000Y-85140000D01*
X90985000Y-84660000D01*
X91315000Y-84900000D01*
G36*
X91315000Y-84900000D02*
G01*
X90985000Y-85140000D01*
X90985000Y-84660000D01*
X91315000Y-84900000D01*
G37*
D13*
X74695710Y-86325000D02*
G75*
G02*
X74504290Y-86325000I-95710J0D01*
G01*
X74504290Y-86325000D02*
G75*
G02*
X74695710Y-86325000I95710J0D01*
G01*
D12*
X60182500Y-86215000D02*
X60182500Y-85415000D01*
X60182500Y-86215000D02*
X60182500Y-87015000D01*
X63302500Y-86215000D02*
X63302500Y-85415000D01*
X63302500Y-86215000D02*
X63302500Y-87015000D01*
X60232500Y-84915000D02*
X59902500Y-85155000D01*
X59902500Y-84675000D01*
X60232500Y-84915000D01*
G36*
X60232500Y-84915000D02*
G01*
X59902500Y-85155000D01*
X59902500Y-84675000D01*
X60232500Y-84915000D01*
G37*
X63610000Y-68582164D02*
X63610000Y-68797836D01*
X64330000Y-68582164D02*
X64330000Y-68797836D01*
X82457500Y-69280000D02*
X82457500Y-68480000D01*
X82457500Y-69280000D02*
X82457500Y-70080000D01*
X85577500Y-69280000D02*
X85577500Y-68480000D01*
X85577500Y-69280000D02*
X85577500Y-70080000D01*
X82507500Y-67980000D02*
X82177500Y-68220000D01*
X82177500Y-67740000D01*
X82507500Y-67980000D01*
G36*
X82507500Y-67980000D02*
G01*
X82177500Y-68220000D01*
X82177500Y-67740000D01*
X82507500Y-67980000D01*
G37*
X82402500Y-86200000D02*
X82402500Y-85400000D01*
X82402500Y-86200000D02*
X82402500Y-87000000D01*
X85522500Y-86200000D02*
X85522500Y-85400000D01*
X85522500Y-86200000D02*
X85522500Y-87000000D01*
X82452500Y-84900000D02*
X82122500Y-85140000D01*
X82122500Y-84660000D01*
X82452500Y-84900000D01*
G36*
X82452500Y-84900000D02*
G01*
X82122500Y-85140000D01*
X82122500Y-84660000D01*
X82452500Y-84900000D01*
G37*
X51240000Y-86187500D02*
X51240000Y-85387500D01*
X51240000Y-86187500D02*
X51240000Y-86987500D01*
X54360000Y-86187500D02*
X54360000Y-85387500D01*
X54360000Y-86187500D02*
X54360000Y-86987500D01*
X51290000Y-84887500D02*
X50960000Y-85127500D01*
X50960000Y-84647500D01*
X51290000Y-84887500D01*
G36*
X51290000Y-84887500D02*
G01*
X50960000Y-85127500D01*
X50960000Y-84647500D01*
X51290000Y-84887500D01*
G37*
X55722500Y-77805000D02*
X55722500Y-77005000D01*
X55722500Y-77805000D02*
X55722500Y-78605000D01*
X58842500Y-77805000D02*
X58842500Y-77005000D01*
X58842500Y-77805000D02*
X58842500Y-78605000D01*
X55772500Y-76505000D02*
X55442500Y-76745000D01*
X55442500Y-76265000D01*
X55772500Y-76505000D01*
G36*
X55772500Y-76505000D02*
G01*
X55442500Y-76745000D01*
X55442500Y-76265000D01*
X55772500Y-76505000D01*
G37*
D11*
X85122472Y-79295000D02*
G75*
G02*
X83137528Y-79295000I-992472J0D01*
G01*
X83137528Y-79295000D02*
G75*
G02*
X85122472Y-79295000I992472J0D01*
G01*
D12*
X91277500Y-77762500D02*
X91277500Y-76962500D01*
X91277500Y-77762500D02*
X91277500Y-78562500D01*
X94397500Y-77762500D02*
X94397500Y-76962500D01*
X94397500Y-77762500D02*
X94397500Y-78562500D01*
X91327500Y-76462500D02*
X90997500Y-76702500D01*
X90997500Y-76222500D01*
X91327500Y-76462500D01*
G36*
X91327500Y-76462500D02*
G01*
X90997500Y-76702500D01*
X90997500Y-76222500D01*
X91327500Y-76462500D01*
G37*
X77440000Y-82707836D02*
X77440000Y-82492164D01*
X78160000Y-82707836D02*
X78160000Y-82492164D01*
X88112164Y-76060000D02*
X88327836Y-76060000D01*
X88112164Y-76780000D02*
X88327836Y-76780000D01*
X91277500Y-81970000D02*
X91277500Y-81170000D01*
X91277500Y-81970000D02*
X91277500Y-82770000D01*
X94397500Y-81970000D02*
X94397500Y-81170000D01*
X94397500Y-81970000D02*
X94397500Y-82770000D01*
X91327500Y-80670000D02*
X90997500Y-80910000D01*
X90997500Y-80430000D01*
X91327500Y-80670000D01*
G36*
X91327500Y-80670000D02*
G01*
X90997500Y-80910000D01*
X90997500Y-80430000D01*
X91327500Y-80670000D01*
G37*
X55710000Y-65122500D02*
X55710000Y-64322500D01*
X55710000Y-65122500D02*
X55710000Y-65922500D01*
X58830000Y-65122500D02*
X58830000Y-64322500D01*
X58830000Y-65122500D02*
X58830000Y-65922500D01*
X55760000Y-63822500D02*
X55430000Y-64062500D01*
X55430000Y-63582500D01*
X55760000Y-63822500D01*
G36*
X55760000Y-63822500D02*
G01*
X55430000Y-64062500D01*
X55430000Y-63582500D01*
X55760000Y-63822500D01*
G37*
X51245000Y-81977500D02*
X51245000Y-81177500D01*
X51245000Y-81977500D02*
X51245000Y-82777500D01*
X54365000Y-81977500D02*
X54365000Y-81177500D01*
X54365000Y-81977500D02*
X54365000Y-82777500D01*
X51295000Y-80677500D02*
X50965000Y-80917500D01*
X50965000Y-80437500D01*
X51295000Y-80677500D01*
G36*
X51295000Y-80677500D02*
G01*
X50965000Y-80917500D01*
X50965000Y-80437500D01*
X51295000Y-80677500D01*
G37*
X60175000Y-73625000D02*
X60175000Y-72825000D01*
X60175000Y-73625000D02*
X60175000Y-74425000D01*
X63295000Y-73625000D02*
X63295000Y-72825000D01*
X63295000Y-73625000D02*
X63295000Y-74425000D01*
X60225000Y-72325000D02*
X59895000Y-72565000D01*
X59895000Y-72085000D01*
X60225000Y-72325000D01*
G36*
X60225000Y-72325000D02*
G01*
X59895000Y-72565000D01*
X59895000Y-72085000D01*
X60225000Y-72325000D01*
G37*
%LPC*%
D14*
X52020000Y-61177000D03*
X54560000Y-61177000D03*
X57100000Y-61177000D03*
X59640000Y-61177000D03*
X62180000Y-61177000D03*
D15*
X76370000Y-51740000D03*
X76370000Y-52380000D03*
D16*
X75480000Y-51785000D03*
X75480000Y-52745000D03*
D17*
X87467500Y-68167500D03*
X88417500Y-68167500D03*
X89367500Y-68167500D03*
X89367500Y-70442500D03*
X87467500Y-70442500D03*
X51870000Y-72435000D03*
X52820000Y-72435000D03*
X53770000Y-72435000D03*
X53770000Y-74710000D03*
X51870000Y-74710000D03*
D15*
X55150000Y-85065000D03*
X55150000Y-85705000D03*
D18*
X72975000Y-69445000D03*
X72975000Y-68805000D03*
D19*
X87740000Y-77710000D03*
X88700000Y-77710000D03*
D17*
X56327500Y-80857500D03*
X57277500Y-80857500D03*
X58227500Y-80857500D03*
X58227500Y-83132500D03*
X56327500Y-83132500D03*
D20*
X78520000Y-79310000D03*
X79160000Y-79310000D03*
D15*
X59570000Y-72485000D03*
X59570000Y-73125000D03*
X76390000Y-60660000D03*
X76390000Y-61300000D03*
D17*
X91875000Y-72450000D03*
X92825000Y-72450000D03*
X93775000Y-72450000D03*
X93775000Y-74725000D03*
X91875000Y-74725000D03*
D21*
X60545000Y-82800000D03*
X59905000Y-82800000D03*
D17*
X56332500Y-85057500D03*
X57282500Y-85057500D03*
X58232500Y-85057500D03*
X58232500Y-87332500D03*
X56332500Y-87332500D03*
D15*
X86200000Y-85620000D03*
X86200000Y-86260000D03*
D20*
X77480000Y-83980000D03*
X78120000Y-83980000D03*
D17*
X77525000Y-51292500D03*
X78475000Y-51292500D03*
X79425000Y-51292500D03*
X79425000Y-53567500D03*
X77525000Y-53567500D03*
X87475000Y-72425000D03*
X88425000Y-72425000D03*
X89375000Y-72425000D03*
X89375000Y-74700000D03*
X87475000Y-74700000D03*
X83075000Y-72400000D03*
X84025000Y-72400000D03*
X84975000Y-72400000D03*
X84975000Y-74675000D03*
X83075000Y-74675000D03*
D22*
X71000000Y-90175000D03*
X72000000Y-90175000D03*
X73000000Y-90175000D03*
X74000000Y-90175000D03*
D23*
X69700000Y-92700000D03*
X75300000Y-92700000D03*
D14*
X82820000Y-61177000D03*
X85360000Y-61177000D03*
X87900000Y-61177000D03*
X90440000Y-61177000D03*
X92980000Y-61177000D03*
D15*
X55090000Y-63980000D03*
X55090000Y-64620000D03*
D18*
X72800000Y-85320000D03*
X72800000Y-84680000D03*
D16*
X63980000Y-63730000D03*
X63980000Y-64690000D03*
D24*
X67485000Y-87120000D03*
X67485000Y-86620000D03*
X67485000Y-86120000D03*
X67485000Y-85620000D03*
X69925000Y-85620000D03*
X69925000Y-86120000D03*
X69925000Y-86620000D03*
X69925000Y-87120000D03*
D25*
X68705000Y-86370000D03*
D17*
X83087500Y-63912500D03*
X84037500Y-63912500D03*
X84987500Y-63912500D03*
X84987500Y-66187500D03*
X83087500Y-66187500D03*
D15*
X65100000Y-55515000D03*
X65100000Y-56155000D03*
X55130000Y-76655000D03*
X55130000Y-77295000D03*
X55130000Y-68230000D03*
X55130000Y-68870000D03*
D16*
X69760000Y-51880000D03*
X69760000Y-52840000D03*
D17*
X51885000Y-63970000D03*
X52835000Y-63970000D03*
X53785000Y-63970000D03*
X53785000Y-66245000D03*
X51885000Y-66245000D03*
D21*
X70065000Y-88120000D03*
X69425000Y-88120000D03*
D18*
X55120000Y-79465000D03*
X55120000Y-78825000D03*
D17*
X60775000Y-68230000D03*
X61725000Y-68230000D03*
X62675000Y-68230000D03*
X62675000Y-70505000D03*
X60775000Y-70505000D03*
D18*
X59580000Y-71035000D03*
X59580000Y-70395000D03*
D17*
X56325000Y-68225000D03*
X57275000Y-68225000D03*
X58225000Y-68225000D03*
X58225000Y-70500000D03*
X56325000Y-70500000D03*
D15*
X90712500Y-77217500D03*
X90712500Y-77857500D03*
D26*
X72070000Y-63460000D03*
X74270000Y-63460000D03*
X74270000Y-65160000D03*
X72070000Y-65160000D03*
D21*
X68085000Y-88070000D03*
X67445000Y-88070000D03*
D16*
X67775000Y-91110000D03*
X67775000Y-92070000D03*
D15*
X69960000Y-82955000D03*
X69960000Y-83595000D03*
D18*
X50640000Y-87835000D03*
X50640000Y-87195000D03*
D15*
X90660000Y-63645000D03*
X90660000Y-64285000D03*
D27*
X69530000Y-60950000D03*
X69530000Y-59990000D03*
D21*
X84330000Y-82620000D03*
X83690000Y-82620000D03*
D20*
X73325000Y-67600000D03*
X73965000Y-67600000D03*
D15*
X65100000Y-60055000D03*
X65100000Y-60695000D03*
D16*
X75430000Y-60500000D03*
X75430000Y-61460000D03*
D15*
X50660000Y-68200000D03*
X50660000Y-68840000D03*
X50660000Y-72425000D03*
X50660000Y-73065000D03*
D18*
X55120000Y-66765000D03*
X55120000Y-66125000D03*
D20*
X78620000Y-76470000D03*
X79260000Y-76470000D03*
D28*
X82820000Y-90135000D03*
X85360000Y-90135000D03*
X87900000Y-90135000D03*
X90440000Y-90135000D03*
X92980000Y-90135000D03*
D16*
X80775000Y-85545000D03*
X80775000Y-86505000D03*
D17*
X87380000Y-80745000D03*
X88330000Y-80745000D03*
X89280000Y-80745000D03*
X89280000Y-83020000D03*
X87380000Y-83020000D03*
D29*
X66475000Y-93670000D03*
X65525000Y-93670000D03*
X64575000Y-93670000D03*
X64575000Y-91395000D03*
X66475000Y-91395000D03*
D15*
X81902500Y-68132500D03*
X81902500Y-68772500D03*
D21*
X62045000Y-82810000D03*
X61405000Y-82810000D03*
D15*
X70650000Y-51835000D03*
X70650000Y-52475000D03*
D18*
X50660000Y-79475000D03*
X50660000Y-78835000D03*
D15*
X76370000Y-56180000D03*
X76370000Y-56820000D03*
X72810000Y-83030000D03*
X72810000Y-83670000D03*
D28*
X52020000Y-90135000D03*
X54560000Y-90135000D03*
X57100000Y-90135000D03*
X59640000Y-90135000D03*
X62180000Y-90135000D03*
D18*
X59600000Y-87875000D03*
X59600000Y-87235000D03*
D16*
X63970000Y-73160000D03*
X63970000Y-74120000D03*
D30*
X60870000Y-77220000D03*
X60870000Y-81370000D03*
D31*
X74985000Y-82400000D03*
X76015000Y-82400000D03*
D16*
X62950000Y-80170000D03*
X62950000Y-81130000D03*
D18*
X59590000Y-66775000D03*
X59590000Y-66135000D03*
D15*
X65070000Y-51115000D03*
X65070000Y-51755000D03*
D17*
X66262500Y-59837500D03*
X67212500Y-59837500D03*
X68162500Y-59837500D03*
X68162500Y-62112500D03*
X66262500Y-62112500D03*
D18*
X73575000Y-85325000D03*
X73575000Y-84685000D03*
X50640000Y-83645000D03*
X50640000Y-83005000D03*
D15*
X70610000Y-57815000D03*
X70610000Y-58455000D03*
D18*
X55125000Y-83660000D03*
X55125000Y-83020000D03*
D17*
X77550000Y-55550000D03*
X78500000Y-55550000D03*
X79450000Y-55550000D03*
X79450000Y-57825000D03*
X77550000Y-57825000D03*
D15*
X86270000Y-72615000D03*
X86270000Y-73255000D03*
D19*
X87740000Y-79070000D03*
X88700000Y-79070000D03*
D18*
X50680000Y-66785000D03*
X50680000Y-66145000D03*
D17*
X60765000Y-63985000D03*
X61715000Y-63985000D03*
X62665000Y-63985000D03*
X62665000Y-66260000D03*
X60765000Y-66260000D03*
D15*
X86292500Y-68202500D03*
X86292500Y-68842500D03*
D17*
X51850000Y-68212500D03*
X52800000Y-68212500D03*
X53750000Y-68212500D03*
X53750000Y-70487500D03*
X51850000Y-70487500D03*
X78700000Y-91375000D03*
X79650000Y-91375000D03*
X80600000Y-91375000D03*
X80600000Y-93650000D03*
X78700000Y-93650000D03*
D18*
X50650000Y-75265000D03*
X50650000Y-74625000D03*
D27*
X62920000Y-77800000D03*
X62920000Y-76840000D03*
D21*
X65990000Y-78480000D03*
X65350000Y-78480000D03*
D17*
X71825000Y-55625000D03*
X72775000Y-55625000D03*
X73725000Y-55625000D03*
X73725000Y-57900000D03*
X71825000Y-57900000D03*
X91900000Y-63950000D03*
X92850000Y-63950000D03*
X93800000Y-63950000D03*
X93800000Y-66225000D03*
X91900000Y-66225000D03*
X66262500Y-51187500D03*
X67212500Y-51187500D03*
X68162500Y-51187500D03*
X68162500Y-53462500D03*
X66262500Y-53462500D03*
X87487500Y-63937500D03*
X88437500Y-63937500D03*
X89387500Y-63937500D03*
X89387500Y-66212500D03*
X87487500Y-66212500D03*
D32*
X67603500Y-79800000D03*
X67603500Y-79400000D03*
X67603500Y-79000000D03*
X67603500Y-78600000D03*
X67603500Y-78200000D03*
X67603500Y-77800000D03*
X67603500Y-77400000D03*
X67603500Y-77000000D03*
X67603500Y-76600000D03*
X67603500Y-76200000D03*
X67603500Y-75800000D03*
X67603500Y-75400000D03*
X67603500Y-75000000D03*
X67603500Y-74600000D03*
X67603500Y-74200000D03*
X67603500Y-73800000D03*
X67603500Y-73400000D03*
X67603500Y-73000000D03*
X67603500Y-72600000D03*
X67603500Y-72200000D03*
D33*
X68700000Y-71103500D03*
X69100000Y-71103500D03*
X69500000Y-71103500D03*
X69900000Y-71103500D03*
X70300000Y-71103500D03*
X70700000Y-71103500D03*
X71100000Y-71103500D03*
X71500000Y-71103500D03*
X71900000Y-71103500D03*
X72300000Y-71103500D03*
X72700000Y-71103500D03*
X73100000Y-71103500D03*
X73500000Y-71103500D03*
X73900000Y-71103500D03*
X74300000Y-71103500D03*
X74700000Y-71103500D03*
X75100000Y-71103500D03*
X75500000Y-71103500D03*
X75900000Y-71103500D03*
X76300000Y-71103500D03*
D32*
X77396500Y-72200000D03*
X77396500Y-72600000D03*
X77396500Y-73000000D03*
X77396500Y-73400000D03*
X77396500Y-73800000D03*
X77396500Y-74200000D03*
X77396500Y-74600000D03*
X77396500Y-75000000D03*
X77396500Y-75400000D03*
X77396500Y-75800000D03*
X77396500Y-76200000D03*
X77396500Y-76600000D03*
X77396500Y-77000000D03*
X77396500Y-77400000D03*
X77396500Y-77800000D03*
X77396500Y-78200000D03*
X77396500Y-78600000D03*
X77396500Y-79000000D03*
X77396500Y-79400000D03*
X77396500Y-79800000D03*
D33*
X76300000Y-80896500D03*
X75900000Y-80896500D03*
X75500000Y-80896500D03*
X75100000Y-80896500D03*
X74700000Y-80896500D03*
X74300000Y-80896500D03*
X73900000Y-80896500D03*
X73500000Y-80896500D03*
X73100000Y-80896500D03*
X72700000Y-80896500D03*
X72300000Y-80896500D03*
X71900000Y-80896500D03*
X71500000Y-80896500D03*
X71100000Y-80896500D03*
X70700000Y-80896500D03*
X70300000Y-80896500D03*
X69900000Y-80896500D03*
X69500000Y-80896500D03*
X69100000Y-80896500D03*
X68700000Y-80896500D03*
D34*
X71366667Y-74866667D03*
X71366667Y-76000000D03*
X71366667Y-77133333D03*
X72500000Y-74866667D03*
X72500000Y-76000000D03*
X72500000Y-77133333D03*
X73633333Y-74866667D03*
X73633333Y-76000000D03*
X73633333Y-77133333D03*
D15*
X59600000Y-85075000D03*
X59600000Y-85715000D03*
X86270000Y-63665000D03*
X86270000Y-64305000D03*
D17*
X71835000Y-51255000D03*
X72785000Y-51255000D03*
X73735000Y-51255000D03*
X73735000Y-53530000D03*
X71835000Y-53530000D03*
X56325000Y-72467500D03*
X57275000Y-72467500D03*
X58225000Y-72467500D03*
X58225000Y-74742500D03*
X56325000Y-74742500D03*
D18*
X50650000Y-71015000D03*
X50650000Y-70375000D03*
D17*
X66275000Y-55575000D03*
X67225000Y-55575000D03*
X68175000Y-55575000D03*
X68175000Y-57850000D03*
X66275000Y-57850000D03*
D18*
X71700000Y-69450000D03*
X71700000Y-68810000D03*
D15*
X50650000Y-85105000D03*
X50650000Y-85745000D03*
D18*
X55150000Y-71040000D03*
X55150000Y-70400000D03*
D15*
X59560000Y-63990000D03*
X59560000Y-64630000D03*
X81837500Y-85647500D03*
X81837500Y-86287500D03*
X90690000Y-72510000D03*
X90690000Y-73150000D03*
D16*
X64030000Y-86450000D03*
X64030000Y-87410000D03*
X80982500Y-67797500D03*
X80982500Y-68757500D03*
D15*
X55140000Y-72445000D03*
X55140000Y-73085000D03*
D27*
X73860000Y-69440000D03*
X73860000Y-68480000D03*
D17*
X91880000Y-68205000D03*
X92830000Y-68205000D03*
X93780000Y-68205000D03*
X93780000Y-70480000D03*
X91880000Y-70480000D03*
X77550000Y-59775000D03*
X78500000Y-59775000D03*
X79450000Y-59775000D03*
X79450000Y-62050000D03*
X77550000Y-62050000D03*
D16*
X80990000Y-63530000D03*
X80990000Y-64490000D03*
D20*
X78630000Y-75680000D03*
X79270000Y-75680000D03*
D17*
X87375000Y-85052500D03*
X88325000Y-85052500D03*
X89275000Y-85052500D03*
X89275000Y-87327500D03*
X87375000Y-87327500D03*
D21*
X66030000Y-73960000D03*
X65390000Y-73960000D03*
D17*
X51860000Y-76640000D03*
X52810000Y-76640000D03*
X53760000Y-76640000D03*
X53760000Y-78915000D03*
X51860000Y-78915000D03*
D15*
X50660000Y-76645000D03*
X50660000Y-77285000D03*
D17*
X91875000Y-85062500D03*
X92825000Y-85062500D03*
X93775000Y-85062500D03*
X93775000Y-87337500D03*
X91875000Y-87337500D03*
D35*
X74800000Y-85025000D03*
X76200000Y-85025000D03*
D15*
X55130000Y-80865000D03*
X55130000Y-81505000D03*
D21*
X65990000Y-76320000D03*
X65350000Y-76320000D03*
D17*
X60792500Y-85077500D03*
X61742500Y-85077500D03*
X62692500Y-85077500D03*
X62692500Y-87352500D03*
X60792500Y-87352500D03*
D16*
X63970000Y-68210000D03*
X63970000Y-69170000D03*
D15*
X90680000Y-81345000D03*
X90680000Y-81985000D03*
D17*
X83067500Y-68142500D03*
X84017500Y-68142500D03*
X84967500Y-68142500D03*
X84967500Y-70417500D03*
X83067500Y-70417500D03*
X83012500Y-85062500D03*
X83962500Y-85062500D03*
X84912500Y-85062500D03*
X84912500Y-87337500D03*
X83012500Y-87337500D03*
D18*
X55120000Y-75285000D03*
X55120000Y-74645000D03*
D31*
X74925000Y-83375000D03*
X75955000Y-83375000D03*
D17*
X51850000Y-85050000D03*
X52800000Y-85050000D03*
X53750000Y-85050000D03*
X53750000Y-87325000D03*
X51850000Y-87325000D03*
D15*
X90672500Y-68352500D03*
X90672500Y-68992500D03*
X65090000Y-57905000D03*
X65090000Y-58545000D03*
D17*
X56332500Y-76667500D03*
X57282500Y-76667500D03*
X58232500Y-76667500D03*
X58232500Y-78942500D03*
X56332500Y-78942500D03*
D27*
X67775000Y-93975000D03*
X67775000Y-93015000D03*
D15*
X81870000Y-63495000D03*
X81870000Y-64135000D03*
D30*
X84130000Y-81370000D03*
X84130000Y-77220000D03*
D15*
X65087500Y-53362500D03*
X65087500Y-54002500D03*
X70610000Y-55215000D03*
X70610000Y-55855000D03*
X81840000Y-72505000D03*
X81840000Y-73145000D03*
X50660000Y-80835000D03*
X50660000Y-81475000D03*
D17*
X91887500Y-76625000D03*
X92837500Y-76625000D03*
X93787500Y-76625000D03*
X93787500Y-78900000D03*
X91887500Y-78900000D03*
D15*
X59580000Y-68240000D03*
X59580000Y-68880000D03*
X90675000Y-85635000D03*
X90675000Y-86275000D03*
D20*
X79680000Y-73500000D03*
X80320000Y-73500000D03*
D18*
X59580000Y-75295000D03*
X59580000Y-74655000D03*
D27*
X77800000Y-83080000D03*
X77800000Y-82120000D03*
D15*
X65080000Y-62400000D03*
X65080000Y-63040000D03*
X50690000Y-63960000D03*
X50690000Y-64600000D03*
D18*
X69510000Y-68410000D03*
X69510000Y-67770000D03*
D19*
X87740000Y-76420000D03*
X88700000Y-76420000D03*
D17*
X91887500Y-80832500D03*
X92837500Y-80832500D03*
X93787500Y-80832500D03*
X93787500Y-83107500D03*
X91887500Y-83107500D03*
D18*
X79260000Y-71275000D03*
X79260000Y-70635000D03*
D15*
X86180000Y-81320000D03*
X86180000Y-81960000D03*
D17*
X56320000Y-63985000D03*
X57270000Y-63985000D03*
X58220000Y-63985000D03*
X58220000Y-66260000D03*
X56320000Y-66260000D03*
D15*
X77500000Y-91955000D03*
X77500000Y-92595000D03*
D18*
X55140000Y-87850000D03*
X55140000Y-87210000D03*
D17*
X51855000Y-80840000D03*
X52805000Y-80840000D03*
X53755000Y-80840000D03*
X53755000Y-83115000D03*
X51855000Y-83115000D03*
D21*
X72295000Y-67600000D03*
X71655000Y-67600000D03*
D17*
X60785000Y-72487500D03*
X61735000Y-72487500D03*
X62685000Y-72487500D03*
X62685000Y-74762500D03*
X60785000Y-74762500D03*
%LPD*%
M02*
