%TF.GenerationSoftware,KiCad,Pcbnew,9.0.8*%
%TF.CreationDate,2026-04-03T11:36:13-04:00*%
%TF.ProjectId,panel_rp2354_20x20,70616e65-6c5f-4727-9032-3335345f3230,v0.2.0*%
%TF.SameCoordinates,Original*%
%TF.FileFunction,Drillmap*%
%TF.FilePolarity,Positive*%
%FSLAX45Y45*%
G04 Gerber Fmt 4.5, Leading zero omitted, Abs format (unit mm)*
G04 Created by KiCad (PCBNEW 9.0.8) date 2026-04-03 11:36:13*
%MOMM*%
%LPD*%
G01*
G04 APERTURE LIST*
%ADD10C,0.250000*%
%ADD11C,0.200000*%
G04 APERTURE END LIST*
D10*
X4980000Y-4980000D02*
X9520000Y-4980000D01*
X9520000Y-9520000D01*
X4980000Y-9520000D01*
X4980000Y-4980000D01*
D11*
X5228277Y-9843984D02*
X5228277Y-9643984D01*
X5228277Y-9643984D02*
X5275896Y-9643984D01*
X5275896Y-9643984D02*
X5304467Y-9653508D01*
X5304467Y-9653508D02*
X5323515Y-9672555D01*
X5323515Y-9672555D02*
X5333039Y-9691603D01*
X5333039Y-9691603D02*
X5342563Y-9729698D01*
X5342563Y-9729698D02*
X5342563Y-9758270D01*
X5342563Y-9758270D02*
X5333039Y-9796365D01*
X5333039Y-9796365D02*
X5323515Y-9815412D01*
X5323515Y-9815412D02*
X5304467Y-9834460D01*
X5304467Y-9834460D02*
X5275896Y-9843984D01*
X5275896Y-9843984D02*
X5228277Y-9843984D01*
X5428277Y-9843984D02*
X5428277Y-9710650D01*
X5428277Y-9748746D02*
X5437801Y-9729698D01*
X5437801Y-9729698D02*
X5447324Y-9720174D01*
X5447324Y-9720174D02*
X5466372Y-9710650D01*
X5466372Y-9710650D02*
X5485420Y-9710650D01*
X5552086Y-9843984D02*
X5552086Y-9710650D01*
X5552086Y-9643984D02*
X5542563Y-9653508D01*
X5542563Y-9653508D02*
X5552086Y-9663031D01*
X5552086Y-9663031D02*
X5561610Y-9653508D01*
X5561610Y-9653508D02*
X5552086Y-9643984D01*
X5552086Y-9643984D02*
X5552086Y-9663031D01*
X5675896Y-9843984D02*
X5656848Y-9834460D01*
X5656848Y-9834460D02*
X5647324Y-9815412D01*
X5647324Y-9815412D02*
X5647324Y-9643984D01*
X5780658Y-9843984D02*
X5761610Y-9834460D01*
X5761610Y-9834460D02*
X5752086Y-9815412D01*
X5752086Y-9815412D02*
X5752086Y-9643984D01*
X6009229Y-9843984D02*
X6009229Y-9643984D01*
X6009229Y-9643984D02*
X6075896Y-9786841D01*
X6075896Y-9786841D02*
X6142562Y-9643984D01*
X6142562Y-9643984D02*
X6142562Y-9843984D01*
X6323515Y-9843984D02*
X6323515Y-9739222D01*
X6323515Y-9739222D02*
X6313991Y-9720174D01*
X6313991Y-9720174D02*
X6294943Y-9710650D01*
X6294943Y-9710650D02*
X6256848Y-9710650D01*
X6256848Y-9710650D02*
X6237801Y-9720174D01*
X6323515Y-9834460D02*
X6304467Y-9843984D01*
X6304467Y-9843984D02*
X6256848Y-9843984D01*
X6256848Y-9843984D02*
X6237801Y-9834460D01*
X6237801Y-9834460D02*
X6228277Y-9815412D01*
X6228277Y-9815412D02*
X6228277Y-9796365D01*
X6228277Y-9796365D02*
X6237801Y-9777317D01*
X6237801Y-9777317D02*
X6256848Y-9767793D01*
X6256848Y-9767793D02*
X6304467Y-9767793D01*
X6304467Y-9767793D02*
X6323515Y-9758270D01*
X6418753Y-9710650D02*
X6418753Y-9910650D01*
X6418753Y-9720174D02*
X6437801Y-9710650D01*
X6437801Y-9710650D02*
X6475896Y-9710650D01*
X6475896Y-9710650D02*
X6494943Y-9720174D01*
X6494943Y-9720174D02*
X6504467Y-9729698D01*
X6504467Y-9729698D02*
X6513991Y-9748746D01*
X6513991Y-9748746D02*
X6513991Y-9805889D01*
X6513991Y-9805889D02*
X6504467Y-9824936D01*
X6504467Y-9824936D02*
X6494943Y-9834460D01*
X6494943Y-9834460D02*
X6475896Y-9843984D01*
X6475896Y-9843984D02*
X6437801Y-9843984D01*
X6437801Y-9843984D02*
X6418753Y-9834460D01*
X6599705Y-9824936D02*
X6609229Y-9834460D01*
X6609229Y-9834460D02*
X6599705Y-9843984D01*
X6599705Y-9843984D02*
X6590182Y-9834460D01*
X6590182Y-9834460D02*
X6599705Y-9824936D01*
X6599705Y-9824936D02*
X6599705Y-9843984D01*
X6599705Y-9720174D02*
X6609229Y-9729698D01*
X6609229Y-9729698D02*
X6599705Y-9739222D01*
X6599705Y-9739222D02*
X6590182Y-9729698D01*
X6590182Y-9729698D02*
X6599705Y-9720174D01*
X6599705Y-9720174D02*
X6599705Y-9739222D01*
M02*
