G04 #@! TF.GenerationSoftware,KiCad,Pcbnew,9.0.8*
G04 #@! TF.CreationDate,2026-04-03T11:36:12-04:00*
G04 #@! TF.ProjectId,panel_rp2354_20x20,70616e65-6c5f-4727-9032-3335345f3230,v0.2.0*
G04 #@! TF.SameCoordinates,Original*
G04 #@! TF.FileFunction,Copper,L3,Inr*
G04 #@! TF.FilePolarity,Positive*
%FSLAX46Y46*%
G04 Gerber Fmt 4.6, Leading zero omitted, Abs format (unit mm)*
G04 Created by KiCad (PCBNEW 9.0.8) date 2026-04-03 11:36:12*
%MOMM*%
%LPD*%
G01*
G04 APERTURE LIST*
G04 #@! TA.AperFunction,ViaPad*
%ADD10C,0.350000*%
G04 #@! TD*
G04 #@! TA.AperFunction,Conductor*
%ADD11C,0.127000*%
G04 #@! TD*
G04 APERTURE END LIST*
D10*
X92825000Y-72450000D03*
X84260000Y-85970000D03*
X79160000Y-79310000D03*
X57275000Y-72590000D03*
X90440000Y-61177000D03*
X61725000Y-68230000D03*
X57275000Y-68225000D03*
X62950000Y-81140000D03*
X57282500Y-76920000D03*
X74270000Y-63460000D03*
X73965000Y-67600000D03*
X92825000Y-85340000D03*
X65350000Y-76320000D03*
X92830000Y-68205000D03*
X77050000Y-81700000D03*
X69510000Y-67770000D03*
X61710000Y-63740000D03*
X65390000Y-73960000D03*
X72590000Y-56520000D03*
X69960000Y-83595000D03*
X78780000Y-60960000D03*
X72810000Y-83670000D03*
X83690000Y-83150000D03*
X71655000Y-67600000D03*
X84017500Y-68142500D03*
X65520000Y-92740000D03*
X90560000Y-59950000D03*
X88417500Y-68167500D03*
X52810000Y-76990000D03*
X72240000Y-65320000D03*
X84025000Y-72400000D03*
X79040000Y-56720000D03*
X90440000Y-90140000D03*
X53230000Y-81800000D03*
X79270000Y-52460000D03*
X67485000Y-85620000D03*
X71000000Y-90500000D03*
X57720000Y-86150000D03*
X62410000Y-86090000D03*
X67820000Y-52370000D03*
X79260000Y-70635000D03*
X88425000Y-72460000D03*
X79670000Y-92720000D03*
X88330000Y-80940000D03*
X53370000Y-86020000D03*
X88430000Y-63810000D03*
X90440000Y-89470000D03*
X57660000Y-81770000D03*
X79260000Y-76470000D03*
X88700000Y-77120000D03*
X52830000Y-63800000D03*
X69425000Y-88120000D03*
X90440000Y-90750000D03*
X70650000Y-52475000D03*
X52820000Y-72630000D03*
X61735000Y-72700000D03*
X84040000Y-63800000D03*
X72500000Y-76000000D03*
X65100000Y-60695000D03*
X68140000Y-56900000D03*
X88700000Y-79070000D03*
X90440000Y-61690000D03*
X92850000Y-63680000D03*
X65350000Y-78480000D03*
X52800000Y-68260000D03*
X70500000Y-90500000D03*
X57270000Y-63820000D03*
X92837500Y-80900000D03*
X62930000Y-76840000D03*
X88325000Y-85420000D03*
X92837500Y-76625000D03*
X76730000Y-82910000D03*
X62280000Y-81720000D03*
X70065000Y-88120000D03*
X75100000Y-79590000D03*
X77480000Y-83980000D03*
X68360000Y-74470000D03*
X71980000Y-71810000D03*
X69457100Y-83180700D03*
X76590000Y-79310000D03*
X72930000Y-79590000D03*
X70300000Y-79590000D03*
X69920000Y-71810000D03*
X76770000Y-72220000D03*
X68085000Y-88070000D03*
X66480000Y-90500000D03*
X76590000Y-76160000D03*
X68390000Y-77870000D03*
X78909000Y-80665100D03*
X79192800Y-77298800D03*
X73696700Y-70083300D03*
X74700000Y-81650000D03*
X69062500Y-76850000D03*
X92990000Y-90130000D03*
X92970000Y-61210000D03*
X87740000Y-79070000D03*
X91870000Y-68010000D03*
X72000000Y-90600000D03*
X60770000Y-63650000D03*
X83010000Y-85430000D03*
X51870000Y-72460000D03*
X56320000Y-76655000D03*
X63970000Y-63740000D03*
X56340000Y-72370000D03*
X64020000Y-86470000D03*
X87740000Y-76420000D03*
X51850000Y-80835000D03*
X63620000Y-78030000D03*
X77550000Y-55170000D03*
X91890000Y-63560000D03*
X78710000Y-92310000D03*
X91870000Y-72340000D03*
X93770000Y-61380000D03*
X91880000Y-81140000D03*
X56327500Y-80857500D03*
X87390000Y-81080000D03*
X86800000Y-84190000D03*
X63990000Y-73140000D03*
X65720000Y-55500000D03*
X51890000Y-63730000D03*
X80970000Y-67810000D03*
X91887500Y-76625000D03*
X60782500Y-72485000D03*
X72000000Y-89770000D03*
X60770000Y-68010000D03*
X51855000Y-76645000D03*
X60800000Y-85210000D03*
X83090000Y-63530000D03*
X65650000Y-60010000D03*
X69760000Y-51880000D03*
X87470000Y-67920000D03*
X65680000Y-51120000D03*
X56330000Y-85190000D03*
X83070000Y-67850000D03*
X87475000Y-72425000D03*
X51850000Y-68130000D03*
X67775000Y-93975000D03*
X87480000Y-63550000D03*
X92990000Y-90760000D03*
X63970000Y-68210000D03*
X70600000Y-54730000D03*
X64290000Y-92830000D03*
X83070000Y-72230000D03*
X56320000Y-68110000D03*
X92980000Y-61680000D03*
X69530000Y-60950000D03*
X77550000Y-59775000D03*
X92260000Y-90140000D03*
X51850000Y-85120000D03*
X76890000Y-51600000D03*
X62717900Y-52031600D03*
X86782800Y-50782100D03*
X81335900Y-50551800D03*
X70517800Y-53040700D03*
X53717900Y-51959500D03*
X70581700Y-50742900D03*
X69068000Y-52524500D03*
X54587000Y-85035900D03*
X51186400Y-59179500D03*
X54769600Y-73571400D03*
X50316400Y-69902500D03*
X54412600Y-87317200D03*
X55382300Y-52404100D03*
X50782100Y-52144400D03*
X51007300Y-65626400D03*
X54829200Y-78026400D03*
X54600800Y-82843100D03*
X53198800Y-84114200D03*
X54595500Y-64967900D03*
X51051000Y-88497400D03*
X51234200Y-56420000D03*
X55283300Y-55260500D03*
X69467900Y-55975900D03*
X81583400Y-58795600D03*
X63002900Y-56021900D03*
X53717900Y-56254700D03*
X61113800Y-61813300D03*
X87026600Y-61590800D03*
X55393600Y-61367400D03*
X80717900Y-60707100D03*
X72026800Y-59243500D03*
X87603400Y-65209500D03*
X63278000Y-65797800D03*
X81492200Y-64936600D03*
X70351900Y-64776000D03*
X81045900Y-69403900D03*
X54397600Y-68626000D03*
X68385500Y-68160400D03*
X87641700Y-69467900D03*
X61253900Y-67398900D03*
X59451700Y-79013500D03*
X63710500Y-56968700D03*
X60469800Y-60467900D03*
X59199100Y-82111600D03*
X60147200Y-65931900D03*
X50425400Y-82425300D03*
X65250100Y-69393800D03*
X64031600Y-90633800D03*
X63229900Y-90808500D03*
X63739600Y-77466400D03*
X60034700Y-56597600D03*
X64664800Y-65780500D03*
X64200800Y-52778200D03*
X63587400Y-83970700D03*
X64440400Y-74681300D03*
X78995300Y-72600600D03*
X80966300Y-76568300D03*
X74512100Y-74812500D03*
X61189400Y-75930800D03*
X78471100Y-62831100D03*
X53040300Y-75449700D03*
X87044400Y-77319700D03*
X64187900Y-81395200D03*
X69699100Y-78450100D03*
X54510400Y-80772100D03*
X81318800Y-77509300D03*
X63387700Y-82083800D03*
X82192300Y-70477900D03*
X88171700Y-82333600D03*
X81343900Y-82538900D03*
X71946700Y-83757800D03*
X55378100Y-88599800D03*
X71717900Y-87651200D03*
X91286100Y-66225000D03*
X90647800Y-86807400D03*
X81245500Y-88690500D03*
X63169100Y-89472800D03*
X73986500Y-94412100D03*
X60150700Y-92944000D03*
X78819800Y-94629100D03*
X86337400Y-75452100D03*
X53717900Y-92439000D03*
X68786600Y-93482700D03*
X86085900Y-94676900D03*
X58473700Y-92932000D03*
X74968400Y-91282100D03*
X83640700Y-90609300D03*
X65083400Y-94545700D03*
X82292700Y-76929300D03*
X91469600Y-93145200D03*
X85395200Y-86089100D03*
X92643000Y-70480000D03*
X92962400Y-86782100D03*
X61021800Y-88333000D03*
X66100500Y-88014000D03*
X72291700Y-85316600D03*
X64275200Y-84532100D03*
X58658900Y-85946600D03*
X90998700Y-83799200D03*
X85495200Y-83584800D03*
X66409300Y-77782100D03*
X92645000Y-79811400D03*
X92535900Y-74435700D03*
X58853300Y-76595900D03*
X74531800Y-77480700D03*
X83857800Y-80032100D03*
X64248800Y-77353500D03*
X58598500Y-73808800D03*
X83930700Y-75532100D03*
X64525000Y-72763300D03*
X92643400Y-83063200D03*
X74650600Y-73150500D03*
X91285300Y-75530800D03*
X76873400Y-71261000D03*
X67672900Y-70499200D03*
X58848300Y-70453400D03*
X85930500Y-70535500D03*
X90973400Y-71004400D03*
X92478900Y-87337500D03*
X74501000Y-67396500D03*
X92471100Y-67036800D03*
X58661900Y-65105200D03*
X64108000Y-65771500D03*
X83656100Y-62032100D03*
X59011900Y-59372400D03*
X86221300Y-87767400D03*
X67439700Y-62696900D03*
X76662400Y-62476600D03*
X64522100Y-59336300D03*
X69670200Y-65193300D03*
X71184200Y-83737700D03*
X70900000Y-70206000D03*
X74380700Y-92821700D03*
X75473800Y-65917300D03*
X71175000Y-92649100D03*
X74962900Y-55649200D03*
X70248700Y-78673400D03*
X68048600Y-80830300D03*
X74603400Y-73779300D03*
X74698400Y-87500700D03*
X70381700Y-51224500D03*
X68299100Y-79022400D03*
X74939300Y-60964300D03*
X71032100Y-61159600D03*
X52639400Y-75028700D03*
X74874700Y-52125300D03*
X70210000Y-56401600D03*
X74351300Y-83776600D03*
X74720000Y-69231400D03*
X70454400Y-74545600D03*
X74667600Y-78273100D03*
X71284200Y-88170100D03*
X83375700Y-58029500D03*
X91275100Y-57320200D03*
X83708300Y-87174200D03*
X58899700Y-55109600D03*
X65460500Y-54910200D03*
X65530900Y-50477500D03*
X58839700Y-50551800D03*
X82291300Y-52990900D03*
X77874100Y-93239800D03*
X76764500Y-53393400D03*
X53191400Y-56663300D03*
X57623200Y-83648200D03*
X52828600Y-83641900D03*
X57389200Y-70150700D03*
X56271100Y-60912400D03*
X57171700Y-79018700D03*
X53032100Y-74655300D03*
X57073400Y-87896300D03*
X52687700Y-69976700D03*
X52600500Y-92399500D03*
X57610300Y-74644600D03*
X56917800Y-51188300D03*
X52829500Y-65633900D03*
X56851900Y-92033100D03*
X52958700Y-61144800D03*
X57532100Y-56662000D03*
X52666300Y-78969800D03*
X53040100Y-88154400D03*
X54848300Y-65527700D03*
X52604100Y-51895900D03*
X52095300Y-71461200D03*
X54740700Y-67549900D03*
X54488500Y-84046700D03*
X52541900Y-79590500D03*
X54500000Y-55637500D03*
X50313800Y-65704700D03*
X50687300Y-89019300D03*
X54493000Y-78553600D03*
X56255200Y-53821600D03*
X54612000Y-75511400D03*
X50674000Y-93528300D03*
X54686800Y-71412200D03*
X50551800Y-84562800D03*
X56909300Y-94448200D03*
X54562800Y-81317100D03*
X56524600Y-63017300D03*
X53709300Y-62717900D03*
X53713300Y-90085200D03*
X53727900Y-94320900D03*
X56718100Y-67217900D03*
X54824900Y-86204100D03*
X57103000Y-83619300D03*
X57761100Y-58886100D03*
X58209300Y-62749100D03*
X55910700Y-90040900D03*
X56699400Y-71522700D03*
X54393900Y-66785000D03*
X66210500Y-65637100D03*
X63509600Y-79234300D03*
X59163500Y-82691200D03*
X62062500Y-65701400D03*
X61823900Y-74905700D03*
X58872100Y-87407800D03*
X65785600Y-83788100D03*
X61606200Y-56393800D03*
X59957200Y-79365400D03*
X61642800Y-70378300D03*
X63998600Y-56556100D03*
X61574200Y-52403600D03*
X65852100Y-69228700D03*
X65830900Y-92094000D03*
X65329200Y-88398700D03*
X61342300Y-60467900D03*
X66010400Y-61069100D03*
X61576300Y-92360200D03*
X65303900Y-52387800D03*
X65893600Y-74910400D03*
X59685300Y-79791100D03*
X63568700Y-79825500D03*
X58985200Y-83675400D03*
X64965600Y-87582200D03*
X60745800Y-58138200D03*
X63583400Y-57520800D03*
X50323900Y-80122400D03*
X63386800Y-67050500D03*
X64941000Y-85451100D03*
X60479000Y-67232600D03*
X63585600Y-74683900D03*
X65095200Y-81000900D03*
X63567800Y-71413600D03*
X60158200Y-63581700D03*
X62729600Y-53815400D03*
X66186900Y-63462700D03*
X59536000Y-77339400D03*
X63297400Y-91982700D03*
X66053100Y-85963900D03*
X64985000Y-54539800D03*
X61360000Y-90222300D03*
X67689400Y-71768300D03*
X65914400Y-90521000D03*
X63539600Y-62366700D03*
X62772800Y-67246200D03*
X68782100Y-54616700D03*
X73260300Y-54779000D03*
X70442300Y-77207400D03*
X57121100Y-74418900D03*
X72882800Y-82298000D03*
X69307600Y-74334800D03*
X68090300Y-81588600D03*
X69261500Y-78886700D03*
X72856800Y-93755300D03*
X63629200Y-70386500D03*
X70459200Y-63332200D03*
X70178000Y-81631600D03*
X72840100Y-62275900D03*
X71163500Y-59251200D03*
X72144700Y-85795100D03*
X68932400Y-70410500D03*
X72780900Y-57819700D03*
X69229400Y-85666800D03*
X72621200Y-59935800D03*
X70275300Y-68093800D03*
X69459000Y-58419900D03*
X68517500Y-93016500D03*
X69235900Y-90171700D03*
X74557000Y-76110300D03*
X72733800Y-80169600D03*
X74748700Y-90376300D03*
X72863600Y-72211900D03*
X72093100Y-79201300D03*
X75513400Y-59153800D03*
X72104000Y-88215000D03*
X74798400Y-76709900D03*
X70250000Y-94043200D03*
X74788500Y-71914800D03*
X70350400Y-89687600D03*
X70430500Y-75934600D03*
X58832600Y-71893700D03*
X70428500Y-72184900D03*
X70102300Y-66939800D03*
X74686200Y-53835200D03*
X72585500Y-53704200D03*
X73447200Y-58979200D03*
X75046200Y-67602100D03*
X76901800Y-83848200D03*
X77804700Y-66011000D03*
X81662300Y-55466000D03*
X78469100Y-87491600D03*
X81407100Y-87373900D03*
X81713500Y-51768300D03*
X81903000Y-59828900D03*
X73772800Y-72479000D03*
X76936600Y-60491400D03*
X83990800Y-70403000D03*
X83606400Y-79223700D03*
X84277500Y-74561900D03*
X76916500Y-51004000D03*
X54550100Y-71897400D03*
X77238600Y-70852400D03*
X82939700Y-78711900D03*
X77519700Y-93561100D03*
X51137300Y-67743800D03*
X83661600Y-87988400D03*
X79187100Y-69468300D03*
X83126000Y-83640800D03*
X79020900Y-87396300D03*
X83960600Y-56254700D03*
X84438000Y-61153100D03*
X83781600Y-74104700D03*
X80157800Y-56668800D03*
X83841600Y-51286200D03*
X83895600Y-65183900D03*
X80169400Y-61147700D03*
X79345600Y-65132900D03*
X84108500Y-92391500D03*
X79344400Y-83030400D03*
X80310200Y-79159100D03*
X80177800Y-74722800D03*
X84012900Y-69800400D03*
X80118300Y-52163100D03*
X78233600Y-67931000D03*
X76946000Y-58138200D03*
X79333100Y-89739800D03*
X78233600Y-70061200D03*
X83643900Y-89525000D03*
X65599200Y-58647000D03*
X81550400Y-94355500D03*
X81395300Y-53770600D03*
X76794800Y-53958000D03*
X81745800Y-57866500D03*
X78980600Y-85113400D03*
X78130900Y-74983400D03*
X80740300Y-80717900D03*
X80593700Y-90058400D03*
X85404800Y-81038200D03*
X81343100Y-85174200D03*
X79087500Y-62997000D03*
X67040900Y-63093700D03*
X78893000Y-67192100D03*
X78737000Y-53763800D03*
X83835100Y-62818500D03*
X81410900Y-75224500D03*
X78992800Y-72030400D03*
X83810600Y-90072400D03*
X85610100Y-62530600D03*
X85760400Y-85245800D03*
X81983700Y-74605400D03*
X83801300Y-88666500D03*
X83361000Y-62552000D03*
X79364800Y-72911300D03*
X88722600Y-61375000D03*
X89975800Y-71654700D03*
X88521100Y-88279800D03*
X59000100Y-62403400D03*
X56280300Y-90422100D03*
X78254900Y-72600000D03*
X78538900Y-85493800D03*
X62997500Y-90072600D03*
X54614000Y-88220800D03*
X56616600Y-62450100D03*
X61155600Y-62400700D03*
X58796700Y-90689400D03*
X52528200Y-88226900D03*
X76563500Y-78450000D03*
X52020000Y-62436900D03*
X91421300Y-88649600D03*
X91621600Y-92518600D03*
X85782000Y-76590500D03*
X86175600Y-83961700D03*
X90409900Y-65063500D03*
X86040700Y-62777600D03*
X61376000Y-65736200D03*
X91560900Y-56585600D03*
X91827000Y-51806700D03*
X86006000Y-57005600D03*
X86252400Y-65283000D03*
X86513300Y-91354700D03*
X88355200Y-82967900D03*
X92854200Y-51241500D03*
X88701500Y-74486800D03*
X88652800Y-92451500D03*
X91271800Y-74649400D03*
X89276000Y-61250000D03*
X92819300Y-92026800D03*
X92541900Y-69467900D03*
X90485900Y-65725300D03*
X92957200Y-56254700D03*
X88974300Y-56648300D03*
X88600900Y-65399100D03*
X92155900Y-60786500D03*
X88745300Y-52039400D03*
X89136800Y-88310900D03*
X89317500Y-79077900D03*
X93148500Y-87931200D03*
X88607700Y-69892300D03*
X93239900Y-83886300D03*
X92978800Y-78905100D03*
X54606200Y-66056100D03*
X86832100Y-65820700D03*
X66818500Y-54315800D03*
X90450800Y-66288700D03*
X90831700Y-92790600D03*
X86388400Y-58687800D03*
X87530800Y-62732100D03*
X88390200Y-70414500D03*
X91078300Y-70270400D03*
X92491900Y-79069300D03*
X94414200Y-77132600D03*
X86204700Y-92379300D03*
X91024600Y-84591800D03*
X86093800Y-53717600D03*
X86782100Y-74787100D03*
X86751100Y-79832000D03*
X92838700Y-62853000D03*
X94638900Y-71534400D03*
X87681400Y-53793400D03*
X94213600Y-67320900D03*
X92855600Y-94217900D03*
X89724500Y-62717900D03*
X90403300Y-93596200D03*
X93106700Y-54143300D03*
X72425000Y-58607100D03*
X88343500Y-58250500D03*
X94610200Y-85050400D03*
X94633300Y-76027300D03*
X83729500Y-76211900D03*
X74300000Y-71907900D03*
X70670000Y-81701700D03*
X68592300Y-84070100D03*
X72700000Y-81595700D03*
X70874700Y-86406600D03*
X85897900Y-71895200D03*
X75772700Y-70261900D03*
X85743000Y-69154700D03*
X57061700Y-74937500D03*
X54442900Y-70031400D03*
X65358800Y-74892300D03*
X58915400Y-69124200D03*
X68190200Y-68695100D03*
X94386800Y-68076200D03*
X78881300Y-73755900D03*
X74700000Y-70140400D03*
X85572500Y-68142500D03*
X68666200Y-56657300D03*
X66413200Y-74657300D03*
X66841200Y-74977600D03*
X69153900Y-63309600D03*
X54388000Y-64074200D03*
X58834700Y-80873900D03*
X65932500Y-81739500D03*
X90098500Y-70054300D03*
X75864300Y-72280000D03*
X63266500Y-73648100D03*
X69211000Y-74892600D03*
X94389900Y-85677400D03*
X79028500Y-81521700D03*
X70701200Y-67841100D03*
X83957700Y-66159600D03*
X75100000Y-68403500D03*
X94583500Y-65048800D03*
X67548400Y-67794200D03*
X67704100Y-58969400D03*
X68755700Y-75249800D03*
X54542700Y-74527700D03*
X63838400Y-78869000D03*
X54379600Y-76925600D03*
X94394900Y-81232900D03*
X75044400Y-78834300D03*
X78446900Y-74200000D03*
X93017200Y-75154500D03*
X72362300Y-72509100D03*
X79289500Y-50319700D03*
X54512100Y-80192300D03*
X68296700Y-79525900D03*
X90061100Y-67585400D03*
X70319900Y-69596600D03*
X94379500Y-71975900D03*
X81086400Y-73979000D03*
D11*
X72930000Y-79590000D02*
X70300000Y-79590000D01*
X66480000Y-81610000D02*
X66480000Y-79780000D01*
X66480000Y-90500000D02*
X66480000Y-88350000D01*
X68390000Y-74500000D02*
X68360000Y-74470000D01*
X68565000Y-88550000D02*
X69635000Y-88550000D01*
X65730000Y-83210000D02*
X66480000Y-83960000D01*
X66480000Y-88350000D02*
X66480000Y-83960000D01*
X76100000Y-76650000D02*
X76100000Y-78820000D01*
X75930000Y-79960000D02*
X75940000Y-79960000D01*
X68360000Y-74470000D02*
X68360000Y-73370000D01*
X76100000Y-78820000D02*
X76590000Y-79310000D01*
X68390000Y-77870000D02*
X68390000Y-74500000D01*
X75940000Y-79960000D02*
X76590000Y-79310000D01*
X75570000Y-79600000D02*
X75930000Y-79960000D01*
X77480000Y-81500000D02*
X77480000Y-83980000D01*
X69910000Y-79590000D02*
X69530000Y-79970000D01*
X62280000Y-82580000D02*
X62910000Y-83210000D01*
X68250000Y-79970000D02*
X66610000Y-81610000D01*
X69457100Y-80537100D02*
X69457100Y-83180700D01*
X75940000Y-79960000D02*
X77480000Y-81500000D01*
X62280000Y-81720000D02*
X62280000Y-82580000D01*
X68890000Y-79970000D02*
X69457100Y-80537100D01*
X68360000Y-73370000D02*
X69920000Y-71810000D01*
X66760000Y-88070000D02*
X66480000Y-88350000D01*
X69920000Y-71810000D02*
X71980000Y-71810000D01*
X76590000Y-76160000D02*
X76100000Y-76650000D01*
X68085000Y-88070000D02*
X68565000Y-88550000D01*
X69635000Y-88550000D02*
X70065000Y-88120000D01*
X69530000Y-79970000D02*
X68890000Y-79970000D01*
X76590000Y-72400000D02*
X76590000Y-76160000D01*
X75100000Y-79590000D02*
X72930000Y-79590000D01*
X76770000Y-72220000D02*
X76590000Y-72400000D01*
X66480000Y-79780000D02*
X68390000Y-77870000D01*
X75110000Y-79600000D02*
X75570000Y-79600000D01*
X66480000Y-83960000D02*
X66480000Y-81610000D01*
X68890000Y-79970000D02*
X68250000Y-79970000D01*
X75100000Y-79590000D02*
X75110000Y-79600000D01*
X70300000Y-79590000D02*
X69910000Y-79590000D01*
X68085000Y-88070000D02*
X66760000Y-88070000D01*
X66610000Y-81610000D02*
X66480000Y-81610000D01*
X62910000Y-83210000D02*
X65730000Y-83210000D01*
X69062500Y-76557900D02*
X69062500Y-76850000D01*
X78793700Y-80549800D02*
X78909000Y-80665100D01*
X78793700Y-77697900D02*
X78793700Y-80549800D01*
X73696700Y-70083300D02*
X73696700Y-71923700D01*
X79192800Y-77298800D02*
X78793700Y-77697900D01*
X73696700Y-71923700D02*
X69062500Y-76557900D01*
X51234200Y-59131700D02*
X51234200Y-56420000D01*
X55382300Y-52404100D02*
X55283300Y-52503100D01*
X51186400Y-59179500D02*
X51234200Y-59131700D01*
X50316400Y-66317300D02*
X50316400Y-69902500D01*
X51186400Y-59179500D02*
X51186400Y-65447300D01*
X54829200Y-78026400D02*
X55078100Y-77777500D01*
X51007300Y-65626400D02*
X50316400Y-66317300D01*
X55078100Y-73879900D02*
X54769600Y-73571400D01*
X55283300Y-52503100D02*
X55283300Y-55260500D01*
X55018000Y-82425900D02*
X55018000Y-78215200D01*
X55078100Y-77777500D02*
X55078100Y-73879900D01*
X55018000Y-78215200D02*
X54829200Y-78026400D01*
X51234200Y-56420000D02*
X50782100Y-55967900D01*
X54600800Y-82843100D02*
X55018000Y-82425900D01*
X51186400Y-65447300D02*
X51007300Y-65626400D01*
X50782100Y-55967900D02*
X50782100Y-52144400D01*
X61263100Y-63758100D02*
X61263100Y-62986700D01*
X61201500Y-66163000D02*
X64282300Y-66163000D01*
X61555400Y-62694400D02*
X61555400Y-61553500D01*
X64282300Y-66163000D02*
X64664800Y-65780500D01*
X60469800Y-60467900D02*
X60034700Y-60032800D01*
X64440400Y-73990900D02*
X65250100Y-73181200D01*
X64440400Y-74681300D02*
X64615500Y-74856400D01*
X60970400Y-65931900D02*
X60970400Y-64050800D01*
X63559300Y-56817500D02*
X63559300Y-53419700D01*
X60970400Y-64050800D02*
X61263100Y-63758100D01*
X60970400Y-65931900D02*
X60147200Y-65931900D01*
X61263100Y-62986700D02*
X61555400Y-62694400D01*
X65250100Y-69393800D02*
X65250100Y-66365800D01*
X61555400Y-61553500D02*
X60469800Y-60467900D01*
X64615500Y-74856400D02*
X64615500Y-77528800D01*
X60034700Y-60032800D02*
X60034700Y-56597600D01*
X60970400Y-65931900D02*
X61201500Y-66163000D01*
X63710500Y-56968700D02*
X63559300Y-56817500D01*
X65250100Y-73181200D02*
X65250100Y-69393800D01*
X59199100Y-82111600D02*
X59272300Y-82038400D01*
X59272300Y-79192900D02*
X59451700Y-79013500D01*
X63559300Y-53419700D02*
X64200800Y-52778200D01*
X65250100Y-66365800D02*
X64664800Y-65780500D01*
X64425500Y-77718800D02*
X63992000Y-77718800D01*
X59272300Y-82038400D02*
X59272300Y-79192900D01*
X64615500Y-77528800D02*
X64425500Y-77718800D01*
X64440400Y-74681300D02*
X64440400Y-73990900D01*
X63992000Y-77718800D02*
X63739600Y-77466400D01*
X78598800Y-67414300D02*
X78598800Y-68082300D01*
X78598800Y-72204100D02*
X78995300Y-72600600D01*
X78471100Y-67286600D02*
X78598800Y-67414300D01*
X78598800Y-68082300D02*
X78531700Y-68149400D01*
X78471100Y-62831100D02*
X78471100Y-67286600D01*
X78531700Y-68149400D02*
X78531700Y-69842800D01*
X78598800Y-69909900D02*
X78598800Y-72204100D01*
X78531700Y-69842800D02*
X78598800Y-69909900D01*
X81777200Y-82105600D02*
X81777200Y-75062200D01*
X81578300Y-74863300D02*
X81578300Y-71091900D01*
X81343900Y-82538900D02*
X81777200Y-82105600D01*
X81578300Y-71091900D02*
X82192300Y-70477900D01*
X81777200Y-75062200D02*
X81578300Y-74863300D01*
X90578100Y-86737700D02*
X90647800Y-86807400D01*
X91286100Y-66225000D02*
X90578100Y-66933000D01*
X90578100Y-66933000D02*
X90578100Y-86737700D01*
X69716000Y-94412100D02*
X68786600Y-93482700D01*
X73986500Y-94412100D02*
X69716000Y-94412100D01*
X87193900Y-83801700D02*
X86337400Y-82945200D01*
X86085900Y-94676900D02*
X87193900Y-93568900D01*
X87193900Y-93568900D02*
X87193900Y-83801700D01*
X86337400Y-82945200D02*
X86337400Y-75452100D01*
X82067100Y-77154900D02*
X82067100Y-89035700D01*
X82067100Y-89035700D02*
X83640700Y-90609300D01*
X82292700Y-76929300D02*
X82067100Y-77154900D01*
X93606700Y-86137800D02*
X92962400Y-86782100D01*
X92643000Y-70480000D02*
X93606700Y-71443700D01*
X61340800Y-88014000D02*
X61021800Y-88333000D01*
X66100500Y-88014000D02*
X61340800Y-88014000D01*
X93606700Y-71443700D02*
X93606700Y-86137800D01*
X64275200Y-84532100D02*
X60073400Y-84532100D01*
X60073400Y-84532100D02*
X58658900Y-85946600D01*
X93344000Y-79112400D02*
X93344000Y-76614900D01*
X92645000Y-79811400D02*
X93344000Y-79112400D01*
X93344000Y-76614900D02*
X92535900Y-75806800D01*
X92535900Y-75806800D02*
X92535900Y-74435700D01*
X92471100Y-67036800D02*
X92268700Y-67239200D01*
X92126700Y-79220500D02*
X92268800Y-79362600D01*
X92268800Y-87127400D02*
X92478900Y-87337500D01*
X92112200Y-69683600D02*
X92268700Y-69840100D01*
X92112200Y-69381200D02*
X92112200Y-69683600D01*
X92268700Y-74186500D02*
X92170700Y-74284500D01*
X92170700Y-75543000D02*
X92268800Y-75641100D01*
X92170700Y-74284500D02*
X92170700Y-75543000D01*
X92268800Y-78776000D02*
X92126700Y-78918100D01*
X92268800Y-79362600D02*
X92268800Y-87127400D01*
X92268700Y-69840100D02*
X92268700Y-74186500D01*
X92268700Y-67239200D02*
X92268700Y-69224700D01*
X92126700Y-78918100D02*
X92126700Y-79220500D01*
X92268700Y-69224700D02*
X92112200Y-69381200D01*
X92268800Y-75641100D02*
X92268800Y-78776000D01*
X84532200Y-84509000D02*
X84532200Y-80676800D01*
X84532200Y-80676800D02*
X84690400Y-80518600D01*
X83342300Y-87324800D02*
X83342300Y-85698900D01*
X86077100Y-87623200D02*
X83640700Y-87623200D01*
X84690400Y-63066400D02*
X83656100Y-62032100D01*
X84690400Y-80518600D02*
X84690400Y-63066400D01*
X86221300Y-87767400D02*
X86077100Y-87623200D01*
X83640700Y-87623200D02*
X83342300Y-87324800D01*
X83342300Y-85698900D02*
X84532200Y-84509000D01*
X69873700Y-67977200D02*
X69873700Y-68491400D01*
X72873700Y-76158800D02*
X72873700Y-75509000D01*
X68502200Y-81283900D02*
X68048600Y-80830300D01*
X70248700Y-78673400D02*
X70248700Y-78398400D01*
X75407400Y-73547300D02*
X75175400Y-73779300D01*
X74874700Y-52125300D02*
X75051400Y-52302000D01*
X70711800Y-86785200D02*
X70009600Y-86083000D01*
X71404900Y-88290800D02*
X71284200Y-88170100D01*
X74380700Y-92821700D02*
X74380700Y-87818400D01*
X68177500Y-84203200D02*
X68177500Y-83070400D01*
X75175400Y-77765300D02*
X74667600Y-78273100D01*
X74380700Y-87818400D02*
X74698400Y-87500700D01*
X75727500Y-68739700D02*
X75407400Y-69059800D01*
X74698400Y-87500700D02*
X74351300Y-87153600D01*
X75727500Y-66171000D02*
X75727500Y-68739700D01*
X70248700Y-78398400D02*
X69935200Y-78084900D01*
X70359100Y-78673400D02*
X72873700Y-76158800D01*
X75175400Y-73779300D02*
X74603400Y-73779300D01*
X69670200Y-65193300D02*
X69670200Y-62521500D01*
X70152600Y-51453600D02*
X70152600Y-56344200D01*
X68656100Y-84517300D02*
X68491600Y-84517300D01*
X71284200Y-88170100D02*
X71284200Y-86785200D01*
X71175000Y-92649100D02*
X71404900Y-92419200D01*
X74351300Y-87153600D02*
X74351300Y-83776600D01*
X68491600Y-84517300D02*
X68177500Y-84203200D01*
X70381700Y-51224500D02*
X70152600Y-51453600D01*
X70900000Y-69517700D02*
X70900000Y-70206000D01*
X75407400Y-69059800D02*
X75407400Y-73547300D01*
X69930900Y-67284800D02*
X69930900Y-67920000D01*
X70009600Y-86083000D02*
X70009600Y-85870800D01*
X75473800Y-65917300D02*
X75727500Y-66171000D01*
X69873700Y-68491400D02*
X70900000Y-69517700D01*
X70152600Y-56344200D02*
X70210000Y-56401600D01*
X70210000Y-60337500D02*
X71032100Y-61159600D01*
X70248700Y-78673400D02*
X70359100Y-78673400D01*
X69670200Y-67024100D02*
X69930900Y-67284800D01*
X75051400Y-52302000D02*
X75051400Y-55560700D01*
X68177500Y-83070400D02*
X68502200Y-82745700D01*
X75473800Y-61498800D02*
X74939300Y-60964300D01*
X72873700Y-75509000D02*
X74603400Y-73779300D01*
X71284200Y-86785200D02*
X70711800Y-86785200D01*
X71284200Y-83837700D02*
X71184200Y-83737700D01*
X69236600Y-78084900D02*
X68299100Y-79022400D01*
X69930900Y-67920000D02*
X69873700Y-67977200D01*
X75473800Y-65917300D02*
X75473800Y-61498800D01*
X71404900Y-92419200D02*
X71404900Y-88290800D01*
X70210000Y-56401600D02*
X70210000Y-60337500D01*
X69670200Y-65193300D02*
X69670200Y-67024100D01*
X75175400Y-73779300D02*
X75175400Y-77765300D01*
X69670200Y-62521500D02*
X71032100Y-61159600D01*
X69935200Y-78084900D02*
X69236600Y-78084900D01*
X68502200Y-82745700D02*
X68502200Y-81283900D01*
X71284200Y-86785200D02*
X71284200Y-83837700D01*
X75051400Y-55560700D02*
X74962900Y-55649200D01*
X70009600Y-85870800D02*
X68656100Y-84517300D01*
X84945600Y-80622200D02*
X84945600Y-59599400D01*
X84945600Y-59599400D02*
X83375700Y-58029500D01*
X83708300Y-87174200D02*
X84785900Y-86096600D01*
X84785900Y-80781900D02*
X84945600Y-80622200D01*
X84785900Y-86096600D02*
X84785900Y-80781900D01*
X78210500Y-67437700D02*
X78210500Y-64556800D01*
X77874100Y-75243000D02*
X77614700Y-74983600D01*
X77956800Y-54585700D02*
X76764500Y-53393400D01*
X77956800Y-64303100D02*
X77956800Y-54585700D01*
X77614700Y-74983600D02*
X77614700Y-68033500D01*
X77874100Y-93239800D02*
X77874100Y-75243000D01*
X77614700Y-68033500D02*
X78210500Y-67437700D01*
X78210500Y-64556800D02*
X77956800Y-64303100D01*
X52907100Y-79049900D02*
X52828600Y-78971400D01*
X53219400Y-74468000D02*
X53032100Y-74655300D01*
X57610300Y-74644600D02*
X57669300Y-74585600D01*
X52604100Y-56076000D02*
X52604100Y-51895900D01*
X57073400Y-87896300D02*
X57073400Y-91811600D01*
X53416400Y-75039600D02*
X53416400Y-75641400D01*
X53150000Y-69975100D02*
X53219400Y-70044500D01*
X57707300Y-78483100D02*
X57707300Y-74741600D01*
X52958700Y-61144800D02*
X52958700Y-56896000D01*
X52829500Y-65633900D02*
X53214600Y-66019000D01*
X52828600Y-83641900D02*
X52828600Y-79820300D01*
X52828600Y-87942900D02*
X53040100Y-88154400D01*
X52689300Y-69975100D02*
X52687700Y-69976700D01*
X57669300Y-70430800D02*
X57389200Y-70150700D01*
X53416400Y-75641400D02*
X53209100Y-75848700D01*
X53150000Y-69975100D02*
X52689300Y-69975100D01*
X53214600Y-66019000D02*
X53214600Y-69910500D01*
X53191400Y-56663300D02*
X52604100Y-56076000D01*
X57073400Y-91811600D02*
X56851900Y-92033100D01*
X53198400Y-61384500D02*
X52958700Y-61144800D01*
X52667900Y-78971400D02*
X52666300Y-78969800D01*
X53198400Y-65265000D02*
X53198400Y-61384500D01*
X52907100Y-79741800D02*
X52907100Y-79049900D01*
X57532100Y-56662000D02*
X56271100Y-57923000D01*
X53032100Y-74655300D02*
X53416400Y-75039600D01*
X52829500Y-65633900D02*
X53198400Y-65265000D01*
X52828600Y-83641900D02*
X52828600Y-87942900D01*
X53219400Y-70044500D02*
X53219400Y-74468000D01*
X53209100Y-75848700D02*
X53209100Y-78590900D01*
X57171700Y-79018700D02*
X57707300Y-78483100D01*
X52828600Y-78971400D02*
X52667900Y-78971400D01*
X53040100Y-91959900D02*
X53040100Y-88154400D01*
X57707300Y-74741600D02*
X57610300Y-74644600D01*
X53209100Y-78590900D02*
X52828600Y-78971400D01*
X57669300Y-74585600D02*
X57669300Y-70430800D01*
X52958700Y-56896000D02*
X53191400Y-56663300D01*
X52600500Y-92399500D02*
X53040100Y-91959900D01*
X56271100Y-57923000D02*
X56271100Y-60912400D01*
X53214600Y-69910500D02*
X53150000Y-69975100D01*
X52828600Y-79820300D02*
X52907100Y-79741800D01*
X54418700Y-78479300D02*
X54418700Y-77450800D01*
X54778400Y-77091100D02*
X54778400Y-75677800D01*
X50687300Y-93515000D02*
X50674000Y-93528300D01*
X50685800Y-84562800D02*
X50685800Y-89017800D01*
X50799000Y-84449600D02*
X50685800Y-84562800D01*
X55448200Y-55637400D02*
X56255200Y-54830400D01*
X56255200Y-54830400D02*
X56255200Y-53821600D01*
X50687300Y-89019300D02*
X50687300Y-93515000D01*
X52095300Y-71461200D02*
X50799000Y-72757500D01*
X54500000Y-55637400D02*
X55448200Y-55637400D01*
X54418700Y-77450800D02*
X54778400Y-77091100D01*
X54778400Y-75677800D02*
X54612000Y-75511400D01*
X50685800Y-89017800D02*
X50687300Y-89019300D01*
X50685800Y-84562800D02*
X50551800Y-84562800D01*
X54500000Y-55637500D02*
X54500000Y-55637400D01*
X50799000Y-72757500D02*
X50799000Y-84449600D01*
X54493000Y-78553600D02*
X54418700Y-78479300D01*
X53316400Y-90482100D02*
X53316400Y-93909400D01*
X56524600Y-64654300D02*
X54393900Y-66785000D01*
X53713300Y-90085200D02*
X53316400Y-90482100D01*
X54996100Y-86375300D02*
X54996100Y-88802400D01*
X54824900Y-86204100D02*
X54996100Y-86375300D01*
X57761100Y-62300900D02*
X57761100Y-58886100D01*
X56524600Y-63017300D02*
X56524600Y-64654300D01*
X56699400Y-71522700D02*
X56699400Y-67236600D01*
X58209300Y-62749100D02*
X57761100Y-62300900D01*
X54996100Y-88802400D02*
X53713300Y-90085200D01*
X56699400Y-67236600D02*
X56718100Y-67217900D01*
X53316400Y-93909400D02*
X53727900Y-94320900D01*
X61823900Y-74905700D02*
X62183000Y-74546600D01*
X63509600Y-79234300D02*
X64068900Y-79234300D01*
X61342300Y-56625700D02*
X61574200Y-56393800D01*
X62183000Y-74546600D02*
X62183000Y-70918500D01*
X63982100Y-63107700D02*
X63977000Y-63102500D01*
X65892400Y-69269000D02*
X65852100Y-69228700D01*
X63982100Y-63182900D02*
X63982100Y-63107700D01*
X65892400Y-74910400D02*
X65892400Y-69269000D01*
X61342300Y-60467900D02*
X63174400Y-62300000D01*
X60651200Y-91435100D02*
X61576300Y-92360200D01*
X59878400Y-87407800D02*
X60651200Y-88180600D01*
X66210500Y-65411300D02*
X63982100Y-63182900D01*
X61574200Y-56393800D02*
X61606200Y-56393800D01*
X62062500Y-65102500D02*
X63982100Y-63182900D01*
X65892400Y-77410800D02*
X65892400Y-74910400D01*
X60651200Y-88180600D02*
X60651200Y-91435100D01*
X61342300Y-60467900D02*
X61342300Y-56625700D01*
X65852100Y-65995500D02*
X66210500Y-65637100D01*
X65785600Y-83788100D02*
X63060000Y-86513700D01*
X62062500Y-65701400D02*
X62062500Y-65102500D01*
X63174400Y-62300000D02*
X63174400Y-62517900D01*
X65830900Y-92094000D02*
X65329200Y-91592300D01*
X60074800Y-81779900D02*
X59163500Y-82691200D01*
X62318100Y-86513700D02*
X60651200Y-88180600D01*
X63174400Y-62517900D02*
X63388400Y-62731900D01*
X60074800Y-79483000D02*
X60074800Y-81779900D01*
X64068900Y-79234300D02*
X65892400Y-77410800D01*
X58872100Y-87407800D02*
X59878400Y-87407800D01*
X63606300Y-62731900D02*
X63977000Y-63102500D01*
X65852100Y-69228700D02*
X65852100Y-65995500D01*
X65892400Y-74910400D02*
X65893600Y-74910400D01*
X65329200Y-91592300D02*
X65329200Y-88398700D01*
X61574200Y-56393800D02*
X61574200Y-52403600D01*
X59957200Y-79365400D02*
X60074800Y-79483000D01*
X66010400Y-61069100D02*
X63977000Y-63102500D01*
X66210500Y-65637100D02*
X66210500Y-65411300D01*
X62183000Y-70918500D02*
X61642800Y-70378300D01*
X63388400Y-62731900D02*
X63606300Y-62731900D01*
X63060000Y-86513700D02*
X62318100Y-86513700D01*
X63585600Y-77104000D02*
X63103600Y-77586000D01*
X63103600Y-77586000D02*
X63103600Y-79360400D01*
X64941000Y-85451100D02*
X64965600Y-85475700D01*
X63202600Y-73066800D02*
X63665600Y-73529800D01*
X64965600Y-85475700D02*
X64965600Y-87582200D01*
X63386800Y-67050500D02*
X63202600Y-67234700D01*
X63665600Y-73529800D02*
X63665600Y-74603900D01*
X63665600Y-74603900D02*
X63585600Y-74683900D01*
X63585600Y-74683900D02*
X63585600Y-77104000D01*
X63202600Y-67234700D02*
X63202600Y-73066800D01*
X63103600Y-79360400D02*
X63568700Y-79825500D01*
X67689400Y-77741300D02*
X67689400Y-71768300D01*
X65095200Y-81000900D02*
X64409000Y-80314700D01*
X62198100Y-66671500D02*
X60359400Y-66671500D01*
X62772800Y-67246200D02*
X62198100Y-66671500D01*
X64409000Y-80314700D02*
X62511300Y-80314700D01*
X63539600Y-59648900D02*
X63539600Y-62366700D01*
X60359400Y-66671500D02*
X59748300Y-66060400D01*
X65095200Y-81000900D02*
X65095200Y-80335500D01*
X64985000Y-58203500D02*
X63539600Y-59648900D01*
X59748300Y-66060400D02*
X59748300Y-63991600D01*
X65095200Y-80335500D02*
X67689400Y-77741300D01*
X64985000Y-54539800D02*
X64985000Y-58203500D01*
X62511300Y-80314700D02*
X59536000Y-77339400D01*
X59748300Y-63991600D02*
X60158200Y-63581700D01*
X71601000Y-59688700D02*
X71163500Y-59251200D01*
X70744600Y-66814000D02*
X70275300Y-67283300D01*
X69413400Y-79038600D02*
X71628700Y-79038600D01*
X72799500Y-57838300D02*
X72780900Y-57819700D01*
X69261500Y-78886700D02*
X69413400Y-79038600D01*
X68517500Y-90890100D02*
X68517500Y-93016500D01*
X72799500Y-59757500D02*
X72799500Y-57838300D01*
X70744600Y-63450400D02*
X70577400Y-63450400D01*
X70275300Y-68093800D02*
X71314000Y-69132500D01*
X69136900Y-70615000D02*
X68932400Y-70410500D01*
X70468100Y-88939500D02*
X70468100Y-86905500D01*
X71628700Y-79038600D02*
X71780600Y-78886700D01*
X71601000Y-59935800D02*
X72621200Y-59935800D01*
X71314000Y-70314600D02*
X71013600Y-70615000D01*
X71013600Y-70615000D02*
X69136900Y-70615000D01*
X70577400Y-63450400D02*
X70459200Y-63332200D01*
X71780600Y-78886700D02*
X72093100Y-79199200D01*
X72863600Y-72211900D02*
X72840100Y-72188400D01*
X70744600Y-63450400D02*
X71601000Y-62594000D01*
X69235900Y-90171700D02*
X70468100Y-88939500D01*
X70468100Y-86905500D02*
X69229400Y-85666800D01*
X71601000Y-59935800D02*
X71601000Y-59688700D01*
X71314000Y-69132500D02*
X71314000Y-70314600D01*
X71780600Y-78886700D02*
X74557000Y-76110300D01*
X70275300Y-67283300D02*
X70275300Y-68093800D01*
X72840100Y-72188400D02*
X72840100Y-62275900D01*
X72621200Y-59935800D02*
X72799500Y-59757500D01*
X71601000Y-62594000D02*
X71601000Y-59935800D01*
X72093100Y-79199200D02*
X72093100Y-79201300D01*
X70744600Y-63450400D02*
X70744600Y-66814000D01*
X69235900Y-90171700D02*
X68517500Y-90890100D01*
X75046200Y-63256600D02*
X75046200Y-67602100D01*
X73824600Y-54696800D02*
X74686200Y-53835200D01*
X74574100Y-60093100D02*
X74574100Y-62784500D01*
X73447200Y-58979200D02*
X73694500Y-58731900D01*
X75153700Y-71549600D02*
X75153700Y-68954700D01*
X75473800Y-68634600D02*
X75473800Y-68029700D01*
X75153700Y-68954700D02*
X75473800Y-68634600D01*
X72701900Y-53704200D02*
X72585500Y-53704200D01*
X70862100Y-75934500D02*
X70430500Y-75934500D01*
X73694500Y-54696800D02*
X72701900Y-53704200D01*
X74788500Y-71914800D02*
X74788500Y-72008100D01*
X74788500Y-72008100D02*
X70862100Y-75934500D01*
X75473800Y-68029700D02*
X75046200Y-67602100D01*
X74788500Y-71914800D02*
X75153700Y-71549600D01*
X73694500Y-54696800D02*
X73824600Y-54696800D01*
X73694500Y-58731900D02*
X73694500Y-54696800D01*
X70080400Y-89957600D02*
X70350400Y-89687600D01*
X75513400Y-59153800D02*
X74574100Y-60093100D01*
X74574100Y-62784500D02*
X75046200Y-63256600D01*
X70250000Y-94043200D02*
X70080400Y-93873600D01*
X70080400Y-93873600D02*
X70080400Y-89957600D01*
X70430500Y-75934500D02*
X70430500Y-75934600D01*
X84436700Y-74470900D02*
X84345700Y-74561900D01*
X77125600Y-65331900D02*
X77125600Y-60680400D01*
X81760500Y-55367800D02*
X81760500Y-51815300D01*
X81662300Y-55466000D02*
X82122900Y-55926600D01*
X77238600Y-66577100D02*
X77238600Y-70852400D01*
X84436700Y-70848900D02*
X84436700Y-74470900D01*
X84345700Y-74561900D02*
X84277500Y-74561900D01*
X77125600Y-60680400D02*
X76936600Y-60491400D01*
X84345700Y-74561900D02*
X84345700Y-78484400D01*
X84345700Y-78484400D02*
X83606400Y-79223700D01*
X83990800Y-70403000D02*
X84436700Y-70848900D01*
X81662300Y-55466000D02*
X81760500Y-55367800D01*
X77804700Y-66011000D02*
X77125600Y-65331900D01*
X82122900Y-55926600D02*
X82122900Y-59609000D01*
X77804700Y-66011000D02*
X77238600Y-66577100D01*
X82122900Y-59609000D02*
X81903000Y-59828900D01*
X81760500Y-51815300D02*
X81713500Y-51768300D01*
X80169400Y-61147700D02*
X80169400Y-64309100D01*
X78037300Y-93625800D02*
X77584400Y-93625800D01*
X83126000Y-83640800D02*
X82637500Y-84129300D01*
X79187100Y-69468300D02*
X79345600Y-69309800D01*
X83661600Y-87988400D02*
X84180200Y-88507000D01*
X83617100Y-70196200D02*
X84012900Y-69800400D01*
X80157800Y-61136100D02*
X80157800Y-56668800D01*
X80169400Y-64309100D02*
X79345600Y-65132900D01*
X82637500Y-87056300D02*
X83569600Y-87988400D01*
X82939700Y-78711900D02*
X82939700Y-74782100D01*
X80157800Y-52202600D02*
X80118300Y-52163100D01*
X80169400Y-61147700D02*
X80157800Y-61136100D01*
X80157800Y-56668800D02*
X80157800Y-52202600D01*
X84180200Y-92319800D02*
X84108500Y-92391500D01*
X82939700Y-74782100D02*
X83617100Y-74104700D01*
X79345600Y-69309800D02*
X79345600Y-65132900D01*
X79187100Y-69468300D02*
X80177800Y-70459000D01*
X79020900Y-89188000D02*
X78291200Y-89917700D01*
X80177800Y-70459000D02*
X80177800Y-74722800D01*
X77584400Y-93625800D02*
X77519700Y-93561100D01*
X83617100Y-74104700D02*
X83617100Y-70196200D01*
X82939700Y-78711900D02*
X83126000Y-78898200D01*
X78291200Y-89917700D02*
X78291200Y-93371900D01*
X79020900Y-87396300D02*
X79020900Y-89188000D01*
X80177800Y-79026700D02*
X80310200Y-79159100D01*
X84180200Y-88507000D02*
X84180200Y-92319800D01*
X82637500Y-84129300D02*
X82637500Y-87056300D01*
X83617100Y-74104700D02*
X83781600Y-74104700D01*
X78291200Y-93371900D02*
X78037300Y-93625800D01*
X83569600Y-87988400D02*
X83661600Y-87988400D01*
X83126000Y-78898200D02*
X83126000Y-83640800D01*
X80177800Y-74722800D02*
X80177800Y-79026700D01*
X79404600Y-86492600D02*
X79404600Y-89739800D01*
X77868400Y-70426400D02*
X77868400Y-74720900D01*
X79404600Y-89739800D02*
X79333100Y-89739800D01*
X76794800Y-53958000D02*
X76794800Y-57987000D01*
X81550400Y-91885600D02*
X81550400Y-94355500D01*
X81274800Y-53891100D02*
X81395300Y-53770600D01*
X81274800Y-57395500D02*
X81274800Y-53891100D01*
X77868400Y-74720900D02*
X78130900Y-74983400D01*
X78130900Y-74983400D02*
X78130900Y-85613500D01*
X78130900Y-85613500D02*
X78376500Y-85859100D01*
X76794800Y-57987000D02*
X76946000Y-58138200D01*
X78980600Y-85649600D02*
X78980600Y-85113400D01*
X79404600Y-89739800D02*
X81550400Y-91885600D01*
X78771100Y-85859100D02*
X79404600Y-86492600D01*
X78771100Y-85859100D02*
X78980600Y-85649600D01*
X81745800Y-57866500D02*
X81274800Y-57395500D01*
X78376500Y-85859100D02*
X78771100Y-85859100D01*
X78233600Y-70061200D02*
X77868400Y-70426400D01*
X79187300Y-60679900D02*
X79187300Y-62897200D01*
X80593700Y-85320800D02*
X80740300Y-85174200D01*
X80601100Y-76034300D02*
X80601100Y-76719500D01*
X78852500Y-69804800D02*
X78802700Y-69755000D01*
X78893000Y-67192100D02*
X78893000Y-63191500D01*
X81410900Y-75224500D02*
X80601100Y-76034300D01*
X78628800Y-53872000D02*
X78628800Y-60121400D01*
X78893000Y-68146900D02*
X78893000Y-67192100D01*
X80601100Y-76719500D02*
X80740300Y-76858700D01*
X80740300Y-85174200D02*
X81343100Y-85174200D01*
X78737000Y-53763800D02*
X78628800Y-53872000D01*
X78802700Y-69755000D02*
X78802700Y-68237200D01*
X78893000Y-63191500D02*
X79087500Y-62997000D01*
X78628800Y-60121400D02*
X79187300Y-60679900D01*
X78992800Y-72030400D02*
X78852500Y-71890100D01*
X79187300Y-62897200D02*
X79087500Y-62997000D01*
X80740300Y-76858700D02*
X80740300Y-80717900D01*
X80593700Y-90058400D02*
X80593700Y-85320800D01*
X78852500Y-71890100D02*
X78852500Y-69804800D01*
X78802700Y-68237200D02*
X78893000Y-68146900D01*
X80740300Y-85174200D02*
X80740300Y-80717900D01*
X85039600Y-84525000D02*
X85039600Y-80887000D01*
X86295800Y-66501900D02*
X85610100Y-65816200D01*
X85760400Y-85245800D02*
X85039600Y-84525000D01*
X85610100Y-65816200D02*
X85610100Y-62530600D01*
X85255200Y-80671400D02*
X85255200Y-75320900D01*
X85039600Y-80887000D02*
X85255200Y-80671400D01*
X85255200Y-75320900D02*
X86295800Y-74280300D01*
X86295800Y-74280300D02*
X86295800Y-66501900D01*
X82320800Y-78814400D02*
X82320800Y-87186000D01*
X82320800Y-87186000D02*
X83801300Y-88666500D01*
X81983700Y-74605400D02*
X82667800Y-75289500D01*
X82667800Y-78467400D02*
X82320800Y-78814400D01*
X81983700Y-74605400D02*
X82570700Y-74018400D01*
X82667800Y-75289500D02*
X82667800Y-78467400D01*
X82570700Y-74018400D02*
X82570700Y-63342300D01*
X82570700Y-63342300D02*
X83361000Y-62552000D01*
X88722600Y-61375000D02*
X88025000Y-62072600D01*
X87806500Y-87565200D02*
X88521100Y-88279800D01*
X88025000Y-71625900D02*
X88053800Y-71654700D01*
X88118400Y-72767500D02*
X88118400Y-80561600D01*
X88025000Y-62072600D02*
X88025000Y-71625900D01*
X88053800Y-71654700D02*
X88053800Y-72702900D01*
X88118400Y-80561600D02*
X87806500Y-80873500D01*
X88053800Y-71654700D02*
X89975800Y-71654700D01*
X87806500Y-80873500D02*
X87806500Y-87565200D01*
X88053800Y-72702900D02*
X88118400Y-72767500D01*
X53923800Y-70387500D02*
X53923800Y-75940900D01*
X53817700Y-84821100D02*
X54835500Y-85838900D01*
X53867500Y-78265500D02*
X53867500Y-82204800D01*
X53867500Y-82204800D02*
X53740300Y-82332000D01*
X53824000Y-70287700D02*
X53923800Y-70387500D01*
X53750300Y-78148300D02*
X53867500Y-78265500D01*
X53740300Y-82332000D02*
X53740300Y-83780400D01*
X53923800Y-75940900D02*
X53750300Y-76114400D01*
X59000100Y-62774100D02*
X53824000Y-67950200D01*
X54835500Y-85838900D02*
X54976200Y-85838900D01*
X53817700Y-83857800D02*
X53817700Y-84821100D01*
X53750300Y-76114400D02*
X53750300Y-78148300D01*
X53824000Y-67950200D02*
X53824000Y-70287700D01*
X59000100Y-62403400D02*
X59000100Y-62774100D01*
X56280300Y-87143000D02*
X56280300Y-90422100D01*
X54976200Y-85838900D02*
X56280300Y-87143000D01*
X53740300Y-83780400D02*
X53817700Y-83857800D01*
X78538900Y-74631000D02*
X78538900Y-85493800D01*
X78254900Y-72600000D02*
X79299200Y-73644300D01*
X79299200Y-73870700D02*
X78538900Y-74631000D01*
X79299200Y-73644300D02*
X79299200Y-73870700D01*
X53670100Y-74126700D02*
X53670100Y-75835800D01*
X53612400Y-78369200D02*
X53612400Y-81974900D01*
X53612400Y-81974900D02*
X53486600Y-82100700D01*
X53564000Y-85373800D02*
X54047300Y-85857100D01*
X53486600Y-82100700D02*
X53486600Y-83885500D01*
X53564000Y-83962900D02*
X53564000Y-85373800D01*
X56543200Y-62450100D02*
X53570300Y-65423000D01*
X56616600Y-62450100D02*
X56543200Y-62450100D01*
X53496600Y-78253400D02*
X53612400Y-78369200D01*
X53670100Y-75835800D02*
X53496600Y-76009300D01*
X54047300Y-87654100D02*
X54614000Y-88220800D01*
X53486600Y-83885500D02*
X53564000Y-83962900D01*
X53496600Y-76009300D02*
X53496600Y-78253400D01*
X53570300Y-74026900D02*
X53670100Y-74126700D01*
X54047300Y-85857100D02*
X54047300Y-87654100D01*
X53570300Y-65423000D02*
X53570300Y-74026900D01*
X54177500Y-70282400D02*
X54177500Y-76046000D01*
X54480300Y-84411900D02*
X58796700Y-88728300D01*
X54077700Y-70182600D02*
X54177500Y-70282400D01*
X54000200Y-82430900D02*
X54000200Y-83681500D01*
X60822800Y-62400700D02*
X56289100Y-66934400D01*
X54071400Y-83752700D02*
X54071400Y-84146000D01*
X56289100Y-66934400D02*
X56289100Y-67267200D01*
X54337300Y-84411900D02*
X54480300Y-84411900D01*
X58796700Y-88728300D02*
X58796700Y-90689400D01*
X61155600Y-62400700D02*
X60822800Y-62400700D01*
X56289100Y-67267200D02*
X54077700Y-69478600D01*
X54177500Y-76046000D02*
X54005500Y-76218000D01*
X54071400Y-84146000D02*
X54337300Y-84411900D01*
X54121200Y-82309900D02*
X54000200Y-82430900D01*
X54000200Y-83681500D02*
X54071400Y-83752700D01*
X54005500Y-76218000D02*
X54005500Y-77746600D01*
X54005500Y-77746600D02*
X54121200Y-77862300D01*
X54121200Y-77862300D02*
X54121200Y-82309900D01*
X54077700Y-69478600D02*
X54077700Y-70182600D01*
X52255200Y-79360800D02*
X52176700Y-79439300D01*
X52460500Y-71612500D02*
X52255200Y-71817800D01*
X52255200Y-74759100D02*
X52255200Y-79360800D01*
X52255200Y-87953900D02*
X52528200Y-88226900D01*
X52176700Y-79439300D02*
X52176700Y-79741700D01*
X52460500Y-71309900D02*
X52460500Y-71612500D01*
X52176700Y-79741700D02*
X52255200Y-79820200D01*
X52255200Y-74014700D02*
X52187400Y-74082500D01*
X52255200Y-79820200D02*
X52255200Y-87953900D01*
X52255200Y-62672100D02*
X52255200Y-71104600D01*
X52187400Y-74691300D02*
X52255200Y-74759100D01*
X52187400Y-74082500D02*
X52187400Y-74691300D01*
X52020000Y-62436900D02*
X52255200Y-62672100D01*
X52255200Y-71817800D02*
X52255200Y-74014700D01*
X52255200Y-71104600D02*
X52460500Y-71309900D01*
X86006000Y-62742900D02*
X86006000Y-57005600D01*
X86175600Y-83961700D02*
X85980000Y-83766100D01*
X91560900Y-56585600D02*
X91827000Y-56319500D01*
X91421300Y-88649600D02*
X91621600Y-88849900D01*
X86622200Y-84528700D02*
X86175600Y-84082100D01*
X86252400Y-65921500D02*
X86252400Y-65283000D01*
X86252400Y-65283000D02*
X86252400Y-62989300D01*
X86549500Y-66218600D02*
X86252400Y-65921500D01*
X91621600Y-88849900D02*
X91621600Y-92518600D01*
X86622200Y-91245800D02*
X86622200Y-84528700D01*
X91827000Y-56319500D02*
X91827000Y-51806700D01*
X85782000Y-76590500D02*
X85782000Y-75152900D01*
X85980000Y-83766100D02*
X85980000Y-76788500D01*
X86549500Y-74385400D02*
X86549500Y-66218600D01*
X86175600Y-84082100D02*
X86175600Y-83961700D01*
X85980000Y-76788500D02*
X85782000Y-76590500D01*
X86252400Y-62989300D02*
X86040700Y-62777600D01*
X86040700Y-62777600D02*
X86006000Y-62742900D01*
X85782000Y-75152900D02*
X86549500Y-74385400D01*
X86513300Y-91354700D02*
X86622200Y-91245800D01*
X93148500Y-87490500D02*
X92597100Y-86939100D01*
X89136800Y-91967500D02*
X88652800Y-92451500D01*
X89317500Y-75102800D02*
X89317500Y-79077900D01*
X88974300Y-52268400D02*
X88745300Y-52039400D01*
X88974300Y-56648300D02*
X88974300Y-52268400D01*
X89276000Y-56950000D02*
X88974300Y-56648300D01*
X91945300Y-66007200D02*
X91467400Y-65529300D01*
X89380300Y-64619700D02*
X90485900Y-65725300D01*
X89317500Y-82005600D02*
X88355200Y-82967900D01*
X88808600Y-69691400D02*
X88607700Y-69892300D01*
X92597100Y-86561900D02*
X93239900Y-85919100D01*
X89276000Y-64515400D02*
X89380300Y-64619700D01*
X89380300Y-64619700D02*
X88600900Y-65399100D01*
X93239900Y-85919100D02*
X93239900Y-83886300D01*
X89136800Y-88310900D02*
X89136800Y-91967500D01*
X90681900Y-65529300D02*
X90485900Y-65725300D01*
X91271800Y-74649400D02*
X91443500Y-74477700D01*
X91443500Y-74477700D02*
X91443500Y-67015200D01*
X89276000Y-61250000D02*
X89276000Y-56950000D01*
X89136800Y-88310900D02*
X89136800Y-83749500D01*
X88701500Y-74486800D02*
X89317500Y-75102800D01*
X89276000Y-61250000D02*
X89276000Y-64515400D01*
X89317500Y-79077900D02*
X89317500Y-82005600D01*
X92597100Y-86939100D02*
X92597100Y-86561900D01*
X91945300Y-66513400D02*
X91945300Y-66007200D01*
X93148500Y-87931200D02*
X93148500Y-87490500D01*
X91443500Y-67015200D02*
X91945300Y-66513400D01*
X91467400Y-65529300D02*
X90681900Y-65529300D01*
X89136800Y-83749500D02*
X88355200Y-82967900D01*
X88600900Y-65399100D02*
X88808600Y-65606800D01*
X88808600Y-65606800D02*
X88808600Y-69691400D01*
X86388400Y-61589700D02*
X87530800Y-62732100D01*
X91572600Y-88284400D02*
X91601300Y-88313100D01*
X86782100Y-75534400D02*
X86679100Y-75637400D01*
X91024600Y-88284400D02*
X91572600Y-88284400D01*
X86388400Y-54012200D02*
X86388400Y-58687800D01*
X94012200Y-77534600D02*
X94414200Y-77132600D01*
X91078300Y-66969500D02*
X91078300Y-70270400D01*
X87530800Y-62732100D02*
X86832100Y-63430800D01*
X91401300Y-65822000D02*
X91691600Y-66112300D01*
X86832100Y-63430800D02*
X86832100Y-65820700D01*
X90450800Y-66288700D02*
X90917500Y-65822000D01*
X93305900Y-88313100D02*
X94012200Y-87606800D01*
X91601300Y-88313100D02*
X93305900Y-88313100D01*
X86782100Y-74787100D02*
X86782100Y-75534400D01*
X86832100Y-74737100D02*
X86782100Y-74787100D01*
X91691600Y-66112300D02*
X91691600Y-66356200D01*
X91691600Y-66356200D02*
X91078300Y-66969500D01*
X86832100Y-65820700D02*
X86832100Y-74737100D01*
X86679100Y-75637400D02*
X86679100Y-79760000D01*
X86093800Y-53717600D02*
X86388400Y-54012200D01*
X91024600Y-84591800D02*
X91024600Y-88284400D01*
X91024600Y-92597700D02*
X90831700Y-92790600D01*
X86679100Y-79760000D02*
X86751100Y-79832000D01*
X90917500Y-65822000D02*
X91401300Y-65822000D01*
X91024600Y-88284400D02*
X91024600Y-92597700D01*
X86388400Y-58687800D02*
X86388400Y-61589700D01*
X94012200Y-87606800D02*
X94012200Y-77534600D01*
X94779500Y-84881100D02*
X94610200Y-85050400D01*
X94015800Y-70911300D02*
X94638900Y-71534400D01*
X88343500Y-58250500D02*
X87681400Y-57588400D01*
X94779500Y-76173500D02*
X94779500Y-84881100D01*
X94015800Y-67518700D02*
X94015800Y-70911300D01*
X87681400Y-57588400D02*
X87681400Y-53793400D01*
X92838700Y-62853000D02*
X94213600Y-64227900D01*
X94213600Y-67320900D02*
X94015800Y-67518700D01*
X94633300Y-76027300D02*
X94779500Y-76173500D01*
X94213600Y-64227900D02*
X94213600Y-67320900D01*
X70474500Y-81897200D02*
X70670000Y-81701700D01*
X68592300Y-84070100D02*
X70001400Y-84070100D01*
X70001400Y-84070100D02*
X70474500Y-83597000D01*
X70474500Y-83597000D02*
X70474500Y-81897200D01*
X70874700Y-86406600D02*
X70817400Y-86349300D01*
X70817400Y-86349300D02*
X70817400Y-83478300D01*
X70817400Y-83478300D02*
X72700000Y-81595700D01*
X85743000Y-69154700D02*
X85565300Y-69332400D01*
X85565300Y-69332400D02*
X85565300Y-71562600D01*
X85565300Y-71562600D02*
X85897900Y-71895200D01*
X55442900Y-71031400D02*
X55442900Y-73318700D01*
X55442900Y-73318700D02*
X57061700Y-74937500D01*
X54442900Y-70031400D02*
X55442900Y-71031400D01*
X68666200Y-56657300D02*
X68752300Y-56743400D01*
X68752300Y-68649500D02*
X66413200Y-70988600D01*
X68752300Y-56743400D02*
X68752300Y-68649500D01*
X66413200Y-70988600D02*
X66413200Y-74657300D01*
X66841200Y-74977600D02*
X66841200Y-71987400D01*
X68258300Y-69578000D02*
X69136200Y-68700100D01*
X68258300Y-70570300D02*
X68258300Y-69578000D01*
X66841200Y-71987400D02*
X68258300Y-70570300D01*
X69136200Y-63327300D02*
X69153900Y-63309600D01*
X69136200Y-68700100D02*
X69136200Y-63327300D01*
X67804900Y-67537700D02*
X67548400Y-67794200D01*
X67804900Y-59070200D02*
X67804900Y-67537700D01*
X67704100Y-58969400D02*
X67804900Y-59070200D01*
X79289500Y-50319700D02*
X76394000Y-53215200D01*
X76394000Y-56679500D02*
X71854700Y-61218800D01*
X76394000Y-53215200D02*
X76394000Y-56679500D01*
X72362300Y-65995700D02*
X72362300Y-72509100D01*
X71854700Y-61218800D02*
X71854700Y-65488100D01*
X71854700Y-65488100D02*
X72362300Y-65995700D01*
M02*
