%TF.GenerationSoftware,KiCad,Pcbnew,9.0.8*%
%TF.CreationDate,2026-04-03T11:36:13-04:00*%
%TF.ProjectId,panel_rp2354_20x20,70616e65-6c5f-4727-9032-3335345f3230,v0.2.0*%
%TF.SameCoordinates,Original*%
%TF.FileFunction,Drillmap*%
%TF.FilePolarity,Positive*%
%FSLAX45Y45*%
G04 Gerber Fmt 4.5, Leading zero omitted, Abs format (unit mm)*
G04 Created by KiCad (PCBNEW 9.0.8) date 2026-04-03 11:36:13*
%MOMM*%
%LPD*%
G01*
G04 APERTURE LIST*
%ADD10C,0.250000*%
%ADD11C,0.200000*%
%ADD12C,0.100000*%
G04 APERTURE END LIST*
D10*
X4980000Y-4980000D02*
X9520000Y-4980000D01*
X9520000Y-9520000D01*
X4980000Y-9520000D01*
X4980000Y-4980000D01*
D11*
D12*
X5021380Y-6560470D02*
X5041380Y-6580470D01*
X5041380Y-6560470D02*
X5021380Y-6580470D01*
X5021640Y-6980250D02*
X5041640Y-7000250D01*
X5041640Y-6980250D02*
X5021640Y-7000250D01*
X5022390Y-8002240D02*
X5042390Y-8022240D01*
X5042390Y-8002240D02*
X5022390Y-8022240D01*
X5032540Y-8232530D02*
X5052540Y-8252530D01*
X5052540Y-8232530D02*
X5032540Y-8252530D01*
X5045180Y-8446280D02*
X5065180Y-8466280D01*
X5065180Y-8446280D02*
X5045180Y-8466280D01*
X5057400Y-9342830D02*
X5077400Y-9362830D01*
X5077400Y-9342830D02*
X5057400Y-9362830D01*
X5058730Y-8891930D02*
X5078730Y-8911930D01*
X5078730Y-8891930D02*
X5058730Y-8911930D01*
X5068210Y-5204440D02*
X5088210Y-5224440D01*
X5088210Y-5204440D02*
X5068210Y-5224440D01*
X5090730Y-6552640D02*
X5110730Y-6572640D01*
X5110730Y-6552640D02*
X5090730Y-6572640D01*
X5095100Y-8839740D02*
X5115100Y-8859740D01*
X5115100Y-8839740D02*
X5095100Y-8859740D01*
X5103730Y-6764380D02*
X5123730Y-6784380D01*
X5123730Y-6764380D02*
X5103730Y-6784380D01*
X5108640Y-5907950D02*
X5128640Y-5927950D01*
X5128640Y-5907950D02*
X5108640Y-5927950D01*
X5113420Y-5632000D02*
X5133420Y-5652000D01*
X5133420Y-5632000D02*
X5113420Y-5652000D01*
X5175000Y-6803000D02*
X5195000Y-6823000D01*
X5195000Y-6803000D02*
X5175000Y-6823000D01*
X5175000Y-8073500D02*
X5195000Y-8093500D01*
X5195000Y-8073500D02*
X5175000Y-8093500D01*
X5175000Y-8502000D02*
X5195000Y-8522000D01*
X5195000Y-8502000D02*
X5175000Y-8522000D01*
X5175500Y-7654500D02*
X5195500Y-7674500D01*
X5195500Y-7654500D02*
X5175500Y-7674500D01*
X5177000Y-7236000D02*
X5197000Y-7256000D01*
X5197000Y-7236000D02*
X5177000Y-7256000D01*
X5179000Y-6363000D02*
X5199000Y-6383000D01*
X5199000Y-6363000D02*
X5179000Y-6383000D01*
X5192000Y-6233690D02*
X5212000Y-6253690D01*
X5212000Y-6233690D02*
X5192000Y-6253690D01*
X5199530Y-7136120D02*
X5219530Y-7156120D01*
X5219530Y-7136120D02*
X5199530Y-7156120D01*
X5242820Y-8812690D02*
X5262820Y-8832690D01*
X5262820Y-8812690D02*
X5242820Y-8832690D01*
X5244190Y-7949050D02*
X5264190Y-7969050D01*
X5264190Y-7949050D02*
X5244190Y-7969050D01*
X5250050Y-9229950D02*
X5270050Y-9249950D01*
X5270050Y-9229950D02*
X5250050Y-9249950D01*
X5250410Y-5179590D02*
X5270410Y-5199590D01*
X5270410Y-5179590D02*
X5250410Y-5199590D01*
X5253940Y-7492870D02*
X5273940Y-7512870D01*
X5273940Y-7492870D02*
X5253940Y-7512870D01*
X5256630Y-7886980D02*
X5276630Y-7906980D01*
X5276630Y-7886980D02*
X5256630Y-7906980D01*
X5258770Y-6987670D02*
X5278770Y-7007670D01*
X5278770Y-6987670D02*
X5258770Y-7007670D01*
X5270000Y-6816000D02*
X5290000Y-6836000D01*
X5290000Y-6816000D02*
X5270000Y-6836000D01*
X5271000Y-7689000D02*
X5291000Y-7709000D01*
X5291000Y-7689000D02*
X5271000Y-7709000D01*
X5272000Y-7253000D02*
X5292000Y-7273000D01*
X5292000Y-7253000D02*
X5272000Y-7273000D01*
X5272860Y-8354190D02*
X5292860Y-8374190D01*
X5292860Y-8354190D02*
X5272860Y-8374190D01*
X5272950Y-6553390D02*
X5292950Y-6573390D01*
X5292950Y-6553390D02*
X5272950Y-6573390D01*
X5273000Y-6370000D02*
X5293000Y-6390000D01*
X5293000Y-6370000D02*
X5273000Y-6390000D01*
X5285870Y-6104480D02*
X5305870Y-6124480D01*
X5305870Y-6104480D02*
X5285870Y-6124480D01*
X5293210Y-7455530D02*
X5313210Y-7475530D01*
X5313210Y-7455530D02*
X5293210Y-7475530D01*
X5294010Y-8805440D02*
X5314010Y-8825440D01*
X5314010Y-8805440D02*
X5294010Y-8825440D01*
X5294030Y-7534970D02*
X5314030Y-7554970D01*
X5314030Y-7534970D02*
X5294030Y-7554970D01*
X5309140Y-5656330D02*
X5329140Y-5676330D01*
X5329140Y-5656330D02*
X5309140Y-5676330D01*
X5309880Y-8401420D02*
X5329880Y-8421420D01*
X5329880Y-8401420D02*
X5309880Y-8421420D01*
X5313000Y-8170000D02*
X5333000Y-8190000D01*
X5333000Y-8170000D02*
X5313000Y-8190000D01*
X5327000Y-8592000D02*
X5347000Y-8612000D01*
X5347000Y-8592000D02*
X5327000Y-8612000D01*
X5360930Y-6261790D02*
X5380930Y-6281790D01*
X5380930Y-6261790D02*
X5360930Y-6281790D01*
X5361330Y-8998520D02*
X5381330Y-9018520D01*
X5381330Y-8998520D02*
X5361330Y-9018520D01*
X5361790Y-5185950D02*
X5381790Y-5205950D01*
X5381790Y-5185950D02*
X5361790Y-5205950D01*
X5361790Y-5615470D02*
X5381790Y-5635470D01*
X5381790Y-5615470D02*
X5361790Y-5635470D01*
X5361790Y-9233900D02*
X5381790Y-9253900D01*
X5381790Y-9233900D02*
X5361790Y-9253900D01*
X5362790Y-9422090D02*
X5382790Y-9442090D01*
X5382790Y-9422090D02*
X5362790Y-9442090D01*
X5427960Y-7682560D02*
X5447960Y-7702560D01*
X5447960Y-7682560D02*
X5427960Y-7702560D01*
X5428800Y-6397420D02*
X5448800Y-6417420D01*
X5448800Y-6397420D02*
X5428800Y-6417420D01*
X5429390Y-6668500D02*
X5449390Y-6688500D01*
X5449390Y-6668500D02*
X5429390Y-6688500D01*
X5429760Y-6852600D02*
X5449760Y-6872600D01*
X5449760Y-6852600D02*
X5429760Y-6872600D01*
X5431260Y-8721720D02*
X5451260Y-8741720D01*
X5451260Y-8721720D02*
X5431260Y-8741720D01*
X5434290Y-6993140D02*
X5454290Y-7013140D01*
X5454290Y-6993140D02*
X5434290Y-7013140D01*
X5438850Y-8394670D02*
X5458850Y-8414670D01*
X5458850Y-8394670D02*
X5438850Y-8414670D01*
X5439300Y-7845360D02*
X5459300Y-7865360D01*
X5459300Y-7845360D02*
X5439300Y-7865360D01*
X5440000Y-5553750D02*
X5460000Y-5573750D01*
X5460000Y-5553750D02*
X5440000Y-5573750D01*
X5441040Y-8067210D02*
X5461040Y-8087210D01*
X5461040Y-8067210D02*
X5441040Y-8087210D01*
X5441210Y-8009230D02*
X5461210Y-8029230D01*
X5461210Y-8009230D02*
X5441210Y-8029230D01*
X5444270Y-7442770D02*
X5464270Y-7462770D01*
X5464270Y-7442770D02*
X5444270Y-7462770D01*
X5445010Y-7179740D02*
X5465010Y-7199740D01*
X5465010Y-7179740D02*
X5445010Y-7199740D01*
X5446280Y-8121710D02*
X5466280Y-8141710D01*
X5466280Y-8121710D02*
X5446280Y-8141710D01*
X5448700Y-8493590D02*
X5468700Y-8513590D01*
X5468700Y-8493590D02*
X5448700Y-8513590D01*
X5449550Y-6486790D02*
X5469550Y-6506790D01*
X5469550Y-6486790D02*
X5449550Y-6506790D01*
X5450080Y-8274310D02*
X5470080Y-8294310D01*
X5470080Y-8274310D02*
X5450080Y-8294310D01*
X5450620Y-6595610D02*
X5470620Y-6615610D01*
X5470620Y-6595610D02*
X5450620Y-6615610D01*
X5451200Y-7541140D02*
X5471200Y-7561140D01*
X5471200Y-7541140D02*
X5451200Y-7561140D01*
X5451400Y-8812080D02*
X5471400Y-8832080D01*
X5471400Y-8812080D02*
X5451400Y-8832080D01*
X5458680Y-7131220D02*
X5478680Y-7151220D01*
X5478680Y-7131220D02*
X5458680Y-7151220D01*
X5464070Y-6744990D02*
X5484070Y-6764990D01*
X5484070Y-6744990D02*
X5464070Y-6764990D01*
X5466960Y-7347140D02*
X5486960Y-7367140D01*
X5486960Y-7347140D02*
X5466960Y-7367140D01*
X5472490Y-8610410D02*
X5492490Y-8630410D01*
X5492490Y-8610410D02*
X5472490Y-8630410D01*
X5472920Y-7792640D02*
X5492920Y-7812640D01*
X5492920Y-7792640D02*
X5472920Y-7812640D01*
X5474830Y-6542770D02*
X5494830Y-6562770D01*
X5494830Y-6542770D02*
X5474830Y-6562770D01*
X5518330Y-5516050D02*
X5538330Y-5536050D01*
X5538330Y-5516050D02*
X5518330Y-5536050D01*
X5527810Y-8849980D02*
X5547810Y-8869980D01*
X5547810Y-8849980D02*
X5527810Y-8869980D01*
X5528230Y-5230410D02*
X5548230Y-5250410D01*
X5548230Y-5230410D02*
X5528230Y-5250410D01*
X5529360Y-6126740D02*
X5549360Y-6146740D01*
X5549360Y-6126740D02*
X5529360Y-6146740D01*
X5581070Y-8994090D02*
X5601070Y-9014090D01*
X5601070Y-8994090D02*
X5581070Y-9014090D01*
X5615520Y-5372160D02*
X5635520Y-5392160D01*
X5635520Y-5372160D02*
X5615520Y-5392160D01*
X5617110Y-6081240D02*
X5637110Y-6101240D01*
X5637110Y-6081240D02*
X5617110Y-6101240D01*
X5618030Y-9032210D02*
X5638030Y-9052210D01*
X5638030Y-9032210D02*
X5618030Y-9052210D01*
X5622000Y-6801000D02*
X5642000Y-6821000D01*
X5642000Y-6801000D02*
X5622000Y-6821000D01*
X5622000Y-7655500D02*
X5642000Y-7675500D01*
X5642000Y-7655500D02*
X5622000Y-7675500D01*
X5622750Y-8075750D02*
X5642750Y-8095750D01*
X5642750Y-8075750D02*
X5622750Y-8095750D01*
X5623000Y-8509000D02*
X5643000Y-8529000D01*
X5643000Y-8509000D02*
X5623000Y-8529000D01*
X5624000Y-7227000D02*
X5644000Y-7247000D01*
X5644000Y-7227000D02*
X5624000Y-7247000D01*
X5642460Y-6291730D02*
X5662460Y-6311730D01*
X5662460Y-6291730D02*
X5642460Y-6311730D01*
X5651660Y-6235010D02*
X5671660Y-6255010D01*
X5671660Y-6235010D02*
X5651660Y-6255010D01*
X5659940Y-7142270D02*
X5679940Y-7162270D01*
X5679940Y-7142270D02*
X5659940Y-7162270D01*
X5661810Y-6711790D02*
X5681810Y-6731790D01*
X5681810Y-6711790D02*
X5661810Y-6731790D01*
X5675190Y-9193310D02*
X5695190Y-9213310D01*
X5695190Y-9193310D02*
X5675190Y-9213310D01*
X5680930Y-9434820D02*
X5700930Y-9454820D01*
X5700930Y-9434820D02*
X5680930Y-9454820D01*
X5681780Y-5108830D02*
X5701780Y-5128830D01*
X5701780Y-5108830D02*
X5681780Y-5128830D01*
X5696170Y-7483750D02*
X5716170Y-7503750D01*
X5716170Y-7483750D02*
X5696170Y-7503750D01*
X5697340Y-8779630D02*
X5717340Y-8799630D01*
X5717340Y-8779630D02*
X5697340Y-8799630D01*
X5700300Y-8351930D02*
X5720300Y-8371930D01*
X5720300Y-8351930D02*
X5700300Y-8371930D01*
X5702110Y-7431890D02*
X5722110Y-7451890D01*
X5722110Y-7431890D02*
X5702110Y-7451890D01*
X5707170Y-7891870D02*
X5727170Y-7911870D01*
X5727170Y-7891870D02*
X5707170Y-7911870D01*
X5717000Y-6372000D02*
X5737000Y-6392000D01*
X5737000Y-6372000D02*
X5717000Y-6392000D01*
X5717500Y-6812500D02*
X5737500Y-6832500D01*
X5737500Y-6812500D02*
X5717500Y-6832500D01*
X5717500Y-7249000D02*
X5737500Y-7269000D01*
X5737500Y-7249000D02*
X5717500Y-7269000D01*
X5718250Y-7682000D02*
X5738250Y-7702000D01*
X5738250Y-7682000D02*
X5718250Y-7702000D01*
X5728920Y-7005070D02*
X5748920Y-7025070D01*
X5748920Y-7005070D02*
X5728920Y-7025070D01*
X5743210Y-5656200D02*
X5763210Y-5676200D01*
X5763210Y-5656200D02*
X5743210Y-5676200D01*
X5751030Y-7454460D02*
X5771030Y-7474460D01*
X5771030Y-7454460D02*
X5751030Y-7474460D01*
X5752320Y-8354820D02*
X5772320Y-8374820D01*
X5772320Y-8354820D02*
X5752320Y-8374820D01*
X5756000Y-8167000D02*
X5776000Y-8187000D01*
X5776000Y-8167000D02*
X5756000Y-8187000D01*
X5762000Y-8605000D02*
X5782000Y-8625000D01*
X5782000Y-8605000D02*
X5762000Y-8625000D01*
X5766110Y-5878610D02*
X5786110Y-5898610D01*
X5786110Y-5878610D02*
X5766110Y-5898610D01*
X5810930Y-6264910D02*
X5830930Y-6284910D01*
X5830930Y-6264910D02*
X5810930Y-6284910D01*
X5837370Y-9283200D02*
X5857370Y-9303200D01*
X5857370Y-9283200D02*
X5837370Y-9303200D01*
X5849850Y-7370880D02*
X5869850Y-7390880D01*
X5869850Y-7370880D02*
X5849850Y-7390880D01*
X5855890Y-8584660D02*
X5875890Y-8604660D01*
X5875890Y-8584660D02*
X5855890Y-8604660D01*
X5856190Y-6500520D02*
X5876190Y-6520520D01*
X5876190Y-6500520D02*
X5856190Y-6520520D01*
X5869670Y-9058940D02*
X5889670Y-9078940D01*
X5889670Y-9058940D02*
X5869670Y-9078940D01*
X5873260Y-7179370D02*
X5893260Y-7199370D01*
X5893260Y-7179370D02*
X5873260Y-7199370D01*
X5873470Y-8077390D02*
X5893470Y-8097390D01*
X5893470Y-8077390D02*
X5873470Y-8097390D01*
X5873970Y-5045180D02*
X5893970Y-5065180D01*
X5893970Y-5045180D02*
X5873970Y-5065180D01*
X5874830Y-7035340D02*
X5894830Y-7055340D01*
X5894830Y-7035340D02*
X5874830Y-7055340D01*
X5875330Y-7649590D02*
X5895330Y-7669590D01*
X5895330Y-7649590D02*
X5875330Y-7669590D01*
X5877210Y-8730780D02*
X5897210Y-8750780D01*
X5897210Y-8730780D02*
X5877210Y-8750780D01*
X5879970Y-5500960D02*
X5899970Y-5520960D01*
X5899970Y-5500960D02*
X5879970Y-5520960D01*
X5881540Y-6902420D02*
X5901540Y-6922420D01*
X5901540Y-6902420D02*
X5881540Y-6922420D01*
X5888520Y-8357540D02*
X5908520Y-8377540D01*
X5908520Y-8357540D02*
X5888520Y-8377540D01*
X5890010Y-6230340D02*
X5910010Y-6250340D01*
X5910010Y-6230340D02*
X5890010Y-6250340D01*
X5891190Y-5927240D02*
X5911190Y-5947240D01*
X5911190Y-5927240D02*
X5891190Y-5947240D01*
X5906350Y-8259120D02*
X5926350Y-8279120D01*
X5926350Y-8259120D02*
X5906350Y-8279120D01*
X5909910Y-8201160D02*
X5929910Y-8221160D01*
X5929910Y-8201160D02*
X5909910Y-8221160D01*
X5935170Y-7891350D02*
X5955170Y-7911350D01*
X5955170Y-7891350D02*
X5935170Y-7911350D01*
X5943600Y-7723940D02*
X5963600Y-7743940D01*
X5963600Y-7723940D02*
X5943600Y-7743940D01*
X5958530Y-7969110D02*
X5978530Y-7989110D01*
X5978530Y-7969110D02*
X5958530Y-7989110D01*
X5985720Y-7926540D02*
X6005720Y-7946540D01*
X6005720Y-7926540D02*
X5985720Y-7946540D01*
X5993470Y-5649760D02*
X6013470Y-5669760D01*
X6013470Y-5649760D02*
X5993470Y-5669760D01*
X6004720Y-6583190D02*
X6024720Y-6603190D01*
X6024720Y-6583190D02*
X6004720Y-6603190D01*
X6005070Y-9284400D02*
X6025070Y-9304400D01*
X6025070Y-9284400D02*
X6005070Y-9304400D01*
X6005820Y-6348170D02*
X6025820Y-6368170D01*
X6025820Y-6348170D02*
X6005820Y-6368170D01*
X6036980Y-6036790D02*
X6056980Y-6056790D01*
X6056980Y-6036790D02*
X6036980Y-6056790D01*
X6037900Y-6713260D02*
X6057900Y-6733260D01*
X6057900Y-6713260D02*
X6037900Y-6733260D01*
X6064580Y-5803820D02*
X6084580Y-5823820D01*
X6084580Y-5803820D02*
X6064580Y-5823820D01*
X6067000Y-6355000D02*
X6087000Y-6375000D01*
X6087000Y-6355000D02*
X6067000Y-6375000D01*
X6067000Y-6791000D02*
X6087000Y-6811000D01*
X6087000Y-6791000D02*
X6067000Y-6811000D01*
X6068250Y-7238500D02*
X6088250Y-7258500D01*
X6088250Y-7238500D02*
X6068250Y-7258500D01*
X6070000Y-8511000D02*
X6090000Y-8531000D01*
X6090000Y-8511000D02*
X6070000Y-8531000D01*
X6092180Y-8823300D02*
X6112180Y-8843300D01*
X6112180Y-8823300D02*
X6092180Y-8843300D01*
X6101380Y-6171330D02*
X6121380Y-6191330D01*
X6121380Y-6171330D02*
X6101380Y-6191330D01*
X6105560Y-6230070D02*
X6125560Y-6250070D01*
X6125560Y-6230070D02*
X6105560Y-6250070D01*
X6108940Y-7583080D02*
X6128940Y-7603080D01*
X6128940Y-7583080D02*
X6108940Y-7603080D01*
X6115390Y-6729890D02*
X6135390Y-6749890D01*
X6135390Y-6729890D02*
X6115390Y-6749890D01*
X6124230Y-6036790D02*
X6144230Y-6056790D01*
X6144230Y-6036790D02*
X6124230Y-6056790D01*
X6126000Y-9012230D02*
X6146000Y-9032230D01*
X6146000Y-9012230D02*
X6126000Y-9032230D01*
X6127600Y-6563620D02*
X6147600Y-6583620D01*
X6147600Y-6563620D02*
X6127600Y-6583620D01*
X6147420Y-5230360D02*
X6167420Y-5250360D01*
X6167420Y-5230360D02*
X6147420Y-5250360D01*
X6147630Y-9226020D02*
X6167630Y-9246020D01*
X6167630Y-9226020D02*
X6147630Y-9246020D01*
X6150620Y-5629380D02*
X6170620Y-5649380D01*
X6170620Y-5629380D02*
X6150620Y-5649380D01*
X6154280Y-7027830D02*
X6174280Y-7047830D01*
X6174280Y-7027830D02*
X6154280Y-7047830D01*
X6161000Y-6364000D02*
X6181000Y-6384000D01*
X6181000Y-6364000D02*
X6161000Y-6384000D01*
X6162500Y-6813000D02*
X6182500Y-6833000D01*
X6182500Y-6813000D02*
X6162500Y-6833000D01*
X6163500Y-7260000D02*
X6183500Y-7280000D01*
X6183500Y-7260000D02*
X6163500Y-7280000D01*
X6172390Y-7480570D02*
X6192390Y-7500570D01*
X6192390Y-7480570D02*
X6172390Y-7500570D01*
X6196250Y-6560140D02*
X6216250Y-6580140D01*
X6216250Y-6560140D02*
X6196250Y-6580140D01*
X6218000Y-8162000D02*
X6238000Y-8182000D01*
X6238000Y-8162000D02*
X6218000Y-8182000D01*
X6231000Y-8599000D02*
X6251000Y-8619000D01*
X6251000Y-8599000D02*
X6231000Y-8619000D01*
X6261790Y-5193160D02*
X6281790Y-5213160D01*
X6281790Y-5193160D02*
X6261790Y-5213160D01*
X6262960Y-5371540D02*
X6282960Y-5391540D01*
X6282960Y-5371540D02*
X6262960Y-5391540D01*
X6267280Y-6714620D02*
X6287280Y-6734620D01*
X6287280Y-6714620D02*
X6267280Y-6734620D01*
X6283000Y-7674000D02*
X6303000Y-7694000D01*
X6303000Y-7674000D02*
X6283000Y-7694000D01*
X6285000Y-8104000D02*
X6305000Y-8124000D01*
X6305000Y-8104000D02*
X6285000Y-8124000D01*
X6289750Y-8997260D02*
X6309750Y-9017260D01*
X6309750Y-8997260D02*
X6289750Y-9017260D01*
X6290290Y-5592190D02*
X6310290Y-5612190D01*
X6310290Y-5592190D02*
X6290290Y-5612190D01*
X6306910Y-8937280D02*
X6326910Y-8957280D01*
X6326910Y-8937280D02*
X6306910Y-8957280D01*
X6312990Y-9070850D02*
X6332990Y-9090850D01*
X6332990Y-9070850D02*
X6312990Y-9090850D01*
X6316650Y-7354810D02*
X6336650Y-7374810D01*
X6336650Y-7354810D02*
X6316650Y-7374810D01*
X6317800Y-6569780D02*
X6337800Y-6589780D01*
X6337800Y-6569780D02*
X6317800Y-6589780D01*
X6319740Y-9188270D02*
X6339740Y-9208270D01*
X6339740Y-9188270D02*
X6319740Y-9208270D01*
X6328680Y-6695050D02*
X6348680Y-6715050D01*
X6348680Y-6695050D02*
X6328680Y-6715050D01*
X6328770Y-8198380D02*
X6348770Y-8218380D01*
X6348770Y-8198380D02*
X6328770Y-8218380D01*
X6340960Y-7913430D02*
X6360960Y-7933430D01*
X6360960Y-7913430D02*
X6340960Y-7933430D01*
X6343960Y-6226670D02*
X6363960Y-6246670D01*
X6363960Y-6226670D02*
X6343960Y-6246670D01*
X6346780Y-7131360D02*
X6366780Y-7151360D01*
X6366780Y-7131360D02*
X6346780Y-7151360D01*
X6346870Y-7972550D02*
X6366870Y-7992550D01*
X6366870Y-7972550D02*
X6346870Y-7992550D01*
X6348340Y-5742080D02*
X6368340Y-5762080D01*
X6368340Y-5742080D02*
X6348340Y-5762080D01*
X6348560Y-7458390D02*
X6368560Y-7478390D01*
X6368560Y-7458390D02*
X6348560Y-7478390D01*
X6348740Y-8387070D02*
X6368740Y-8407070D01*
X6368740Y-8387070D02*
X6348740Y-8407070D01*
X6352000Y-7793000D02*
X6372000Y-7813000D01*
X6372000Y-7793000D02*
X6352000Y-7813000D01*
X6352920Y-7028650D02*
X6372920Y-7048650D01*
X6372920Y-7028650D02*
X6352920Y-7048650D01*
X6361050Y-5686870D02*
X6381050Y-5706870D01*
X6381050Y-5686870D02*
X6361050Y-5706870D01*
X6363960Y-7736640D02*
X6383960Y-7756640D01*
X6383960Y-7736640D02*
X6363960Y-7756640D01*
X6373840Y-7876900D02*
X6393840Y-7896900D01*
X6393840Y-7876900D02*
X6373840Y-7896900D01*
X6387000Y-6364000D02*
X6407000Y-6384000D01*
X6407000Y-6364000D02*
X6387000Y-6384000D01*
X6387000Y-6811000D02*
X6407000Y-6831000D01*
X6407000Y-6811000D02*
X6387000Y-6831000D01*
X6389000Y-7304000D02*
X6409000Y-7324000D01*
X6409000Y-7304000D02*
X6389000Y-7324000D01*
X6389860Y-5645610D02*
X6409860Y-5665610D01*
X6409860Y-5645610D02*
X6389860Y-5665610D01*
X6392000Y-8637000D02*
X6412000Y-8657000D01*
X6412000Y-8637000D02*
X6392000Y-8657000D01*
X6393160Y-9053380D02*
X6413160Y-9073380D01*
X6413160Y-9053380D02*
X6393160Y-9073380D01*
X6400800Y-6567150D02*
X6420800Y-6587150D01*
X6420800Y-6567150D02*
X6400800Y-6587150D01*
X6408790Y-8129520D02*
X6428790Y-8149520D01*
X6428790Y-8129520D02*
X6408790Y-8149520D01*
X6410080Y-5267820D02*
X6430080Y-5287820D01*
X6430080Y-5267820D02*
X6410080Y-5287820D01*
X6414880Y-7725350D02*
X6434880Y-7745350D01*
X6434880Y-7725350D02*
X6414880Y-7745350D01*
X6417520Y-8443210D02*
X6437520Y-8463210D01*
X6437520Y-8443210D02*
X6417520Y-8463210D01*
X6419000Y-9273000D02*
X6439000Y-9293000D01*
X6439000Y-9273000D02*
X6419000Y-9293000D01*
X6434040Y-7458130D02*
X6454040Y-7478130D01*
X6454040Y-7458130D02*
X6434040Y-7478130D01*
X6442210Y-5923630D02*
X6462210Y-5943630D01*
X6462210Y-5923630D02*
X6442210Y-5943630D01*
X6442500Y-7266330D02*
X6462500Y-7286330D01*
X6462500Y-7266330D02*
X6442500Y-7286330D01*
X6456480Y-6568050D02*
X6476480Y-6588050D01*
X6476480Y-6568050D02*
X6456480Y-6588050D01*
X6484100Y-8535110D02*
X6504100Y-8555110D01*
X6504100Y-8535110D02*
X6484100Y-8555110D01*
X6486560Y-8748220D02*
X6506560Y-8768220D01*
X6506560Y-8748220D02*
X6486560Y-8768220D01*
X6488500Y-5443980D02*
X6508500Y-5463980D01*
X6508500Y-5443980D02*
X6488500Y-5463980D01*
X6498340Y-9444570D02*
X6518340Y-9464570D01*
X6518340Y-9444570D02*
X6498340Y-9464570D01*
X6499520Y-8090090D02*
X6519520Y-8110090D01*
X6519520Y-8090090D02*
X6499520Y-8110090D01*
X6500000Y-6059500D02*
X6520000Y-6079500D01*
X6520000Y-6059500D02*
X6500000Y-6079500D01*
X6515010Y-6929380D02*
X6535010Y-6949380D01*
X6535010Y-6929380D02*
X6515010Y-6949380D01*
X6520390Y-5228780D02*
X6540390Y-5248780D01*
X6540390Y-5228780D02*
X6520390Y-5248780D01*
X6522920Y-8829870D02*
X6542920Y-8849870D01*
X6542920Y-8829870D02*
X6522920Y-8849870D01*
X6525000Y-7622000D02*
X6545000Y-7642000D01*
X6545000Y-7622000D02*
X6525000Y-7642000D01*
X6525000Y-7838000D02*
X6545000Y-7858000D01*
X6545000Y-7838000D02*
X6525000Y-7858000D01*
X6525880Y-7479230D02*
X6545880Y-7499230D01*
X6545880Y-7479230D02*
X6525880Y-7499230D01*
X6529000Y-7386000D02*
X6549000Y-7406000D01*
X6549000Y-7386000D02*
X6529000Y-7406000D01*
X6536050Y-5481020D02*
X6556050Y-5501020D01*
X6556050Y-5481020D02*
X6536050Y-5501020D01*
X6542000Y-9264000D02*
X6562000Y-9284000D01*
X6562000Y-9264000D02*
X6542000Y-9284000D01*
X6543090Y-5037750D02*
X6563090Y-5057750D01*
X6563090Y-5037750D02*
X6543090Y-5057750D01*
X6549920Y-5854700D02*
X6569920Y-5874700D01*
X6569920Y-5854700D02*
X6549920Y-5874700D01*
X6555000Y-5991000D02*
X6575000Y-6011000D01*
X6575000Y-5991000D02*
X6555000Y-6011000D01*
X6558000Y-5102000D02*
X6578000Y-5122000D01*
X6578000Y-5102000D02*
X6558000Y-5122000D01*
X6562000Y-5540000D02*
X6582000Y-5560000D01*
X6582000Y-5540000D02*
X6562000Y-5560000D01*
X6568560Y-8368810D02*
X6588560Y-8388810D01*
X6588560Y-8368810D02*
X6568560Y-8388810D01*
X6573090Y-9199400D02*
X6593090Y-9219400D01*
X6593090Y-9199400D02*
X6573090Y-9219400D01*
X6575210Y-6912870D02*
X6595210Y-6932870D01*
X6595210Y-6912870D02*
X6575210Y-6932870D01*
X6579360Y-7481040D02*
X6599360Y-7501040D01*
X6599360Y-7481040D02*
X6579360Y-7501040D01*
X6581440Y-9042100D02*
X6601440Y-9062100D01*
X6601440Y-9042100D02*
X6581440Y-9062100D01*
X6583250Y-8163950D02*
X6603250Y-8183950D01*
X6603250Y-8163950D02*
X6583250Y-8183950D01*
X6591040Y-6096910D02*
X6611040Y-6116910D01*
X6611040Y-6096910D02*
X6591040Y-6116910D01*
X6595310Y-8586390D02*
X6615310Y-8606390D01*
X6615310Y-8586390D02*
X6595310Y-8606390D01*
X6600050Y-8791400D02*
X6620050Y-8811400D01*
X6620050Y-8791400D02*
X6600050Y-8811400D01*
X6608690Y-6336270D02*
X6628690Y-6356270D01*
X6628690Y-6336270D02*
X6608690Y-6356270D01*
X6611050Y-6553710D02*
X6631050Y-6573710D01*
X6631050Y-6553710D02*
X6611050Y-6573710D01*
X6630930Y-7768210D02*
X6650930Y-7788210D01*
X6650930Y-7768210D02*
X6630930Y-7788210D01*
X6631320Y-7455730D02*
X6651320Y-7475730D01*
X6651320Y-7455730D02*
X6631320Y-7475730D01*
X6638000Y-9040000D02*
X6658000Y-9060000D01*
X6658000Y-9040000D02*
X6638000Y-9060000D01*
X6671850Y-5421580D02*
X6691850Y-5441580D01*
X6691850Y-5421580D02*
X6671850Y-5441580D01*
X6674120Y-7487760D02*
X6694120Y-7507760D01*
X6694120Y-7487760D02*
X6674120Y-7507760D01*
X6694090Y-6299370D02*
X6714090Y-6319370D01*
X6714090Y-6299370D02*
X6694090Y-6319370D01*
X6733970Y-6259690D02*
X6753970Y-6279690D01*
X6753970Y-6259690D02*
X6733970Y-6279690D01*
X6738500Y-8552000D02*
X6758500Y-8572000D01*
X6758500Y-8552000D02*
X6738500Y-8572000D01*
X6744840Y-6769420D02*
X6764840Y-6789420D01*
X6764840Y-6769420D02*
X6744840Y-6789420D01*
X6757290Y-7039920D02*
X6777290Y-7059920D01*
X6777290Y-7039920D02*
X6757290Y-7059920D01*
X6758940Y-7166830D02*
X6778940Y-7186830D01*
X6778940Y-7166830D02*
X6758940Y-7186830D01*
X6760410Y-5886940D02*
X6780410Y-5906940D01*
X6780410Y-5886940D02*
X6760410Y-5906940D01*
X6767500Y-9387500D02*
X6787500Y-9407500D01*
X6787500Y-9387500D02*
X6767500Y-9407500D01*
X6772000Y-5227000D02*
X6792000Y-5247000D01*
X6792000Y-5227000D02*
X6772000Y-5247000D01*
X6794860Y-8073030D02*
X6814860Y-8093030D01*
X6814860Y-8073030D02*
X6794860Y-8093030D01*
X6798500Y-8797000D02*
X6818500Y-8817000D01*
X6818500Y-8797000D02*
X6798500Y-8817000D01*
X6799030Y-8148860D02*
X6819030Y-8168860D01*
X6819030Y-8148860D02*
X6799030Y-8168860D01*
X6804000Y-5680000D02*
X6824000Y-5700000D01*
X6824000Y-5680000D02*
X6804000Y-5700000D01*
X6809020Y-6859510D02*
X6829020Y-6879510D01*
X6829020Y-6859510D02*
X6809020Y-6879510D01*
X6819670Y-7942590D02*
X6839670Y-7962590D01*
X6839670Y-7942590D02*
X6819670Y-7962590D01*
X6819910Y-7892240D02*
X6839910Y-7912240D01*
X6839910Y-7892240D02*
X6819910Y-7912240D01*
X6826000Y-7437000D02*
X6846000Y-7457000D01*
X6846000Y-7437000D02*
X6826000Y-7457000D01*
X6828550Y-6806040D02*
X6848550Y-6826040D01*
X6848550Y-6806040D02*
X6828550Y-6826040D01*
X6829000Y-7777000D02*
X6849000Y-7797000D01*
X6849000Y-7777000D02*
X6829000Y-7797000D01*
X6841750Y-9291650D02*
X6861750Y-9311650D01*
X6861750Y-9291650D02*
X6841750Y-9311650D01*
X6849230Y-8397010D02*
X6869230Y-8417010D01*
X6869230Y-8397010D02*
X6849230Y-8417010D01*
X6856620Y-5655730D02*
X6876620Y-5675730D01*
X6876620Y-5655730D02*
X6856620Y-5675730D01*
X6865570Y-7514980D02*
X6885570Y-7534980D01*
X6885570Y-7514980D02*
X6865570Y-7534980D01*
X6868210Y-5451670D02*
X6888210Y-5471670D01*
X6888210Y-5451670D02*
X6868210Y-5471670D01*
X6868660Y-9338270D02*
X6888660Y-9358270D01*
X6888660Y-9338270D02*
X6868660Y-9358270D01*
X6883240Y-7031050D02*
X6903240Y-7051050D01*
X6903240Y-7031050D02*
X6883240Y-7051050D01*
X6896250Y-7675000D02*
X6916250Y-7695000D01*
X6916250Y-7675000D02*
X6896250Y-7695000D01*
X6896800Y-5242450D02*
X6916800Y-5262450D01*
X6916800Y-5242450D02*
X6896800Y-5262450D01*
X6905390Y-6320960D02*
X6925390Y-6340960D01*
X6925390Y-6320960D02*
X6905390Y-6340960D01*
X6911100Y-7479260D02*
X6931100Y-7499260D01*
X6931100Y-7479260D02*
X6911100Y-7499260D01*
X6912940Y-8556680D02*
X6932940Y-8576680D01*
X6932940Y-8556680D02*
X6912940Y-8576680D01*
X6913590Y-9007170D02*
X6933590Y-9027170D01*
X6933590Y-9007170D02*
X6913590Y-9027170D01*
X6916150Y-7878670D02*
X6936150Y-7898670D01*
X6936150Y-7878670D02*
X6916150Y-7898670D01*
X6920760Y-7423480D02*
X6940760Y-7443480D01*
X6940760Y-7423480D02*
X6920760Y-7443480D01*
X6932500Y-8802000D02*
X6952500Y-8822000D01*
X6952500Y-8802000D02*
X6932500Y-8822000D01*
X6935710Y-8308070D02*
X6955710Y-8328070D01*
X6955710Y-8308070D02*
X6935710Y-8328070D01*
X6935900Y-5831990D02*
X6955900Y-5851990D01*
X6955900Y-5831990D02*
X6935900Y-5851990D01*
X6936790Y-5587590D02*
X6956790Y-5607590D01*
X6956790Y-5587590D02*
X6936790Y-5607590D01*
X6941000Y-6767000D02*
X6961000Y-6787000D01*
X6961000Y-6767000D02*
X6941000Y-6787000D01*
X6943000Y-6085000D02*
X6963000Y-6105000D01*
X6963000Y-6085000D02*
X6943000Y-6105000D01*
X6957020Y-6509330D02*
X6977020Y-6529330D01*
X6977020Y-6509330D02*
X6957020Y-6529330D01*
X6959910Y-7835010D02*
X6979910Y-7855010D01*
X6979910Y-7835010D02*
X6959910Y-7855010D01*
X6966000Y-5178000D02*
X6986000Y-5198000D01*
X6986000Y-5178000D02*
X6966000Y-5198000D01*
X6982000Y-7171000D02*
X7002000Y-7191000D01*
X7002000Y-7171000D02*
X6982000Y-7191000D01*
X6986000Y-8349500D02*
X7006000Y-8369500D01*
X7006000Y-8349500D02*
X6986000Y-8369500D01*
X6996500Y-8802000D02*
X7016500Y-8822000D01*
X7016500Y-8802000D02*
X6996500Y-8822000D01*
X7000230Y-6683980D02*
X7020230Y-6703980D01*
X7020230Y-6683980D02*
X7000230Y-6703980D01*
X7007800Y-8153160D02*
X7027800Y-8173160D01*
X7027800Y-8153160D02*
X7007800Y-8173160D01*
X7011000Y-5630160D02*
X7031000Y-5650160D01*
X7031000Y-5630160D02*
X7011000Y-5650160D01*
X7014870Y-7857340D02*
X7034870Y-7877340D01*
X7034870Y-7857340D02*
X7014870Y-7877340D01*
X7015000Y-9394320D02*
X7035000Y-9414320D01*
X7035000Y-9394320D02*
X7015000Y-9414320D01*
X7017530Y-6799380D02*
X7037530Y-6819380D01*
X7037530Y-6799380D02*
X7017530Y-6819380D01*
X7020000Y-7949000D02*
X7040000Y-7969000D01*
X7040000Y-7949000D02*
X7020000Y-7969000D01*
X7021990Y-6949660D02*
X7041990Y-6969660D01*
X7041990Y-6949660D02*
X7021990Y-6969660D01*
X7025040Y-8958760D02*
X7045040Y-8978760D01*
X7045040Y-8958760D02*
X7025040Y-8978760D01*
X7025190Y-6467600D02*
X7045190Y-6487600D01*
X7045190Y-6467600D02*
X7025190Y-6487600D01*
X7028170Y-5112450D02*
X7048170Y-5132450D01*
X7048170Y-5112450D02*
X7028170Y-5132450D01*
X7032850Y-7208490D02*
X7052850Y-7228490D01*
X7052850Y-7208490D02*
X7032850Y-7228490D01*
X7033050Y-7583460D02*
X7053050Y-7603460D01*
X7053050Y-7583460D02*
X7033050Y-7603460D01*
X7034230Y-7710740D02*
X7054230Y-7730740D01*
X7054230Y-7710740D02*
X7034230Y-7730740D01*
X7035440Y-7444560D02*
X7055440Y-7464560D01*
X7055440Y-7444560D02*
X7035440Y-7464560D01*
X7035920Y-6323220D02*
X7055920Y-6343220D01*
X7055920Y-6323220D02*
X7035920Y-6343220D01*
X7040000Y-9040000D02*
X7060000Y-9060000D01*
X7060000Y-9040000D02*
X7040000Y-9060000D01*
X7041780Y-5294070D02*
X7061780Y-5314070D01*
X7061780Y-5294070D02*
X7041780Y-5314070D01*
X7048170Y-5064290D02*
X7068170Y-5084290D01*
X7068170Y-5064290D02*
X7048170Y-5084290D01*
X7050000Y-5463000D02*
X7070000Y-5483000D01*
X7070000Y-5463000D02*
X7050000Y-5483000D01*
X7055000Y-5237500D02*
X7075000Y-5257500D01*
X7075000Y-5237500D02*
X7055000Y-5257500D01*
X7057000Y-8160170D02*
X7077000Y-8180170D01*
X7077000Y-8160170D02*
X7057000Y-8180170D01*
X7060120Y-6774110D02*
X7080120Y-6794110D01*
X7080120Y-6774110D02*
X7060120Y-6794110D01*
X7077470Y-8630660D02*
X7097470Y-8650660D01*
X7097470Y-8630660D02*
X7077470Y-8650660D01*
X7080000Y-7010600D02*
X7100000Y-7030600D01*
X7100000Y-7010600D02*
X7080000Y-7030600D01*
X7090000Y-9040000D02*
X7110000Y-9060000D01*
X7110000Y-9040000D02*
X7090000Y-9060000D01*
X7093210Y-6105960D02*
X7113210Y-6125960D01*
X7113210Y-6105960D02*
X7093210Y-6125960D01*
X7106350Y-5915120D02*
X7126350Y-5935120D01*
X7126350Y-5915120D02*
X7106350Y-5935120D01*
X7107500Y-9254910D02*
X7127500Y-9274910D01*
X7127500Y-9254910D02*
X7107500Y-9274910D01*
X7108420Y-8363770D02*
X7128420Y-8383770D01*
X7128420Y-8363770D02*
X7108420Y-8383770D01*
X7118420Y-8807010D02*
X7138420Y-8827010D01*
X7138420Y-8807010D02*
X7118420Y-8827010D01*
X7155500Y-6750000D02*
X7175500Y-6770000D01*
X7175500Y-6750000D02*
X7155500Y-6770000D01*
X7161790Y-8755120D02*
X7181790Y-8775120D01*
X7181790Y-8755120D02*
X7161790Y-8775120D01*
X7184670Y-8365780D02*
X7204670Y-8385780D01*
X7204670Y-8365780D02*
X7184670Y-8385780D01*
X7188000Y-7171000D02*
X7208000Y-7191000D01*
X7208000Y-7171000D02*
X7188000Y-7191000D01*
X7190000Y-8967000D02*
X7210000Y-8987000D01*
X7210000Y-8967000D02*
X7190000Y-8987000D01*
X7190000Y-9050000D02*
X7210000Y-9070000D01*
X7210000Y-9050000D02*
X7190000Y-9070000D01*
X7192680Y-5914350D02*
X7212680Y-5934350D01*
X7212680Y-5914350D02*
X7192680Y-5934350D01*
X7199310Y-7910130D02*
X7219310Y-7930130D01*
X7219310Y-7910130D02*
X7199310Y-7930130D01*
X7200400Y-8811500D02*
X7220400Y-8831500D01*
X7220400Y-8811500D02*
X7200400Y-8831500D01*
X7204470Y-8569510D02*
X7224470Y-8589510D01*
X7224470Y-8569510D02*
X7204470Y-8589510D01*
X7214000Y-6522000D02*
X7234000Y-6542000D01*
X7234000Y-6522000D02*
X7214000Y-6542000D01*
X7219170Y-8521660D02*
X7239170Y-8541660D01*
X7239170Y-8521660D02*
X7219170Y-8541660D01*
X7226230Y-7240910D02*
X7246230Y-7260910D01*
X7246230Y-7240910D02*
X7226230Y-7260910D01*
X7232500Y-5850710D02*
X7252500Y-5870710D01*
X7252500Y-5850710D02*
X7232500Y-5870710D01*
X7240000Y-7590000D02*
X7260000Y-7610000D01*
X7260000Y-7590000D02*
X7240000Y-7610000D01*
X7248550Y-5360420D02*
X7268550Y-5380420D01*
X7268550Y-5360420D02*
X7248550Y-5380420D01*
X7249000Y-5642000D02*
X7269000Y-5662000D01*
X7269000Y-5642000D02*
X7249000Y-5662000D01*
X7252120Y-5983580D02*
X7272120Y-6003580D01*
X7272120Y-5983580D02*
X7252120Y-6003580D01*
X7260000Y-8149570D02*
X7280000Y-8169570D01*
X7280000Y-8149570D02*
X7260000Y-8169570D01*
X7263380Y-8006960D02*
X7283380Y-8026960D01*
X7283380Y-8006960D02*
X7263380Y-8026960D01*
X7268090Y-5771970D02*
X7288090Y-5791970D01*
X7288090Y-5771970D02*
X7268090Y-5791970D01*
X7271000Y-8357000D02*
X7291000Y-8377000D01*
X7291000Y-8357000D02*
X7271000Y-8377000D01*
X7274010Y-6217590D02*
X7294010Y-6237590D01*
X7294010Y-6217590D02*
X7274010Y-6237590D01*
X7275680Y-9365530D02*
X7295680Y-9385530D01*
X7295680Y-9365530D02*
X7275680Y-9385530D01*
X7276360Y-7211190D02*
X7296360Y-7231190D01*
X7296360Y-7211190D02*
X7276360Y-7231190D01*
X7278280Y-8219800D02*
X7298280Y-8239800D01*
X7298280Y-8219800D02*
X7278280Y-8239800D01*
X7283000Y-7949000D02*
X7303000Y-7969000D01*
X7303000Y-7949000D02*
X7283000Y-7969000D01*
X7316030Y-5467900D02*
X7336030Y-5487900D01*
X7336030Y-5467900D02*
X7316030Y-5487900D01*
X7334720Y-5887920D02*
X7354720Y-5907920D01*
X7354720Y-5887920D02*
X7334720Y-5907920D01*
X7359670Y-6998330D02*
X7379670Y-7018330D01*
X7379670Y-6998330D02*
X7359670Y-7018330D01*
X7367280Y-7237900D02*
X7387280Y-7257900D01*
X7387280Y-7237900D02*
X7367280Y-7257900D01*
X7386500Y-6750000D02*
X7406500Y-6770000D01*
X7406500Y-6750000D02*
X7386500Y-6770000D01*
X7388650Y-9431210D02*
X7408650Y-9451210D01*
X7408650Y-9431210D02*
X7388650Y-9451210D01*
X7417000Y-6336000D02*
X7437000Y-6356000D01*
X7437000Y-6336000D02*
X7417000Y-6356000D01*
X7420000Y-7180790D02*
X7440000Y-7200790D01*
X7440000Y-7180790D02*
X7420000Y-7200790D01*
X7425130Y-8367660D02*
X7445130Y-8387660D01*
X7445130Y-8367660D02*
X7425130Y-8387660D01*
X7428070Y-9272170D02*
X7448070Y-9292170D01*
X7448070Y-9272170D02*
X7428070Y-9292170D01*
X7440100Y-6729650D02*
X7460100Y-6749650D01*
X7460100Y-6729650D02*
X7440100Y-6749650D01*
X7441210Y-7471250D02*
X7461210Y-7491250D01*
X7461210Y-7471250D02*
X7441210Y-7491250D01*
X7443180Y-7738070D02*
X7463180Y-7758070D01*
X7463180Y-7738070D02*
X7443180Y-7758070D01*
X7445700Y-7601030D02*
X7465700Y-7621030D01*
X7465700Y-7601030D02*
X7445700Y-7621030D01*
X7450340Y-7367930D02*
X7470340Y-7387930D01*
X7470340Y-7367930D02*
X7450340Y-7387930D01*
X7455060Y-7305050D02*
X7475060Y-7325050D01*
X7475060Y-7305050D02*
X7455060Y-7325050D01*
X7456760Y-7817310D02*
X7476760Y-7837310D01*
X7476760Y-7817310D02*
X7456760Y-7837310D01*
X7458620Y-5373520D02*
X7478620Y-5393520D01*
X7478620Y-5373520D02*
X7458620Y-5393520D01*
X7459840Y-8740070D02*
X7479840Y-8760070D01*
X7479840Y-8740070D02*
X7459840Y-8760070D01*
X7460000Y-7004040D02*
X7480000Y-7024040D01*
X7480000Y-7004040D02*
X7460000Y-7024040D01*
X7460000Y-8155000D02*
X7480000Y-8175000D01*
X7480000Y-8155000D02*
X7460000Y-8175000D01*
X7462000Y-6913140D02*
X7482000Y-6933140D01*
X7482000Y-6913140D02*
X7462000Y-6933140D01*
X7464870Y-9027630D02*
X7484870Y-9047630D01*
X7484870Y-9027630D02*
X7464870Y-9047630D01*
X7468850Y-7181480D02*
X7488850Y-7201480D01*
X7488850Y-7181480D02*
X7468850Y-7201480D01*
X7469840Y-7660990D02*
X7489840Y-7680990D01*
X7489840Y-7660990D02*
X7469840Y-7680990D01*
X7477470Y-5202530D02*
X7497470Y-5222530D01*
X7497470Y-5202530D02*
X7477470Y-5222530D01*
X7483930Y-6086430D02*
X7503930Y-6106430D01*
X7503930Y-6086430D02*
X7483930Y-6106430D01*
X7486290Y-5554920D02*
X7506290Y-5574920D01*
X7506290Y-5554920D02*
X7486290Y-5574920D01*
X7486840Y-9118210D02*
X7506840Y-9138210D01*
X7506840Y-9118210D02*
X7486840Y-9138210D01*
X7494440Y-7873430D02*
X7514440Y-7893430D01*
X7514440Y-7873430D02*
X7494440Y-7893430D01*
X7494620Y-6750210D02*
X7514620Y-6770210D01*
X7514620Y-6750210D02*
X7494620Y-6770210D01*
X7500000Y-6830350D02*
X7520000Y-6850350D01*
X7520000Y-6830350D02*
X7500000Y-6850350D01*
X7500000Y-7949000D02*
X7520000Y-7969000D01*
X7520000Y-7949000D02*
X7500000Y-7969000D01*
X7537380Y-6581730D02*
X7557380Y-6601730D01*
X7557380Y-6581730D02*
X7537380Y-6601730D01*
X7541340Y-5905380D02*
X7561340Y-5925380D01*
X7561340Y-5905380D02*
X7541340Y-5925380D01*
X7567270Y-7016190D02*
X7587270Y-7036190D01*
X7587270Y-7016190D02*
X7567270Y-7036190D01*
X7576430Y-7218000D02*
X7596430Y-7238000D01*
X7596430Y-7218000D02*
X7576430Y-7238000D01*
X7646350Y-7835000D02*
X7666350Y-7855000D01*
X7666350Y-7835000D02*
X7646350Y-7855000D01*
X7649000Y-7606000D02*
X7669000Y-7626000D01*
X7669000Y-7606000D02*
X7649000Y-7626000D01*
X7649000Y-7921000D02*
X7669000Y-7941000D01*
X7669000Y-7921000D02*
X7649000Y-7941000D01*
X7656240Y-6237660D02*
X7676240Y-6257660D01*
X7676240Y-6237660D02*
X7656240Y-6257660D01*
X7663000Y-8281000D02*
X7683000Y-8301000D01*
X7683000Y-8281000D02*
X7663000Y-8301000D01*
X7666450Y-5329340D02*
X7686450Y-5349340D01*
X7686450Y-5329340D02*
X7666450Y-5349340D01*
X7667000Y-7212000D02*
X7687000Y-7232000D01*
X7687000Y-7212000D02*
X7667000Y-7232000D01*
X7669480Y-5385800D02*
X7689480Y-5405800D01*
X7689480Y-5385800D02*
X7669480Y-5405800D01*
X7677340Y-7116100D02*
X7697340Y-7136100D01*
X7697340Y-7116100D02*
X7677340Y-7136100D01*
X7679000Y-5150000D02*
X7699000Y-5170000D01*
X7699000Y-5150000D02*
X7679000Y-5170000D01*
X7680180Y-8374820D02*
X7700180Y-8394820D01*
X7700180Y-8374820D02*
X7680180Y-8394820D01*
X7681650Y-5090400D02*
X7701650Y-5110400D01*
X7701650Y-5090400D02*
X7681650Y-5110400D01*
X7683660Y-6039140D02*
X7703660Y-6059140D01*
X7703660Y-6039140D02*
X7683660Y-6059140D01*
X7684600Y-5803820D02*
X7704600Y-5823820D01*
X7704600Y-5803820D02*
X7684600Y-5823820D01*
X7695000Y-8160000D02*
X7715000Y-8180000D01*
X7715000Y-8160000D02*
X7695000Y-8180000D01*
X7713860Y-7075240D02*
X7733860Y-7095240D01*
X7733860Y-7075240D02*
X7713860Y-7095240D01*
X7738000Y-8388000D02*
X7758000Y-8408000D01*
X7758000Y-8388000D02*
X7738000Y-8408000D01*
X7741970Y-9346110D02*
X7761970Y-9366110D01*
X7761970Y-9346110D02*
X7741970Y-9366110D01*
X7745000Y-5507000D02*
X7765000Y-5527000D01*
X7765000Y-5507000D02*
X7745000Y-5527000D01*
X7745000Y-5967500D02*
X7765000Y-5987500D01*
X7765000Y-5967500D02*
X7745000Y-5987500D01*
X7770470Y-6591100D02*
X7790470Y-6611100D01*
X7790470Y-6591100D02*
X7770470Y-6611100D01*
X7777410Y-9313980D02*
X7797410Y-9333980D01*
X7797410Y-9313980D02*
X7777410Y-9333980D01*
X7803090Y-7488340D02*
X7823090Y-7508340D01*
X7823090Y-7488340D02*
X7803090Y-7508340D01*
X7813360Y-6783100D02*
X7833360Y-6803100D01*
X7833360Y-6783100D02*
X7813360Y-6803100D01*
X7813360Y-6996120D02*
X7833360Y-7016120D01*
X7833360Y-6996120D02*
X7813360Y-7016120D01*
X7815490Y-7250000D02*
X7835490Y-7270000D01*
X7835490Y-7250000D02*
X7815490Y-7270000D01*
X7834690Y-7410000D02*
X7854690Y-7430000D01*
X7854690Y-7410000D02*
X7834690Y-7430000D01*
X7836910Y-8739160D02*
X7856910Y-8759160D01*
X7856910Y-8739160D02*
X7836910Y-8759160D01*
X7837110Y-6273110D02*
X7857110Y-6293110D01*
X7857110Y-6273110D02*
X7837110Y-6293110D01*
X7843890Y-8539380D02*
X7863890Y-8559380D01*
X7863890Y-8539380D02*
X7843890Y-8559380D01*
X7861000Y-9221000D02*
X7881000Y-9241000D01*
X7881000Y-9221000D02*
X7861000Y-9241000D01*
X7863700Y-5366380D02*
X7883700Y-5386380D01*
X7883700Y-5366380D02*
X7863700Y-5386380D01*
X7868000Y-6086000D02*
X7888000Y-6106000D01*
X7888000Y-6086000D02*
X7868000Y-6106000D01*
X7871980Y-9452910D02*
X7891980Y-9472910D01*
X7891980Y-9452910D02*
X7871980Y-9472910D01*
X7878130Y-7365590D02*
X7898130Y-7385590D01*
X7898130Y-7365590D02*
X7878130Y-7385590D01*
X7879300Y-6709210D02*
X7899300Y-6729210D01*
X7899300Y-6709210D02*
X7879300Y-6729210D01*
X7880900Y-8056510D02*
X7900900Y-8076510D01*
X7900900Y-8056510D02*
X7880900Y-8076510D01*
X7888060Y-8501340D02*
X7908060Y-8521340D01*
X7908060Y-8501340D02*
X7888060Y-8521340D01*
X7889280Y-7193040D02*
X7909280Y-7213040D01*
X7909280Y-7193040D02*
X7889280Y-7213040D01*
X7889530Y-7250060D02*
X7909530Y-7270060D01*
X7909530Y-7250060D02*
X7889530Y-7270060D01*
X7892090Y-8729630D02*
X7912090Y-8749630D01*
X7912090Y-8729630D02*
X7892090Y-8749630D01*
X7892850Y-8142170D02*
X7912850Y-8162170D01*
X7912850Y-8142170D02*
X7892850Y-8162170D01*
X7894000Y-5662000D02*
X7914000Y-5682000D01*
X7914000Y-5662000D02*
X7894000Y-5682000D01*
X7898750Y-6289700D02*
X7918750Y-6309700D01*
X7918750Y-6289700D02*
X7898750Y-6309700D01*
X7906000Y-7921000D02*
X7926000Y-7941000D01*
X7926000Y-7921000D02*
X7906000Y-7941000D01*
X7908710Y-6936830D02*
X7928710Y-6956830D01*
X7928710Y-6936830D02*
X7908710Y-6956830D01*
X7909280Y-7719880D02*
X7929280Y-7739880D01*
X7929280Y-7719880D02*
X7909280Y-7739880D01*
X7916000Y-7053500D02*
X7936000Y-7073500D01*
X7936000Y-7053500D02*
X7916000Y-7073500D01*
X7916000Y-7637000D02*
X7936000Y-7657000D01*
X7936000Y-7637000D02*
X7916000Y-7657000D01*
X7917000Y-5236000D02*
X7937000Y-5256000D01*
X7937000Y-5236000D02*
X7917000Y-5256000D01*
X7918950Y-5021970D02*
X7938950Y-5041970D01*
X7938950Y-5021970D02*
X7918950Y-5041970D01*
X7923310Y-8963980D02*
X7943310Y-8983980D01*
X7943310Y-8963980D02*
X7923310Y-8983980D01*
X7924440Y-8293040D02*
X7944440Y-8313040D01*
X7944440Y-8293040D02*
X7924440Y-8313040D01*
X7924560Y-6503290D02*
X7944560Y-6523290D01*
X7944560Y-6503290D02*
X7924560Y-6523290D01*
X7926480Y-7281130D02*
X7946480Y-7301130D01*
X7946480Y-7281130D02*
X7926480Y-7301130D01*
X7957000Y-9262000D02*
X7977000Y-9282000D01*
X7977000Y-9262000D02*
X7957000Y-9282000D01*
X8001830Y-5206310D02*
X8021830Y-5226310D01*
X8021830Y-5206310D02*
X8001830Y-5226310D01*
X8005780Y-5656880D02*
X8025780Y-5676880D01*
X8025780Y-5656880D02*
X8005780Y-5676880D01*
X8006940Y-6104770D02*
X8026940Y-6124770D01*
X8026940Y-6104770D02*
X8006940Y-6124770D01*
X8007780Y-7462280D02*
X8027780Y-7482280D01*
X8027780Y-7462280D02*
X8007780Y-7482280D01*
X8021020Y-7905910D02*
X8041020Y-7925910D01*
X8041020Y-7905910D02*
X8021020Y-7925910D01*
X8049370Y-8995840D02*
X8069370Y-9015840D01*
X8069370Y-8995840D02*
X8049370Y-9015840D01*
X8061790Y-6060710D02*
X8081790Y-6080710D01*
X8081790Y-6060710D02*
X8061790Y-6080710D01*
X8064030Y-8061790D02*
X8084030Y-8081790D01*
X8084030Y-8061790D02*
X8064030Y-8081790D01*
X8086630Y-7646830D02*
X8106630Y-7666830D01*
X8106630Y-7646830D02*
X8086630Y-7666830D01*
X8087000Y-6771000D02*
X8107000Y-6791000D01*
X8107000Y-6771000D02*
X8087000Y-6791000D01*
X8094590Y-6930390D02*
X8114590Y-6950390D01*
X8114590Y-6930390D02*
X8094590Y-6950390D01*
X8098640Y-7387900D02*
X8118640Y-7407900D01*
X8118640Y-7387900D02*
X8098640Y-7407900D01*
X8114550Y-8859050D02*
X8134550Y-8879050D01*
X8134550Y-8859050D02*
X8114550Y-8879050D01*
X8121880Y-7740930D02*
X8141880Y-7760930D01*
X8141880Y-7740930D02*
X8121880Y-7760930D01*
X8123590Y-5045180D02*
X8143590Y-5065180D01*
X8143590Y-5045180D02*
X8123590Y-5065180D01*
X8124310Y-8507420D02*
X8144310Y-8527420D01*
X8144310Y-8507420D02*
X8124310Y-8527420D01*
X8124390Y-8243890D02*
X8144390Y-8263890D01*
X8144390Y-8243890D02*
X8124390Y-8263890D01*
X8129530Y-5367060D02*
X8149530Y-5387060D01*
X8149530Y-5367060D02*
X8129530Y-5387060D01*
X8130710Y-8727390D02*
X8150710Y-8747390D01*
X8150710Y-8727390D02*
X8130710Y-8747390D01*
X8131090Y-7512450D02*
X8151090Y-7532450D01*
X8151090Y-7512450D02*
X8131090Y-7532450D01*
X8139220Y-6483660D02*
X8159220Y-6503660D01*
X8159220Y-6483660D02*
X8139220Y-6503660D01*
X8145040Y-9425550D02*
X8165040Y-9445550D01*
X8165040Y-9425550D02*
X8145040Y-9445550D01*
X8148340Y-5869560D02*
X8168340Y-5889560D01*
X8168340Y-5869560D02*
X8148340Y-5889560D01*
X8156230Y-5536600D02*
X8176230Y-5556600D01*
X8176230Y-5536600D02*
X8156230Y-5556600D01*
X8161350Y-5166830D02*
X8181350Y-5186830D01*
X8181350Y-5166830D02*
X8161350Y-5186830D01*
X8164580Y-5776650D02*
X8184580Y-5796650D01*
X8184580Y-5776650D02*
X8164580Y-5796650D01*
X8180300Y-5972890D02*
X8200300Y-5992890D01*
X8200300Y-5972890D02*
X8180300Y-5992890D01*
X8188370Y-7450540D02*
X8208370Y-7470540D01*
X8208370Y-7450540D02*
X8188370Y-7470540D01*
X8209230Y-7037790D02*
X8229230Y-7057790D01*
X8229230Y-7037790D02*
X8209230Y-7057790D01*
X8219130Y-5289090D02*
X8239130Y-5309090D01*
X8239130Y-5289090D02*
X8219130Y-5309090D01*
X8219270Y-7682930D02*
X8239270Y-7702930D01*
X8239270Y-7682930D02*
X8219270Y-7702930D01*
X8283970Y-7861190D02*
X8303970Y-7881190D01*
X8303970Y-7861190D02*
X8283970Y-7881190D01*
X8291000Y-8533000D02*
X8311000Y-8553000D01*
X8311000Y-8533000D02*
X8291000Y-8553000D01*
X8297000Y-6775000D02*
X8317000Y-6795000D01*
X8317000Y-6775000D02*
X8297000Y-6795000D01*
X8297000Y-7213000D02*
X8317000Y-7233000D01*
X8317000Y-7213000D02*
X8297000Y-7233000D01*
X8299000Y-6343000D02*
X8319000Y-6363000D01*
X8319000Y-6343000D02*
X8299000Y-6363000D01*
X8302600Y-8354080D02*
X8322600Y-8374080D01*
X8322600Y-8354080D02*
X8302600Y-8374080D01*
X8326100Y-6245200D02*
X8346100Y-6265200D01*
X8346100Y-6245200D02*
X8326100Y-6265200D01*
X8327570Y-5792950D02*
X8347570Y-5812950D01*
X8347570Y-5792950D02*
X8327570Y-5812950D01*
X8350640Y-7912370D02*
X8370640Y-7932370D01*
X8370640Y-7912370D02*
X8350640Y-7932370D01*
X8354070Y-9050930D02*
X8374070Y-9070930D01*
X8374070Y-9050930D02*
X8354070Y-9070930D01*
X8354390Y-8942500D02*
X8374390Y-8962500D01*
X8374390Y-8942500D02*
X8354390Y-8962500D01*
X8355610Y-6193210D02*
X8375610Y-6213210D01*
X8375610Y-6193210D02*
X8355610Y-6213210D01*
X8356160Y-8788840D02*
X8376160Y-8808840D01*
X8376160Y-8788840D02*
X8356160Y-8808840D01*
X8359000Y-8305000D02*
X8379000Y-8325000D01*
X8379000Y-8305000D02*
X8359000Y-8325000D01*
X8360830Y-8707420D02*
X8380830Y-8727420D01*
X8380830Y-8707420D02*
X8360830Y-8727420D01*
X8362950Y-7611190D02*
X8382950Y-7631190D01*
X8382950Y-7611190D02*
X8362950Y-7631190D01*
X8368160Y-7400470D02*
X8388160Y-7420470D01*
X8388160Y-7400470D02*
X8368160Y-7420470D01*
X8370130Y-8856650D02*
X8390130Y-8876650D01*
X8390130Y-8856650D02*
X8370130Y-8876650D01*
X8371060Y-8997240D02*
X8391060Y-9017240D01*
X8391060Y-8997240D02*
X8371060Y-9017240D01*
X8373510Y-6271850D02*
X8393510Y-6291850D01*
X8393510Y-6271850D02*
X8373510Y-6291850D01*
X8374160Y-5118620D02*
X8394160Y-5138620D01*
X8394160Y-5118620D02*
X8374160Y-5138620D01*
X8375780Y-7993210D02*
X8395780Y-8013210D01*
X8395780Y-7993210D02*
X8375780Y-8013210D01*
X8379560Y-6508390D02*
X8399560Y-6528390D01*
X8399560Y-6508390D02*
X8379560Y-6528390D01*
X8383070Y-7543210D02*
X8403070Y-7563210D01*
X8403070Y-7543210D02*
X8383070Y-7563210D01*
X8385770Y-6605960D02*
X8405770Y-6625960D01*
X8405770Y-6605960D02*
X8385770Y-6625960D01*
X8386060Y-5615470D02*
X8406060Y-5635470D01*
X8406060Y-5615470D02*
X8386060Y-5635470D01*
X8389080Y-7030300D02*
X8409080Y-7050300D01*
X8409080Y-7030300D02*
X8389080Y-7050300D01*
X8391290Y-6970040D02*
X8411290Y-6990040D01*
X8411290Y-6970040D02*
X8391290Y-6990040D01*
X8391750Y-6804250D02*
X8411750Y-6824250D01*
X8411750Y-6804250D02*
X8391750Y-6824250D01*
X8392500Y-7230000D02*
X8412500Y-7250000D01*
X8412500Y-7230000D02*
X8392500Y-7250000D01*
X8394000Y-6370000D02*
X8414000Y-6390000D01*
X8414000Y-6370000D02*
X8394000Y-6390000D01*
X8400850Y-9229150D02*
X8420850Y-9249150D01*
X8420850Y-9229150D02*
X8400850Y-9249150D01*
X8416000Y-8587000D02*
X8436000Y-8607000D01*
X8436000Y-8587000D02*
X8416000Y-8607000D01*
X8417750Y-7446190D02*
X8437750Y-7466190D01*
X8437750Y-7446190D02*
X8417750Y-7466190D01*
X8433800Y-6105310D02*
X8453800Y-6125310D01*
X8453800Y-6105310D02*
X8433800Y-6125310D01*
X8529520Y-8598910D02*
X8549520Y-8618910D01*
X8549520Y-8598910D02*
X8529520Y-8618910D01*
X8530480Y-8093820D02*
X8550480Y-8113820D01*
X8550480Y-8093820D02*
X8530480Y-8113820D01*
X8539520Y-8348480D02*
X8559520Y-8368480D01*
X8559520Y-8348480D02*
X8539520Y-8368480D01*
X8547250Y-6804250D02*
X8567250Y-6824250D01*
X8567250Y-6804250D02*
X8547250Y-6824250D01*
X8551010Y-6243060D02*
X8571010Y-6263060D01*
X8571010Y-6243060D02*
X8551010Y-6263060D01*
X8564300Y-6905470D02*
X8584300Y-6925470D01*
X8584300Y-6905470D02*
X8564300Y-6925470D01*
X8566040Y-8514580D02*
X8586040Y-8534580D01*
X8586040Y-8514580D02*
X8566040Y-8534580D01*
X8568200Y-7649050D02*
X8588200Y-7669050D01*
X8588200Y-7649050D02*
X8568200Y-7669050D01*
X8579790Y-7179520D02*
X8599790Y-7199520D01*
X8599790Y-7179520D02*
X8579790Y-7199520D01*
X8583050Y-7043550D02*
X8603050Y-7063550D01*
X8603050Y-7043550D02*
X8583050Y-7063550D01*
X8590600Y-5690560D02*
X8610600Y-5710560D01*
X8610600Y-5690560D02*
X8590600Y-5710560D01*
X8594070Y-6267760D02*
X8614070Y-6287760D01*
X8614070Y-6267760D02*
X8594070Y-6287760D01*
X8598590Y-9457690D02*
X8618590Y-9477690D01*
X8618590Y-9457690D02*
X8598590Y-9477690D01*
X8599380Y-5361760D02*
X8619380Y-5381760D01*
X8619380Y-5361760D02*
X8599380Y-5381760D01*
X8607560Y-8386170D02*
X8627560Y-8406170D01*
X8627560Y-8386170D02*
X8607560Y-8406170D01*
X8610470Y-9227930D02*
X8630470Y-9247930D01*
X8630470Y-9227930D02*
X8610470Y-9247930D01*
X8612130Y-8766740D02*
X8632130Y-8786740D01*
X8632130Y-8766740D02*
X8612130Y-8786740D01*
X8615240Y-6518300D02*
X8635240Y-6538300D01*
X8635240Y-6518300D02*
X8615240Y-6538300D01*
X8623740Y-7535210D02*
X8643740Y-7555210D01*
X8643740Y-7535210D02*
X8623740Y-7555210D01*
X8628840Y-5858780D02*
X8648840Y-5878780D01*
X8648840Y-5858780D02*
X8628840Y-5878780D01*
X8641330Y-9125470D02*
X8661330Y-9145470D01*
X8661330Y-9125470D02*
X8641330Y-9145470D01*
X8665110Y-7973200D02*
X8685110Y-7993200D01*
X8685110Y-7973200D02*
X8665110Y-7993200D01*
X8668210Y-7468710D02*
X8688210Y-7488710D01*
X8688210Y-7468710D02*
X8668210Y-7488710D01*
X8668280Y-5068210D02*
X8688280Y-5088210D01*
X8688280Y-5068210D02*
X8668280Y-5088210D01*
X8670000Y-8409000D02*
X8690000Y-8429000D01*
X8690000Y-8409000D02*
X8670000Y-8429000D01*
X8673210Y-6572070D02*
X8693210Y-6592070D01*
X8693210Y-6572070D02*
X8673210Y-6592070D01*
X8692660Y-6149080D02*
X8712660Y-6169080D01*
X8712660Y-6149080D02*
X8692660Y-6169080D01*
X8694440Y-7721970D02*
X8714440Y-7741970D01*
X8714440Y-7721970D02*
X8694440Y-7741970D01*
X8729000Y-8098000D02*
X8749000Y-8118000D01*
X8749000Y-8098000D02*
X8729000Y-8118000D01*
X8737000Y-6782000D02*
X8757000Y-6802000D01*
X8757000Y-6782000D02*
X8737000Y-6802000D01*
X8737500Y-7232500D02*
X8757500Y-7252500D01*
X8757500Y-7232500D02*
X8737500Y-7252500D01*
X8738000Y-6345000D02*
X8758000Y-6365000D01*
X8758000Y-6345000D02*
X8738000Y-6365000D01*
X8743080Y-6263210D02*
X8763080Y-6283210D01*
X8763080Y-6263210D02*
X8743080Y-6283210D01*
X8750340Y-6510950D02*
X8770340Y-6530950D01*
X8770340Y-6510950D02*
X8750340Y-6530950D01*
X8754170Y-6936790D02*
X8774170Y-6956790D01*
X8774170Y-6936790D02*
X8754170Y-6956790D01*
X8758140Y-5369340D02*
X8778140Y-5389340D01*
X8778140Y-5369340D02*
X8758140Y-5389340D01*
X8764000Y-7632000D02*
X8784000Y-7652000D01*
X8784000Y-7632000D02*
X8764000Y-7652000D01*
X8764000Y-7897000D02*
X8784000Y-7917000D01*
X8784000Y-7897000D02*
X8764000Y-7917000D01*
X8807170Y-8223360D02*
X8827170Y-8243360D01*
X8827170Y-8223360D02*
X8807170Y-8243360D01*
X8822500Y-8532000D02*
X8842500Y-8552000D01*
X8842500Y-8532000D02*
X8822500Y-8552000D01*
X8823000Y-8084000D02*
X8843000Y-8104000D01*
X8843000Y-8084000D02*
X8823000Y-8104000D01*
X8824350Y-5815050D02*
X8844350Y-5835050D01*
X8844350Y-5815050D02*
X8824350Y-5835050D01*
X8825520Y-8286790D02*
X8845520Y-8306790D01*
X8845520Y-8286790D02*
X8825520Y-8306790D01*
X8829020Y-7031450D02*
X8849020Y-7051450D01*
X8849020Y-7031450D02*
X8829020Y-7051450D01*
X8831750Y-6806750D02*
X8851750Y-6826750D01*
X8851750Y-6806750D02*
X8831750Y-6826750D01*
X8832500Y-7236000D02*
X8852500Y-7256000D01*
X8852500Y-7236000D02*
X8832500Y-7256000D01*
X8833000Y-6371000D02*
X8853000Y-6391000D01*
X8853000Y-6371000D02*
X8833000Y-6391000D01*
X8842110Y-8817980D02*
X8862110Y-8837980D01*
X8862110Y-8817980D02*
X8842110Y-8837980D01*
X8850090Y-6529910D02*
X8870090Y-6549910D01*
X8870090Y-6529910D02*
X8850090Y-6549910D01*
X8850770Y-6979230D02*
X8870770Y-6999230D01*
X8870770Y-6979230D02*
X8850770Y-6999230D01*
X8855280Y-9235150D02*
X8875280Y-9255150D01*
X8875280Y-9235150D02*
X8855280Y-9255150D01*
X8860000Y-7702000D02*
X8880000Y-7722000D01*
X8880000Y-7702000D02*
X8860000Y-7722000D01*
X8860000Y-7897000D02*
X8880000Y-7917000D01*
X8880000Y-7897000D02*
X8860000Y-7917000D01*
X8860150Y-7438680D02*
X8880150Y-7458680D01*
X8880150Y-7438680D02*
X8860150Y-7458680D01*
X8862260Y-6127500D02*
X8882260Y-6147500D01*
X8882260Y-6127500D02*
X8862260Y-6147500D01*
X8864530Y-5193940D02*
X8884530Y-5213940D01*
X8884530Y-5193940D02*
X8864530Y-5213940D01*
X8887430Y-5654830D02*
X8907430Y-5674830D01*
X8907430Y-5654830D02*
X8887430Y-5674830D01*
X8903680Y-8821090D02*
X8923680Y-8841090D01*
X8923680Y-8821090D02*
X8903680Y-8841090D01*
X8917600Y-6115000D02*
X8937600Y-6135000D01*
X8937600Y-6115000D02*
X8917600Y-6135000D01*
X8921750Y-7897790D02*
X8941750Y-7917790D01*
X8941750Y-7897790D02*
X8921750Y-7917790D01*
X8962450Y-6261790D02*
X8982450Y-6281790D01*
X8982450Y-6261790D02*
X8962450Y-6281790D01*
X8987580Y-7155470D02*
X9007580Y-7175470D01*
X9007580Y-7155470D02*
X8987580Y-7175470D01*
X8996110Y-6748540D02*
X9016110Y-6768540D01*
X9016110Y-6748540D02*
X8996110Y-6768540D01*
X8999850Y-6995430D02*
X9019850Y-7015430D01*
X9019850Y-6995430D02*
X8999850Y-7015430D01*
X9030330Y-9349620D02*
X9050330Y-9369620D01*
X9050330Y-9349620D02*
X9030330Y-9369620D01*
X9030990Y-6496350D02*
X9050990Y-6516350D01*
X9050990Y-6496350D02*
X9030990Y-6516350D01*
X9034000Y-6107700D02*
X9054000Y-6127700D01*
X9054000Y-6107700D02*
X9034000Y-6127700D01*
X9034000Y-6159000D02*
X9054000Y-6179000D01*
X9054000Y-6159000D02*
X9034000Y-6179000D01*
X9034000Y-8937000D02*
X9054000Y-8957000D01*
X9054000Y-8937000D02*
X9034000Y-8957000D01*
X9034000Y-9004000D02*
X9054000Y-9024000D01*
X9054000Y-9004000D02*
X9034000Y-9024000D01*
X9034000Y-9065000D02*
X9054000Y-9085000D01*
X9054000Y-9065000D02*
X9034000Y-9085000D01*
X9035080Y-6618870D02*
X9055080Y-6638870D01*
X9055080Y-6618870D02*
X9035080Y-6638870D01*
X9038590Y-6562530D02*
X9058590Y-6582530D01*
X9058590Y-6562530D02*
X9038590Y-6582530D01*
X9046000Y-5985000D02*
X9066000Y-6005000D01*
X9066000Y-5985000D02*
X9046000Y-6005000D01*
X9054780Y-8670740D02*
X9074780Y-8690740D01*
X9074780Y-8670740D02*
X9054780Y-8690740D01*
X9073170Y-9269060D02*
X9093170Y-9289060D01*
X9093170Y-9269060D02*
X9073170Y-9289060D01*
X9087340Y-7090440D02*
X9107340Y-7110440D01*
X9107340Y-7090440D02*
X9087340Y-7110440D01*
X9089870Y-8369920D02*
X9109870Y-8389920D01*
X9109870Y-8369920D02*
X9089870Y-8389920D01*
X9092460Y-8449180D02*
X9112460Y-8469180D01*
X9112460Y-8449180D02*
X9092460Y-8469180D01*
X9097830Y-7017040D02*
X9117830Y-7037040D01*
X9117830Y-7017040D02*
X9097830Y-7037040D01*
X9117180Y-7454940D02*
X9137180Y-7474940D01*
X9137180Y-7454940D02*
X9117180Y-7474940D01*
X9117510Y-5722020D02*
X9137510Y-5742020D01*
X9137510Y-5722020D02*
X9117510Y-5742020D01*
X9118530Y-7543080D02*
X9138530Y-7563080D01*
X9138530Y-7543080D02*
X9118530Y-7563080D01*
X9118610Y-6612500D02*
X9138610Y-6632500D01*
X9138610Y-6612500D02*
X9118610Y-6632500D01*
X9132130Y-8854960D02*
X9152130Y-8874960D01*
X9152130Y-8854960D02*
X9132130Y-8874960D01*
X9136960Y-9304520D02*
X9156960Y-9324520D01*
X9156960Y-9304520D02*
X9136960Y-9324520D01*
X9146090Y-5648560D02*
X9166090Y-5668560D01*
X9166090Y-5648560D02*
X9146090Y-5668560D01*
X9152160Y-9241860D02*
X9172160Y-9261860D01*
X9172160Y-9241860D02*
X9152160Y-9261860D01*
X9172700Y-5170670D02*
X9192700Y-5190670D01*
X9192700Y-5170670D02*
X9172700Y-5190670D01*
X9177000Y-6791000D02*
X9197000Y-6811000D01*
X9197000Y-6791000D02*
X9177000Y-6811000D01*
X9177000Y-7224000D02*
X9197000Y-7244000D01*
X9197000Y-7224000D02*
X9177000Y-7244000D01*
X9178000Y-8104000D02*
X9198000Y-8124000D01*
X9198000Y-8104000D02*
X9178000Y-8124000D01*
X9178750Y-7652500D02*
X9198750Y-7672500D01*
X9198750Y-7652500D02*
X9178750Y-7672500D01*
X9179000Y-6346000D02*
X9199000Y-6366000D01*
X9199000Y-6346000D02*
X9179000Y-6366000D01*
X9205590Y-6068650D02*
X9225590Y-6088650D01*
X9225590Y-6068650D02*
X9205590Y-6088650D01*
X9216000Y-9004000D02*
X9236000Y-9024000D01*
X9236000Y-9004000D02*
X9216000Y-9024000D01*
X9237110Y-6693680D02*
X9257110Y-6713680D01*
X9257110Y-6693680D02*
X9237110Y-6713680D01*
X9237890Y-8723750D02*
X9257890Y-8743750D01*
X9257890Y-8723750D02*
X9237890Y-8743750D01*
X9239190Y-7896930D02*
X9259190Y-7916930D01*
X9259190Y-7896930D02*
X9239190Y-7916930D01*
X9243590Y-7433570D02*
X9263590Y-7453570D01*
X9263590Y-7433570D02*
X9243590Y-7453570D01*
X9244190Y-6936790D02*
X9264190Y-6956790D01*
X9264190Y-6936790D02*
X9244190Y-6956790D01*
X9254300Y-7038000D02*
X9274300Y-7058000D01*
X9274300Y-7038000D02*
X9254300Y-7058000D01*
X9254340Y-8296320D02*
X9274340Y-8316320D01*
X9274340Y-8296320D02*
X9254340Y-8316320D01*
X9254500Y-7971140D02*
X9274500Y-7991140D01*
X9274500Y-7971140D02*
X9254500Y-7991140D01*
X9271930Y-9192680D02*
X9291930Y-9212680D01*
X9291930Y-9192680D02*
X9271930Y-9212680D01*
X9272500Y-7235000D02*
X9292500Y-7255000D01*
X9292500Y-7235000D02*
X9272500Y-7255000D01*
X9272500Y-8524000D02*
X9292500Y-8544000D01*
X9292500Y-8524000D02*
X9272500Y-8544000D01*
X9273000Y-6810500D02*
X9293000Y-6830500D01*
X9293000Y-6810500D02*
X9273000Y-6830500D01*
X9273750Y-7652500D02*
X9293750Y-7672500D01*
X9293750Y-7652500D02*
X9273750Y-7672500D01*
X9273750Y-8080000D02*
X9293750Y-8100000D01*
X9293750Y-8080000D02*
X9273750Y-8100000D01*
X9273870Y-6275300D02*
X9293870Y-6295300D01*
X9293870Y-6275300D02*
X9273870Y-6295300D01*
X9275000Y-6358000D02*
X9295000Y-6378000D01*
X9295000Y-6358000D02*
X9275000Y-6378000D01*
X9275420Y-5114150D02*
X9295420Y-5134150D01*
X9295420Y-5114150D02*
X9275420Y-5134150D01*
X9275560Y-9411790D02*
X9295560Y-9431790D01*
X9295560Y-9411790D02*
X9275560Y-9431790D01*
X9285720Y-5615470D02*
X9305720Y-5635470D01*
X9305720Y-5615470D02*
X9285720Y-5635470D01*
X9286240Y-8668210D02*
X9306240Y-8688210D01*
X9306240Y-8668210D02*
X9286240Y-8688210D01*
X9287000Y-6111000D02*
X9307000Y-6131000D01*
X9307000Y-6111000D02*
X9287000Y-6131000D01*
X9287880Y-7880510D02*
X9307880Y-7900510D01*
X9307880Y-7880510D02*
X9287880Y-7900510D01*
X9288000Y-6158000D02*
X9308000Y-6178000D01*
X9308000Y-6158000D02*
X9288000Y-6178000D01*
X9289000Y-9003000D02*
X9309000Y-9023000D01*
X9309000Y-9003000D02*
X9289000Y-9023000D01*
X9289000Y-9066000D02*
X9309000Y-9086000D01*
X9309000Y-9066000D02*
X9289000Y-9086000D01*
X9291720Y-7505450D02*
X9311720Y-7525450D01*
X9311720Y-7505450D02*
X9291720Y-7525450D01*
X9300670Y-5404330D02*
X9320670Y-5424330D01*
X9320670Y-5404330D02*
X9300670Y-5424330D01*
X9304850Y-8783120D02*
X9324850Y-8803120D01*
X9324850Y-8783120D02*
X9304850Y-8803120D01*
X9313990Y-8378630D02*
X9333990Y-8398630D01*
X9333990Y-8378630D02*
X9313990Y-8398630D01*
X9367000Y-6128000D02*
X9387000Y-6148000D01*
X9387000Y-6128000D02*
X9367000Y-6148000D01*
X9411360Y-6722090D02*
X9431360Y-6742090D01*
X9431360Y-6722090D02*
X9411360Y-6742090D01*
X9427950Y-7187590D02*
X9447950Y-7207590D01*
X9447950Y-7187590D02*
X9427950Y-7207590D01*
X9428680Y-6797620D02*
X9448680Y-6817620D01*
X9448680Y-6797620D02*
X9428680Y-6817620D01*
X9428990Y-8557740D02*
X9448990Y-8577740D01*
X9448990Y-8557740D02*
X9428990Y-8577740D01*
X9429490Y-8113290D02*
X9449490Y-8133290D01*
X9449490Y-8113290D02*
X9429490Y-8133290D01*
X9431420Y-7703260D02*
X9451420Y-7723260D01*
X9451420Y-7703260D02*
X9431420Y-7723260D01*
X9448350Y-6494880D02*
X9468350Y-6514880D01*
X9468350Y-6494880D02*
X9448350Y-6514880D01*
X9451020Y-8495040D02*
X9471020Y-8515040D01*
X9471020Y-8495040D02*
X9451020Y-8515040D01*
X9453330Y-7592730D02*
X9473330Y-7612730D01*
X9473330Y-7592730D02*
X9453330Y-7612730D01*
X9453890Y-7143440D02*
X9473890Y-7163440D01*
X9473890Y-7143440D02*
X9453890Y-7163440D01*
D11*
X5228277Y-9843984D02*
X5228277Y-9643984D01*
X5228277Y-9643984D02*
X5275896Y-9643984D01*
X5275896Y-9643984D02*
X5304467Y-9653508D01*
X5304467Y-9653508D02*
X5323515Y-9672555D01*
X5323515Y-9672555D02*
X5333039Y-9691603D01*
X5333039Y-9691603D02*
X5342563Y-9729698D01*
X5342563Y-9729698D02*
X5342563Y-9758270D01*
X5342563Y-9758270D02*
X5333039Y-9796365D01*
X5333039Y-9796365D02*
X5323515Y-9815412D01*
X5323515Y-9815412D02*
X5304467Y-9834460D01*
X5304467Y-9834460D02*
X5275896Y-9843984D01*
X5275896Y-9843984D02*
X5228277Y-9843984D01*
X5428277Y-9843984D02*
X5428277Y-9710650D01*
X5428277Y-9748746D02*
X5437801Y-9729698D01*
X5437801Y-9729698D02*
X5447324Y-9720174D01*
X5447324Y-9720174D02*
X5466372Y-9710650D01*
X5466372Y-9710650D02*
X5485420Y-9710650D01*
X5552086Y-9843984D02*
X5552086Y-9710650D01*
X5552086Y-9643984D02*
X5542563Y-9653508D01*
X5542563Y-9653508D02*
X5552086Y-9663031D01*
X5552086Y-9663031D02*
X5561610Y-9653508D01*
X5561610Y-9653508D02*
X5552086Y-9643984D01*
X5552086Y-9643984D02*
X5552086Y-9663031D01*
X5675896Y-9843984D02*
X5656848Y-9834460D01*
X5656848Y-9834460D02*
X5647324Y-9815412D01*
X5647324Y-9815412D02*
X5647324Y-9643984D01*
X5780658Y-9843984D02*
X5761610Y-9834460D01*
X5761610Y-9834460D02*
X5752086Y-9815412D01*
X5752086Y-9815412D02*
X5752086Y-9643984D01*
X6009229Y-9843984D02*
X6009229Y-9643984D01*
X6009229Y-9643984D02*
X6075896Y-9786841D01*
X6075896Y-9786841D02*
X6142562Y-9643984D01*
X6142562Y-9643984D02*
X6142562Y-9843984D01*
X6323515Y-9843984D02*
X6323515Y-9739222D01*
X6323515Y-9739222D02*
X6313991Y-9720174D01*
X6313991Y-9720174D02*
X6294943Y-9710650D01*
X6294943Y-9710650D02*
X6256848Y-9710650D01*
X6256848Y-9710650D02*
X6237801Y-9720174D01*
X6323515Y-9834460D02*
X6304467Y-9843984D01*
X6304467Y-9843984D02*
X6256848Y-9843984D01*
X6256848Y-9843984D02*
X6237801Y-9834460D01*
X6237801Y-9834460D02*
X6228277Y-9815412D01*
X6228277Y-9815412D02*
X6228277Y-9796365D01*
X6228277Y-9796365D02*
X6237801Y-9777317D01*
X6237801Y-9777317D02*
X6256848Y-9767793D01*
X6256848Y-9767793D02*
X6304467Y-9767793D01*
X6304467Y-9767793D02*
X6323515Y-9758270D01*
X6418753Y-9710650D02*
X6418753Y-9910650D01*
X6418753Y-9720174D02*
X6437801Y-9710650D01*
X6437801Y-9710650D02*
X6475896Y-9710650D01*
X6475896Y-9710650D02*
X6494943Y-9720174D01*
X6494943Y-9720174D02*
X6504467Y-9729698D01*
X6504467Y-9729698D02*
X6513991Y-9748746D01*
X6513991Y-9748746D02*
X6513991Y-9805889D01*
X6513991Y-9805889D02*
X6504467Y-9824936D01*
X6504467Y-9824936D02*
X6494943Y-9834460D01*
X6494943Y-9834460D02*
X6475896Y-9843984D01*
X6475896Y-9843984D02*
X6437801Y-9843984D01*
X6437801Y-9843984D02*
X6418753Y-9834460D01*
X6599705Y-9824936D02*
X6609229Y-9834460D01*
X6609229Y-9834460D02*
X6599705Y-9843984D01*
X6599705Y-9843984D02*
X6590182Y-9834460D01*
X6590182Y-9834460D02*
X6599705Y-9824936D01*
X6599705Y-9824936D02*
X6599705Y-9843984D01*
X6599705Y-9720174D02*
X6609229Y-9729698D01*
X6609229Y-9729698D02*
X6599705Y-9739222D01*
X6599705Y-9739222D02*
X6590182Y-9729698D01*
X6590182Y-9729698D02*
X6599705Y-9720174D01*
X6599705Y-9720174D02*
X6599705Y-9739222D01*
D12*
X4947500Y-10162500D02*
X4967500Y-10182500D01*
X4967500Y-10162500D02*
X4947500Y-10182500D01*
D11*
X5266372Y-10063984D02*
X5285420Y-10063984D01*
X5285420Y-10063984D02*
X5304467Y-10073508D01*
X5304467Y-10073508D02*
X5313991Y-10083031D01*
X5313991Y-10083031D02*
X5323515Y-10102079D01*
X5323515Y-10102079D02*
X5333039Y-10140174D01*
X5333039Y-10140174D02*
X5333039Y-10187793D01*
X5333039Y-10187793D02*
X5323515Y-10225889D01*
X5323515Y-10225889D02*
X5313991Y-10244936D01*
X5313991Y-10244936D02*
X5304467Y-10254460D01*
X5304467Y-10254460D02*
X5285420Y-10263984D01*
X5285420Y-10263984D02*
X5266372Y-10263984D01*
X5266372Y-10263984D02*
X5247324Y-10254460D01*
X5247324Y-10254460D02*
X5237801Y-10244936D01*
X5237801Y-10244936D02*
X5228277Y-10225889D01*
X5228277Y-10225889D02*
X5218753Y-10187793D01*
X5218753Y-10187793D02*
X5218753Y-10140174D01*
X5218753Y-10140174D02*
X5228277Y-10102079D01*
X5228277Y-10102079D02*
X5237801Y-10083031D01*
X5237801Y-10083031D02*
X5247324Y-10073508D01*
X5247324Y-10073508D02*
X5266372Y-10063984D01*
X5418753Y-10244936D02*
X5428277Y-10254460D01*
X5428277Y-10254460D02*
X5418753Y-10263984D01*
X5418753Y-10263984D02*
X5409229Y-10254460D01*
X5409229Y-10254460D02*
X5418753Y-10244936D01*
X5418753Y-10244936D02*
X5418753Y-10263984D01*
X5504467Y-10083031D02*
X5513991Y-10073508D01*
X5513991Y-10073508D02*
X5533039Y-10063984D01*
X5533039Y-10063984D02*
X5580658Y-10063984D01*
X5580658Y-10063984D02*
X5599705Y-10073508D01*
X5599705Y-10073508D02*
X5609229Y-10083031D01*
X5609229Y-10083031D02*
X5618753Y-10102079D01*
X5618753Y-10102079D02*
X5618753Y-10121127D01*
X5618753Y-10121127D02*
X5609229Y-10149698D01*
X5609229Y-10149698D02*
X5494944Y-10263984D01*
X5494944Y-10263984D02*
X5618753Y-10263984D01*
X5742562Y-10063984D02*
X5761610Y-10063984D01*
X5761610Y-10063984D02*
X5780658Y-10073508D01*
X5780658Y-10073508D02*
X5790182Y-10083031D01*
X5790182Y-10083031D02*
X5799705Y-10102079D01*
X5799705Y-10102079D02*
X5809229Y-10140174D01*
X5809229Y-10140174D02*
X5809229Y-10187793D01*
X5809229Y-10187793D02*
X5799705Y-10225889D01*
X5799705Y-10225889D02*
X5790182Y-10244936D01*
X5790182Y-10244936D02*
X5780658Y-10254460D01*
X5780658Y-10254460D02*
X5761610Y-10263984D01*
X5761610Y-10263984D02*
X5742562Y-10263984D01*
X5742562Y-10263984D02*
X5723515Y-10254460D01*
X5723515Y-10254460D02*
X5713991Y-10244936D01*
X5713991Y-10244936D02*
X5704467Y-10225889D01*
X5704467Y-10225889D02*
X5694943Y-10187793D01*
X5694943Y-10187793D02*
X5694943Y-10140174D01*
X5694943Y-10140174D02*
X5704467Y-10102079D01*
X5704467Y-10102079D02*
X5713991Y-10083031D01*
X5713991Y-10083031D02*
X5723515Y-10073508D01*
X5723515Y-10073508D02*
X5742562Y-10063984D01*
X5933039Y-10063984D02*
X5952086Y-10063984D01*
X5952086Y-10063984D02*
X5971134Y-10073508D01*
X5971134Y-10073508D02*
X5980658Y-10083031D01*
X5980658Y-10083031D02*
X5990182Y-10102079D01*
X5990182Y-10102079D02*
X5999705Y-10140174D01*
X5999705Y-10140174D02*
X5999705Y-10187793D01*
X5999705Y-10187793D02*
X5990182Y-10225889D01*
X5990182Y-10225889D02*
X5980658Y-10244936D01*
X5980658Y-10244936D02*
X5971134Y-10254460D01*
X5971134Y-10254460D02*
X5952086Y-10263984D01*
X5952086Y-10263984D02*
X5933039Y-10263984D01*
X5933039Y-10263984D02*
X5913991Y-10254460D01*
X5913991Y-10254460D02*
X5904467Y-10244936D01*
X5904467Y-10244936D02*
X5894943Y-10225889D01*
X5894943Y-10225889D02*
X5885420Y-10187793D01*
X5885420Y-10187793D02*
X5885420Y-10140174D01*
X5885420Y-10140174D02*
X5894943Y-10102079D01*
X5894943Y-10102079D02*
X5904467Y-10083031D01*
X5904467Y-10083031D02*
X5913991Y-10073508D01*
X5913991Y-10073508D02*
X5933039Y-10063984D01*
X6085420Y-10263984D02*
X6085420Y-10130650D01*
X6085420Y-10149698D02*
X6094943Y-10140174D01*
X6094943Y-10140174D02*
X6113991Y-10130650D01*
X6113991Y-10130650D02*
X6142563Y-10130650D01*
X6142563Y-10130650D02*
X6161610Y-10140174D01*
X6161610Y-10140174D02*
X6171134Y-10159222D01*
X6171134Y-10159222D02*
X6171134Y-10263984D01*
X6171134Y-10159222D02*
X6180658Y-10140174D01*
X6180658Y-10140174D02*
X6199705Y-10130650D01*
X6199705Y-10130650D02*
X6228277Y-10130650D01*
X6228277Y-10130650D02*
X6247324Y-10140174D01*
X6247324Y-10140174D02*
X6256848Y-10159222D01*
X6256848Y-10159222D02*
X6256848Y-10263984D01*
X6352086Y-10263984D02*
X6352086Y-10130650D01*
X6352086Y-10149698D02*
X6361610Y-10140174D01*
X6361610Y-10140174D02*
X6380658Y-10130650D01*
X6380658Y-10130650D02*
X6409229Y-10130650D01*
X6409229Y-10130650D02*
X6428277Y-10140174D01*
X6428277Y-10140174D02*
X6437801Y-10159222D01*
X6437801Y-10159222D02*
X6437801Y-10263984D01*
X6437801Y-10159222D02*
X6447324Y-10140174D01*
X6447324Y-10140174D02*
X6466372Y-10130650D01*
X6466372Y-10130650D02*
X6494943Y-10130650D01*
X6494943Y-10130650D02*
X6513991Y-10140174D01*
X6513991Y-10140174D02*
X6523515Y-10159222D01*
X6523515Y-10159222D02*
X6523515Y-10263984D01*
X6913991Y-10054460D02*
X6742563Y-10311603D01*
X7171134Y-10063984D02*
X7190182Y-10063984D01*
X7190182Y-10063984D02*
X7209229Y-10073508D01*
X7209229Y-10073508D02*
X7218753Y-10083031D01*
X7218753Y-10083031D02*
X7228277Y-10102079D01*
X7228277Y-10102079D02*
X7237801Y-10140174D01*
X7237801Y-10140174D02*
X7237801Y-10187793D01*
X7237801Y-10187793D02*
X7228277Y-10225889D01*
X7228277Y-10225889D02*
X7218753Y-10244936D01*
X7218753Y-10244936D02*
X7209229Y-10254460D01*
X7209229Y-10254460D02*
X7190182Y-10263984D01*
X7190182Y-10263984D02*
X7171134Y-10263984D01*
X7171134Y-10263984D02*
X7152086Y-10254460D01*
X7152086Y-10254460D02*
X7142563Y-10244936D01*
X7142563Y-10244936D02*
X7133039Y-10225889D01*
X7133039Y-10225889D02*
X7123515Y-10187793D01*
X7123515Y-10187793D02*
X7123515Y-10140174D01*
X7123515Y-10140174D02*
X7133039Y-10102079D01*
X7133039Y-10102079D02*
X7142563Y-10083031D01*
X7142563Y-10083031D02*
X7152086Y-10073508D01*
X7152086Y-10073508D02*
X7171134Y-10063984D01*
X7323515Y-10244936D02*
X7333039Y-10254460D01*
X7333039Y-10254460D02*
X7323515Y-10263984D01*
X7323515Y-10263984D02*
X7313991Y-10254460D01*
X7313991Y-10254460D02*
X7323515Y-10244936D01*
X7323515Y-10244936D02*
X7323515Y-10263984D01*
X7456848Y-10063984D02*
X7475896Y-10063984D01*
X7475896Y-10063984D02*
X7494944Y-10073508D01*
X7494944Y-10073508D02*
X7504467Y-10083031D01*
X7504467Y-10083031D02*
X7513991Y-10102079D01*
X7513991Y-10102079D02*
X7523515Y-10140174D01*
X7523515Y-10140174D02*
X7523515Y-10187793D01*
X7523515Y-10187793D02*
X7513991Y-10225889D01*
X7513991Y-10225889D02*
X7504467Y-10244936D01*
X7504467Y-10244936D02*
X7494944Y-10254460D01*
X7494944Y-10254460D02*
X7475896Y-10263984D01*
X7475896Y-10263984D02*
X7456848Y-10263984D01*
X7456848Y-10263984D02*
X7437801Y-10254460D01*
X7437801Y-10254460D02*
X7428277Y-10244936D01*
X7428277Y-10244936D02*
X7418753Y-10225889D01*
X7418753Y-10225889D02*
X7409229Y-10187793D01*
X7409229Y-10187793D02*
X7409229Y-10140174D01*
X7409229Y-10140174D02*
X7418753Y-10102079D01*
X7418753Y-10102079D02*
X7428277Y-10083031D01*
X7428277Y-10083031D02*
X7437801Y-10073508D01*
X7437801Y-10073508D02*
X7456848Y-10063984D01*
X7647325Y-10063984D02*
X7666372Y-10063984D01*
X7666372Y-10063984D02*
X7685420Y-10073508D01*
X7685420Y-10073508D02*
X7694944Y-10083031D01*
X7694944Y-10083031D02*
X7704467Y-10102079D01*
X7704467Y-10102079D02*
X7713991Y-10140174D01*
X7713991Y-10140174D02*
X7713991Y-10187793D01*
X7713991Y-10187793D02*
X7704467Y-10225889D01*
X7704467Y-10225889D02*
X7694944Y-10244936D01*
X7694944Y-10244936D02*
X7685420Y-10254460D01*
X7685420Y-10254460D02*
X7666372Y-10263984D01*
X7666372Y-10263984D02*
X7647325Y-10263984D01*
X7647325Y-10263984D02*
X7628277Y-10254460D01*
X7628277Y-10254460D02*
X7618753Y-10244936D01*
X7618753Y-10244936D02*
X7609229Y-10225889D01*
X7609229Y-10225889D02*
X7599706Y-10187793D01*
X7599706Y-10187793D02*
X7599706Y-10140174D01*
X7599706Y-10140174D02*
X7609229Y-10102079D01*
X7609229Y-10102079D02*
X7618753Y-10083031D01*
X7618753Y-10083031D02*
X7628277Y-10073508D01*
X7628277Y-10073508D02*
X7647325Y-10063984D01*
X7780658Y-10063984D02*
X7913991Y-10063984D01*
X7913991Y-10063984D02*
X7828277Y-10263984D01*
X7999706Y-10263984D02*
X8037801Y-10263984D01*
X8037801Y-10263984D02*
X8056848Y-10254460D01*
X8056848Y-10254460D02*
X8066372Y-10244936D01*
X8066372Y-10244936D02*
X8085420Y-10216365D01*
X8085420Y-10216365D02*
X8094944Y-10178270D01*
X8094944Y-10178270D02*
X8094944Y-10102079D01*
X8094944Y-10102079D02*
X8085420Y-10083031D01*
X8085420Y-10083031D02*
X8075896Y-10073508D01*
X8075896Y-10073508D02*
X8056848Y-10063984D01*
X8056848Y-10063984D02*
X8018753Y-10063984D01*
X8018753Y-10063984D02*
X7999706Y-10073508D01*
X7999706Y-10073508D02*
X7990182Y-10083031D01*
X7990182Y-10083031D02*
X7980658Y-10102079D01*
X7980658Y-10102079D02*
X7980658Y-10149698D01*
X7980658Y-10149698D02*
X7990182Y-10168746D01*
X7990182Y-10168746D02*
X7999706Y-10178270D01*
X7999706Y-10178270D02*
X8018753Y-10187793D01*
X8018753Y-10187793D02*
X8056848Y-10187793D01*
X8056848Y-10187793D02*
X8075896Y-10178270D01*
X8075896Y-10178270D02*
X8085420Y-10168746D01*
X8085420Y-10168746D02*
X8094944Y-10149698D01*
X8171134Y-10063984D02*
X8171134Y-10102079D01*
X8247325Y-10063984D02*
X8247325Y-10102079D01*
X8542563Y-10340174D02*
X8533039Y-10330650D01*
X8533039Y-10330650D02*
X8513991Y-10302079D01*
X8513991Y-10302079D02*
X8504468Y-10283031D01*
X8504468Y-10283031D02*
X8494944Y-10254460D01*
X8494944Y-10254460D02*
X8485420Y-10206841D01*
X8485420Y-10206841D02*
X8485420Y-10168746D01*
X8485420Y-10168746D02*
X8494944Y-10121127D01*
X8494944Y-10121127D02*
X8504468Y-10092555D01*
X8504468Y-10092555D02*
X8513991Y-10073508D01*
X8513991Y-10073508D02*
X8533039Y-10044936D01*
X8533039Y-10044936D02*
X8542563Y-10035412D01*
X8704468Y-10063984D02*
X8666372Y-10063984D01*
X8666372Y-10063984D02*
X8647325Y-10073508D01*
X8647325Y-10073508D02*
X8637801Y-10083031D01*
X8637801Y-10083031D02*
X8618753Y-10111603D01*
X8618753Y-10111603D02*
X8609230Y-10149698D01*
X8609230Y-10149698D02*
X8609230Y-10225889D01*
X8609230Y-10225889D02*
X8618753Y-10244936D01*
X8618753Y-10244936D02*
X8628277Y-10254460D01*
X8628277Y-10254460D02*
X8647325Y-10263984D01*
X8647325Y-10263984D02*
X8685420Y-10263984D01*
X8685420Y-10263984D02*
X8704468Y-10254460D01*
X8704468Y-10254460D02*
X8713991Y-10244936D01*
X8713991Y-10244936D02*
X8723515Y-10225889D01*
X8723515Y-10225889D02*
X8723515Y-10178270D01*
X8723515Y-10178270D02*
X8713991Y-10159222D01*
X8713991Y-10159222D02*
X8704468Y-10149698D01*
X8704468Y-10149698D02*
X8685420Y-10140174D01*
X8685420Y-10140174D02*
X8647325Y-10140174D01*
X8647325Y-10140174D02*
X8628277Y-10149698D01*
X8628277Y-10149698D02*
X8618753Y-10159222D01*
X8618753Y-10159222D02*
X8609230Y-10178270D01*
X8894944Y-10130650D02*
X8894944Y-10263984D01*
X8847325Y-10054460D02*
X8799706Y-10197317D01*
X8799706Y-10197317D02*
X8923515Y-10197317D01*
X9037801Y-10063984D02*
X9056849Y-10063984D01*
X9056849Y-10063984D02*
X9075896Y-10073508D01*
X9075896Y-10073508D02*
X9085420Y-10083031D01*
X9085420Y-10083031D02*
X9094944Y-10102079D01*
X9094944Y-10102079D02*
X9104468Y-10140174D01*
X9104468Y-10140174D02*
X9104468Y-10187793D01*
X9104468Y-10187793D02*
X9094944Y-10225889D01*
X9094944Y-10225889D02*
X9085420Y-10244936D01*
X9085420Y-10244936D02*
X9075896Y-10254460D01*
X9075896Y-10254460D02*
X9056849Y-10263984D01*
X9056849Y-10263984D02*
X9037801Y-10263984D01*
X9037801Y-10263984D02*
X9018753Y-10254460D01*
X9018753Y-10254460D02*
X9009230Y-10244936D01*
X9009230Y-10244936D02*
X8999706Y-10225889D01*
X8999706Y-10225889D02*
X8990182Y-10187793D01*
X8990182Y-10187793D02*
X8990182Y-10140174D01*
X8990182Y-10140174D02*
X8999706Y-10102079D01*
X8999706Y-10102079D02*
X9009230Y-10083031D01*
X9009230Y-10083031D02*
X9018753Y-10073508D01*
X9018753Y-10073508D02*
X9037801Y-10063984D01*
X9342563Y-10263984D02*
X9342563Y-10063984D01*
X9428277Y-10263984D02*
X9428277Y-10159222D01*
X9428277Y-10159222D02*
X9418753Y-10140174D01*
X9418753Y-10140174D02*
X9399706Y-10130650D01*
X9399706Y-10130650D02*
X9371134Y-10130650D01*
X9371134Y-10130650D02*
X9352087Y-10140174D01*
X9352087Y-10140174D02*
X9342563Y-10149698D01*
X9552087Y-10263984D02*
X9533039Y-10254460D01*
X9533039Y-10254460D02*
X9523515Y-10244936D01*
X9523515Y-10244936D02*
X9513992Y-10225889D01*
X9513992Y-10225889D02*
X9513992Y-10168746D01*
X9513992Y-10168746D02*
X9523515Y-10149698D01*
X9523515Y-10149698D02*
X9533039Y-10140174D01*
X9533039Y-10140174D02*
X9552087Y-10130650D01*
X9552087Y-10130650D02*
X9580658Y-10130650D01*
X9580658Y-10130650D02*
X9599706Y-10140174D01*
X9599706Y-10140174D02*
X9609230Y-10149698D01*
X9609230Y-10149698D02*
X9618753Y-10168746D01*
X9618753Y-10168746D02*
X9618753Y-10225889D01*
X9618753Y-10225889D02*
X9609230Y-10244936D01*
X9609230Y-10244936D02*
X9599706Y-10254460D01*
X9599706Y-10254460D02*
X9580658Y-10263984D01*
X9580658Y-10263984D02*
X9552087Y-10263984D01*
X9733039Y-10263984D02*
X9713992Y-10254460D01*
X9713992Y-10254460D02*
X9704468Y-10235412D01*
X9704468Y-10235412D02*
X9704468Y-10063984D01*
X9885420Y-10254460D02*
X9866373Y-10263984D01*
X9866373Y-10263984D02*
X9828277Y-10263984D01*
X9828277Y-10263984D02*
X9809230Y-10254460D01*
X9809230Y-10254460D02*
X9799706Y-10235412D01*
X9799706Y-10235412D02*
X9799706Y-10159222D01*
X9799706Y-10159222D02*
X9809230Y-10140174D01*
X9809230Y-10140174D02*
X9828277Y-10130650D01*
X9828277Y-10130650D02*
X9866373Y-10130650D01*
X9866373Y-10130650D02*
X9885420Y-10140174D01*
X9885420Y-10140174D02*
X9894944Y-10159222D01*
X9894944Y-10159222D02*
X9894944Y-10178270D01*
X9894944Y-10178270D02*
X9799706Y-10197317D01*
X9971134Y-10254460D02*
X9990182Y-10263984D01*
X9990182Y-10263984D02*
X10028277Y-10263984D01*
X10028277Y-10263984D02*
X10047325Y-10254460D01*
X10047325Y-10254460D02*
X10056849Y-10235412D01*
X10056849Y-10235412D02*
X10056849Y-10225889D01*
X10056849Y-10225889D02*
X10047325Y-10206841D01*
X10047325Y-10206841D02*
X10028277Y-10197317D01*
X10028277Y-10197317D02*
X9999706Y-10197317D01*
X9999706Y-10197317D02*
X9980658Y-10187793D01*
X9980658Y-10187793D02*
X9971134Y-10168746D01*
X9971134Y-10168746D02*
X9971134Y-10159222D01*
X9971134Y-10159222D02*
X9980658Y-10140174D01*
X9980658Y-10140174D02*
X9999706Y-10130650D01*
X9999706Y-10130650D02*
X10028277Y-10130650D01*
X10028277Y-10130650D02*
X10047325Y-10140174D01*
X10123515Y-10340174D02*
X10133039Y-10330650D01*
X10133039Y-10330650D02*
X10152087Y-10302079D01*
X10152087Y-10302079D02*
X10161611Y-10283031D01*
X10161611Y-10283031D02*
X10171134Y-10254460D01*
X10171134Y-10254460D02*
X10180658Y-10206841D01*
X10180658Y-10206841D02*
X10180658Y-10168746D01*
X10180658Y-10168746D02*
X10171134Y-10121127D01*
X10171134Y-10121127D02*
X10161611Y-10092555D01*
X10161611Y-10092555D02*
X10152087Y-10073508D01*
X10152087Y-10073508D02*
X10133039Y-10044936D01*
X10133039Y-10044936D02*
X10123515Y-10035412D01*
M02*
