M48
; DRILL file {KiCad 9.0.8} date 2026-04-03T11:36:13-0400
; FORMAT={-:-/ absolute / metric / decimal}
; #@! TF.CreationDate,2026-04-03T11:36:13-04:00
; #@! TF.GenerationSoftware,Kicad,Pcbnew,9.0.8
; #@! TF.FileFunction,Plated,1,6,PTH
FMAT,2
METRIC
; #@! TA.AperFunction,Plated,PTH,ViaDrill
T1C0.200
%
G90
G05
T1
X50.314Y-65.705
X50.316Y-69.903
X50.324Y-80.122
X50.425Y-82.425
X50.552Y-84.563
X50.674Y-93.528
X50.687Y-89.019
X50.782Y-52.144
X51.007Y-65.626
X51.051Y-88.497
X51.137Y-67.744
X51.186Y-59.179
X51.234Y-56.42
X51.85Y-68.13
X51.85Y-80.835
X51.85Y-85.12
X51.855Y-76.645
X51.87Y-72.46
X51.89Y-63.73
X52.02Y-62.437
X52.095Y-71.461
X52.528Y-88.227
X52.542Y-79.59
X52.6Y-92.399
X52.604Y-51.896
X52.639Y-75.029
X52.666Y-78.97
X52.688Y-69.977
X52.8Y-68.26
X52.81Y-76.99
X52.82Y-72.63
X52.829Y-83.642
X52.829Y-65.634
X52.83Y-63.8
X52.959Y-61.145
X53.032Y-74.655
X53.04Y-88.154
X53.04Y-75.45
X53.191Y-56.663
X53.199Y-84.114
X53.23Y-81.8
X53.37Y-86.02
X53.709Y-62.718
X53.713Y-90.085
X53.718Y-51.959
X53.718Y-56.255
X53.718Y-92.439
X53.728Y-94.321
X54.38Y-76.926
X54.388Y-64.074
X54.394Y-66.785
X54.398Y-68.626
X54.413Y-87.317
X54.443Y-70.031
X54.488Y-84.047
X54.493Y-78.554
X54.5Y-55.637
X54.51Y-80.772
X54.512Y-80.192
X54.543Y-74.528
X54.55Y-71.897
X54.563Y-81.317
X54.587Y-85.036
X54.595Y-64.968
X54.601Y-82.843
X54.606Y-66.056
X54.612Y-75.511
X54.614Y-88.221
X54.687Y-71.412
X54.741Y-67.55
X54.77Y-73.571
X54.825Y-86.204
X54.829Y-78.026
X54.848Y-65.528
X55.283Y-55.261
X55.378Y-88.6
X55.382Y-52.404
X55.394Y-61.367
X55.911Y-90.041
X56.255Y-53.822
X56.271Y-60.912
X56.28Y-90.422
X56.32Y-68.11
X56.32Y-76.655
X56.328Y-80.858
X56.33Y-85.19
X56.34Y-72.37
X56.525Y-63.017
X56.617Y-62.45
X56.699Y-71.523
X56.718Y-67.218
X56.852Y-92.033
X56.909Y-94.448
X56.918Y-51.188
X57.062Y-74.938
X57.073Y-87.896
X57.103Y-83.619
X57.121Y-74.419
X57.172Y-79.019
X57.27Y-63.82
X57.275Y-68.225
X57.275Y-72.59
X57.282Y-76.92
X57.389Y-70.151
X57.532Y-56.662
X57.61Y-74.645
X57.623Y-83.648
X57.66Y-81.77
X57.72Y-86.15
X57.761Y-58.886
X58.209Y-62.749
X58.474Y-92.932
X58.598Y-73.809
X58.659Y-85.947
X58.662Y-65.105
X58.797Y-90.689
X58.833Y-71.894
X58.835Y-80.874
X58.84Y-50.552
X58.848Y-70.453
X58.853Y-76.596
X58.872Y-87.408
X58.9Y-55.11
X58.915Y-69.124
X58.985Y-83.675
X59.0Y-62.403
X59.012Y-59.372
X59.163Y-82.691
X59.199Y-82.112
X59.452Y-79.013
X59.536Y-77.339
X59.685Y-79.791
X59.957Y-79.365
X60.035Y-56.598
X60.147Y-65.932
X60.151Y-92.944
X60.158Y-63.582
X60.47Y-60.468
X60.479Y-67.233
X60.746Y-58.138
X60.77Y-63.65
X60.77Y-68.01
X60.782Y-72.485
X60.8Y-85.21
X61.022Y-88.333
X61.114Y-61.813
X61.156Y-62.401
X61.189Y-75.931
X61.254Y-67.399
X61.342Y-60.468
X61.36Y-90.222
X61.376Y-65.736
X61.574Y-52.404
X61.576Y-92.36
X61.606Y-56.394
X61.643Y-70.378
X61.71Y-63.74
X61.725Y-68.23
X61.735Y-72.7
X61.824Y-74.906
X62.062Y-65.701
X62.28Y-81.72
X62.41Y-86.09
X62.718Y-52.032
X62.73Y-53.815
X62.773Y-67.246
X62.93Y-76.84
X62.95Y-81.14
X62.997Y-90.073
X63.003Y-56.022
X63.169Y-89.473
X63.23Y-90.808
X63.267Y-73.648
X63.278Y-65.798
X63.297Y-91.983
X63.387Y-67.05
X63.388Y-82.084
X63.51Y-79.234
X63.54Y-62.367
X63.568Y-71.414
X63.569Y-79.825
X63.583Y-57.521
X63.586Y-74.684
X63.587Y-83.971
X63.62Y-78.03
X63.629Y-70.386
X63.71Y-56.969
X63.74Y-77.466
X63.838Y-78.869
X63.97Y-63.74
X63.97Y-68.21
X63.99Y-73.14
X63.999Y-56.556
X64.02Y-86.47
X64.032Y-90.634
X64.108Y-65.772
X64.188Y-81.395
X64.201Y-52.778
X64.249Y-77.353
X64.275Y-84.532
X64.29Y-92.83
X64.44Y-74.681
X64.522Y-59.336
X64.525Y-72.763
X64.665Y-65.781
X64.941Y-85.451
X64.966Y-87.582
X64.985Y-54.54
X65.083Y-94.546
X65.095Y-81.001
X65.1Y-60.695
X65.25Y-69.394
X65.304Y-52.388
X65.329Y-88.399
X65.35Y-76.32
X65.35Y-78.48
X65.359Y-74.892
X65.39Y-73.96
X65.46Y-54.91
X65.52Y-92.74
X65.531Y-50.477
X65.599Y-58.647
X65.65Y-60.01
X65.68Y-51.12
X65.72Y-55.5
X65.786Y-83.788
X65.831Y-92.094
X65.852Y-69.229
X65.894Y-74.91
X65.914Y-90.521
X65.932Y-81.739
X66.01Y-61.069
X66.053Y-85.964
X66.1Y-88.014
X66.187Y-63.463
X66.21Y-65.637
X66.409Y-77.782
X66.413Y-74.657
X66.48Y-90.5
X66.819Y-54.316
X66.841Y-74.978
X67.041Y-63.094
X67.44Y-62.697
X67.485Y-85.62
X67.548Y-67.794
X67.673Y-70.499
X67.689Y-71.768
X67.704Y-58.969
X67.775Y-93.975
X67.82Y-52.37
X68.049Y-80.83
X68.085Y-88.07
X68.09Y-81.589
X68.14Y-56.9
X68.19Y-68.695
X68.297Y-79.526
X68.299Y-79.022
X68.36Y-74.47
X68.385Y-68.16
X68.39Y-77.87
X68.517Y-93.016
X68.592Y-84.07
X68.666Y-56.657
X68.756Y-75.25
X68.782Y-54.617
X68.787Y-93.483
X68.932Y-70.41
X69.062Y-76.85
X69.068Y-52.524
X69.154Y-63.31
X69.211Y-74.893
X69.229Y-85.667
X69.236Y-90.172
X69.261Y-78.887
X69.308Y-74.335
X69.425Y-88.12
X69.457Y-83.181
X69.459Y-58.42
X69.468Y-55.976
X69.51Y-67.77
X69.53Y-60.95
X69.67Y-65.193
X69.699Y-78.45
X69.76Y-51.88
X69.92Y-71.81
X69.96Y-83.595
X70.065Y-88.12
X70.102Y-66.94
X70.178Y-81.632
X70.21Y-56.402
X70.249Y-78.673
X70.25Y-94.043
X70.275Y-68.094
X70.3Y-79.59
X70.32Y-69.597
X70.35Y-89.688
X70.352Y-64.776
X70.382Y-51.224
X70.428Y-72.185
X70.43Y-75.935
X70.442Y-77.207
X70.454Y-74.546
X70.459Y-63.332
X70.5Y-90.5
X70.518Y-53.041
X70.582Y-50.743
X70.6Y-54.73
X70.65Y-52.475
X70.67Y-81.702
X70.701Y-67.841
X70.875Y-86.407
X70.9Y-70.206
X71.0Y-90.5
X71.032Y-61.16
X71.163Y-59.251
X71.175Y-92.649
X71.184Y-83.738
X71.284Y-88.17
X71.655Y-67.6
X71.718Y-87.651
X71.947Y-83.758
X71.98Y-71.81
X72.0Y-89.77
X72.0Y-90.6
X72.027Y-59.243
X72.093Y-79.201
X72.104Y-88.215
X72.145Y-85.795
X72.24Y-65.32
X72.292Y-85.317
X72.362Y-72.509
X72.425Y-58.607
X72.5Y-76.0
X72.585Y-53.704
X72.59Y-56.52
X72.621Y-59.936
X72.7Y-81.596
X72.734Y-80.17
X72.781Y-57.82
X72.81Y-83.67
X72.84Y-62.276
X72.857Y-93.755
X72.864Y-72.212
X72.883Y-82.298
X72.93Y-79.59
X73.26Y-54.779
X73.447Y-58.979
X73.697Y-70.083
X73.773Y-72.479
X73.965Y-67.6
X73.986Y-94.412
X74.27Y-63.46
X74.3Y-71.908
X74.351Y-83.777
X74.381Y-92.822
X74.501Y-67.397
X74.512Y-74.812
X74.532Y-77.481
X74.557Y-76.11
X74.603Y-73.779
X74.651Y-73.15
X74.668Y-78.273
X74.686Y-53.835
X74.698Y-87.501
X74.7Y-70.14
X74.7Y-81.65
X74.72Y-69.231
X74.749Y-90.376
X74.788Y-71.915
X74.798Y-76.71
X74.875Y-52.125
X74.939Y-60.964
X74.963Y-55.649
X74.968Y-91.282
X75.044Y-78.834
X75.046Y-67.602
X75.1Y-68.403
X75.1Y-79.59
X75.474Y-65.917
X75.513Y-59.154
X75.773Y-70.262
X75.864Y-72.28
X76.563Y-78.45
X76.59Y-76.16
X76.59Y-79.31
X76.662Y-62.477
X76.73Y-82.91
X76.764Y-53.393
X76.77Y-72.22
X76.795Y-53.958
X76.873Y-71.261
X76.89Y-51.6
X76.902Y-83.848
X76.916Y-51.004
X76.937Y-60.491
X76.946Y-58.138
X77.05Y-81.7
X77.239Y-70.852
X77.48Y-83.98
X77.52Y-93.561
X77.55Y-55.17
X77.55Y-59.775
X77.805Y-66.011
X77.874Y-93.24
X78.131Y-74.983
X78.234Y-67.931
X78.234Y-70.061
X78.255Y-72.6
X78.447Y-74.2
X78.469Y-87.492
X78.471Y-62.831
X78.539Y-85.494
X78.71Y-92.31
X78.737Y-53.764
X78.78Y-60.96
X78.82Y-94.629
X78.881Y-73.756
X78.893Y-67.192
X78.909Y-80.665
X78.981Y-85.113
X78.993Y-72.03
X78.995Y-72.601
X79.021Y-87.396
X79.028Y-81.522
X79.04Y-56.72
X79.087Y-62.997
X79.16Y-79.31
X79.187Y-69.468
X79.193Y-77.299
X79.26Y-70.635
X79.26Y-76.47
X79.27Y-52.46
X79.289Y-50.32
X79.333Y-89.74
X79.344Y-83.03
X79.346Y-65.133
X79.365Y-72.911
X79.67Y-92.72
X80.118Y-52.163
X80.158Y-56.669
X80.169Y-61.148
X80.178Y-74.723
X80.31Y-79.159
X80.594Y-90.058
X80.718Y-60.707
X80.74Y-80.718
X80.966Y-76.568
X80.97Y-67.81
X81.046Y-69.404
X81.086Y-73.979
X81.245Y-88.691
X81.319Y-77.509
X81.336Y-50.552
X81.343Y-85.174
X81.344Y-82.539
X81.395Y-53.771
X81.407Y-87.374
X81.411Y-75.224
X81.492Y-64.937
X81.55Y-94.355
X81.583Y-58.796
X81.662Y-55.466
X81.713Y-51.768
X81.746Y-57.866
X81.903Y-59.829
X81.984Y-74.605
X82.192Y-70.478
X82.291Y-52.991
X82.293Y-76.929
X82.94Y-78.712
X83.01Y-85.43
X83.07Y-67.85
X83.07Y-72.23
X83.09Y-63.53
X83.126Y-83.641
X83.361Y-62.552
X83.376Y-58.029
X83.606Y-79.224
X83.641Y-90.609
X83.644Y-89.525
X83.656Y-62.032
X83.662Y-87.988
X83.69Y-83.15
X83.708Y-87.174
X83.73Y-76.212
X83.782Y-74.105
X83.801Y-88.666
X83.811Y-90.072
X83.835Y-62.819
X83.842Y-51.286
X83.858Y-80.032
X83.896Y-65.184
X83.931Y-75.532
X83.958Y-66.16
X83.961Y-56.255
X83.991Y-70.403
X84.013Y-69.8
X84.017Y-68.142
X84.025Y-72.4
X84.04Y-63.8
X84.108Y-92.391
X84.26Y-85.97
X84.277Y-74.562
X84.438Y-61.153
X85.395Y-86.089
X85.405Y-81.038
X85.495Y-83.585
X85.572Y-68.142
X85.61Y-62.531
X85.743Y-69.155
X85.76Y-85.246
X85.782Y-76.59
X85.898Y-71.895
X85.93Y-70.535
X86.006Y-57.006
X86.041Y-62.778
X86.086Y-94.677
X86.094Y-53.718
X86.176Y-83.962
X86.205Y-92.379
X86.221Y-87.767
X86.252Y-65.283
X86.337Y-75.452
X86.388Y-58.688
X86.513Y-91.355
X86.751Y-79.832
X86.782Y-74.787
X86.783Y-50.782
X86.8Y-84.19
X86.832Y-65.821
X87.027Y-61.591
X87.044Y-77.32
X87.39Y-81.08
X87.47Y-67.92
X87.475Y-72.425
X87.48Y-63.55
X87.531Y-62.732
X87.603Y-65.209
X87.642Y-69.468
X87.681Y-53.793
X87.74Y-76.42
X87.74Y-79.07
X88.172Y-82.334
X88.325Y-85.42
X88.33Y-80.94
X88.343Y-58.25
X88.355Y-82.968
X88.39Y-70.415
X88.417Y-68.168
X88.425Y-72.46
X88.43Y-63.81
X88.521Y-88.28
X88.601Y-65.399
X88.608Y-69.892
X88.653Y-92.451
X88.7Y-77.12
X88.7Y-79.07
X88.701Y-74.487
X88.723Y-61.375
X88.745Y-52.039
X88.974Y-56.648
X89.137Y-88.311
X89.276Y-61.25
X89.317Y-79.078
X89.724Y-62.718
X89.976Y-71.655
X90.061Y-67.585
X90.099Y-70.054
X90.403Y-93.596
X90.41Y-65.063
X90.44Y-61.177
X90.44Y-61.69
X90.44Y-89.47
X90.44Y-90.14
X90.44Y-90.75
X90.451Y-66.289
X90.486Y-65.725
X90.56Y-59.95
X90.648Y-86.807
X90.832Y-92.791
X90.973Y-71.004
X90.999Y-83.799
X91.025Y-84.592
X91.078Y-70.27
X91.272Y-74.649
X91.275Y-57.32
X91.285Y-75.531
X91.286Y-66.225
X91.421Y-88.65
X91.47Y-93.145
X91.561Y-56.586
X91.622Y-92.519
X91.827Y-51.807
X91.87Y-68.01
X91.87Y-72.34
X91.88Y-81.14
X91.888Y-76.625
X91.89Y-63.56
X92.156Y-60.786
X92.26Y-90.14
X92.471Y-67.037
X92.479Y-87.337
X92.492Y-79.069
X92.536Y-74.436
X92.542Y-69.468
X92.643Y-70.48
X92.643Y-83.063
X92.645Y-79.811
X92.819Y-92.027
X92.825Y-72.45
X92.825Y-85.34
X92.83Y-68.205
X92.837Y-76.625
X92.837Y-80.9
X92.839Y-62.853
X92.85Y-63.68
X92.854Y-51.241
X92.856Y-94.218
X92.957Y-56.255
X92.962Y-86.782
X92.97Y-61.21
X92.979Y-78.905
X92.98Y-61.68
X92.99Y-90.13
X92.99Y-90.76
X93.017Y-75.154
X93.107Y-54.143
X93.148Y-87.931
X93.24Y-83.886
X93.77Y-61.38
X94.214Y-67.321
X94.379Y-71.976
X94.387Y-68.076
X94.39Y-85.677
X94.395Y-81.233
X94.414Y-77.133
X94.584Y-65.049
X94.61Y-85.05
X94.633Y-76.027
X94.639Y-71.534
M30
