G04 #@! TF.GenerationSoftware,KiCad,Pcbnew,9.0.8*
G04 #@! TF.CreationDate,2026-04-03T11:36:12-04:00*
G04 #@! TF.ProjectId,panel_rp2354_20x20,70616e65-6c5f-4727-9032-3335345f3230,v0.2.0*
G04 #@! TF.SameCoordinates,Original*
G04 #@! TF.FileFunction,Legend,Top*
G04 #@! TF.FilePolarity,Positive*
%FSLAX46Y46*%
G04 Gerber Fmt 4.6, Leading zero omitted, Abs format (unit mm)*
G04 Created by KiCad (PCBNEW 9.0.8) date 2026-04-03 11:36:12*
%MOMM*%
%LPD*%
G01*
G04 APERTURE LIST*
G04 Aperture macros list*
%AMRoundRect*
0 Rectangle with rounded corners*
0 $1 Rounding radius*
0 $2 $3 $4 $5 $6 $7 $8 $9 X,Y pos of 4 corners*
0 Add a 4 corners polygon primitive as box body*
4,1,4,$2,$3,$4,$5,$6,$7,$8,$9,$2,$3,0*
0 Add four circle primitives for the rounded corners*
1,1,$1+$1,$2,$3*
1,1,$1+$1,$4,$5*
1,1,$1+$1,$6,$7*
1,1,$1+$1,$8,$9*
0 Add four rect primitives between the rounded corners*
20,1,$1+$1,$2,$3,$4,$5,0*
20,1,$1+$1,$4,$5,$6,$7,0*
20,1,$1+$1,$6,$7,$8,$9,0*
20,1,$1+$1,$8,$9,$2,$3,0*%
G04 Aperture macros list end*
%ADD10C,0.100000*%
%ADD11RoundRect,0.147500X-0.017678X0.226274X-0.226274X0.017678X0.017678X-0.226274X0.226274X-0.017678X0*%
G04 APERTURE END LIST*
D10*
X85695746Y-72854254D02*
G75*
G02*
X85595746Y-72854254I-50000J0D01*
G01*
X85595746Y-72854254D02*
G75*
G02*
X85695746Y-72854254I50000J0D01*
G01*
X56445746Y-61604254D02*
G75*
G02*
X56345746Y-61604254I-50000J0D01*
G01*
X56345746Y-61604254D02*
G75*
G02*
X56445746Y-61604254I50000J0D01*
G01*
X60945746Y-52604254D02*
G75*
G02*
X60845746Y-52604254I-50000J0D01*
G01*
X60845746Y-52604254D02*
G75*
G02*
X60945746Y-52604254I50000J0D01*
G01*
X72195746Y-88604254D02*
G75*
G02*
X72095746Y-88604254I-50000J0D01*
G01*
X72095746Y-88604254D02*
G75*
G02*
X72195746Y-88604254I50000J0D01*
G01*
X85695746Y-70604254D02*
G75*
G02*
X85595746Y-70604254I-50000J0D01*
G01*
X85595746Y-70604254D02*
G75*
G02*
X85695746Y-70604254I50000J0D01*
G01*
X76695746Y-79604254D02*
G75*
G02*
X76595746Y-79604254I-50000J0D01*
G01*
X76595746Y-79604254D02*
G75*
G02*
X76695746Y-79604254I50000J0D01*
G01*
X74445746Y-68354254D02*
G75*
G02*
X74345746Y-68354254I-50000J0D01*
G01*
X74345746Y-68354254D02*
G75*
G02*
X74445746Y-68354254I50000J0D01*
G01*
X56445746Y-50354254D02*
G75*
G02*
X56345746Y-50354254I-50000J0D01*
G01*
X56345746Y-50354254D02*
G75*
G02*
X56445746Y-50354254I50000J0D01*
G01*
X94695746Y-75104254D02*
G75*
G02*
X94595746Y-75104254I-50000J0D01*
G01*
X94595746Y-75104254D02*
G75*
G02*
X94695746Y-75104254I50000J0D01*
G01*
X67695746Y-88604254D02*
G75*
G02*
X67595746Y-88604254I-50000J0D01*
G01*
X67595746Y-88604254D02*
G75*
G02*
X67695746Y-88604254I50000J0D01*
G01*
X92445746Y-50354254D02*
G75*
G02*
X92345746Y-50354254I-50000J0D01*
G01*
X92345746Y-50354254D02*
G75*
G02*
X92445746Y-50354254I50000J0D01*
G01*
X87945746Y-54854254D02*
G75*
G02*
X87845746Y-54854254I-50000J0D01*
G01*
X87845746Y-54854254D02*
G75*
G02*
X87945746Y-54854254I50000J0D01*
G01*
X67695746Y-86354254D02*
G75*
G02*
X67595746Y-86354254I-50000J0D01*
G01*
X67595746Y-86354254D02*
G75*
G02*
X67695746Y-86354254I50000J0D01*
G01*
X74445746Y-81854254D02*
G75*
G02*
X74345746Y-81854254I-50000J0D01*
G01*
X74345746Y-81854254D02*
G75*
G02*
X74445746Y-81854254I50000J0D01*
G01*
X87945746Y-57104254D02*
G75*
G02*
X87845746Y-57104254I-50000J0D01*
G01*
X87845746Y-57104254D02*
G75*
G02*
X87945746Y-57104254I50000J0D01*
G01*
X92445746Y-72854254D02*
G75*
G02*
X92345746Y-72854254I-50000J0D01*
G01*
X92345746Y-72854254D02*
G75*
G02*
X92445746Y-72854254I50000J0D01*
G01*
X65445746Y-88604254D02*
G75*
G02*
X65345746Y-88604254I-50000J0D01*
G01*
X65345746Y-88604254D02*
G75*
G02*
X65445746Y-88604254I50000J0D01*
G01*
X92445746Y-81854254D02*
G75*
G02*
X92345746Y-81854254I-50000J0D01*
G01*
X92345746Y-81854254D02*
G75*
G02*
X92445746Y-81854254I50000J0D01*
G01*
X60945746Y-57104254D02*
G75*
G02*
X60845746Y-57104254I-50000J0D01*
G01*
X60845746Y-57104254D02*
G75*
G02*
X60945746Y-57104254I50000J0D01*
G01*
X72195746Y-50354254D02*
G75*
G02*
X72095746Y-50354254I-50000J0D01*
G01*
X72095746Y-50354254D02*
G75*
G02*
X72195746Y-50354254I50000J0D01*
G01*
X72195746Y-70604254D02*
G75*
G02*
X72095746Y-70604254I-50000J0D01*
G01*
X72095746Y-70604254D02*
G75*
G02*
X72195746Y-70604254I50000J0D01*
G01*
X54195746Y-81854254D02*
G75*
G02*
X54095746Y-81854254I-50000J0D01*
G01*
X54095746Y-81854254D02*
G75*
G02*
X54195746Y-81854254I50000J0D01*
G01*
X83445746Y-81854254D02*
G75*
G02*
X83345746Y-81854254I-50000J0D01*
G01*
X83345746Y-81854254D02*
G75*
G02*
X83445746Y-81854254I50000J0D01*
G01*
X83445746Y-75104254D02*
G75*
G02*
X83345746Y-75104254I-50000J0D01*
G01*
X83345746Y-75104254D02*
G75*
G02*
X83445746Y-75104254I50000J0D01*
G01*
X69945746Y-57104254D02*
G75*
G02*
X69845746Y-57104254I-50000J0D01*
G01*
X69845746Y-57104254D02*
G75*
G02*
X69945746Y-57104254I50000J0D01*
G01*
X69945746Y-61604254D02*
G75*
G02*
X69845746Y-61604254I-50000J0D01*
G01*
X69845746Y-61604254D02*
G75*
G02*
X69945746Y-61604254I50000J0D01*
G01*
X69945746Y-84104254D02*
G75*
G02*
X69845746Y-84104254I-50000J0D01*
G01*
X69845746Y-84104254D02*
G75*
G02*
X69945746Y-84104254I50000J0D01*
G01*
X81195746Y-79604254D02*
G75*
G02*
X81095746Y-79604254I-50000J0D01*
G01*
X81095746Y-79604254D02*
G75*
G02*
X81195746Y-79604254I50000J0D01*
G01*
X76695746Y-81854254D02*
G75*
G02*
X76595746Y-81854254I-50000J0D01*
G01*
X76595746Y-81854254D02*
G75*
G02*
X76695746Y-81854254I50000J0D01*
G01*
X83445746Y-77354254D02*
G75*
G02*
X83345746Y-77354254I-50000J0D01*
G01*
X83345746Y-77354254D02*
G75*
G02*
X83445746Y-77354254I50000J0D01*
G01*
X87945746Y-75104254D02*
G75*
G02*
X87845746Y-75104254I-50000J0D01*
G01*
X87845746Y-75104254D02*
G75*
G02*
X87945746Y-75104254I50000J0D01*
G01*
X76695746Y-72854254D02*
G75*
G02*
X76595746Y-72854254I-50000J0D01*
G01*
X76595746Y-72854254D02*
G75*
G02*
X76695746Y-72854254I50000J0D01*
G01*
X63195746Y-90854254D02*
G75*
G02*
X63095746Y-90854254I-50000J0D01*
G01*
X63095746Y-90854254D02*
G75*
G02*
X63195746Y-90854254I50000J0D01*
G01*
X65445746Y-79604254D02*
G75*
G02*
X65345746Y-79604254I-50000J0D01*
G01*
X65345746Y-79604254D02*
G75*
G02*
X65445746Y-79604254I50000J0D01*
G01*
X65445746Y-81854254D02*
G75*
G02*
X65345746Y-81854254I-50000J0D01*
G01*
X65345746Y-81854254D02*
G75*
G02*
X65445746Y-81854254I50000J0D01*
G01*
X56445746Y-52604254D02*
G75*
G02*
X56345746Y-52604254I-50000J0D01*
G01*
X56345746Y-52604254D02*
G75*
G02*
X56445746Y-52604254I50000J0D01*
G01*
X78945746Y-68354254D02*
G75*
G02*
X78845746Y-68354254I-50000J0D01*
G01*
X78845746Y-68354254D02*
G75*
G02*
X78945746Y-68354254I50000J0D01*
G01*
X87945746Y-50354254D02*
G75*
G02*
X87845746Y-50354254I-50000J0D01*
G01*
X87845746Y-50354254D02*
G75*
G02*
X87945746Y-50354254I50000J0D01*
G01*
X51945746Y-72854254D02*
G75*
G02*
X51845746Y-72854254I-50000J0D01*
G01*
X51845746Y-72854254D02*
G75*
G02*
X51945746Y-72854254I50000J0D01*
G01*
X58695746Y-63854254D02*
G75*
G02*
X58595746Y-63854254I-50000J0D01*
G01*
X58595746Y-63854254D02*
G75*
G02*
X58695746Y-63854254I50000J0D01*
G01*
X94695746Y-63854254D02*
G75*
G02*
X94595746Y-63854254I-50000J0D01*
G01*
X94595746Y-63854254D02*
G75*
G02*
X94695746Y-63854254I50000J0D01*
G01*
X65445746Y-84104254D02*
G75*
G02*
X65345746Y-84104254I-50000J0D01*
G01*
X65345746Y-84104254D02*
G75*
G02*
X65445746Y-84104254I50000J0D01*
G01*
X58695746Y-81854254D02*
G75*
G02*
X58595746Y-81854254I-50000J0D01*
G01*
X58595746Y-81854254D02*
G75*
G02*
X58695746Y-81854254I50000J0D01*
G01*
X92445746Y-59354254D02*
G75*
G02*
X92345746Y-59354254I-50000J0D01*
G01*
X92345746Y-59354254D02*
G75*
G02*
X92445746Y-59354254I50000J0D01*
G01*
X67695746Y-75104254D02*
G75*
G02*
X67595746Y-75104254I-50000J0D01*
G01*
X67595746Y-75104254D02*
G75*
G02*
X67695746Y-75104254I50000J0D01*
G01*
X72195746Y-54854254D02*
G75*
G02*
X72095746Y-54854254I-50000J0D01*
G01*
X72095746Y-54854254D02*
G75*
G02*
X72195746Y-54854254I50000J0D01*
G01*
X76695746Y-70604254D02*
G75*
G02*
X76595746Y-70604254I-50000J0D01*
G01*
X76595746Y-70604254D02*
G75*
G02*
X76695746Y-70604254I50000J0D01*
G01*
X76695746Y-75104254D02*
G75*
G02*
X76595746Y-75104254I-50000J0D01*
G01*
X76595746Y-75104254D02*
G75*
G02*
X76695746Y-75104254I50000J0D01*
G01*
X94695746Y-93104254D02*
G75*
G02*
X94595746Y-93104254I-50000J0D01*
G01*
X94595746Y-93104254D02*
G75*
G02*
X94695746Y-93104254I50000J0D01*
G01*
X60945746Y-84104254D02*
G75*
G02*
X60845746Y-84104254I-50000J0D01*
G01*
X60845746Y-84104254D02*
G75*
G02*
X60945746Y-84104254I50000J0D01*
G01*
X85695746Y-88604254D02*
G75*
G02*
X85595746Y-88604254I-50000J0D01*
G01*
X85595746Y-88604254D02*
G75*
G02*
X85695746Y-88604254I50000J0D01*
G01*
X60945746Y-68354254D02*
G75*
G02*
X60845746Y-68354254I-50000J0D01*
G01*
X60845746Y-68354254D02*
G75*
G02*
X60945746Y-68354254I50000J0D01*
G01*
X65445746Y-52604254D02*
G75*
G02*
X65345746Y-52604254I-50000J0D01*
G01*
X65345746Y-52604254D02*
G75*
G02*
X65445746Y-52604254I50000J0D01*
G01*
X72195746Y-68354254D02*
G75*
G02*
X72095746Y-68354254I-50000J0D01*
G01*
X72095746Y-68354254D02*
G75*
G02*
X72195746Y-68354254I50000J0D01*
G01*
X54195746Y-50354254D02*
G75*
G02*
X54095746Y-50354254I-50000J0D01*
G01*
X54095746Y-50354254D02*
G75*
G02*
X54195746Y-50354254I50000J0D01*
G01*
X56445746Y-57104254D02*
G75*
G02*
X56345746Y-57104254I-50000J0D01*
G01*
X56345746Y-57104254D02*
G75*
G02*
X56445746Y-57104254I50000J0D01*
G01*
X58695746Y-59354254D02*
G75*
G02*
X58595746Y-59354254I-50000J0D01*
G01*
X58595746Y-59354254D02*
G75*
G02*
X58695746Y-59354254I50000J0D01*
G01*
X72195746Y-84104254D02*
G75*
G02*
X72095746Y-84104254I-50000J0D01*
G01*
X72095746Y-84104254D02*
G75*
G02*
X72195746Y-84104254I50000J0D01*
G01*
X87945746Y-86354254D02*
G75*
G02*
X87845746Y-86354254I-50000J0D01*
G01*
X87845746Y-86354254D02*
G75*
G02*
X87945746Y-86354254I50000J0D01*
G01*
X65445746Y-54854254D02*
G75*
G02*
X65345746Y-54854254I-50000J0D01*
G01*
X65345746Y-54854254D02*
G75*
G02*
X65445746Y-54854254I50000J0D01*
G01*
X92445746Y-84104254D02*
G75*
G02*
X92345746Y-84104254I-50000J0D01*
G01*
X92345746Y-84104254D02*
G75*
G02*
X92445746Y-84104254I50000J0D01*
G01*
X92445746Y-75104254D02*
G75*
G02*
X92345746Y-75104254I-50000J0D01*
G01*
X92345746Y-75104254D02*
G75*
G02*
X92445746Y-75104254I50000J0D01*
G01*
X63195746Y-93104254D02*
G75*
G02*
X63095746Y-93104254I-50000J0D01*
G01*
X63095746Y-93104254D02*
G75*
G02*
X63195746Y-93104254I50000J0D01*
G01*
X76695746Y-52604254D02*
G75*
G02*
X76595746Y-52604254I-50000J0D01*
G01*
X76595746Y-52604254D02*
G75*
G02*
X76695746Y-52604254I50000J0D01*
G01*
X54195746Y-52604254D02*
G75*
G02*
X54095746Y-52604254I-50000J0D01*
G01*
X54095746Y-52604254D02*
G75*
G02*
X54195746Y-52604254I50000J0D01*
G01*
X94695746Y-52604254D02*
G75*
G02*
X94595746Y-52604254I-50000J0D01*
G01*
X94595746Y-52604254D02*
G75*
G02*
X94695746Y-52604254I50000J0D01*
G01*
X92445746Y-63854254D02*
G75*
G02*
X92345746Y-63854254I-50000J0D01*
G01*
X92345746Y-63854254D02*
G75*
G02*
X92445746Y-63854254I50000J0D01*
G01*
X83445746Y-57104254D02*
G75*
G02*
X83345746Y-57104254I-50000J0D01*
G01*
X83345746Y-57104254D02*
G75*
G02*
X83445746Y-57104254I50000J0D01*
G01*
X72195746Y-86354254D02*
G75*
G02*
X72095746Y-86354254I-50000J0D01*
G01*
X72095746Y-86354254D02*
G75*
G02*
X72195746Y-86354254I50000J0D01*
G01*
X54195746Y-70604254D02*
G75*
G02*
X54095746Y-70604254I-50000J0D01*
G01*
X54095746Y-70604254D02*
G75*
G02*
X54195746Y-70604254I50000J0D01*
G01*
X58695746Y-52604254D02*
G75*
G02*
X58595746Y-52604254I-50000J0D01*
G01*
X58595746Y-52604254D02*
G75*
G02*
X58695746Y-52604254I50000J0D01*
G01*
X90195746Y-52604254D02*
G75*
G02*
X90095746Y-52604254I-50000J0D01*
G01*
X90095746Y-52604254D02*
G75*
G02*
X90195746Y-52604254I50000J0D01*
G01*
X63195746Y-68354254D02*
G75*
G02*
X63095746Y-68354254I-50000J0D01*
G01*
X63095746Y-68354254D02*
G75*
G02*
X63195746Y-68354254I50000J0D01*
G01*
X54195746Y-57104254D02*
G75*
G02*
X54095746Y-57104254I-50000J0D01*
G01*
X54095746Y-57104254D02*
G75*
G02*
X54195746Y-57104254I50000J0D01*
G01*
X72195746Y-79604254D02*
G75*
G02*
X72095746Y-79604254I-50000J0D01*
G01*
X72095746Y-79604254D02*
G75*
G02*
X72195746Y-79604254I50000J0D01*
G01*
X72195746Y-93104254D02*
G75*
G02*
X72095746Y-93104254I-50000J0D01*
G01*
X72095746Y-93104254D02*
G75*
G02*
X72195746Y-93104254I50000J0D01*
G01*
X92445746Y-57104254D02*
G75*
G02*
X92345746Y-57104254I-50000J0D01*
G01*
X92345746Y-57104254D02*
G75*
G02*
X92445746Y-57104254I50000J0D01*
G01*
X94695746Y-68354254D02*
G75*
G02*
X94595746Y-68354254I-50000J0D01*
G01*
X94595746Y-68354254D02*
G75*
G02*
X94695746Y-68354254I50000J0D01*
G01*
X90195746Y-88604254D02*
G75*
G02*
X90095746Y-88604254I-50000J0D01*
G01*
X90095746Y-88604254D02*
G75*
G02*
X90195746Y-88604254I50000J0D01*
G01*
X69945746Y-59354254D02*
G75*
G02*
X69845746Y-59354254I-50000J0D01*
G01*
X69845746Y-59354254D02*
G75*
G02*
X69945746Y-59354254I50000J0D01*
G01*
X76695746Y-57104254D02*
G75*
G02*
X76595746Y-57104254I-50000J0D01*
G01*
X76595746Y-57104254D02*
G75*
G02*
X76695746Y-57104254I50000J0D01*
G01*
X63195746Y-61604254D02*
G75*
G02*
X63095746Y-61604254I-50000J0D01*
G01*
X63095746Y-61604254D02*
G75*
G02*
X63195746Y-61604254I50000J0D01*
G01*
X67695746Y-57104254D02*
G75*
G02*
X67595746Y-57104254I-50000J0D01*
G01*
X67595746Y-57104254D02*
G75*
G02*
X67695746Y-57104254I50000J0D01*
G01*
X54195746Y-59354254D02*
G75*
G02*
X54095746Y-59354254I-50000J0D01*
G01*
X54095746Y-59354254D02*
G75*
G02*
X54195746Y-59354254I50000J0D01*
G01*
X54195746Y-77354254D02*
G75*
G02*
X54095746Y-77354254I-50000J0D01*
G01*
X54095746Y-77354254D02*
G75*
G02*
X54195746Y-77354254I50000J0D01*
G01*
X90195746Y-61604254D02*
G75*
G02*
X90095746Y-61604254I-50000J0D01*
G01*
X90095746Y-61604254D02*
G75*
G02*
X90195746Y-61604254I50000J0D01*
G01*
X85695746Y-59354254D02*
G75*
G02*
X85595746Y-59354254I-50000J0D01*
G01*
X85595746Y-59354254D02*
G75*
G02*
X85695746Y-59354254I50000J0D01*
G01*
X92445746Y-77354254D02*
G75*
G02*
X92345746Y-77354254I-50000J0D01*
G01*
X92345746Y-77354254D02*
G75*
G02*
X92445746Y-77354254I50000J0D01*
G01*
X90195746Y-66104254D02*
G75*
G02*
X90095746Y-66104254I-50000J0D01*
G01*
X90095746Y-66104254D02*
G75*
G02*
X90195746Y-66104254I50000J0D01*
G01*
X85695746Y-68354254D02*
G75*
G02*
X85595746Y-68354254I-50000J0D01*
G01*
X85595746Y-68354254D02*
G75*
G02*
X85695746Y-68354254I50000J0D01*
G01*
X81195746Y-68354254D02*
G75*
G02*
X81095746Y-68354254I-50000J0D01*
G01*
X81095746Y-68354254D02*
G75*
G02*
X81195746Y-68354254I50000J0D01*
G01*
X94695746Y-86354254D02*
G75*
G02*
X94595746Y-86354254I-50000J0D01*
G01*
X94595746Y-86354254D02*
G75*
G02*
X94695746Y-86354254I50000J0D01*
G01*
X92445746Y-90854254D02*
G75*
G02*
X92345746Y-90854254I-50000J0D01*
G01*
X92345746Y-90854254D02*
G75*
G02*
X92445746Y-90854254I50000J0D01*
G01*
X83445746Y-52604254D02*
G75*
G02*
X83345746Y-52604254I-50000J0D01*
G01*
X83345746Y-52604254D02*
G75*
G02*
X83445746Y-52604254I50000J0D01*
G01*
X83445746Y-70604254D02*
G75*
G02*
X83345746Y-70604254I-50000J0D01*
G01*
X83345746Y-70604254D02*
G75*
G02*
X83445746Y-70604254I50000J0D01*
G01*
X54195746Y-75104254D02*
G75*
G02*
X54095746Y-75104254I-50000J0D01*
G01*
X54095746Y-75104254D02*
G75*
G02*
X54195746Y-75104254I50000J0D01*
G01*
X74445746Y-57104254D02*
G75*
G02*
X74345746Y-57104254I-50000J0D01*
G01*
X74345746Y-57104254D02*
G75*
G02*
X74445746Y-57104254I50000J0D01*
G01*
X83445746Y-63854254D02*
G75*
G02*
X83345746Y-63854254I-50000J0D01*
G01*
X83345746Y-63854254D02*
G75*
G02*
X83445746Y-63854254I50000J0D01*
G01*
X87945746Y-52604254D02*
G75*
G02*
X87845746Y-52604254I-50000J0D01*
G01*
X87845746Y-52604254D02*
G75*
G02*
X87945746Y-52604254I50000J0D01*
G01*
X94695746Y-79604254D02*
G75*
G02*
X94595746Y-79604254I-50000J0D01*
G01*
X94595746Y-79604254D02*
G75*
G02*
X94695746Y-79604254I50000J0D01*
G01*
X51945746Y-61604254D02*
G75*
G02*
X51845746Y-61604254I-50000J0D01*
G01*
X51845746Y-61604254D02*
G75*
G02*
X51945746Y-61604254I50000J0D01*
G01*
X72195746Y-77354254D02*
G75*
G02*
X72095746Y-77354254I-50000J0D01*
G01*
X72095746Y-77354254D02*
G75*
G02*
X72195746Y-77354254I50000J0D01*
G01*
X85695746Y-66104254D02*
G75*
G02*
X85595746Y-66104254I-50000J0D01*
G01*
X85595746Y-66104254D02*
G75*
G02*
X85695746Y-66104254I50000J0D01*
G01*
X69945746Y-75104254D02*
G75*
G02*
X69845746Y-75104254I-50000J0D01*
G01*
X69845746Y-75104254D02*
G75*
G02*
X69945746Y-75104254I50000J0D01*
G01*
X81195746Y-93104254D02*
G75*
G02*
X81095746Y-93104254I-50000J0D01*
G01*
X81095746Y-93104254D02*
G75*
G02*
X81195746Y-93104254I50000J0D01*
G01*
X58695746Y-88604254D02*
G75*
G02*
X58595746Y-88604254I-50000J0D01*
G01*
X58595746Y-88604254D02*
G75*
G02*
X58695746Y-88604254I50000J0D01*
G01*
X85695746Y-93104254D02*
G75*
G02*
X85595746Y-93104254I-50000J0D01*
G01*
X85595746Y-93104254D02*
G75*
G02*
X85695746Y-93104254I50000J0D01*
G01*
X90195746Y-84104254D02*
G75*
G02*
X90095746Y-84104254I-50000J0D01*
G01*
X90095746Y-84104254D02*
G75*
G02*
X90195746Y-84104254I50000J0D01*
G01*
X78945746Y-61604254D02*
G75*
G02*
X78845746Y-61604254I-50000J0D01*
G01*
X78845746Y-61604254D02*
G75*
G02*
X78945746Y-61604254I50000J0D01*
G01*
X51945746Y-75104254D02*
G75*
G02*
X51845746Y-75104254I-50000J0D01*
G01*
X51845746Y-75104254D02*
G75*
G02*
X51945746Y-75104254I50000J0D01*
G01*
X69945746Y-50354254D02*
G75*
G02*
X69845746Y-50354254I-50000J0D01*
G01*
X69845746Y-50354254D02*
G75*
G02*
X69945746Y-50354254I50000J0D01*
G01*
X51945746Y-59354254D02*
G75*
G02*
X51845746Y-59354254I-50000J0D01*
G01*
X51845746Y-59354254D02*
G75*
G02*
X51945746Y-59354254I50000J0D01*
G01*
X94695746Y-81854254D02*
G75*
G02*
X94595746Y-81854254I-50000J0D01*
G01*
X94595746Y-81854254D02*
G75*
G02*
X94695746Y-81854254I50000J0D01*
G01*
X72195746Y-81854254D02*
G75*
G02*
X72095746Y-81854254I-50000J0D01*
G01*
X72095746Y-81854254D02*
G75*
G02*
X72195746Y-81854254I50000J0D01*
G01*
X92445746Y-68354254D02*
G75*
G02*
X92345746Y-68354254I-50000J0D01*
G01*
X92345746Y-68354254D02*
G75*
G02*
X92445746Y-68354254I50000J0D01*
G01*
X58695746Y-72854254D02*
G75*
G02*
X58595746Y-72854254I-50000J0D01*
G01*
X58595746Y-72854254D02*
G75*
G02*
X58695746Y-72854254I50000J0D01*
G01*
X87945746Y-72854254D02*
G75*
G02*
X87845746Y-72854254I-50000J0D01*
G01*
X87845746Y-72854254D02*
G75*
G02*
X87945746Y-72854254I50000J0D01*
G01*
X60945746Y-70604254D02*
G75*
G02*
X60845746Y-70604254I-50000J0D01*
G01*
X60845746Y-70604254D02*
G75*
G02*
X60945746Y-70604254I50000J0D01*
G01*
X87945746Y-93104254D02*
G75*
G02*
X87845746Y-93104254I-50000J0D01*
G01*
X87845746Y-93104254D02*
G75*
G02*
X87945746Y-93104254I50000J0D01*
G01*
X51945746Y-57104254D02*
G75*
G02*
X51845746Y-57104254I-50000J0D01*
G01*
X51845746Y-57104254D02*
G75*
G02*
X51945746Y-57104254I50000J0D01*
G01*
X51945746Y-79604254D02*
G75*
G02*
X51845746Y-79604254I-50000J0D01*
G01*
X51845746Y-79604254D02*
G75*
G02*
X51945746Y-79604254I50000J0D01*
G01*
X85695746Y-50354254D02*
G75*
G02*
X85595746Y-50354254I-50000J0D01*
G01*
X85595746Y-50354254D02*
G75*
G02*
X85695746Y-50354254I50000J0D01*
G01*
X69945746Y-72854254D02*
G75*
G02*
X69845746Y-72854254I-50000J0D01*
G01*
X69845746Y-72854254D02*
G75*
G02*
X69945746Y-72854254I50000J0D01*
G01*
X90195746Y-75104254D02*
G75*
G02*
X90095746Y-75104254I-50000J0D01*
G01*
X90095746Y-75104254D02*
G75*
G02*
X90195746Y-75104254I50000J0D01*
G01*
X67695746Y-54854254D02*
G75*
G02*
X67595746Y-54854254I-50000J0D01*
G01*
X67595746Y-54854254D02*
G75*
G02*
X67695746Y-54854254I50000J0D01*
G01*
X56445746Y-93104254D02*
G75*
G02*
X56345746Y-93104254I-50000J0D01*
G01*
X56345746Y-93104254D02*
G75*
G02*
X56445746Y-93104254I50000J0D01*
G01*
X54195746Y-86354254D02*
G75*
G02*
X54095746Y-86354254I-50000J0D01*
G01*
X54095746Y-86354254D02*
G75*
G02*
X54195746Y-86354254I50000J0D01*
G01*
X58695746Y-84104254D02*
G75*
G02*
X58595746Y-84104254I-50000J0D01*
G01*
X58595746Y-84104254D02*
G75*
G02*
X58695746Y-84104254I50000J0D01*
G01*
X54195746Y-61604254D02*
G75*
G02*
X54095746Y-61604254I-50000J0D01*
G01*
X54095746Y-61604254D02*
G75*
G02*
X54195746Y-61604254I50000J0D01*
G01*
X85695746Y-81854254D02*
G75*
G02*
X85595746Y-81854254I-50000J0D01*
G01*
X85595746Y-81854254D02*
G75*
G02*
X85695746Y-81854254I50000J0D01*
G01*
X85695746Y-86354254D02*
G75*
G02*
X85595746Y-86354254I-50000J0D01*
G01*
X85595746Y-86354254D02*
G75*
G02*
X85695746Y-86354254I50000J0D01*
G01*
X78945746Y-84104254D02*
G75*
G02*
X78845746Y-84104254I-50000J0D01*
G01*
X78845746Y-84104254D02*
G75*
G02*
X78945746Y-84104254I50000J0D01*
G01*
X60945746Y-66104254D02*
G75*
G02*
X60845746Y-66104254I-50000J0D01*
G01*
X60845746Y-66104254D02*
G75*
G02*
X60945746Y-66104254I50000J0D01*
G01*
X58695746Y-70604254D02*
G75*
G02*
X58595746Y-70604254I-50000J0D01*
G01*
X58595746Y-70604254D02*
G75*
G02*
X58695746Y-70604254I50000J0D01*
G01*
X94695746Y-66104254D02*
G75*
G02*
X94595746Y-66104254I-50000J0D01*
G01*
X94595746Y-66104254D02*
G75*
G02*
X94695746Y-66104254I50000J0D01*
G01*
X56445746Y-59354254D02*
G75*
G02*
X56345746Y-59354254I-50000J0D01*
G01*
X56345746Y-59354254D02*
G75*
G02*
X56445746Y-59354254I50000J0D01*
G01*
X60945746Y-59354254D02*
G75*
G02*
X60845746Y-59354254I-50000J0D01*
G01*
X60845746Y-59354254D02*
G75*
G02*
X60945746Y-59354254I50000J0D01*
G01*
X51945746Y-70604254D02*
G75*
G02*
X51845746Y-70604254I-50000J0D01*
G01*
X51845746Y-70604254D02*
G75*
G02*
X51945746Y-70604254I50000J0D01*
G01*
X78945746Y-52604254D02*
G75*
G02*
X78845746Y-52604254I-50000J0D01*
G01*
X78845746Y-52604254D02*
G75*
G02*
X78945746Y-52604254I50000J0D01*
G01*
X56445746Y-66104254D02*
G75*
G02*
X56345746Y-66104254I-50000J0D01*
G01*
X56345746Y-66104254D02*
G75*
G02*
X56445746Y-66104254I50000J0D01*
G01*
X85695746Y-57104254D02*
G75*
G02*
X85595746Y-57104254I-50000J0D01*
G01*
X85595746Y-57104254D02*
G75*
G02*
X85695746Y-57104254I50000J0D01*
G01*
X83445746Y-54854254D02*
G75*
G02*
X83345746Y-54854254I-50000J0D01*
G01*
X83345746Y-54854254D02*
G75*
G02*
X83445746Y-54854254I50000J0D01*
G01*
X65445746Y-57104254D02*
G75*
G02*
X65345746Y-57104254I-50000J0D01*
G01*
X65345746Y-57104254D02*
G75*
G02*
X65445746Y-57104254I50000J0D01*
G01*
X63195746Y-52604254D02*
G75*
G02*
X63095746Y-52604254I-50000J0D01*
G01*
X63095746Y-52604254D02*
G75*
G02*
X63195746Y-52604254I50000J0D01*
G01*
X72195746Y-63854254D02*
G75*
G02*
X72095746Y-63854254I-50000J0D01*
G01*
X72095746Y-63854254D02*
G75*
G02*
X72195746Y-63854254I50000J0D01*
G01*
X94695746Y-70604254D02*
G75*
G02*
X94595746Y-70604254I-50000J0D01*
G01*
X94595746Y-70604254D02*
G75*
G02*
X94695746Y-70604254I50000J0D01*
G01*
X94695746Y-59354254D02*
G75*
G02*
X94595746Y-59354254I-50000J0D01*
G01*
X94595746Y-59354254D02*
G75*
G02*
X94695746Y-59354254I50000J0D01*
G01*
X69945746Y-54854254D02*
G75*
G02*
X69845746Y-54854254I-50000J0D01*
G01*
X69845746Y-54854254D02*
G75*
G02*
X69945746Y-54854254I50000J0D01*
G01*
X81195746Y-57104254D02*
G75*
G02*
X81095746Y-57104254I-50000J0D01*
G01*
X81095746Y-57104254D02*
G75*
G02*
X81195746Y-57104254I50000J0D01*
G01*
X63195746Y-54854254D02*
G75*
G02*
X63095746Y-54854254I-50000J0D01*
G01*
X63095746Y-54854254D02*
G75*
G02*
X63195746Y-54854254I50000J0D01*
G01*
X76695746Y-59354254D02*
G75*
G02*
X76595746Y-59354254I-50000J0D01*
G01*
X76595746Y-59354254D02*
G75*
G02*
X76695746Y-59354254I50000J0D01*
G01*
X94695746Y-61604254D02*
G75*
G02*
X94595746Y-61604254I-50000J0D01*
G01*
X94595746Y-61604254D02*
G75*
G02*
X94695746Y-61604254I50000J0D01*
G01*
X67695746Y-59354254D02*
G75*
G02*
X67595746Y-59354254I-50000J0D01*
G01*
X67595746Y-59354254D02*
G75*
G02*
X67695746Y-59354254I50000J0D01*
G01*
X78945746Y-93104254D02*
G75*
G02*
X78845746Y-93104254I-50000J0D01*
G01*
X78845746Y-93104254D02*
G75*
G02*
X78945746Y-93104254I50000J0D01*
G01*
X54195746Y-63854254D02*
G75*
G02*
X54095746Y-63854254I-50000J0D01*
G01*
X54095746Y-63854254D02*
G75*
G02*
X54195746Y-63854254I50000J0D01*
G01*
X56445746Y-86354254D02*
G75*
G02*
X56345746Y-86354254I-50000J0D01*
G01*
X56345746Y-86354254D02*
G75*
G02*
X56445746Y-86354254I50000J0D01*
G01*
X81195746Y-54854254D02*
G75*
G02*
X81095746Y-54854254I-50000J0D01*
G01*
X81095746Y-54854254D02*
G75*
G02*
X81195746Y-54854254I50000J0D01*
G01*
X83445746Y-59354254D02*
G75*
G02*
X83345746Y-59354254I-50000J0D01*
G01*
X83345746Y-59354254D02*
G75*
G02*
X83445746Y-59354254I50000J0D01*
G01*
X76695746Y-77354254D02*
G75*
G02*
X76595746Y-77354254I-50000J0D01*
G01*
X76595746Y-77354254D02*
G75*
G02*
X76695746Y-77354254I50000J0D01*
G01*
X83445746Y-88604254D02*
G75*
G02*
X83345746Y-88604254I-50000J0D01*
G01*
X83345746Y-88604254D02*
G75*
G02*
X83445746Y-88604254I50000J0D01*
G01*
X85695746Y-84104254D02*
G75*
G02*
X85595746Y-84104254I-50000J0D01*
G01*
X85595746Y-84104254D02*
G75*
G02*
X85695746Y-84104254I50000J0D01*
G01*
X87945746Y-79604254D02*
G75*
G02*
X87845746Y-79604254I-50000J0D01*
G01*
X87845746Y-79604254D02*
G75*
G02*
X87945746Y-79604254I50000J0D01*
G01*
X63195746Y-72854254D02*
G75*
G02*
X63095746Y-72854254I-50000J0D01*
G01*
X63095746Y-72854254D02*
G75*
G02*
X63195746Y-72854254I50000J0D01*
G01*
X60945746Y-86354254D02*
G75*
G02*
X60845746Y-86354254I-50000J0D01*
G01*
X60845746Y-86354254D02*
G75*
G02*
X60945746Y-86354254I50000J0D01*
G01*
X72195746Y-59354254D02*
G75*
G02*
X72095746Y-59354254I-50000J0D01*
G01*
X72095746Y-59354254D02*
G75*
G02*
X72195746Y-59354254I50000J0D01*
G01*
X51945746Y-90854254D02*
G75*
G02*
X51845746Y-90854254I-50000J0D01*
G01*
X51845746Y-90854254D02*
G75*
G02*
X51945746Y-90854254I50000J0D01*
G01*
X56445746Y-68354254D02*
G75*
G02*
X56345746Y-68354254I-50000J0D01*
G01*
X56345746Y-68354254D02*
G75*
G02*
X56445746Y-68354254I50000J0D01*
G01*
X65445746Y-59354254D02*
G75*
G02*
X65345746Y-59354254I-50000J0D01*
G01*
X65345746Y-59354254D02*
G75*
G02*
X65445746Y-59354254I50000J0D01*
G01*
X72195746Y-72854254D02*
G75*
G02*
X72095746Y-72854254I-50000J0D01*
G01*
X72095746Y-72854254D02*
G75*
G02*
X72195746Y-72854254I50000J0D01*
G01*
X65445746Y-75104254D02*
G75*
G02*
X65345746Y-75104254I-50000J0D01*
G01*
X65345746Y-75104254D02*
G75*
G02*
X65445746Y-75104254I50000J0D01*
G01*
X60945746Y-77354254D02*
G75*
G02*
X60845746Y-77354254I-50000J0D01*
G01*
X60845746Y-77354254D02*
G75*
G02*
X60945746Y-77354254I50000J0D01*
G01*
X58695746Y-54854254D02*
G75*
G02*
X58595746Y-54854254I-50000J0D01*
G01*
X58595746Y-54854254D02*
G75*
G02*
X58695746Y-54854254I50000J0D01*
G01*
X63195746Y-66104254D02*
G75*
G02*
X63095746Y-66104254I-50000J0D01*
G01*
X63095746Y-66104254D02*
G75*
G02*
X63195746Y-66104254I50000J0D01*
G01*
X60945746Y-61604254D02*
G75*
G02*
X60845746Y-61604254I-50000J0D01*
G01*
X60845746Y-61604254D02*
G75*
G02*
X60945746Y-61604254I50000J0D01*
G01*
X69945746Y-79604254D02*
G75*
G02*
X69845746Y-79604254I-50000J0D01*
G01*
X69845746Y-79604254D02*
G75*
G02*
X69945746Y-79604254I50000J0D01*
G01*
X76695746Y-86354254D02*
G75*
G02*
X76595746Y-86354254I-50000J0D01*
G01*
X76595746Y-86354254D02*
G75*
G02*
X76695746Y-86354254I50000J0D01*
G01*
X85695746Y-90854254D02*
G75*
G02*
X85595746Y-90854254I-50000J0D01*
G01*
X85595746Y-90854254D02*
G75*
G02*
X85695746Y-90854254I50000J0D01*
G01*
X78945746Y-59354254D02*
G75*
G02*
X78845746Y-59354254I-50000J0D01*
G01*
X78845746Y-59354254D02*
G75*
G02*
X78945746Y-59354254I50000J0D01*
G01*
X58695746Y-86354254D02*
G75*
G02*
X58595746Y-86354254I-50000J0D01*
G01*
X58595746Y-86354254D02*
G75*
G02*
X58695746Y-86354254I50000J0D01*
G01*
X78945746Y-50354254D02*
G75*
G02*
X78845746Y-50354254I-50000J0D01*
G01*
X78845746Y-50354254D02*
G75*
G02*
X78945746Y-50354254I50000J0D01*
G01*
X87945746Y-68354254D02*
G75*
G02*
X87845746Y-68354254I-50000J0D01*
G01*
X87845746Y-68354254D02*
G75*
G02*
X87945746Y-68354254I50000J0D01*
G01*
X67695746Y-81854254D02*
G75*
G02*
X67595746Y-81854254I-50000J0D01*
G01*
X67595746Y-81854254D02*
G75*
G02*
X67695746Y-81854254I50000J0D01*
G01*
X87945746Y-63854254D02*
G75*
G02*
X87845746Y-63854254I-50000J0D01*
G01*
X87845746Y-63854254D02*
G75*
G02*
X87945746Y-63854254I50000J0D01*
G01*
X56445746Y-63854254D02*
G75*
G02*
X56345746Y-63854254I-50000J0D01*
G01*
X56345746Y-63854254D02*
G75*
G02*
X56445746Y-63854254I50000J0D01*
G01*
X78945746Y-81854254D02*
G75*
G02*
X78845746Y-81854254I-50000J0D01*
G01*
X78845746Y-81854254D02*
G75*
G02*
X78945746Y-81854254I50000J0D01*
G01*
X74445746Y-70604254D02*
G75*
G02*
X74345746Y-70604254I-50000J0D01*
G01*
X74345746Y-70604254D02*
G75*
G02*
X74445746Y-70604254I50000J0D01*
G01*
X51945746Y-68354254D02*
G75*
G02*
X51845746Y-68354254I-50000J0D01*
G01*
X51845746Y-68354254D02*
G75*
G02*
X51945746Y-68354254I50000J0D01*
G01*
X72195746Y-57104254D02*
G75*
G02*
X72095746Y-57104254I-50000J0D01*
G01*
X72095746Y-57104254D02*
G75*
G02*
X72195746Y-57104254I50000J0D01*
G01*
X54195746Y-88604254D02*
G75*
G02*
X54095746Y-88604254I-50000J0D01*
G01*
X54095746Y-88604254D02*
G75*
G02*
X54195746Y-88604254I50000J0D01*
G01*
X74445746Y-54854254D02*
G75*
G02*
X74345746Y-54854254I-50000J0D01*
G01*
X74345746Y-54854254D02*
G75*
G02*
X74445746Y-54854254I50000J0D01*
G01*
X83445746Y-90854254D02*
G75*
G02*
X83345746Y-90854254I-50000J0D01*
G01*
X83345746Y-90854254D02*
G75*
G02*
X83445746Y-90854254I50000J0D01*
G01*
X72195746Y-66104254D02*
G75*
G02*
X72095746Y-66104254I-50000J0D01*
G01*
X72095746Y-66104254D02*
G75*
G02*
X72195746Y-66104254I50000J0D01*
G01*
X56445746Y-84104254D02*
G75*
G02*
X56345746Y-84104254I-50000J0D01*
G01*
X56345746Y-84104254D02*
G75*
G02*
X56445746Y-84104254I50000J0D01*
G01*
X87945746Y-70604254D02*
G75*
G02*
X87845746Y-70604254I-50000J0D01*
G01*
X87845746Y-70604254D02*
G75*
G02*
X87945746Y-70604254I50000J0D01*
G01*
X72195746Y-61604254D02*
G75*
G02*
X72095746Y-61604254I-50000J0D01*
G01*
X72095746Y-61604254D02*
G75*
G02*
X72195746Y-61604254I50000J0D01*
G01*
X51945746Y-77354254D02*
G75*
G02*
X51845746Y-77354254I-50000J0D01*
G01*
X51845746Y-77354254D02*
G75*
G02*
X51945746Y-77354254I50000J0D01*
G01*
X51945746Y-84104254D02*
G75*
G02*
X51845746Y-84104254I-50000J0D01*
G01*
X51845746Y-84104254D02*
G75*
G02*
X51945746Y-84104254I50000J0D01*
G01*
X56445746Y-70604254D02*
G75*
G02*
X56345746Y-70604254I-50000J0D01*
G01*
X56345746Y-70604254D02*
G75*
G02*
X56445746Y-70604254I50000J0D01*
G01*
X90195746Y-70604254D02*
G75*
G02*
X90095746Y-70604254I-50000J0D01*
G01*
X90095746Y-70604254D02*
G75*
G02*
X90195746Y-70604254I50000J0D01*
G01*
X72195746Y-90854254D02*
G75*
G02*
X72095746Y-90854254I-50000J0D01*
G01*
X72095746Y-90854254D02*
G75*
G02*
X72195746Y-90854254I50000J0D01*
G01*
X65445746Y-63854254D02*
G75*
G02*
X65345746Y-63854254I-50000J0D01*
G01*
X65345746Y-63854254D02*
G75*
G02*
X65445746Y-63854254I50000J0D01*
G01*
X54195746Y-84104254D02*
G75*
G02*
X54095746Y-84104254I-50000J0D01*
G01*
X54095746Y-84104254D02*
G75*
G02*
X54195746Y-84104254I50000J0D01*
G01*
X83445746Y-68354254D02*
G75*
G02*
X83345746Y-68354254I-50000J0D01*
G01*
X83345746Y-68354254D02*
G75*
G02*
X83445746Y-68354254I50000J0D01*
G01*
X81195746Y-50354254D02*
G75*
G02*
X81095746Y-50354254I-50000J0D01*
G01*
X81095746Y-50354254D02*
G75*
G02*
X81195746Y-50354254I50000J0D01*
G01*
X56445746Y-75104254D02*
G75*
G02*
X56345746Y-75104254I-50000J0D01*
G01*
X56345746Y-75104254D02*
G75*
G02*
X56445746Y-75104254I50000J0D01*
G01*
X74445746Y-75104254D02*
G75*
G02*
X74345746Y-75104254I-50000J0D01*
G01*
X74345746Y-75104254D02*
G75*
G02*
X74445746Y-75104254I50000J0D01*
G01*
X94695746Y-50354254D02*
G75*
G02*
X94595746Y-50354254I-50000J0D01*
G01*
X94595746Y-50354254D02*
G75*
G02*
X94695746Y-50354254I50000J0D01*
G01*
X78945746Y-75104254D02*
G75*
G02*
X78845746Y-75104254I-50000J0D01*
G01*
X78845746Y-75104254D02*
G75*
G02*
X78945746Y-75104254I50000J0D01*
G01*
X90195746Y-57104254D02*
G75*
G02*
X90095746Y-57104254I-50000J0D01*
G01*
X90095746Y-57104254D02*
G75*
G02*
X90195746Y-57104254I50000J0D01*
G01*
X58695746Y-79604254D02*
G75*
G02*
X58595746Y-79604254I-50000J0D01*
G01*
X58595746Y-79604254D02*
G75*
G02*
X58695746Y-79604254I50000J0D01*
G01*
X63195746Y-57104254D02*
G75*
G02*
X63095746Y-57104254I-50000J0D01*
G01*
X63095746Y-57104254D02*
G75*
G02*
X63195746Y-57104254I50000J0D01*
G01*
X63195746Y-79604254D02*
G75*
G02*
X63095746Y-79604254I-50000J0D01*
G01*
X63095746Y-79604254D02*
G75*
G02*
X63195746Y-79604254I50000J0D01*
G01*
X76695746Y-84104254D02*
G75*
G02*
X76595746Y-84104254I-50000J0D01*
G01*
X76595746Y-84104254D02*
G75*
G02*
X76695746Y-84104254I50000J0D01*
G01*
X78945746Y-70604254D02*
G75*
G02*
X78845746Y-70604254I-50000J0D01*
G01*
X78845746Y-70604254D02*
G75*
G02*
X78945746Y-70604254I50000J0D01*
G01*
X54195746Y-66104254D02*
G75*
G02*
X54095746Y-66104254I-50000J0D01*
G01*
X54095746Y-66104254D02*
G75*
G02*
X54195746Y-66104254I50000J0D01*
G01*
X51945746Y-50354254D02*
G75*
G02*
X51845746Y-50354254I-50000J0D01*
G01*
X51845746Y-50354254D02*
G75*
G02*
X51945746Y-50354254I50000J0D01*
G01*
X65445746Y-70604254D02*
G75*
G02*
X65345746Y-70604254I-50000J0D01*
G01*
X65345746Y-70604254D02*
G75*
G02*
X65445746Y-70604254I50000J0D01*
G01*
X92445746Y-66104254D02*
G75*
G02*
X92345746Y-66104254I-50000J0D01*
G01*
X92345746Y-66104254D02*
G75*
G02*
X92445746Y-66104254I50000J0D01*
G01*
X83445746Y-72854254D02*
G75*
G02*
X83345746Y-72854254I-50000J0D01*
G01*
X83345746Y-72854254D02*
G75*
G02*
X83445746Y-72854254I50000J0D01*
G01*
X60945746Y-88604254D02*
G75*
G02*
X60845746Y-88604254I-50000J0D01*
G01*
X60845746Y-88604254D02*
G75*
G02*
X60945746Y-88604254I50000J0D01*
G01*
X74445746Y-93104254D02*
G75*
G02*
X74345746Y-93104254I-50000J0D01*
G01*
X74345746Y-93104254D02*
G75*
G02*
X74445746Y-93104254I50000J0D01*
G01*
X51945746Y-88604254D02*
G75*
G02*
X51845746Y-88604254I-50000J0D01*
G01*
X51845746Y-88604254D02*
G75*
G02*
X51945746Y-88604254I50000J0D01*
G01*
X67695746Y-90854254D02*
G75*
G02*
X67595746Y-90854254I-50000J0D01*
G01*
X67595746Y-90854254D02*
G75*
G02*
X67695746Y-90854254I50000J0D01*
G01*
X67695746Y-63854254D02*
G75*
G02*
X67595746Y-63854254I-50000J0D01*
G01*
X67595746Y-63854254D02*
G75*
G02*
X67695746Y-63854254I50000J0D01*
G01*
X67695746Y-84104254D02*
G75*
G02*
X67595746Y-84104254I-50000J0D01*
G01*
X67595746Y-84104254D02*
G75*
G02*
X67695746Y-84104254I50000J0D01*
G01*
X65445746Y-72854254D02*
G75*
G02*
X65345746Y-72854254I-50000J0D01*
G01*
X65345746Y-72854254D02*
G75*
G02*
X65445746Y-72854254I50000J0D01*
G01*
X60945746Y-93104254D02*
G75*
G02*
X60845746Y-93104254I-50000J0D01*
G01*
X60845746Y-93104254D02*
G75*
G02*
X60945746Y-93104254I50000J0D01*
G01*
X63195746Y-59354254D02*
G75*
G02*
X63095746Y-59354254I-50000J0D01*
G01*
X63095746Y-59354254D02*
G75*
G02*
X63195746Y-59354254I50000J0D01*
G01*
X78945746Y-54854254D02*
G75*
G02*
X78845746Y-54854254I-50000J0D01*
G01*
X78845746Y-54854254D02*
G75*
G02*
X78945746Y-54854254I50000J0D01*
G01*
X51945746Y-81854254D02*
G75*
G02*
X51845746Y-81854254I-50000J0D01*
G01*
X51845746Y-81854254D02*
G75*
G02*
X51945746Y-81854254I50000J0D01*
G01*
X78945746Y-57104254D02*
G75*
G02*
X78845746Y-57104254I-50000J0D01*
G01*
X78845746Y-57104254D02*
G75*
G02*
X78945746Y-57104254I50000J0D01*
G01*
X90195746Y-54854254D02*
G75*
G02*
X90095746Y-54854254I-50000J0D01*
G01*
X90095746Y-54854254D02*
G75*
G02*
X90195746Y-54854254I50000J0D01*
G01*
X94695746Y-72854254D02*
G75*
G02*
X94595746Y-72854254I-50000J0D01*
G01*
X94595746Y-72854254D02*
G75*
G02*
X94695746Y-72854254I50000J0D01*
G01*
X85695746Y-75104254D02*
G75*
G02*
X85595746Y-75104254I-50000J0D01*
G01*
X85595746Y-75104254D02*
G75*
G02*
X85695746Y-75104254I50000J0D01*
G01*
X63195746Y-70604254D02*
G75*
G02*
X63095746Y-70604254I-50000J0D01*
G01*
X63095746Y-70604254D02*
G75*
G02*
X63195746Y-70604254I50000J0D01*
G01*
X51945746Y-54854254D02*
G75*
G02*
X51845746Y-54854254I-50000J0D01*
G01*
X51845746Y-54854254D02*
G75*
G02*
X51945746Y-54854254I50000J0D01*
G01*
X74445746Y-88604254D02*
G75*
G02*
X74345746Y-88604254I-50000J0D01*
G01*
X74345746Y-88604254D02*
G75*
G02*
X74445746Y-88604254I50000J0D01*
G01*
X81195746Y-70604254D02*
G75*
G02*
X81095746Y-70604254I-50000J0D01*
G01*
X81095746Y-70604254D02*
G75*
G02*
X81195746Y-70604254I50000J0D01*
G01*
X60945746Y-54854254D02*
G75*
G02*
X60845746Y-54854254I-50000J0D01*
G01*
X60845746Y-54854254D02*
G75*
G02*
X60945746Y-54854254I50000J0D01*
G01*
X74445746Y-61604254D02*
G75*
G02*
X74345746Y-61604254I-50000J0D01*
G01*
X74345746Y-61604254D02*
G75*
G02*
X74445746Y-61604254I50000J0D01*
G01*
X69945746Y-68354254D02*
G75*
G02*
X69845746Y-68354254I-50000J0D01*
G01*
X69845746Y-68354254D02*
G75*
G02*
X69945746Y-68354254I50000J0D01*
G01*
X85695746Y-63854254D02*
G75*
G02*
X85595746Y-63854254I-50000J0D01*
G01*
X85595746Y-63854254D02*
G75*
G02*
X85695746Y-63854254I50000J0D01*
G01*
X76695746Y-63854254D02*
G75*
G02*
X76595746Y-63854254I-50000J0D01*
G01*
X76595746Y-63854254D02*
G75*
G02*
X76695746Y-63854254I50000J0D01*
G01*
X58695746Y-93104254D02*
G75*
G02*
X58595746Y-93104254I-50000J0D01*
G01*
X58595746Y-93104254D02*
G75*
G02*
X58695746Y-93104254I50000J0D01*
G01*
X63195746Y-77354254D02*
G75*
G02*
X63095746Y-77354254I-50000J0D01*
G01*
X63095746Y-77354254D02*
G75*
G02*
X63195746Y-77354254I50000J0D01*
G01*
X76695746Y-68354254D02*
G75*
G02*
X76595746Y-68354254I-50000J0D01*
G01*
X76595746Y-68354254D02*
G75*
G02*
X76695746Y-68354254I50000J0D01*
G01*
X60945746Y-81854254D02*
G75*
G02*
X60845746Y-81854254I-50000J0D01*
G01*
X60845746Y-81854254D02*
G75*
G02*
X60945746Y-81854254I50000J0D01*
G01*
X69945746Y-63854254D02*
G75*
G02*
X69845746Y-63854254I-50000J0D01*
G01*
X69845746Y-63854254D02*
G75*
G02*
X69945746Y-63854254I50000J0D01*
G01*
X60945746Y-50354254D02*
G75*
G02*
X60845746Y-50354254I-50000J0D01*
G01*
X60845746Y-50354254D02*
G75*
G02*
X60945746Y-50354254I50000J0D01*
G01*
X78945746Y-66104254D02*
G75*
G02*
X78845746Y-66104254I-50000J0D01*
G01*
X78845746Y-66104254D02*
G75*
G02*
X78945746Y-66104254I50000J0D01*
G01*
X69945746Y-93104254D02*
G75*
G02*
X69845746Y-93104254I-50000J0D01*
G01*
X69845746Y-93104254D02*
G75*
G02*
X69945746Y-93104254I50000J0D01*
G01*
X51945746Y-93104254D02*
G75*
G02*
X51845746Y-93104254I-50000J0D01*
G01*
X51845746Y-93104254D02*
G75*
G02*
X51945746Y-93104254I50000J0D01*
G01*
X76695746Y-90854254D02*
G75*
G02*
X76595746Y-90854254I-50000J0D01*
G01*
X76595746Y-90854254D02*
G75*
G02*
X76695746Y-90854254I50000J0D01*
G01*
X81195746Y-75104254D02*
G75*
G02*
X81095746Y-75104254I-50000J0D01*
G01*
X81095746Y-75104254D02*
G75*
G02*
X81195746Y-75104254I50000J0D01*
G01*
X90195746Y-90854254D02*
G75*
G02*
X90095746Y-90854254I-50000J0D01*
G01*
X90095746Y-90854254D02*
G75*
G02*
X90195746Y-90854254I50000J0D01*
G01*
X74445746Y-50354254D02*
G75*
G02*
X74345746Y-50354254I-50000J0D01*
G01*
X74345746Y-50354254D02*
G75*
G02*
X74445746Y-50354254I50000J0D01*
G01*
X67695746Y-72854254D02*
G75*
G02*
X67595746Y-72854254I-50000J0D01*
G01*
X67595746Y-72854254D02*
G75*
G02*
X67695746Y-72854254I50000J0D01*
G01*
X56445746Y-77354254D02*
G75*
G02*
X56345746Y-77354254I-50000J0D01*
G01*
X56345746Y-77354254D02*
G75*
G02*
X56445746Y-77354254I50000J0D01*
G01*
X87945746Y-84104254D02*
G75*
G02*
X87845746Y-84104254I-50000J0D01*
G01*
X87845746Y-84104254D02*
G75*
G02*
X87945746Y-84104254I50000J0D01*
G01*
X76695746Y-54854254D02*
G75*
G02*
X76595746Y-54854254I-50000J0D01*
G01*
X76595746Y-54854254D02*
G75*
G02*
X76695746Y-54854254I50000J0D01*
G01*
X58695746Y-57104254D02*
G75*
G02*
X58595746Y-57104254I-50000J0D01*
G01*
X58595746Y-57104254D02*
G75*
G02*
X58695746Y-57104254I50000J0D01*
G01*
X58695746Y-68354254D02*
G75*
G02*
X58595746Y-68354254I-50000J0D01*
G01*
X58595746Y-68354254D02*
G75*
G02*
X58695746Y-68354254I50000J0D01*
G01*
X85695746Y-54854254D02*
G75*
G02*
X85595746Y-54854254I-50000J0D01*
G01*
X85595746Y-54854254D02*
G75*
G02*
X85695746Y-54854254I50000J0D01*
G01*
X87945746Y-81854254D02*
G75*
G02*
X87845746Y-81854254I-50000J0D01*
G01*
X87845746Y-81854254D02*
G75*
G02*
X87945746Y-81854254I50000J0D01*
G01*
X72195746Y-52604254D02*
G75*
G02*
X72095746Y-52604254I-50000J0D01*
G01*
X72095746Y-52604254D02*
G75*
G02*
X72195746Y-52604254I50000J0D01*
G01*
X92445746Y-61604254D02*
G75*
G02*
X92345746Y-61604254I-50000J0D01*
G01*
X92345746Y-61604254D02*
G75*
G02*
X92445746Y-61604254I50000J0D01*
G01*
X87945746Y-90854254D02*
G75*
G02*
X87845746Y-90854254I-50000J0D01*
G01*
X87845746Y-90854254D02*
G75*
G02*
X87945746Y-90854254I50000J0D01*
G01*
X94695746Y-84104254D02*
G75*
G02*
X94595746Y-84104254I-50000J0D01*
G01*
X94595746Y-84104254D02*
G75*
G02*
X94695746Y-84104254I50000J0D01*
G01*
X92445746Y-88604254D02*
G75*
G02*
X92345746Y-88604254I-50000J0D01*
G01*
X92345746Y-88604254D02*
G75*
G02*
X92445746Y-88604254I50000J0D01*
G01*
X56445746Y-54854254D02*
G75*
G02*
X56345746Y-54854254I-50000J0D01*
G01*
X56345746Y-54854254D02*
G75*
G02*
X56445746Y-54854254I50000J0D01*
G01*
X63195746Y-88604254D02*
G75*
G02*
X63095746Y-88604254I-50000J0D01*
G01*
X63095746Y-88604254D02*
G75*
G02*
X63195746Y-88604254I50000J0D01*
G01*
X60945746Y-72854254D02*
G75*
G02*
X60845746Y-72854254I-50000J0D01*
G01*
X60845746Y-72854254D02*
G75*
G02*
X60945746Y-72854254I50000J0D01*
G01*
X81195746Y-52604254D02*
G75*
G02*
X81095746Y-52604254I-50000J0D01*
G01*
X81095746Y-52604254D02*
G75*
G02*
X81195746Y-52604254I50000J0D01*
G01*
X74445746Y-79604254D02*
G75*
G02*
X74345746Y-79604254I-50000J0D01*
G01*
X74345746Y-79604254D02*
G75*
G02*
X74445746Y-79604254I50000J0D01*
G01*
X65445746Y-66104254D02*
G75*
G02*
X65345746Y-66104254I-50000J0D01*
G01*
X65345746Y-66104254D02*
G75*
G02*
X65445746Y-66104254I50000J0D01*
G01*
X74445746Y-86354254D02*
G75*
G02*
X74345746Y-86354254I-50000J0D01*
G01*
X74345746Y-86354254D02*
G75*
G02*
X74445746Y-86354254I50000J0D01*
G01*
X58695746Y-75104254D02*
G75*
G02*
X58595746Y-75104254I-50000J0D01*
G01*
X58595746Y-75104254D02*
G75*
G02*
X58695746Y-75104254I50000J0D01*
G01*
X74445746Y-84104254D02*
G75*
G02*
X74345746Y-84104254I-50000J0D01*
G01*
X74345746Y-84104254D02*
G75*
G02*
X74445746Y-84104254I50000J0D01*
G01*
X67695746Y-50354254D02*
G75*
G02*
X67595746Y-50354254I-50000J0D01*
G01*
X67595746Y-50354254D02*
G75*
G02*
X67695746Y-50354254I50000J0D01*
G01*
X83445746Y-66104254D02*
G75*
G02*
X83345746Y-66104254I-50000J0D01*
G01*
X83345746Y-66104254D02*
G75*
G02*
X83445746Y-66104254I50000J0D01*
G01*
X87945746Y-61604254D02*
G75*
G02*
X87845746Y-61604254I-50000J0D01*
G01*
X87845746Y-61604254D02*
G75*
G02*
X87945746Y-61604254I50000J0D01*
G01*
X83445746Y-79604254D02*
G75*
G02*
X83345746Y-79604254I-50000J0D01*
G01*
X83345746Y-79604254D02*
G75*
G02*
X83445746Y-79604254I50000J0D01*
G01*
X65445746Y-93104254D02*
G75*
G02*
X65345746Y-93104254I-50000J0D01*
G01*
X65345746Y-93104254D02*
G75*
G02*
X65445746Y-93104254I50000J0D01*
G01*
X74445746Y-63854254D02*
G75*
G02*
X74345746Y-63854254I-50000J0D01*
G01*
X74345746Y-63854254D02*
G75*
G02*
X74445746Y-63854254I50000J0D01*
G01*
X65445746Y-90854254D02*
G75*
G02*
X65345746Y-90854254I-50000J0D01*
G01*
X65345746Y-90854254D02*
G75*
G02*
X65445746Y-90854254I50000J0D01*
G01*
X81195746Y-90854254D02*
G75*
G02*
X81095746Y-90854254I-50000J0D01*
G01*
X81095746Y-90854254D02*
G75*
G02*
X81195746Y-90854254I50000J0D01*
G01*
X83445746Y-61604254D02*
G75*
G02*
X83345746Y-61604254I-50000J0D01*
G01*
X83345746Y-61604254D02*
G75*
G02*
X83445746Y-61604254I50000J0D01*
G01*
X56445746Y-88604254D02*
G75*
G02*
X56345746Y-88604254I-50000J0D01*
G01*
X56345746Y-88604254D02*
G75*
G02*
X56445746Y-88604254I50000J0D01*
G01*
X92445746Y-93104254D02*
G75*
G02*
X92345746Y-93104254I-50000J0D01*
G01*
X92345746Y-93104254D02*
G75*
G02*
X92445746Y-93104254I50000J0D01*
G01*
X90195746Y-72854254D02*
G75*
G02*
X90095746Y-72854254I-50000J0D01*
G01*
X90095746Y-72854254D02*
G75*
G02*
X90195746Y-72854254I50000J0D01*
G01*
X69945746Y-52604254D02*
G75*
G02*
X69845746Y-52604254I-50000J0D01*
G01*
X69845746Y-52604254D02*
G75*
G02*
X69945746Y-52604254I50000J0D01*
G01*
X58695746Y-61604254D02*
G75*
G02*
X58595746Y-61604254I-50000J0D01*
G01*
X58595746Y-61604254D02*
G75*
G02*
X58695746Y-61604254I50000J0D01*
G01*
X78945746Y-79604254D02*
G75*
G02*
X78845746Y-79604254I-50000J0D01*
G01*
X78845746Y-79604254D02*
G75*
G02*
X78945746Y-79604254I50000J0D01*
G01*
X81195746Y-77354254D02*
G75*
G02*
X81095746Y-77354254I-50000J0D01*
G01*
X81095746Y-77354254D02*
G75*
G02*
X81195746Y-77354254I50000J0D01*
G01*
X54195746Y-93104254D02*
G75*
G02*
X54095746Y-93104254I-50000J0D01*
G01*
X54095746Y-93104254D02*
G75*
G02*
X54195746Y-93104254I50000J0D01*
G01*
X74445746Y-52604254D02*
G75*
G02*
X74345746Y-52604254I-50000J0D01*
G01*
X74345746Y-52604254D02*
G75*
G02*
X74445746Y-52604254I50000J0D01*
G01*
X74445746Y-72854254D02*
G75*
G02*
X74345746Y-72854254I-50000J0D01*
G01*
X74345746Y-72854254D02*
G75*
G02*
X74445746Y-72854254I50000J0D01*
G01*
X81195746Y-72854254D02*
G75*
G02*
X81095746Y-72854254I-50000J0D01*
G01*
X81095746Y-72854254D02*
G75*
G02*
X81195746Y-72854254I50000J0D01*
G01*
X94695746Y-77354254D02*
G75*
G02*
X94595746Y-77354254I-50000J0D01*
G01*
X94595746Y-77354254D02*
G75*
G02*
X94695746Y-77354254I50000J0D01*
G01*
X67695746Y-77354254D02*
G75*
G02*
X67595746Y-77354254I-50000J0D01*
G01*
X67595746Y-77354254D02*
G75*
G02*
X67695746Y-77354254I50000J0D01*
G01*
X74445746Y-77354254D02*
G75*
G02*
X74345746Y-77354254I-50000J0D01*
G01*
X74345746Y-77354254D02*
G75*
G02*
X74445746Y-77354254I50000J0D01*
G01*
X54195746Y-54854254D02*
G75*
G02*
X54095746Y-54854254I-50000J0D01*
G01*
X54095746Y-54854254D02*
G75*
G02*
X54195746Y-54854254I50000J0D01*
G01*
X87945746Y-77354254D02*
G75*
G02*
X87845746Y-77354254I-50000J0D01*
G01*
X87845746Y-77354254D02*
G75*
G02*
X87945746Y-77354254I50000J0D01*
G01*
X63195746Y-86354254D02*
G75*
G02*
X63095746Y-86354254I-50000J0D01*
G01*
X63095746Y-86354254D02*
G75*
G02*
X63195746Y-86354254I50000J0D01*
G01*
X51945746Y-66104254D02*
G75*
G02*
X51845746Y-66104254I-50000J0D01*
G01*
X51845746Y-66104254D02*
G75*
G02*
X51945746Y-66104254I50000J0D01*
G01*
X58695746Y-90854254D02*
G75*
G02*
X58595746Y-90854254I-50000J0D01*
G01*
X58595746Y-90854254D02*
G75*
G02*
X58695746Y-90854254I50000J0D01*
G01*
X67695746Y-79604254D02*
G75*
G02*
X67595746Y-79604254I-50000J0D01*
G01*
X67595746Y-79604254D02*
G75*
G02*
X67695746Y-79604254I50000J0D01*
G01*
X60945746Y-75104254D02*
G75*
G02*
X60845746Y-75104254I-50000J0D01*
G01*
X60845746Y-75104254D02*
G75*
G02*
X60945746Y-75104254I50000J0D01*
G01*
X60945746Y-63854254D02*
G75*
G02*
X60845746Y-63854254I-50000J0D01*
G01*
X60845746Y-63854254D02*
G75*
G02*
X60945746Y-63854254I50000J0D01*
G01*
X83445746Y-86354254D02*
G75*
G02*
X83345746Y-86354254I-50000J0D01*
G01*
X83345746Y-86354254D02*
G75*
G02*
X83445746Y-86354254I50000J0D01*
G01*
X83445746Y-84104254D02*
G75*
G02*
X83345746Y-84104254I-50000J0D01*
G01*
X83345746Y-84104254D02*
G75*
G02*
X83445746Y-84104254I50000J0D01*
G01*
X63195746Y-50354254D02*
G75*
G02*
X63095746Y-50354254I-50000J0D01*
G01*
X63095746Y-50354254D02*
G75*
G02*
X63195746Y-50354254I50000J0D01*
G01*
X72195746Y-75104254D02*
G75*
G02*
X72095746Y-75104254I-50000J0D01*
G01*
X72095746Y-75104254D02*
G75*
G02*
X72195746Y-75104254I50000J0D01*
G01*
X90195746Y-50354254D02*
G75*
G02*
X90095746Y-50354254I-50000J0D01*
G01*
X90095746Y-50354254D02*
G75*
G02*
X90195746Y-50354254I50000J0D01*
G01*
X69945746Y-77354254D02*
G75*
G02*
X69845746Y-77354254I-50000J0D01*
G01*
X69845746Y-77354254D02*
G75*
G02*
X69945746Y-77354254I50000J0D01*
G01*
X67695746Y-52604254D02*
G75*
G02*
X67595746Y-52604254I-50000J0D01*
G01*
X67595746Y-52604254D02*
G75*
G02*
X67695746Y-52604254I50000J0D01*
G01*
X65445746Y-77354254D02*
G75*
G02*
X65345746Y-77354254I-50000J0D01*
G01*
X65345746Y-77354254D02*
G75*
G02*
X65445746Y-77354254I50000J0D01*
G01*
X63195746Y-84104254D02*
G75*
G02*
X63095746Y-84104254I-50000J0D01*
G01*
X63095746Y-84104254D02*
G75*
G02*
X63195746Y-84104254I50000J0D01*
G01*
X76695746Y-61604254D02*
G75*
G02*
X76595746Y-61604254I-50000J0D01*
G01*
X76595746Y-61604254D02*
G75*
G02*
X76695746Y-61604254I50000J0D01*
G01*
X92445746Y-54854254D02*
G75*
G02*
X92345746Y-54854254I-50000J0D01*
G01*
X92345746Y-54854254D02*
G75*
G02*
X92445746Y-54854254I50000J0D01*
G01*
X76695746Y-66104254D02*
G75*
G02*
X76595746Y-66104254I-50000J0D01*
G01*
X76595746Y-66104254D02*
G75*
G02*
X76695746Y-66104254I50000J0D01*
G01*
X83445746Y-93104254D02*
G75*
G02*
X83345746Y-93104254I-50000J0D01*
G01*
X83345746Y-93104254D02*
G75*
G02*
X83445746Y-93104254I50000J0D01*
G01*
X85695746Y-52604254D02*
G75*
G02*
X85595746Y-52604254I-50000J0D01*
G01*
X85595746Y-52604254D02*
G75*
G02*
X85695746Y-52604254I50000J0D01*
G01*
X83445746Y-50354254D02*
G75*
G02*
X83345746Y-50354254I-50000J0D01*
G01*
X83345746Y-50354254D02*
G75*
G02*
X83445746Y-50354254I50000J0D01*
G01*
X94695746Y-88604254D02*
G75*
G02*
X94595746Y-88604254I-50000J0D01*
G01*
X94595746Y-88604254D02*
G75*
G02*
X94695746Y-88604254I50000J0D01*
G01*
X60945746Y-79604254D02*
G75*
G02*
X60845746Y-79604254I-50000J0D01*
G01*
X60845746Y-79604254D02*
G75*
G02*
X60945746Y-79604254I50000J0D01*
G01*
X76695746Y-50354254D02*
G75*
G02*
X76595746Y-50354254I-50000J0D01*
G01*
X76595746Y-50354254D02*
G75*
G02*
X76695746Y-50354254I50000J0D01*
G01*
X54195746Y-79604254D02*
G75*
G02*
X54095746Y-79604254I-50000J0D01*
G01*
X54095746Y-79604254D02*
G75*
G02*
X54195746Y-79604254I50000J0D01*
G01*
X90195746Y-79604254D02*
G75*
G02*
X90095746Y-79604254I-50000J0D01*
G01*
X90095746Y-79604254D02*
G75*
G02*
X90195746Y-79604254I50000J0D01*
G01*
X60945746Y-90854254D02*
G75*
G02*
X60845746Y-90854254I-50000J0D01*
G01*
X60845746Y-90854254D02*
G75*
G02*
X60945746Y-90854254I50000J0D01*
G01*
X78945746Y-63854254D02*
G75*
G02*
X78845746Y-63854254I-50000J0D01*
G01*
X78845746Y-63854254D02*
G75*
G02*
X78945746Y-63854254I50000J0D01*
G01*
X63195746Y-81854254D02*
G75*
G02*
X63095746Y-81854254I-50000J0D01*
G01*
X63095746Y-81854254D02*
G75*
G02*
X63195746Y-81854254I50000J0D01*
G01*
X63195746Y-75104254D02*
G75*
G02*
X63095746Y-75104254I-50000J0D01*
G01*
X63095746Y-75104254D02*
G75*
G02*
X63195746Y-75104254I50000J0D01*
G01*
X69945746Y-70604254D02*
G75*
G02*
X69845746Y-70604254I-50000J0D01*
G01*
X69845746Y-70604254D02*
G75*
G02*
X69945746Y-70604254I50000J0D01*
G01*
X51945746Y-52604254D02*
G75*
G02*
X51845746Y-52604254I-50000J0D01*
G01*
X51845746Y-52604254D02*
G75*
G02*
X51945746Y-52604254I50000J0D01*
G01*
X69945746Y-66104254D02*
G75*
G02*
X69845746Y-66104254I-50000J0D01*
G01*
X69845746Y-66104254D02*
G75*
G02*
X69945746Y-66104254I50000J0D01*
G01*
X85695746Y-77354254D02*
G75*
G02*
X85595746Y-77354254I-50000J0D01*
G01*
X85595746Y-77354254D02*
G75*
G02*
X85695746Y-77354254I50000J0D01*
G01*
X76695746Y-93104254D02*
G75*
G02*
X76595746Y-93104254I-50000J0D01*
G01*
X76595746Y-93104254D02*
G75*
G02*
X76695746Y-93104254I50000J0D01*
G01*
X94695746Y-54854254D02*
G75*
G02*
X94595746Y-54854254I-50000J0D01*
G01*
X94595746Y-54854254D02*
G75*
G02*
X94695746Y-54854254I50000J0D01*
G01*
X78945746Y-72854254D02*
G75*
G02*
X78845746Y-72854254I-50000J0D01*
G01*
X78845746Y-72854254D02*
G75*
G02*
X78945746Y-72854254I50000J0D01*
G01*
X90195746Y-86354254D02*
G75*
G02*
X90095746Y-86354254I-50000J0D01*
G01*
X90095746Y-86354254D02*
G75*
G02*
X90195746Y-86354254I50000J0D01*
G01*
X81195746Y-84104254D02*
G75*
G02*
X81095746Y-84104254I-50000J0D01*
G01*
X81095746Y-84104254D02*
G75*
G02*
X81195746Y-84104254I50000J0D01*
G01*
X67695746Y-93104254D02*
G75*
G02*
X67595746Y-93104254I-50000J0D01*
G01*
X67595746Y-93104254D02*
G75*
G02*
X67695746Y-93104254I50000J0D01*
G01*
X85695746Y-79604254D02*
G75*
G02*
X85595746Y-79604254I-50000J0D01*
G01*
X85595746Y-79604254D02*
G75*
G02*
X85695746Y-79604254I50000J0D01*
G01*
X90195746Y-68354254D02*
G75*
G02*
X90095746Y-68354254I-50000J0D01*
G01*
X90095746Y-68354254D02*
G75*
G02*
X90195746Y-68354254I50000J0D01*
G01*
X94695746Y-57104254D02*
G75*
G02*
X94595746Y-57104254I-50000J0D01*
G01*
X94595746Y-57104254D02*
G75*
G02*
X94695746Y-57104254I50000J0D01*
G01*
X90195746Y-81854254D02*
G75*
G02*
X90095746Y-81854254I-50000J0D01*
G01*
X90095746Y-81854254D02*
G75*
G02*
X90195746Y-81854254I50000J0D01*
G01*
X81195746Y-86354254D02*
G75*
G02*
X81095746Y-86354254I-50000J0D01*
G01*
X81095746Y-86354254D02*
G75*
G02*
X81195746Y-86354254I50000J0D01*
G01*
X81195746Y-59354254D02*
G75*
G02*
X81095746Y-59354254I-50000J0D01*
G01*
X81095746Y-59354254D02*
G75*
G02*
X81195746Y-59354254I50000J0D01*
G01*
X81195746Y-61604254D02*
G75*
G02*
X81095746Y-61604254I-50000J0D01*
G01*
X81095746Y-61604254D02*
G75*
G02*
X81195746Y-61604254I50000J0D01*
G01*
X56445746Y-72854254D02*
G75*
G02*
X56345746Y-72854254I-50000J0D01*
G01*
X56345746Y-72854254D02*
G75*
G02*
X56445746Y-72854254I50000J0D01*
G01*
X69945746Y-90854254D02*
G75*
G02*
X69845746Y-90854254I-50000J0D01*
G01*
X69845746Y-90854254D02*
G75*
G02*
X69945746Y-90854254I50000J0D01*
G01*
X67695746Y-70604254D02*
G75*
G02*
X67595746Y-70604254I-50000J0D01*
G01*
X67595746Y-70604254D02*
G75*
G02*
X67695746Y-70604254I50000J0D01*
G01*
X51945746Y-86354254D02*
G75*
G02*
X51845746Y-86354254I-50000J0D01*
G01*
X51845746Y-86354254D02*
G75*
G02*
X51945746Y-86354254I50000J0D01*
G01*
X54195746Y-68354254D02*
G75*
G02*
X54095746Y-68354254I-50000J0D01*
G01*
X54095746Y-68354254D02*
G75*
G02*
X54195746Y-68354254I50000J0D01*
G01*
X65445746Y-86354254D02*
G75*
G02*
X65345746Y-86354254I-50000J0D01*
G01*
X65345746Y-86354254D02*
G75*
G02*
X65445746Y-86354254I50000J0D01*
G01*
X94695746Y-90854254D02*
G75*
G02*
X94595746Y-90854254I-50000J0D01*
G01*
X94595746Y-90854254D02*
G75*
G02*
X94695746Y-90854254I50000J0D01*
G01*
X58695746Y-50354254D02*
G75*
G02*
X58595746Y-50354254I-50000J0D01*
G01*
X58595746Y-50354254D02*
G75*
G02*
X58695746Y-50354254I50000J0D01*
G01*
X90195746Y-59354254D02*
G75*
G02*
X90095746Y-59354254I-50000J0D01*
G01*
X90095746Y-59354254D02*
G75*
G02*
X90195746Y-59354254I50000J0D01*
G01*
X69945746Y-88604254D02*
G75*
G02*
X69845746Y-88604254I-50000J0D01*
G01*
X69845746Y-88604254D02*
G75*
G02*
X69945746Y-88604254I50000J0D01*
G01*
X81195746Y-63854254D02*
G75*
G02*
X81095746Y-63854254I-50000J0D01*
G01*
X81095746Y-63854254D02*
G75*
G02*
X81195746Y-63854254I50000J0D01*
G01*
X92445746Y-70604254D02*
G75*
G02*
X92345746Y-70604254I-50000J0D01*
G01*
X92345746Y-70604254D02*
G75*
G02*
X92445746Y-70604254I50000J0D01*
G01*
X78945746Y-77354254D02*
G75*
G02*
X78845746Y-77354254I-50000J0D01*
G01*
X78845746Y-77354254D02*
G75*
G02*
X78945746Y-77354254I50000J0D01*
G01*
X67695746Y-61604254D02*
G75*
G02*
X67595746Y-61604254I-50000J0D01*
G01*
X67595746Y-61604254D02*
G75*
G02*
X67695746Y-61604254I50000J0D01*
G01*
X74445746Y-59354254D02*
G75*
G02*
X74345746Y-59354254I-50000J0D01*
G01*
X74345746Y-59354254D02*
G75*
G02*
X74445746Y-59354254I50000J0D01*
G01*
X92445746Y-86354254D02*
G75*
G02*
X92345746Y-86354254I-50000J0D01*
G01*
X92345746Y-86354254D02*
G75*
G02*
X92445746Y-86354254I50000J0D01*
G01*
X54195746Y-72854254D02*
G75*
G02*
X54095746Y-72854254I-50000J0D01*
G01*
X54095746Y-72854254D02*
G75*
G02*
X54195746Y-72854254I50000J0D01*
G01*
X81195746Y-81854254D02*
G75*
G02*
X81095746Y-81854254I-50000J0D01*
G01*
X81095746Y-81854254D02*
G75*
G02*
X81195746Y-81854254I50000J0D01*
G01*
X65445746Y-68354254D02*
G75*
G02*
X65345746Y-68354254I-50000J0D01*
G01*
X65345746Y-68354254D02*
G75*
G02*
X65445746Y-68354254I50000J0D01*
G01*
X67695746Y-68354254D02*
G75*
G02*
X67595746Y-68354254I-50000J0D01*
G01*
X67595746Y-68354254D02*
G75*
G02*
X67695746Y-68354254I50000J0D01*
G01*
X92445746Y-79604254D02*
G75*
G02*
X92345746Y-79604254I-50000J0D01*
G01*
X92345746Y-79604254D02*
G75*
G02*
X92445746Y-79604254I50000J0D01*
G01*
X65445746Y-61604254D02*
G75*
G02*
X65345746Y-61604254I-50000J0D01*
G01*
X65345746Y-61604254D02*
G75*
G02*
X65445746Y-61604254I50000J0D01*
G01*
X51945746Y-63854254D02*
G75*
G02*
X51845746Y-63854254I-50000J0D01*
G01*
X51845746Y-63854254D02*
G75*
G02*
X51945746Y-63854254I50000J0D01*
G01*
X69945746Y-86354254D02*
G75*
G02*
X69845746Y-86354254I-50000J0D01*
G01*
X69845746Y-86354254D02*
G75*
G02*
X69945746Y-86354254I50000J0D01*
G01*
X65445746Y-50354254D02*
G75*
G02*
X65345746Y-50354254I-50000J0D01*
G01*
X65345746Y-50354254D02*
G75*
G02*
X65445746Y-50354254I50000J0D01*
G01*
X69945746Y-81854254D02*
G75*
G02*
X69845746Y-81854254I-50000J0D01*
G01*
X69845746Y-81854254D02*
G75*
G02*
X69945746Y-81854254I50000J0D01*
G01*
X74445746Y-90854254D02*
G75*
G02*
X74345746Y-90854254I-50000J0D01*
G01*
X74345746Y-90854254D02*
G75*
G02*
X74445746Y-90854254I50000J0D01*
G01*
X74445746Y-66104254D02*
G75*
G02*
X74345746Y-66104254I-50000J0D01*
G01*
X74345746Y-66104254D02*
G75*
G02*
X74445746Y-66104254I50000J0D01*
G01*
X78945746Y-88604254D02*
G75*
G02*
X78845746Y-88604254I-50000J0D01*
G01*
X78845746Y-88604254D02*
G75*
G02*
X78945746Y-88604254I50000J0D01*
G01*
X85695746Y-61604254D02*
G75*
G02*
X85595746Y-61604254I-50000J0D01*
G01*
X85595746Y-61604254D02*
G75*
G02*
X85695746Y-61604254I50000J0D01*
G01*
X78945746Y-90854254D02*
G75*
G02*
X78845746Y-90854254I-50000J0D01*
G01*
X78845746Y-90854254D02*
G75*
G02*
X78945746Y-90854254I50000J0D01*
G01*
X56445746Y-90854254D02*
G75*
G02*
X56345746Y-90854254I-50000J0D01*
G01*
X56345746Y-90854254D02*
G75*
G02*
X56445746Y-90854254I50000J0D01*
G01*
X87945746Y-88604254D02*
G75*
G02*
X87845746Y-88604254I-50000J0D01*
G01*
X87845746Y-88604254D02*
G75*
G02*
X87945746Y-88604254I50000J0D01*
G01*
X54195746Y-90854254D02*
G75*
G02*
X54095746Y-90854254I-50000J0D01*
G01*
X54095746Y-90854254D02*
G75*
G02*
X54195746Y-90854254I50000J0D01*
G01*
X90195746Y-77354254D02*
G75*
G02*
X90095746Y-77354254I-50000J0D01*
G01*
X90095746Y-77354254D02*
G75*
G02*
X90195746Y-77354254I50000J0D01*
G01*
X87945746Y-59354254D02*
G75*
G02*
X87845746Y-59354254I-50000J0D01*
G01*
X87845746Y-59354254D02*
G75*
G02*
X87945746Y-59354254I50000J0D01*
G01*
X67695746Y-66104254D02*
G75*
G02*
X67595746Y-66104254I-50000J0D01*
G01*
X67595746Y-66104254D02*
G75*
G02*
X67695746Y-66104254I50000J0D01*
G01*
X92445746Y-52604254D02*
G75*
G02*
X92345746Y-52604254I-50000J0D01*
G01*
X92345746Y-52604254D02*
G75*
G02*
X92445746Y-52604254I50000J0D01*
G01*
X81195746Y-88604254D02*
G75*
G02*
X81095746Y-88604254I-50000J0D01*
G01*
X81095746Y-88604254D02*
G75*
G02*
X81195746Y-88604254I50000J0D01*
G01*
X90195746Y-93104254D02*
G75*
G02*
X90095746Y-93104254I-50000J0D01*
G01*
X90095746Y-93104254D02*
G75*
G02*
X90195746Y-93104254I50000J0D01*
G01*
X87945746Y-66104254D02*
G75*
G02*
X87845746Y-66104254I-50000J0D01*
G01*
X87845746Y-66104254D02*
G75*
G02*
X87945746Y-66104254I50000J0D01*
G01*
X58695746Y-77354254D02*
G75*
G02*
X58595746Y-77354254I-50000J0D01*
G01*
X58595746Y-77354254D02*
G75*
G02*
X58695746Y-77354254I50000J0D01*
G01*
X56445746Y-79604254D02*
G75*
G02*
X56345746Y-79604254I-50000J0D01*
G01*
X56345746Y-79604254D02*
G75*
G02*
X56445746Y-79604254I50000J0D01*
G01*
X81195746Y-66104254D02*
G75*
G02*
X81095746Y-66104254I-50000J0D01*
G01*
X81095746Y-66104254D02*
G75*
G02*
X81195746Y-66104254I50000J0D01*
G01*
X78945746Y-86354254D02*
G75*
G02*
X78845746Y-86354254I-50000J0D01*
G01*
X78845746Y-86354254D02*
G75*
G02*
X78945746Y-86354254I50000J0D01*
G01*
X56445746Y-81854254D02*
G75*
G02*
X56345746Y-81854254I-50000J0D01*
G01*
X56345746Y-81854254D02*
G75*
G02*
X56445746Y-81854254I50000J0D01*
G01*
X76695746Y-88604254D02*
G75*
G02*
X76595746Y-88604254I-50000J0D01*
G01*
X76595746Y-88604254D02*
G75*
G02*
X76695746Y-88604254I50000J0D01*
G01*
X63195746Y-63854254D02*
G75*
G02*
X63095746Y-63854254I-50000J0D01*
G01*
X63095746Y-63854254D02*
G75*
G02*
X63195746Y-63854254I50000J0D01*
G01*
X58695746Y-66104254D02*
G75*
G02*
X58595746Y-66104254I-50000J0D01*
G01*
X58595746Y-66104254D02*
G75*
G02*
X58695746Y-66104254I50000J0D01*
G01*
X90195746Y-63854254D02*
G75*
G02*
X90095746Y-63854254I-50000J0D01*
G01*
X90095746Y-63854254D02*
G75*
G02*
X90195746Y-63854254I50000J0D01*
G01*
%LPC*%
D11*
X85217947Y-73282053D03*
X84532053Y-73967947D03*
X55967947Y-62032053D03*
X55282053Y-62717947D03*
X60467947Y-53032053D03*
X59782053Y-53717947D03*
X71717947Y-89032053D03*
X71032053Y-89717947D03*
X85217947Y-71032053D03*
X84532053Y-71717947D03*
X76217947Y-80032053D03*
X75532053Y-80717947D03*
X73967947Y-68782053D03*
X73282053Y-69467947D03*
X55967947Y-50782053D03*
X55282053Y-51467947D03*
X94217947Y-75532053D03*
X93532053Y-76217947D03*
X67217947Y-89032053D03*
X66532053Y-89717947D03*
X91967947Y-50782053D03*
X91282053Y-51467947D03*
X87467947Y-55282053D03*
X86782053Y-55967947D03*
X67217947Y-86782053D03*
X66532053Y-87467947D03*
X73967947Y-82282053D03*
X73282053Y-82967947D03*
X87467947Y-57532053D03*
X86782053Y-58217947D03*
X91967947Y-73282053D03*
X91282053Y-73967947D03*
X64967947Y-89032053D03*
X64282053Y-89717947D03*
X91967947Y-82282053D03*
X91282053Y-82967947D03*
X60467947Y-57532053D03*
X59782053Y-58217947D03*
X71717947Y-50782053D03*
X71032053Y-51467947D03*
X71717947Y-71032053D03*
X71032053Y-71717947D03*
X53717947Y-82282053D03*
X53032053Y-82967947D03*
X82967947Y-82282053D03*
X82282053Y-82967947D03*
X82967947Y-75532053D03*
X82282053Y-76217947D03*
X69467947Y-57532053D03*
X68782053Y-58217947D03*
X69467947Y-62032053D03*
X68782053Y-62717947D03*
X69467947Y-84532053D03*
X68782053Y-85217947D03*
X80717947Y-80032053D03*
X80032053Y-80717947D03*
X76217947Y-82282053D03*
X75532053Y-82967947D03*
X82967947Y-77782053D03*
X82282053Y-78467947D03*
X87467947Y-75532053D03*
X86782053Y-76217947D03*
X76217947Y-73282053D03*
X75532053Y-73967947D03*
X62717947Y-91282053D03*
X62032053Y-91967947D03*
X64967947Y-80032053D03*
X64282053Y-80717947D03*
X64967947Y-82282053D03*
X64282053Y-82967947D03*
X55967947Y-53032053D03*
X55282053Y-53717947D03*
X78467947Y-68782053D03*
X77782053Y-69467947D03*
X87467947Y-50782053D03*
X86782053Y-51467947D03*
X51467947Y-73282053D03*
X50782053Y-73967947D03*
X58217947Y-64282053D03*
X57532053Y-64967947D03*
X94217947Y-64282053D03*
X93532053Y-64967947D03*
X64967947Y-84532053D03*
X64282053Y-85217947D03*
X58217947Y-82282053D03*
X57532053Y-82967947D03*
X91967947Y-59782053D03*
X91282053Y-60467947D03*
X67217947Y-75532053D03*
X66532053Y-76217947D03*
X71717947Y-55282053D03*
X71032053Y-55967947D03*
X76217947Y-71032053D03*
X75532053Y-71717947D03*
X76217947Y-75532053D03*
X75532053Y-76217947D03*
X94217947Y-93532053D03*
X93532053Y-94217947D03*
X60467947Y-84532053D03*
X59782053Y-85217947D03*
X85217947Y-89032053D03*
X84532053Y-89717947D03*
X60467947Y-68782053D03*
X59782053Y-69467947D03*
X64967947Y-53032053D03*
X64282053Y-53717947D03*
X71717947Y-68782053D03*
X71032053Y-69467947D03*
X53717947Y-50782053D03*
X53032053Y-51467947D03*
X55967947Y-57532053D03*
X55282053Y-58217947D03*
X58217947Y-59782053D03*
X57532053Y-60467947D03*
X71717947Y-84532053D03*
X71032053Y-85217947D03*
X87467947Y-86782053D03*
X86782053Y-87467947D03*
X64967947Y-55282053D03*
X64282053Y-55967947D03*
X91967947Y-84532053D03*
X91282053Y-85217947D03*
X91967947Y-75532053D03*
X91282053Y-76217947D03*
X62717947Y-93532053D03*
X62032053Y-94217947D03*
X76217947Y-53032053D03*
X75532053Y-53717947D03*
X53717947Y-53032053D03*
X53032053Y-53717947D03*
X94217947Y-53032053D03*
X93532053Y-53717947D03*
X91967947Y-64282053D03*
X91282053Y-64967947D03*
X82967947Y-57532053D03*
X82282053Y-58217947D03*
X71717947Y-86782053D03*
X71032053Y-87467947D03*
X53717947Y-71032053D03*
X53032053Y-71717947D03*
X58217947Y-53032053D03*
X57532053Y-53717947D03*
X89717947Y-53032053D03*
X89032053Y-53717947D03*
X62717947Y-68782053D03*
X62032053Y-69467947D03*
X53717947Y-57532053D03*
X53032053Y-58217947D03*
X71717947Y-80032053D03*
X71032053Y-80717947D03*
X71717947Y-93532053D03*
X71032053Y-94217947D03*
X91967947Y-57532053D03*
X91282053Y-58217947D03*
X94217947Y-68782053D03*
X93532053Y-69467947D03*
X89717947Y-89032053D03*
X89032053Y-89717947D03*
X69467947Y-59782053D03*
X68782053Y-60467947D03*
X76217947Y-57532053D03*
X75532053Y-58217947D03*
X62717947Y-62032053D03*
X62032053Y-62717947D03*
X67217947Y-57532053D03*
X66532053Y-58217947D03*
X53717947Y-59782053D03*
X53032053Y-60467947D03*
X53717947Y-77782053D03*
X53032053Y-78467947D03*
X89717947Y-62032053D03*
X89032053Y-62717947D03*
X85217947Y-59782053D03*
X84532053Y-60467947D03*
X91967947Y-77782053D03*
X91282053Y-78467947D03*
X89717947Y-66532053D03*
X89032053Y-67217947D03*
X85217947Y-68782053D03*
X84532053Y-69467947D03*
X80717947Y-68782053D03*
X80032053Y-69467947D03*
X94217947Y-86782053D03*
X93532053Y-87467947D03*
X91967947Y-91282053D03*
X91282053Y-91967947D03*
X82967947Y-53032053D03*
X82282053Y-53717947D03*
X82967947Y-71032053D03*
X82282053Y-71717947D03*
X53717947Y-75532053D03*
X53032053Y-76217947D03*
X73967947Y-57532053D03*
X73282053Y-58217947D03*
X82967947Y-64282053D03*
X82282053Y-64967947D03*
X87467947Y-53032053D03*
X86782053Y-53717947D03*
X94217947Y-80032053D03*
X93532053Y-80717947D03*
X51467947Y-62032053D03*
X50782053Y-62717947D03*
X71717947Y-77782053D03*
X71032053Y-78467947D03*
X85217947Y-66532053D03*
X84532053Y-67217947D03*
X69467947Y-75532053D03*
X68782053Y-76217947D03*
X80717947Y-93532053D03*
X80032053Y-94217947D03*
X58217947Y-89032053D03*
X57532053Y-89717947D03*
X85217947Y-93532053D03*
X84532053Y-94217947D03*
X89717947Y-84532053D03*
X89032053Y-85217947D03*
X78467947Y-62032053D03*
X77782053Y-62717947D03*
X51467947Y-75532053D03*
X50782053Y-76217947D03*
X69467947Y-50782053D03*
X68782053Y-51467947D03*
X51467947Y-59782053D03*
X50782053Y-60467947D03*
X94217947Y-82282053D03*
X93532053Y-82967947D03*
X71717947Y-82282053D03*
X71032053Y-82967947D03*
X91967947Y-68782053D03*
X91282053Y-69467947D03*
X58217947Y-73282053D03*
X57532053Y-73967947D03*
X87467947Y-73282053D03*
X86782053Y-73967947D03*
X60467947Y-71032053D03*
X59782053Y-71717947D03*
X87467947Y-93532053D03*
X86782053Y-94217947D03*
X51467947Y-57532053D03*
X50782053Y-58217947D03*
X51467947Y-80032053D03*
X50782053Y-80717947D03*
X85217947Y-50782053D03*
X84532053Y-51467947D03*
X69467947Y-73282053D03*
X68782053Y-73967947D03*
X89717947Y-75532053D03*
X89032053Y-76217947D03*
X67217947Y-55282053D03*
X66532053Y-55967947D03*
X55967947Y-93532053D03*
X55282053Y-94217947D03*
X53717947Y-86782053D03*
X53032053Y-87467947D03*
X58217947Y-84532053D03*
X57532053Y-85217947D03*
X53717947Y-62032053D03*
X53032053Y-62717947D03*
X85217947Y-82282053D03*
X84532053Y-82967947D03*
X85217947Y-86782053D03*
X84532053Y-87467947D03*
X78467947Y-84532053D03*
X77782053Y-85217947D03*
X60467947Y-66532053D03*
X59782053Y-67217947D03*
X58217947Y-71032053D03*
X57532053Y-71717947D03*
X94217947Y-66532053D03*
X93532053Y-67217947D03*
X55967947Y-59782053D03*
X55282053Y-60467947D03*
X60467947Y-59782053D03*
X59782053Y-60467947D03*
X51467947Y-71032053D03*
X50782053Y-71717947D03*
X78467947Y-53032053D03*
X77782053Y-53717947D03*
X55967947Y-66532053D03*
X55282053Y-67217947D03*
X85217947Y-57532053D03*
X84532053Y-58217947D03*
X82967947Y-55282053D03*
X82282053Y-55967947D03*
X64967947Y-57532053D03*
X64282053Y-58217947D03*
X62717947Y-53032053D03*
X62032053Y-53717947D03*
X71717947Y-64282053D03*
X71032053Y-64967947D03*
X94217947Y-71032053D03*
X93532053Y-71717947D03*
X94217947Y-59782053D03*
X93532053Y-60467947D03*
X69467947Y-55282053D03*
X68782053Y-55967947D03*
X80717947Y-57532053D03*
X80032053Y-58217947D03*
X62717947Y-55282053D03*
X62032053Y-55967947D03*
X76217947Y-59782053D03*
X75532053Y-60467947D03*
X94217947Y-62032053D03*
X93532053Y-62717947D03*
X67217947Y-59782053D03*
X66532053Y-60467947D03*
X78467947Y-93532053D03*
X77782053Y-94217947D03*
X53717947Y-64282053D03*
X53032053Y-64967947D03*
X55967947Y-86782053D03*
X55282053Y-87467947D03*
X80717947Y-55282053D03*
X80032053Y-55967947D03*
X82967947Y-59782053D03*
X82282053Y-60467947D03*
X76217947Y-77782053D03*
X75532053Y-78467947D03*
X82967947Y-89032053D03*
X82282053Y-89717947D03*
X85217947Y-84532053D03*
X84532053Y-85217947D03*
X87467947Y-80032053D03*
X86782053Y-80717947D03*
X62717947Y-73282053D03*
X62032053Y-73967947D03*
X60467947Y-86782053D03*
X59782053Y-87467947D03*
X71717947Y-59782053D03*
X71032053Y-60467947D03*
X51467947Y-91282053D03*
X50782053Y-91967947D03*
X55967947Y-68782053D03*
X55282053Y-69467947D03*
X64967947Y-59782053D03*
X64282053Y-60467947D03*
X71717947Y-73282053D03*
X71032053Y-73967947D03*
X64967947Y-75532053D03*
X64282053Y-76217947D03*
X60467947Y-77782053D03*
X59782053Y-78467947D03*
X58217947Y-55282053D03*
X57532053Y-55967947D03*
X62717947Y-66532053D03*
X62032053Y-67217947D03*
X60467947Y-62032053D03*
X59782053Y-62717947D03*
X69467947Y-80032053D03*
X68782053Y-80717947D03*
X76217947Y-86782053D03*
X75532053Y-87467947D03*
X85217947Y-91282053D03*
X84532053Y-91967947D03*
X78467947Y-59782053D03*
X77782053Y-60467947D03*
X58217947Y-86782053D03*
X57532053Y-87467947D03*
X78467947Y-50782053D03*
X77782053Y-51467947D03*
X87467947Y-68782053D03*
X86782053Y-69467947D03*
X67217947Y-82282053D03*
X66532053Y-82967947D03*
X87467947Y-64282053D03*
X86782053Y-64967947D03*
X55967947Y-64282053D03*
X55282053Y-64967947D03*
X78467947Y-82282053D03*
X77782053Y-82967947D03*
X73967947Y-71032053D03*
X73282053Y-71717947D03*
X51467947Y-68782053D03*
X50782053Y-69467947D03*
X71717947Y-57532053D03*
X71032053Y-58217947D03*
X53717947Y-89032053D03*
X53032053Y-89717947D03*
X73967947Y-55282053D03*
X73282053Y-55967947D03*
X82967947Y-91282053D03*
X82282053Y-91967947D03*
X71717947Y-66532053D03*
X71032053Y-67217947D03*
X55967947Y-84532053D03*
X55282053Y-85217947D03*
X87467947Y-71032053D03*
X86782053Y-71717947D03*
X71717947Y-62032053D03*
X71032053Y-62717947D03*
X51467947Y-77782053D03*
X50782053Y-78467947D03*
X51467947Y-84532053D03*
X50782053Y-85217947D03*
X55967947Y-71032053D03*
X55282053Y-71717947D03*
X89717947Y-71032053D03*
X89032053Y-71717947D03*
X71717947Y-91282053D03*
X71032053Y-91967947D03*
X64967947Y-64282053D03*
X64282053Y-64967947D03*
X53717947Y-84532053D03*
X53032053Y-85217947D03*
X82967947Y-68782053D03*
X82282053Y-69467947D03*
X80717947Y-50782053D03*
X80032053Y-51467947D03*
X55967947Y-75532053D03*
X55282053Y-76217947D03*
X73967947Y-75532053D03*
X73282053Y-76217947D03*
X94217947Y-50782053D03*
X93532053Y-51467947D03*
X78467947Y-75532053D03*
X77782053Y-76217947D03*
X89717947Y-57532053D03*
X89032053Y-58217947D03*
X58217947Y-80032053D03*
X57532053Y-80717947D03*
X62717947Y-57532053D03*
X62032053Y-58217947D03*
X62717947Y-80032053D03*
X62032053Y-80717947D03*
X76217947Y-84532053D03*
X75532053Y-85217947D03*
X78467947Y-71032053D03*
X77782053Y-71717947D03*
X53717947Y-66532053D03*
X53032053Y-67217947D03*
X51467947Y-50782053D03*
X50782053Y-51467947D03*
X64967947Y-71032053D03*
X64282053Y-71717947D03*
X91967947Y-66532053D03*
X91282053Y-67217947D03*
X82967947Y-73282053D03*
X82282053Y-73967947D03*
X60467947Y-89032053D03*
X59782053Y-89717947D03*
X73967947Y-93532053D03*
X73282053Y-94217947D03*
X51467947Y-89032053D03*
X50782053Y-89717947D03*
X67217947Y-91282053D03*
X66532053Y-91967947D03*
X67217947Y-64282053D03*
X66532053Y-64967947D03*
X67217947Y-84532053D03*
X66532053Y-85217947D03*
X64967947Y-73282053D03*
X64282053Y-73967947D03*
X60467947Y-93532053D03*
X59782053Y-94217947D03*
X62717947Y-59782053D03*
X62032053Y-60467947D03*
X78467947Y-55282053D03*
X77782053Y-55967947D03*
X51467947Y-82282053D03*
X50782053Y-82967947D03*
X78467947Y-57532053D03*
X77782053Y-58217947D03*
X89717947Y-55282053D03*
X89032053Y-55967947D03*
X94217947Y-73282053D03*
X93532053Y-73967947D03*
X85217947Y-75532053D03*
X84532053Y-76217947D03*
X62717947Y-71032053D03*
X62032053Y-71717947D03*
X51467947Y-55282053D03*
X50782053Y-55967947D03*
X73967947Y-89032053D03*
X73282053Y-89717947D03*
X80717947Y-71032053D03*
X80032053Y-71717947D03*
X60467947Y-55282053D03*
X59782053Y-55967947D03*
X73967947Y-62032053D03*
X73282053Y-62717947D03*
X69467947Y-68782053D03*
X68782053Y-69467947D03*
X85217947Y-64282053D03*
X84532053Y-64967947D03*
X76217947Y-64282053D03*
X75532053Y-64967947D03*
X58217947Y-93532053D03*
X57532053Y-94217947D03*
X62717947Y-77782053D03*
X62032053Y-78467947D03*
X76217947Y-68782053D03*
X75532053Y-69467947D03*
X60467947Y-82282053D03*
X59782053Y-82967947D03*
X69467947Y-64282053D03*
X68782053Y-64967947D03*
X60467947Y-50782053D03*
X59782053Y-51467947D03*
X78467947Y-66532053D03*
X77782053Y-67217947D03*
X69467947Y-93532053D03*
X68782053Y-94217947D03*
X51467947Y-93532053D03*
X50782053Y-94217947D03*
X76217947Y-91282053D03*
X75532053Y-91967947D03*
X80717947Y-75532053D03*
X80032053Y-76217947D03*
X89717947Y-91282053D03*
X89032053Y-91967947D03*
X73967947Y-50782053D03*
X73282053Y-51467947D03*
X67217947Y-73282053D03*
X66532053Y-73967947D03*
X55967947Y-77782053D03*
X55282053Y-78467947D03*
X87467947Y-84532053D03*
X86782053Y-85217947D03*
X76217947Y-55282053D03*
X75532053Y-55967947D03*
X58217947Y-57532053D03*
X57532053Y-58217947D03*
X58217947Y-68782053D03*
X57532053Y-69467947D03*
X85217947Y-55282053D03*
X84532053Y-55967947D03*
X87467947Y-82282053D03*
X86782053Y-82967947D03*
X71717947Y-53032053D03*
X71032053Y-53717947D03*
X91967947Y-62032053D03*
X91282053Y-62717947D03*
X87467947Y-91282053D03*
X86782053Y-91967947D03*
X94217947Y-84532053D03*
X93532053Y-85217947D03*
X91967947Y-89032053D03*
X91282053Y-89717947D03*
X55967947Y-55282053D03*
X55282053Y-55967947D03*
X62717947Y-89032053D03*
X62032053Y-89717947D03*
X60467947Y-73282053D03*
X59782053Y-73967947D03*
X80717947Y-53032053D03*
X80032053Y-53717947D03*
X73967947Y-80032053D03*
X73282053Y-80717947D03*
X64967947Y-66532053D03*
X64282053Y-67217947D03*
X73967947Y-86782053D03*
X73282053Y-87467947D03*
X58217947Y-75532053D03*
X57532053Y-76217947D03*
X73967947Y-84532053D03*
X73282053Y-85217947D03*
X67217947Y-50782053D03*
X66532053Y-51467947D03*
X82967947Y-66532053D03*
X82282053Y-67217947D03*
X87467947Y-62032053D03*
X86782053Y-62717947D03*
X82967947Y-80032053D03*
X82282053Y-80717947D03*
X64967947Y-93532053D03*
X64282053Y-94217947D03*
X73967947Y-64282053D03*
X73282053Y-64967947D03*
X64967947Y-91282053D03*
X64282053Y-91967947D03*
X80717947Y-91282053D03*
X80032053Y-91967947D03*
X82967947Y-62032053D03*
X82282053Y-62717947D03*
X55967947Y-89032053D03*
X55282053Y-89717947D03*
X91967947Y-93532053D03*
X91282053Y-94217947D03*
X89717947Y-73282053D03*
X89032053Y-73967947D03*
X69467947Y-53032053D03*
X68782053Y-53717947D03*
X58217947Y-62032053D03*
X57532053Y-62717947D03*
X78467947Y-80032053D03*
X77782053Y-80717947D03*
X80717947Y-77782053D03*
X80032053Y-78467947D03*
X53717947Y-93532053D03*
X53032053Y-94217947D03*
X73967947Y-53032053D03*
X73282053Y-53717947D03*
X73967947Y-73282053D03*
X73282053Y-73967947D03*
X80717947Y-73282053D03*
X80032053Y-73967947D03*
X94217947Y-77782053D03*
X93532053Y-78467947D03*
X67217947Y-77782053D03*
X66532053Y-78467947D03*
X73967947Y-77782053D03*
X73282053Y-78467947D03*
X53717947Y-55282053D03*
X53032053Y-55967947D03*
X87467947Y-77782053D03*
X86782053Y-78467947D03*
X62717947Y-86782053D03*
X62032053Y-87467947D03*
X51467947Y-66532053D03*
X50782053Y-67217947D03*
X58217947Y-91282053D03*
X57532053Y-91967947D03*
X67217947Y-80032053D03*
X66532053Y-80717947D03*
X60467947Y-75532053D03*
X59782053Y-76217947D03*
X60467947Y-64282053D03*
X59782053Y-64967947D03*
X82967947Y-86782053D03*
X82282053Y-87467947D03*
X82967947Y-84532053D03*
X82282053Y-85217947D03*
X62717947Y-50782053D03*
X62032053Y-51467947D03*
X71717947Y-75532053D03*
X71032053Y-76217947D03*
X89717947Y-50782053D03*
X89032053Y-51467947D03*
X69467947Y-77782053D03*
X68782053Y-78467947D03*
X67217947Y-53032053D03*
X66532053Y-53717947D03*
X64967947Y-77782053D03*
X64282053Y-78467947D03*
X62717947Y-84532053D03*
X62032053Y-85217947D03*
X76217947Y-62032053D03*
X75532053Y-62717947D03*
X91967947Y-55282053D03*
X91282053Y-55967947D03*
X76217947Y-66532053D03*
X75532053Y-67217947D03*
X82967947Y-93532053D03*
X82282053Y-94217947D03*
X85217947Y-53032053D03*
X84532053Y-53717947D03*
X82967947Y-50782053D03*
X82282053Y-51467947D03*
X94217947Y-89032053D03*
X93532053Y-89717947D03*
X60467947Y-80032053D03*
X59782053Y-80717947D03*
X76217947Y-50782053D03*
X75532053Y-51467947D03*
X53717947Y-80032053D03*
X53032053Y-80717947D03*
X89717947Y-80032053D03*
X89032053Y-80717947D03*
X60467947Y-91282053D03*
X59782053Y-91967947D03*
X78467947Y-64282053D03*
X77782053Y-64967947D03*
X62717947Y-82282053D03*
X62032053Y-82967947D03*
X62717947Y-75532053D03*
X62032053Y-76217947D03*
X69467947Y-71032053D03*
X68782053Y-71717947D03*
X51467947Y-53032053D03*
X50782053Y-53717947D03*
X69467947Y-66532053D03*
X68782053Y-67217947D03*
X85217947Y-77782053D03*
X84532053Y-78467947D03*
X76217947Y-93532053D03*
X75532053Y-94217947D03*
X94217947Y-55282053D03*
X93532053Y-55967947D03*
X78467947Y-73282053D03*
X77782053Y-73967947D03*
X89717947Y-86782053D03*
X89032053Y-87467947D03*
X80717947Y-84532053D03*
X80032053Y-85217947D03*
X67217947Y-93532053D03*
X66532053Y-94217947D03*
X85217947Y-80032053D03*
X84532053Y-80717947D03*
X89717947Y-68782053D03*
X89032053Y-69467947D03*
X94217947Y-57532053D03*
X93532053Y-58217947D03*
X89717947Y-82282053D03*
X89032053Y-82967947D03*
X80717947Y-86782053D03*
X80032053Y-87467947D03*
X80717947Y-59782053D03*
X80032053Y-60467947D03*
X80717947Y-62032053D03*
X80032053Y-62717947D03*
X55967947Y-73282053D03*
X55282053Y-73967947D03*
X69467947Y-91282053D03*
X68782053Y-91967947D03*
X67217947Y-71032053D03*
X66532053Y-71717947D03*
X51467947Y-86782053D03*
X50782053Y-87467947D03*
X53717947Y-68782053D03*
X53032053Y-69467947D03*
X64967947Y-86782053D03*
X64282053Y-87467947D03*
X94217947Y-91282053D03*
X93532053Y-91967947D03*
X58217947Y-50782053D03*
X57532053Y-51467947D03*
X89717947Y-59782053D03*
X89032053Y-60467947D03*
X69467947Y-89032053D03*
X68782053Y-89717947D03*
X80717947Y-64282053D03*
X80032053Y-64967947D03*
X91967947Y-71032053D03*
X91282053Y-71717947D03*
X78467947Y-77782053D03*
X77782053Y-78467947D03*
X67217947Y-62032053D03*
X66532053Y-62717947D03*
X73967947Y-59782053D03*
X73282053Y-60467947D03*
X91967947Y-86782053D03*
X91282053Y-87467947D03*
X53717947Y-73282053D03*
X53032053Y-73967947D03*
X80717947Y-82282053D03*
X80032053Y-82967947D03*
X64967947Y-68782053D03*
X64282053Y-69467947D03*
X67217947Y-68782053D03*
X66532053Y-69467947D03*
X91967947Y-80032053D03*
X91282053Y-80717947D03*
X64967947Y-62032053D03*
X64282053Y-62717947D03*
X51467947Y-64282053D03*
X50782053Y-64967947D03*
X69467947Y-86782053D03*
X68782053Y-87467947D03*
X64967947Y-50782053D03*
X64282053Y-51467947D03*
X69467947Y-82282053D03*
X68782053Y-82967947D03*
X73967947Y-91282053D03*
X73282053Y-91967947D03*
X73967947Y-66532053D03*
X73282053Y-67217947D03*
X78467947Y-89032053D03*
X77782053Y-89717947D03*
X85217947Y-62032053D03*
X84532053Y-62717947D03*
X78467947Y-91282053D03*
X77782053Y-91967947D03*
X55967947Y-91282053D03*
X55282053Y-91967947D03*
X87467947Y-89032053D03*
X86782053Y-89717947D03*
X53717947Y-91282053D03*
X53032053Y-91967947D03*
X89717947Y-77782053D03*
X89032053Y-78467947D03*
X87467947Y-59782053D03*
X86782053Y-60467947D03*
X67217947Y-66532053D03*
X66532053Y-67217947D03*
X91967947Y-53032053D03*
X91282053Y-53717947D03*
X80717947Y-89032053D03*
X80032053Y-89717947D03*
X89717947Y-93532053D03*
X89032053Y-94217947D03*
X87467947Y-66532053D03*
X86782053Y-67217947D03*
X58217947Y-77782053D03*
X57532053Y-78467947D03*
X55967947Y-80032053D03*
X55282053Y-80717947D03*
X80717947Y-66532053D03*
X80032053Y-67217947D03*
X78467947Y-86782053D03*
X77782053Y-87467947D03*
X55967947Y-82282053D03*
X55282053Y-82967947D03*
X76217947Y-89032053D03*
X75532053Y-89717947D03*
X62717947Y-64282053D03*
X62032053Y-64967947D03*
X58217947Y-66532053D03*
X57532053Y-67217947D03*
X89717947Y-64282053D03*
X89032053Y-64967947D03*
%LPD*%
M02*
